<?xml version="1.0" encoding="UTF-8" standalone="no"?>
<!-- Created with Inkscape (http://www.inkscape.org/) -->

<svg
   xmlns:dc="http://purl.org/dc/elements/1.1/"
   xmlns:cc="http://creativecommons.org/ns#"
   xmlns:rdf="http://www.w3.org/1999/02/22-rdf-syntax-ns#"
   xmlns:svg="http://www.w3.org/2000/svg"
   xmlns="http://www.w3.org/2000/svg"
   xmlns:sodipodi="http://sodipodi.sourceforge.net/DTD/sodipodi-0.dtd"
   xmlns:inkscape="http://www.inkscape.org/namespaces/inkscape"
   width="744.09448819"
   height="1052.3622047"
   id="svg5594"
   version="1.1"
   inkscape:version="0.48.5 r10040"
   sodipodi:docname="New document 28">
  <defs
     id="defs5596" />
  <sodipodi:namedview
     id="base"
     pagecolor="#ffffff"
     bordercolor="#666666"
     borderopacity="1.0"
     inkscape:pageopacity="0.0"
     inkscape:pageshadow="2"
     inkscape:zoom="1.4"
     inkscape:cx="313.84278"
     inkscape:cy="842.86463"
     inkscape:document-units="px"
     inkscape:current-layer="layer1"
     showgrid="false"
     inkscape:window-width="1451"
     inkscape:window-height="948"
     inkscape:window-x="105"
     inkscape:window-y="35"
     inkscape:window-maximized="0" />
  <metadata
     id="metadata5599">
    <rdf:RDF>
      <cc:Work
         rdf:about="">
        <dc:format>image/svg+xml</dc:format>
        <dc:type
           rdf:resource="http://purl.org/dc/dcmitype/StillImage" />
        <dc:title></dc:title>
      </cc:Work>
    </rdf:RDF>
  </metadata>
  <g
     inkscape:label="Layer 1"
     inkscape:groupmode="layer"
     id="layer1">
    <path
       style="fill:#000000;fill-opacity:1;fill-rule:nonzero;stroke:none"
       id="path5602"
       d="m 80.821187,58.240275 c 0.661689,2.634193 0.948033,5.339404 1.154764,8.041194 0.122625,2.324383 0.490474,4.625257 0.686465,6.944612 0.01921,1.997901 0.373709,3.959565 0.611563,5.936962 0.482642,1.9768 0.649633,4.002952 0.939768,6.01028 0.438968,2.706036 0.602707,5.44246 0.711197,8.178144 0.253495,2.448542 0.518503,4.893817 0.66352,7.351703 0.08226,2.4216 0.09296,4.83442 0.324092,7.24716 0.288295,2.52188 0.402251,5.05752 0.471224,7.59334 0.05059,2.26928 0.04948,4.53928 0.04992,6.80901 -0.05225,2.8582 0.0091,5.7063 0.194756,8.5582 0.282986,4.00468 0.739608,7.99199 0.981924,12.00063 0.189393,3.46561 0.23013,6.93661 0.250493,10.40655 0.0091,2.62115 0.0028,5.24232 3.03e-4,7.86347 0.01454,3.28664 0.346747,6.56333 0.511116,9.8457 0.148724,3.38805 0.179805,6.77961 0.19778,10.17039 0.01011,3.18957 0.006,6.37915 0.0043,9.56873 -0.0096,3.2212 0.340304,6.43043 0.511821,9.64555 0.172828,3.67303 0.183084,7.35105 0.19815,11.02732 0.0093,3.32941 0.0064,6.65883 0.0043,9.98824 -0.0018,2.24188 -0.0024,4.48377 -0.0028,6.72565 -2.22e-4,1.68075 -2.48e-4,3.36151 -2.43e-4,5.04226 4e-6,0.43275 8e-6,0.8655 2.8e-5,1.29825 -2e-6,0.0145 3e-6,0.0289 4e-6,0.0434 0.0011,3.03046 -4.284613,3.03202 -4.285714,0.002 l 0,0 c -10e-7,-0.0149 -7e-6,-0.0298 -4e-6,-0.0447 -2e-5,-0.43282 -2.4e-5,-0.86564 -2.8e-5,-1.29847 -5e-6,-1.68098 2.1e-5,-3.36197 2.42e-4,-5.04296 3.6e-4,-2.24257 0.001,-4.48514 0.0028,-6.7277 0.0021,-3.32265 0.005,-6.64531 -0.0043,-9.96796 -0.01474,-3.60616 -0.02399,-7.21404 -0.192128,-10.81707 -0.174794,-3.2917 -0.534604,-6.57722 -0.517879,-9.87558 0.0017,-3.18127 0.0058,-6.36255 -0.0043,-9.54381 -0.01758,-3.32697 -0.04749,-6.6547 -0.192491,-9.97903 -0.167524,-3.35499 -0.508857,-6.70403 -0.516462,-10.06388 0.0025,-2.61141 0.0087,-5.22283 -2.31e-4,-7.83424 -0.01982,-3.39228 -0.05869,-6.78562 -0.2428,-10.17372 -0.240614,-4.00202 -0.702566,-7.98222 -0.98067,-11.98063 -0.19098,-2.94412 -0.2572,-5.88486 -0.203777,-8.83531 -4.22e-4,-2.23132 8.62e-4,-4.46291 -0.04835,-6.69382 -0.06572,-2.43863 -0.17453,-4.87708 -0.453407,-7.30216 -0.23445,-2.46507 -0.263058,-4.92933 -0.336122,-7.40333 -0.144936,-2.485394 -0.430384,-4.955955 -0.667537,-7.433546 -0.101879,-2.58959 -0.253243,-5.18015 -0.671488,-7.741389 -0.288416,-2.040629 -0.479784,-4.093844 -0.95231,-6.105756 -0.242447,-2.027101 -0.602782,-4.0403 -0.626963,-6.087873 -0.195434,-2.330718 -0.570268,-4.642544 -0.689207,-6.978827 -0.186334,-2.461165 -0.438736,-4.926901 -1.039168,-7.327076 -0.734994,-2.939975 3.422759,-3.979414 4.157753,-1.039438 z"
       inkscape:connector-curvature="0" />
    <path
       style="fill:#000000;fill-opacity:1;fill-rule:nonzero;stroke:none"
       id="path5604"
       d="m 77.857143,41.531696 c 0.09495,1.914671 -0.08022,3.802517 -0.343996,5.695468 -0.08455,1.508567 -0.514037,2.951485 -0.824291,4.419651 -0.166993,0.743396 -0.224979,1.503026 -0.257472,2.262185 -0.0136,0.335132 -0.01029,0.670604 -0.0074,1.005904 6.09e-4,0.08327 0.002,0.166527 0.0035,0.249781 -2.944271,-2.548625 -2.487416,-2.088491 -0.698344,-2.089274 0.814896,0.04425 0.728048,-0.006 1.441467,-0.284766 0.775754,-0.196699 1.42041,-0.516125 2.20795,-0.760118 0.726281,-0.220801 1.477681,-0.318729 2.232316,-0.371948 0.507897,-0.02698 0.960939,-0.06888 -1.029089,0.436497 -0.398065,0.10109 0.455177,-0.356084 0.74728,-0.566201 0.112214,-0.08048 0.225358,-0.159651 0.3399,-0.236781 0.01078,-0.007 0.02157,-0.01405 0.03235,-0.02108 -0.327775,0.542289 -0.618873,1.108514 -0.983325,1.626866 -0.08915,0.126794 0.0073,-0.619773 -7.72e-4,-0.464988 -0.01864,0.356262 0.04533,0.44085 -0.106325,-0.03968 -0.362391,-0.878737 -0.820356,-1.678299 -1.467252,-2.379944 -0.574168,-0.780544 -1.361505,-1.359737 -2.086557,-1.990817 -0.575552,-0.501192 -1.147589,-1.000263 -1.619877,-1.60361 -0.438969,-0.560782 -0.157624,-0.357749 -0.400982,-0.522781 -0.358149,-0.460042 -0.819859,-0.799046 -1.265196,-1.172179 -0.210998,0.08753 -1.35313,-1.934698 -0.915118,-1.10192 0.108244,0.08268 0.282194,0.107234 0.419666,0.134582 -2.998811,-0.43681 -2.381068,-4.67777 0.617743,-4.24096 l 0,0 c 0.451637,0.0851 0.876422,0.244983 1.266472,0.492588 0.531304,0.35624 1.163752,0.832045 1.363677,1.430681 0.603487,0.505651 1.18272,1.020024 1.697457,1.589277 0.526474,0.621434 0.970829,1.281636 1.651107,1.762696 0.876694,0.764315 1.811896,1.482547 2.514617,2.420616 0.983471,1.173059 1.801372,2.446607 2.313429,3.898841 0.529491,1.695491 0.322876,2.074679 -0.660837,3.752395 -0.04708,0.03238 -0.150417,0.103647 -0.208854,0.146235 -0.572046,0.410765 -1.187973,0.910032 -1.925612,0.925284 -0.440468,0.02905 -0.879076,0.07226 -1.303056,0.203782 -0.642354,0.173723 -1.229026,0.515461 -1.883,0.648993 -0.960427,0.369826 -1.944027,0.666339 -2.987723,0.574146 -1.891079,8.12e-4 -1.537285,0.09815 -3.587775,-2.084809 -0.0022,-0.108202 -0.004,-0.216413 -0.0048,-0.324637 -0.0035,-0.410009 -0.0061,-0.820206 0.01133,-1.229974 0.04438,-0.99731 0.131171,-1.994097 0.348066,-2.970793 0.295021,-1.367779 0.700296,-2.707458 0.770664,-4.115578 0.236947,-1.698326 0.400949,-3.384293 0.302935,-5.103638 0,-3.030457 4.285714,-3.030457 4.285714,0 z"
       inkscape:connector-curvature="0" />
    <path
       style="fill:#000000;fill-opacity:1;fill-rule:nonzero;stroke:none"
       id="path5606"
       d="m 88.043989,235.3263 c 2.317663,0.30319 4.651967,0.43511 6.985939,0.52868 1.761616,0.0642 3.524367,0.0795 5.286962,0.0834 1.84975,0.1024 3.67099,-0.0955 5.50326,-0.31188 2.26073,-0.25946 4.53632,-0.33333 6.80953,-0.38302 2.16006,-0.0338 4.32049,-0.0297 6.48074,-0.0288 2.32332,0.0937 4.62905,-0.21998 6.93886,-0.41843 2.40843,-0.12411 4.80879,-0.38559 7.18941,-0.77054 2.61308,-0.47047 5.25803,-0.70827 7.90626,-0.85978 1.87953,-0.0893 3.73395,-0.43492 5.60864,-0.60718 2.37538,-0.20679 4.73673,-0.52916 7.11641,-0.7088 2.34417,-0.38283 4.71847,-0.52914 7.06856,-0.85449 2.46566,-0.43645 4.96242,-0.60045 7.46047,-0.70024 2.33183,-0.073 4.66498,-0.0811 6.99775,-0.083 2.24975,0.10412 4.47943,-0.11972 6.71714,-0.31023 2.95075,-0.24945 5.91163,-0.3244 8.87123,-0.37303 2.36988,-0.0324 4.74003,-0.0293 7.11007,-0.0285 3.06085,0.22331 6.11879,0.46001 9.18558,0.59072 2.69603,0.25785 5.38465,0.5671 8.08947,0.71942 2.45517,0.11448 4.89032,0.46944 7.34165,0.6518 2.40689,0.18131 4.82278,0.0991 7.22828,0.2785 2.37857,0.26422 4.76334,0.44739 7.15422,0.54582 2.07402,0.23707 4.13484,0.53235 6.219,0.66995 2.4525,0.0839 4.89629,0.10452 7.34069,0.33745 2.37695,0.25909 4.76437,0.3851 7.15346,0.45356 2.56582,0.0532 5.13241,0.0478 7.69865,0.0482 3.03204,-0.001 6.06407,-0.003 9.0961,-0.004 2.56613,-8.1e-4 5.13225,-9.5e-4 7.69837,-0.001 2.72175,-4e-5 5.4435,-1e-5 8.16525,0 2.82375,1e-5 5.64751,1e-5 8.47126,1e-5 2.67612,0 5.35224,0 8.02836,0 2.51153,-0.17316 5.01368,-0.44234 7.52788,-0.58158 2.6773,-0.12148 5.35802,-0.12697 8.03751,-0.13566 2.15291,-0.004 4.30581,-9.9e-4 6.45871,7.5e-4 2.05073,0.002 4.10145,0.002 6.15218,0.002 2.37296,1.7e-4 4.74593,1.4e-4 7.11889,1.3e-4 1.71531,0.0992 3.39897,0.45049 5.11002,0.59249 1.69895,0.11085 3.40269,0.11622 5.10459,0.12476 1.61525,-0.0338 3.1991,0.34252 4.79633,0.53201 1.71213,0.15522 3.43319,0.16398 5.15098,0.17817 1.69895,0.009 3.39793,0.006 5.09689,0.004 1.77389,-0.002 3.54778,-0.002 5.32167,-0.003 1.98168,0.10622 3.93812,-0.214 5.90219,-0.41894 2.00779,-0.19331 4.02451,-0.25141 6.04017,-0.28577 1.75116,0.0819 3.47397,-0.12204 5.20869,-0.32286 1.74316,-0.20889 3.49564,-0.31686 5.24954,-0.37676 1.49654,-0.0375 2.99376,-0.0298 4.49064,-0.029 1.54615,0.001 3.0923,0.003 4.63844,0.004 0.91607,5.7e-4 1.83213,6.4e-4 2.74819,6.8e-4 0.9292,1e-5 1.85839,-1e-5 2.78759,-2e-5 0.37538,-1e-5 0.75076,-1e-5 1.12614,-1e-5 0.12816,0 0.25632,0 0.38448,0 0.004,0 0.007,0 0.0109,0 3.03046,1e-5 3.03044,4.28572 -10e-6,4.28571 l 0,0 c -0.004,0 -0.007,0 -0.0109,0 -0.12815,0 -0.2563,0 -0.38445,0 -0.37537,0 -0.75074,1e-5 -1.1261,1e-5 -0.92927,2e-5 -1.85854,3e-5 -2.78781,2e-5 -0.91696,-3e-5 -1.83391,-1.1e-4 -2.75086,-6.8e-4 -1.54594,-0.001 -3.09189,-0.003 -4.63783,-0.004 -1.44773,-7.5e-4 -2.89579,-0.008 -4.34322,0.0266 -1.63777,0.0551 -3.27421,0.15559 -4.90189,0.35079 -1.87272,0.21679 -3.73938,0.42641 -5.62883,0.35068 -1.89157,0.0319 -3.7842,0.0842 -5.6686,0.26329 -2.11075,0.21974 -4.2163,0.54912 -6.34573,0.44204 -1.77259,3.1e-4 -3.54519,6.5e-4 -5.31778,0.003 -1.71238,0.002 -3.42477,0.005 -5.13714,-0.004 -1.87587,-0.0157 -3.75551,-0.0276 -5.62436,-0.20836 -1.43567,-0.17295 -2.86033,-0.51016 -4.30894,-0.50173 -1.81567,-0.009 -3.63338,-0.0162 -5.44562,-0.14008 -1.59043,-0.13759 -3.15966,-0.41869 -4.74736,-0.57712 -2.37312,1e-5 -4.74624,4e-5 -7.11937,-1.2e-4 -2.05172,-2.2e-4 -4.10345,-4.9e-4 -6.15517,-0.002 -2.14713,-0.002 -4.29426,-0.005 -6.44138,-7.7e-4 -2.60547,0.008 -5.21212,0.0131 -7.81553,0.12918 -2.59277,0.14218 -5.17173,0.43884 -7.76374,0.58809 -2.67612,0 -5.35224,0 -8.02836,0 -2.82376,-1e-5 -5.64752,-1e-5 -8.47128,-2e-5 -2.7217,-1e-5 -5.44341,-4e-5 -8.16511,0 -2.56568,7e-5 -5.13135,2.1e-4 -7.69703,0.001 -3.03274,0.001 -6.06547,0.003 -9.0982,0.004 -2.60717,-4e-4 -5.2147,0.005 -7.82143,-0.05 -2.48432,-0.0719 -4.96695,-0.20283 -7.43876,-0.47131 -2.40261,-0.23152 -4.80579,-0.23097 -7.21634,-0.32736 -2.04803,-0.13709 -4.07742,-0.39878 -6.11193,-0.66417 -2.4431,-0.1017 -4.88065,-0.28347 -7.3111,-0.55521 -2.39805,-0.19864 -4.81372,-0.0684 -7.21349,-0.27736 -2.42568,-0.18205 -4.83578,-0.52804 -7.26464,-0.64674 -2.68479,-0.15292 -5.35541,-0.44327 -8.03001,-0.71647 -3.00619,-0.12873 -6.00537,-0.34395 -9.00422,-0.58682 -2.34609,-8.5e-4 -4.69231,-0.004 -7.03825,0.0279 -2.86172,0.0468 -5.72477,0.11753 -8.578,0.35817 -2.35677,0.20058 -4.70812,0.42691 -7.07714,0.32567 -2.27728,0.002 -4.55493,0.009 -6.83133,0.0797 -2.36196,0.093 -4.72214,0.24758 -7.05288,0.66453 -2.43684,0.3264 -4.89299,0.50348 -7.32446,0.88149 -2.35687,0.17678 -4.69518,0.49967 -7.04808,0.70311 -1.92321,0.17458 -3.82501,0.53768 -5.75494,0.61803 -2.50335,0.14181 -5.00359,0.36582 -7.47328,0.81296 -2.48441,0.39331 -4.9865,0.68214 -7.49936,0.80857 -2.43198,0.20872 -4.86107,0.52914 -7.30727,0.43414 -2.12857,-8.7e-4 -4.25731,-0.005 -6.38569,0.0277 -2.13646,0.0463 -4.27538,0.11246 -6.40032,0.35448 -2.00098,0.23623 -3.99639,0.44003 -6.01533,0.34143 -1.816839,-0.004 -3.633836,-0.0203 -5.44965,-0.0868 -2.479078,-0.10003 -4.958449,-0.24276 -7.419782,-0.56829 -3,-0.42857 -2.393909,-4.67121 0.606091,-4.24264 z"
       inkscape:connector-curvature="0" />
    <path
       style="fill:#000000;fill-opacity:1;fill-rule:nonzero;stroke:none"
       id="path5612"
       d="m 417.92105,226.94294 c 0.24578,1.82849 0.43576,3.66432 0.56482,5.50468 0.0781,1.2016 0.0867,2.40574 0.0903,3.60935 8.4e-4,1.27743 -0.002,2.55487 -0.003,3.8323 -5.2e-4,0.58543 -0.001,1.17086 -0.002,1.7563 -8e-5,0.48211 -6e-5,0.96422 -4e-5,1.44633 0,0.22102 10e-6,0.44203 2e-5,0.66305 -1.75576,-2.14648 -2.47441,-2.0791 -1.31583,-2.09485 -0.18411,0.0663 0.77792,-0.0499 0.58699,-0.007 -1.25443,0.28131 -0.57855,0.059 -0.26855,-0.0976 0.64642,-0.5801 1.37942,-1.04723 2.09603,-1.53394 0.97933,-0.5993 2.01026,-1.09996 3.01646,-1.64993 0.9995,-0.52767 1.99351,-1.05802 3.03246,-1.51524 0.99589,-0.65392 2.1309,-1.02408 3.21607,-1.49555 0.83989,-0.21952 1.5659,-0.6224 2.33014,-1.01508 0.19804,-0.10177 0.39574,-0.20417 0.59308,-0.30728 -0.98512,1.23974 -1.11253,2.50144 -1.13876,1.40705 1.40824,2.49498 0.21712,1.00453 -0.44917,0.28525 -0.78736,-0.8367 -1.5962,-1.65277 -2.40498,-2.46866 -0.89836,-0.76571 -1.80103,-1.53076 -2.64468,-2.35759 -0.72527,-0.51313 -1.26575,-1.23203 -1.92947,-1.8097 -0.53693,-0.49684 -1.1132,-0.90361 -1.68208,-1.32788 -0.39103,-0.39327 -0.36604,-0.31065 -0.73869,-0.38548 -0.24521,-0.0346 -0.49724,-0.0285 -0.74538,-0.0283 -0.38944,0.003 -0.77887,0.006 -1.16832,0.007 -0.61494,0.002 -1.22989,0.002 -1.84483,0.002 -0.21289,4e-5 -0.42578,3e-5 -0.63867,0 -3.03045,-6.3e-4 -3.02957,-4.28634 8.9e-4,-4.28571 l 0,0 c 0.21231,3e-5 0.42462,3e-5 0.63693,-1e-5 0.61049,-1.2e-4 1.22099,-1.1e-4 1.83149,-0.002 0.39471,-0.001 0.78939,-0.005 1.18408,-0.007 0.5604,7.5e-4 1.12547,0.0111 1.67543,0.13074 0.90244,0.20866 1.79426,0.53618 2.46406,1.20602 0.42591,0.51612 1.52372,0.96947 1.95385,1.56173 0.67286,0.64777 1.29335,1.33557 2.03458,1.91151 0.81729,0.85769 1.79016,1.55858 2.65452,2.36748 0.84312,0.85057 1.68615,1.70147 2.50626,2.57438 0.74366,0.80378 1.1877,1.32562 1.58867,2.52354 0.0222,0.92714 -0.208,1.91137 -1.14969,2.4881 -0.20966,0.1099 -0.42008,0.21835 -0.63051,0.32676 -0.83787,0.43049 -1.66877,0.88299 -2.58213,1.13435 -1.0864,0.4712 -2.20587,0.84926 -3.20994,1.49288 -0.92688,0.39878 -1.80784,0.8683 -2.69201,1.34853 -0.88568,0.48278 -1.78968,0.92587 -2.66173,1.43336 -0.87149,0.5919 -1.70415,1.2239 -2.57369,1.81504 -0.68312,0.34414 -1.41462,0.62094 -2.19191,0.56363 -1.61726,0.021 -1.55722,-0.20709 -3.02669,-2.19032 -10e-6,-0.22104 -10e-6,-0.44208 -2e-5,-0.66312 -10e-6,-0.48268 -4e-5,-0.96537 5e-5,-1.44806 2.2e-4,-0.58649 0.001,-1.17297 0.002,-1.75946 0.001,-1.27158 0.004,-2.54316 0.003,-3.81474 -0.003,-1.10838 -0.009,-2.21728 -0.0799,-3.32389 -0.12049,-1.7375 -0.30198,-3.47044 -0.53214,-5.19682 -0.42857,-3 3.81407,-3.60609 4.24264,-0.60609 z"
       inkscape:connector-curvature="0" />
    <path
       style="fill:#000000;fill-opacity:1;fill-rule:nonzero;stroke:none"
       id="path5632"
       d="m 78.495561,30.365728 c -0.56999,-0.0443 -1.10717,0.0165 -1.65286,0.16962 -0.30064,0.11063 -0.58574,0.32311 -0.77171,0.58698 -0.12972,0.21223 -0.19157,0.47195 -0.2537,0.71698 -0.0693,0.33176 -0.0886,0.67145 -0.10465,1.00924 -0.001,0.029 0.002,0.11561 -0.003,0.0871 -0.0244,-0.13234 -0.0138,-0.27177 -0.0546,-0.40002 -0.11135,-0.35012 -0.39253,-0.49337 -0.70905,-0.59574 -0.0103,-0.002 -0.037,0.003 -0.0309,-0.006 0.006,-0.008 0.52588,-0.006 0.6784,-0.007 0.52267,0.0507 1.03542,0.15964 1.5587,0.20732 0.42623,0.0324 0.85389,0.0382 1.28116,0.0417 0.12966,8.5e-4 0.25933,8.3e-4 0.389,5.8e-4 0.031,-7e-5 0.12332,-0.007 0.093,-2.7e-4 -0.52649,0.11418 -0.21281,-0.0274 -0.59301,0.18398 -0.18722,0.12843 0.35462,-0.25228 0.27284,-0.18023 -0.063,0.0556 -0.12101,0.16417 -0.20358,0.14862 -0.12713,-0.0239 0.18958,-0.17613 0.28195,-0.26671 1.0734,-1.19612 2.76497,0.32191 1.69156,1.51803 l 0,0 c -0.004,0.004 -0.72631,0.73769 -0.60457,0.54023 -0.50058,0.31964 -0.80013,0.35169 -1.34624,0.32853 -0.49131,-0.004 -0.98307,-0.0118 -1.47304,-0.0514 -0.44575,-0.0423 -0.89416,-0.0938 -1.33002,-0.19757 -0.32833,0.003 -0.65804,0.0175 -0.98552,-0.01 -0.74241,-0.19418 -1.21556,-0.59182 -1.18314,-1.45117 0.0244,-0.49835 0.0608,-0.99881 0.17876,-1.48521 0.15341,-0.56007 0.33251,-1.12866 0.70388,-1.58651 0.52103,-0.5977 1.13871,-1.09508 1.91316,-1.32275 0.84726,-0.23088 1.70131,-0.31546 2.57874,-0.22863 1.59099,0.22729 1.26956,2.47729 -0.32143,2.25 z"
       inkscape:connector-curvature="0" />
    <path
       style="fill:#000000;fill-opacity:1;fill-rule:nonzero;stroke:none"
       id="path5634"
       d="m 83.201961,30.407358 c -0.51351,0.0615 -1.0279,0.16589 -1.46656,0.44868 -0.16204,0.0932 -0.23088,0.14872 -0.21353,0.3007 -0.0201,0.25289 -0.0166,0.50662 -0.013,0.76003 -0.0331,0.28471 0.12753,0.39149 -0.0527,-0.0883 -0.0935,-0.24898 -0.1619,-0.28298 -0.32883,-0.42997 -0.0114,-0.01 -0.0455,-0.0196 -0.0343,-0.0298 0.05,-0.0453 0.13457,0.0111 0.20189,0.0162 0.20729,0.0155 0.41393,0.024 0.62169,0.0298 0.34716,-0.0181 0.7103,0.0607 1.04577,-0.0365 0.2433,-0.14427 0.57363,-0.30431 0.83894,-0.47817 0.2135,-0.23347 0.47211,-0.41562 0.7137,-0.61684 0.0206,-0.0172 -0.0442,0.0303 -0.0663,0.0455 -0.1143,0.0677 -0.14986,0.40216 -0.14525,0.14429 -0.007,0.37762 -0.0779,0.0775 -0.25985,-0.0846 -0.32066,7.8e-4 -0.64466,-0.48804 -0.81003,-0.7241 -0.75711,-1.41763 1.24772,-2.48836 2.00484,-1.07072 l 0,0 c -0.0546,-0.0645 -0.10576,-0.1321 -0.16384,-0.1935 -0.0453,-0.0479 -0.23308,-0.12283 -0.17331,-0.0951 0.25038,0.11616 0.49145,0.24383 0.70041,0.42865 0.51466,0.49515 0.94482,1.07188 0.97336,1.81513 -0.0193,0.48483 -0.1136,0.95397 -0.45621,1.32158 -0.34488,0.33449 -0.72603,0.6317 -1.0913,0.94348 -0.48675,0.30769 -0.99536,0.58976 -1.54212,0.7763 -0.54054,0.11923 -1.08326,0.11792 -1.63459,0.0965 -0.60265,-0.0179 -1.22049,-0.0287 -1.78146,-0.27653 -0.61497,-0.40854 -0.84729,-0.71986 -0.83303,-1.46088 -0.006,-0.4238 -0.01,-0.84993 0.0633,-1.26914 0.18801,-0.76037 0.58837,-1.3799 1.28116,-1.78167 0.80729,-0.45789 1.69032,-0.71775 2.62122,-0.76383 1.60715,0 1.60715,2.27284 0,2.27284 z"
       inkscape:connector-curvature="0" />
    <path
       style="fill:#000000;fill-opacity:1;fill-rule:nonzero;stroke:none"
       id="path5636"
       d="m 87.596991,28.665118 c 0.14998,0.57794 0.29904,1.15118 0.48776,1.71775 0.0981,0.42174 0.26179,0.81802 0.36814,1.23782 0.0559,0.25249 0.10113,0.5075 0.13012,0.76451 0.0832,0.88273 -0.26947,0.27862 -2.26571,0.0836 -0.0295,-0.003 0.0105,-0.25454 0.0468,-0.53765 0.10563,-0.56657 0.29957,-1.10817 0.52951,-1.63478 0.27716,-0.71908 0.70033,-1.34768 1.22993,-1.90225 0.2292,-0.19752 0.43356,-0.435 0.68263,-0.60977 0.23276,-0.16332 0.36945,-0.20441 0.23957,-0.163 0.35375,-0.33845 0.85737,-0.30566 1.27668,-0.4681 0.43265,-0.12646 0.87863,-0.19944 1.32591,-0.24936 0.6411,-0.0244 1.15406,0.22983 1.6261,0.63797 0.29095,0.2147 0.54239,0.46323 0.75762,0.75388 0.28847,0.4463 0.34347,0.96742 0.36707,1.48426 0.007,0.19508 0.004,0.39027 0.002,0.58541 -0.005,0.11521 0.0378,0.18381 0.11074,0.37867 0.006,0.0203 0.0165,0.0393 0.0246,0.0588 0.654,1.46805 -1.42214,2.39295 -2.07615,0.9249 l 0,0 c -0.0288,-0.0656 -0.0568,-0.1315 -0.0815,-0.19875 -0.13829,-0.3791 -0.26233,-0.77399 -0.25049,-1.18243 0.001,-0.15723 0.005,-0.31451 -2.8e-4,-0.47172 -0.003,-0.0882 -0.0846,-0.48151 0.0505,-0.26335 -0.0233,-0.0482 -0.35208,-0.3245 -0.48723,-0.4386 0.19677,0.10972 -0.0521,-0.0268 -0.0301,-0.0266 0.73893,0.006 -0.32161,0.0941 0.2303,0.0174 -0.3324,0.0336 -0.66342,0.0914 -0.98418,0.18581 -0.0476,0.0116 -0.47033,0.1232 -0.49356,0.0867 -0.20081,0.14075 -0.37125,0.25184 -0.65932,0.54068 -0.35437,0.35473 -0.60766,0.77403 -0.78511,1.24472 -0.16636,0.36065 -0.29485,0.73669 -0.37126,1.12662 -0.0291,-0.17657 0.0119,0.0521 -0.009,0.0549 -2.17025,0.28269 -2.31219,-0.49976 -2.26538,0.23072 -0.0186,-0.15994 -0.0461,-0.31874 -0.0795,-0.47628 -0.079,-0.35952 -0.24476,-0.69459 -0.31612,-1.05683 -0.19869,-0.59732 -0.35977,-1.20193 -0.51663,-1.81116 -0.44152,-1.54531 1.74387,-2.16971 2.18539,-0.6244 z"
       inkscape:connector-curvature="0" />
    <path
       style="fill:#000000;fill-opacity:1;fill-rule:nonzero;stroke:none"
       id="path5638"
       d="m 95.678211,26.644808 c 0.21463,0.75936 0.32099,1.54146 0.48007,2.31296 0.14347,0.64913 0.2125,1.30956 0.24645,1.97237 -0.0104,0.2005 0.0156,0.38876 0.1019,0.56832 -0.002,-0.005 -0.004,-0.0108 -0.006,-0.0162 -0.67516,0.003 -1.35047,-0.005 -2.02548,0.009 -0.038,8.2e-4 -0.0558,0.28089 -0.0602,0.17551 -0.007,-0.58794 0.18592,-1.15565 0.39197,-1.69821 0.2382,-0.64203 0.67335,-1.16653 1.12254,-1.67088 0.36646,-0.4208 0.76744,-0.79966 1.233,-1.10782 0.4691,-0.21666 0.23331,-0.17535 0.80077,-0.41221 0.331,-0.11119 0.67977,-0.1432 1.02644,-0.15697 0.35217,-0.0262 0.69418,0.0187 1.029199,0.13427 0.5851,0.22665 1.01507,0.63558 1.3584,1.14916 0.27041,0.49076 0.32642,1.03265 0.34712,1.5812 0.0912,0.23896 0.0542,0.18844 0.19167,0.40002 0.22062,0.36404 0.37273,0.75985 0.48738,1.16816 0.022,0.0791 0.0392,0.15922 0.0554,0.23962 0.30551,1.57784 -1.92589,2.0099 -2.2314,0.43207 l 0,0 c -0.005,-0.0213 -0.006,-0.0445 -0.0143,-0.0649 -0.0577,-0.2138 -0.13032,-0.41971 -0.248129,-0.60916 -0.2676,-0.4614 -0.46897,-0.94587 -0.51195,-1.48416 -0.005,-0.14337 -0.0281,-0.38046 -0.0171,-0.48088 -0.0181,-0.038 -0.0739,-0.14707 -0.17657,-0.18894 -0.10931,-0.0418 -0.14918,-0.0503 0.15576,-0.007 0.0419,0.006 -0.31466,-0.004 -0.33995,0.002 -0.11651,0.004 -0.23354,0.0103 -0.34862,0.0266 0.38066,-0.24273 -0.62209,0.39165 -0.26789,0.14394 0.0172,-0.012 -0.0365,0.0208 -0.0547,0.0313 -0.30303,0.19111 -0.53887,0.45371 -0.77907,0.71773 -0.26939,0.3008 -0.55524,0.59945 -0.70067,0.98355 -0.11337,0.27607 -0.23379,0.59887 -0.23653,0.84883 0.001,0.83247 -0.82647,2.90945 -2.25688,0.77963 -0.18752,-0.43596 -0.29931,-0.9027 -0.29586,-1.37969 -0.0267,-0.547 -0.0827,-1.09186 -0.2025,-1.62731 -0.14752,-0.71597 -0.24746,-1.44116 -0.43941,-2.14738 -0.44152,-1.5453 1.74387,-2.1697 2.18539,-0.6244 z"
       inkscape:connector-curvature="0" />
    <path
       style="fill:#000000;fill-opacity:1;fill-rule:nonzero;stroke:none"
       id="path5640"
       d="m 102.45886,29.073938 c 0.33472,-0.48511 0.65227,-0.98651 0.88967,-1.52719 0.0312,-0.0798 0.0936,-0.23296 0.12029,-0.32177 0.0131,-0.0438 0.0302,-0.1802 0.0243,-0.13489 -0.0321,0.24704 -0.0324,0.13326 -0.027,0.27559 0.0913,0.25802 -0.11155,-0.0879 -0.18102,-0.15077 -0.01,-0.008 -0.0405,-0.0332 -0.03,-0.0253 0.34133,0.25593 0.67787,0.26787 1.07869,0.0855 -0.19676,0.17342 -0.40684,0.38147 -0.50288,0.63263 -0.0888,0.20396 -0.078,0.43848 -0.0866,0.65716 0.018,0.34777 -0.0653,0.71392 0.0365,1.05065 0.10265,0.008 -0.16997,-0.14086 -0.0138,-0.0862 0.0851,0.0298 0.23643,0.26145 0.30113,0.33178 0.21736,0.23326 0.46176,0.43346 0.68224,0.66675 -0.0992,-0.15425 -0.28707,-0.12157 -0.48619,-0.13561 0.31303,-0.0759 0.60451,-0.21643 0.90083,-0.34103 0.52435,-0.23557 1.0728,-0.41851 1.59159,-0.66623 0.29237,-0.13068 0.6008,-0.2159 0.90173,-0.32338 1.51508,-0.53615 2.27331,1.60648 0.75824,2.14264 l 0,0 c -0.23368,0.0821 -0.46981,0.15359 -0.7012,0.24147 -0.54914,0.25154 -1.11612,0.4619 -1.67062,0.70118 -0.44461,0.18628 -0.88753,0.38236 -1.36254,0.47942 -0.75946,0.0216 -1.01978,-0.0369 -1.58732,-0.54115 -0.22408,-0.23993 -0.48422,-0.43888 -0.70044,-0.68634 -0.34446,-0.3753 -0.69642,-0.74871 -0.8254,-1.25966 -0.12102,-0.55246 -0.1199,-1.1083 -0.0955,-1.67155 0.0252,-0.55626 0.0784,-1.11488 0.34475,-1.616 0.24844,-0.44729 0.54753,-0.88495 0.94208,-1.21674 0.69474,-0.59599 1.41065,-0.68976 2.10123,-0.0572 0.34218,0.33566 0.61497,0.72199 0.79169,1.16994 0.14134,0.61775 0.0335,1.16851 -0.2336,1.73495 -0.35984,0.7829 -0.80154,1.53515 -1.35375,2.19847 -1.13642,1.13642 -2.74356,-0.47073 -1.60714,-1.60715 z"
       inkscape:connector-curvature="0" />
    <path
       style="fill:#000000;fill-opacity:1;fill-rule:nonzero;stroke:none"
       id="path5642"
       d="m 109.97101,28.639588 c -0.45269,0.032 -0.86502,0.2288 -1.20704,0.52066 -0.1651,0.22058 -0.35746,0.43866 -0.43385,0.70904 -0.008,0.0288 -0.0306,0.11551 -0.0238,0.0864 0.0648,-0.27571 0.0417,-0.42696 0.009,-0.49768 0.23233,0.28121 0.46944,0.55807 0.7173,0.82571 0.0296,-0.011 0.11704,0.16285 0.18642,0.15667 0.0366,-0.003 -0.16719,-0.0672 0.0102,-0.0426 0.25018,0.0339 0.48571,0.008 0.7293,-0.0381 0.34704,-0.10031 0.7433,-0.16478 1.06886,-0.32531 0.29494,-0.091 0.54971,-0.24848 0.80711,-0.40945 0.0956,-0.12358 0.23114,-0.20266 0.33071,-0.32246 1.07119,-1.1981 2.76557,0.3168 1.69437,1.5149 l 0,0 c -0.24874,0.27217 -0.52779,0.51412 -0.82222,0.73601 -0.3804,0.23649 -0.76785,0.45886 -1.19475,0.60262 -0.48087,0.17301 -0.97473,0.3322 -1.47389,0.43921 -0.52819,0.0946 -1.05866,0.12381 -1.59014,0.0303 -0.55328,-0.12057 -1.04369,-0.35848 -1.41501,-0.79902 -0.25201,-0.27305 -0.49753,-0.55197 -0.73125,-0.84093 -0.4545,-0.56239 -0.71358,-1.20449 -0.42684,-1.92285 0.26172,-0.64928 0.64157,-1.23056 1.16767,-1.6999 0.76826,-0.57142 1.62236,-0.97448 2.59814,-0.9961 1.60714,0 1.60714,2.27284 0,2.27284 z"
       inkscape:connector-curvature="0" />
    <path
       style="fill:#000000;fill-opacity:1;fill-rule:nonzero;stroke:none"
       id="path5644"
       d="m 115.35949,23.421478 c -0.0147,0.88355 -0.12393,1.76341 -0.1858,2.64499 -0.0897,0.56379 0.0517,1.08345 0.19341,1.61985 0.19053,0.34447 0.26551,0.7353 0.40645,1.0981 0.0937,0.27307 0.18251,0.54779 0.26795,0.82355 0.0547,0.15938 0.077,0.3283 0.0784,0.49665 -3.1e-4,0.12594 -0.001,0.25188 -0.002,0.37781 -1.3e-4,0.0178 -3e-4,0.0356 -4.6e-4,0.0533 -0.0149,1.60708 -2.28765,1.586 -2.27275,-0.0211 l 0,0 c 1.6e-4,-0.0168 3.1e-4,-0.0336 4.4e-4,-0.0504 9.4e-4,-0.11722 0.002,-0.23445 0.002,-0.35168 0.0896,0.48971 0.0638,0.29279 0.0233,0.16773 -0.0761,-0.24601 -0.15543,-0.49107 -0.23846,-0.73485 -0.14702,-0.42915 -0.28181,-0.86111 -0.46231,-1.27876 -0.2046,-0.77466 -0.36673,-1.55187 -0.26317,-2.35966 0.0584,-0.82857 0.15978,-1.65579 0.18021,-2.48559 0,-1.60714 2.27284,-1.60714 2.27284,0 z"
       inkscape:connector-curvature="0" />
    <path
       style="fill:#000000;fill-opacity:1;fill-rule:nonzero;stroke:none"
       id="path5646"
       d="m 117.10173,26.635978 c -0.8671,0.20355 -1.74253,0.36569 -2.59279,0.63416 -0.81049,0.22166 -1.60604,0.49549 -2.42397,0.68928 -0.32615,0.0698 -0.65422,0.13415 -0.98593,0.17113 -0.0773,0.0101 -0.15487,0.008 -0.23263,0.007 -1.60479,-0.0869 -1.4819,-2.35641 0.12289,-2.26951 l 0,0 c -0.0468,-3e-4 -0.0885,-0.003 -0.13379,0.003 0.23916,-0.028 0.47573,-0.0748 0.71123,-0.12434 0.76533,-0.17642 1.50596,-0.44476 2.26487,-0.64588 0.86926,-0.26894 1.75693,-0.45774 2.64573,-0.64998 1.5453,-0.44152 2.1697,1.74387 0.62439,2.18539 z"
       inkscape:connector-curvature="0" />
    <path
       style="fill:#000000;fill-opacity:1;fill-rule:nonzero;stroke:none"
       id="path5652"
       d="m 69.3437,21.781544 c -0.14775,1.01682 -0.11599,2.03906 -0.0718,3.06129 0.0945,1.01402 0.26078,2.02255 0.46688,3.01967 0.13786,0.76368 0.29444,1.52137 0.46014,2.27922 0.19063,0.55735 0.35245,1.12624 0.48343,1.70061 0.10905,0.53621 0.17099,1.08011 0.20809,1.62555 0.0254,0.77191 0.18359,0.55352 -0.9664,-0.81635 -0.0285,-0.007 -0.0565,-0.002 -0.0852,0.001 -0.0127,0.002 -0.0253,0.004 -0.0379,0.006 1.57977,-0.29534 1.99746,1.93879 0.41768,2.23414 l 0,0 c -0.0171,0.003 -0.0343,0.006 -0.0514,0.009 -0.14677,0.0195 -0.29503,0.0252 -0.44285,0.0139 -1.42241,-1.52412 -1.05639,-0.63962 -1.1016,-1.29513 -0.0285,-0.43014 -0.0759,-0.85905 -0.15852,-1.28248 -0.1257,-0.57991 -0.31411,-1.14409 -0.48584,-1.71156 -0.16726,-0.76776 -0.3267,-1.53538 -0.4664,-2.30882 -0.22586,-1.11566 -0.41817,-2.24179 -0.5108,-3.37704 -0.0493,-1.14879 -0.0755,-2.29843 0.0873,-3.44092 0.19934,-1.59473 2.45463,-1.31282 2.25529,0.28191 z"
       inkscape:connector-curvature="0" />
    <path
       style="fill:#000000;fill-opacity:1;fill-rule:nonzero;stroke:none"
       id="path5656"
       d="m 64.76668,16.840328 c 0.81848,-0.48764 1.67404,-0.89019 2.55524,-1.24827 0.91448,-0.33434 1.88176,-0.50978 2.84096,-0.6642 0.90194,-0.14539 1.80783,-0.17736 2.71644,-0.0996 0.87253,0.10262 1.69251,0.40119 2.4863,0.76369 0.71458,0.35967 1.24246,0.94284 1.67285,1.60237 0.36231,0.63877 0.40281,1.37095 0.4278,2.08716 0.043,0.70251 -0.0139,1.39183 -0.17895,2.07488 -0.26468,0.87286 -0.88422,1.49409 -1.6011,2.01731 -0.69271,0.49154 -1.46456,0.85178 -2.24135,1.18754 -0.65659,0.2917 -1.33531,0.52679 -2.03233,0.69953 -0.17242,0.0413 -0.34628,0.0765 -0.52247,0.0967 -1.59905,0.16114 -1.82693,-2.10025 -0.22789,-2.26139 l 0,0 c 0.0693,-0.0129 0.13843,-0.027 0.20725,-0.0423 0.5763,-0.14047 1.13511,-0.33955 1.67731,-0.5804 0.63148,-0.27003 1.26093,-0.55834 1.82524,-0.95402 0.28273,-0.18815 0.57157,-0.41616 0.71477,-0.73155 0.1395,-0.46606 0.12075,-0.94847 0.10795,-1.43031 -0.0101,-0.31817 -0.0169,-0.64434 -0.0818,-0.95563 -0.16568,-0.30079 -0.41105,-0.56331 -0.70048,-0.74657 -0.55324,-0.25986 -1.12361,-0.47465 -1.7319,-0.56287 -0.72257,-0.0654 -1.44167,-0.0349 -2.15972,0.0799 -0.78949,0.12448 -1.58607,0.26691 -2.34328,0.52537 -0.73971,0.30057 -1.45819,0.63226 -2.15011,1.03374 -1.33723,0.89148 -2.59797,-0.99964 -1.26075,-1.89112 z"
       inkscape:connector-curvature="0" />
    <path
       style="fill:#000000;fill-opacity:1;fill-rule:nonzero;stroke:none"
       id="path5658"
       d="m 446.6704,238.74387 c -0.0543,-0.53644 -0.11938,-1.07078 -0.29593,-1.58226 -0.16905,-0.38428 -0.44019,-0.70525 -0.71647,-1.01582 -0.12508,-0.0935 -0.31515,-0.0745 -0.46913,-0.0872 -0.42793,-0.0369 -0.81307,0.21929 -1.1785,0.41011 -0.52218,0.37439 -1.04925,0.77516 -1.42559,1.30231 -0.17478,0.29142 -0.19386,0.62813 -0.21282,0.95875 -0.0214,0.45103 -0.0284,0.901 0.10507,1.3361 0.0753,0.0793 0.19278,0.17234 0.31933,0.2006 0.27636,0.098 0.53747,0.23744 0.82889,0.28634 0.32204,0.0712 0.57105,-0.0766 0.85606,-0.21613 0.57382,-0.2846 0.97224,-0.77409 1.36932,-1.25937 0.55192,-0.68025 0.8826,-1.4954 1.21989,-2.29496 0.47348,-1.14885 0.9246,-2.30721 1.37221,-3.46641 0.34177,-0.8947 0.56139,-1.81512 0.67243,-2.76428 0.13,-0.83899 0.20172,-1.68518 0.39787,-2.51207 0.1256,-0.46462 0.30843,-0.91723 0.512,-1.35299 0.1414,-0.25858 0.32044,-0.49283 0.5365,-0.69268 0.65428,-0.53893 0.59084,-0.015 1.91709,0.8945 0.0475,0.0325 0.003,0.11504 0.004,0.17257 0.005,0.26111 0.002,0.14017 -0.0551,0.53544 -0.11939,0.54623 -0.16996,1.10352 -0.25869,1.65569 -0.12755,0.82865 -0.15791,1.66768 -0.18138,2.50446 -0.019,1.01083 -0.0168,2.0219 -0.0165,3.03286 6.1e-4,0.88786 10e-4,1.77572 0.002,2.66358 3.1e-4,0.57237 3.6e-4,1.14474 3.9e-4,1.71711 10e-6,0.55437 0,1.10875 -1e-5,1.66313 0,0.2835 0,0.567 0,0.8505 0.0141,0.57704 -0.47252,-1.04467 -0.99201,-1.07505 -0.0499,3.4e-4 -0.0988,0.0103 -0.14756,0.0198 1.56731,-0.35557 2.07016,1.86095 0.50285,2.21652 l 0,0 c -0.0873,0.0176 -0.17511,0.0321 -0.26437,0.0347 -0.63043,0.0161 -1.37612,-0.36294 -1.37176,-1.19599 10e-6,-0.2835 10e-6,-0.56701 10e-6,-0.85051 0,-0.55434 2e-5,-1.10868 10e-6,-1.66302 -3e-5,-0.57196 -8e-5,-1.14393 -3.9e-4,-1.7159 -5.1e-4,-0.88811 -10e-4,-1.77622 -0.002,-2.66433 -2.5e-4,-1.03256 -0.003,-2.06524 0.0174,-3.09765 0.0267,-0.93605 0.0643,-1.87425 0.20926,-2.80086 0.0953,-0.59306 0.14896,-1.19191 0.28184,-1.77816 10e-4,0.0369 -0.0291,0.12606 0.004,0.11061 0.0648,-0.0299 -0.0688,-0.24017 -0.002,-0.21397 1.25649,0.49609 1.27477,1.18319 1.86156,0.68353 0.08,-0.0784 0.002,-0.0106 -0.0215,0.0271 -0.107,0.26306 -0.24914,0.557 -0.32566,0.8482 -0.17933,0.74022 -0.22538,1.50291 -0.35158,2.25349 -0.13888,1.13591 -0.39776,2.24203 -0.80897,3.31272 -0.45651,1.18125 -0.91574,2.36196 -1.39894,3.53252 -0.4236,0.99979 -0.85839,2.0069 -1.55649,2.85186 -0.6158,0.74824 -1.27635,1.45668 -2.16809,1.8784 -0.72596,0.32793 -1.46967,0.56316 -2.27113,0.38149 -0.46283,-0.10117 -0.8997,-0.26764 -1.33457,-0.45388 -0.72296,-0.36565 -1.29172,-0.88637 -1.55395,-1.67847 -0.16791,-0.67877 -0.23118,-1.36498 -0.17583,-2.06403 0.0541,-0.77887 0.20544,-1.53378 0.6689,-2.18385 0.60566,-0.77763 1.35053,-1.43273 2.19212,-1.9484 0.76543,-0.39408 1.5622,-0.75761 2.44757,-0.65382 0.73698,0.0791 1.42813,0.27584 1.94726,0.84235 0.48191,0.54628 0.92401,1.12945 1.17677,1.82139 0.23253,0.74223 0.36562,1.50573 0.40675,2.28333 0,1.60714 -2.27284,1.60714 -2.27284,0 z"
       inkscape:connector-curvature="0" />
    <path
       style="fill:#ff0000;fill-opacity:1;fill-rule:nonzero;stroke:none"
       d="m 91.702696,57.151641 c 5.500267,13.121983 12.393374,25.582995 18.957564,38.209472 9.86162,17.505047 24.05379,32.609567 40.87268,43.606237 21.8042,14.26345 46.21626,23.65368 70.37653,33.06184 18.18408,7.47434 35.56424,16.74952 53.23598,25.27622 24.58408,10.77105 51.00372,16.20348 77.03072,22.23107 5.9927,3.42533 22.59665,-2.63203 20.70905,7.17927 -9.08571,2.7222 -19.36372,-0.80539 -28.61313,-2.30856 -30.58722,-7.25034 -61.93091,-14.0563 -89.35011,-30.11617 -19.15815,-9.28991 -38.52372,-18.11417 -58.56019,-25.36565 -23.35094,-9.80688 -46.62337,-20.98515 -65.74493,-37.91191 C 117.56831,118.15698 106.18322,103.45693 98.900526,86.549711 96.370791,76.86209 81.329763,63.580838 88.454017,55.202676 c 1.364713,-0.179681 2.705946,0.720182 3.248679,1.948965 z"
       id="path5692"
       inkscape:connector-curvature="0" />
  </g>
</svg>
