<?xml version="1.0" encoding="UTF-8" standalone="no"?>
<!-- Created with Inkscape (http://www.inkscape.org/) -->

<svg
   xmlns:dc="http://purl.org/dc/elements/1.1/"
   xmlns:cc="http://creativecommons.org/ns#"
   xmlns:rdf="http://www.w3.org/1999/02/22-rdf-syntax-ns#"
   xmlns:svg="http://www.w3.org/2000/svg"
   xmlns="http://www.w3.org/2000/svg"
   xmlns:sodipodi="http://sodipodi.sourceforge.net/DTD/sodipodi-0.dtd"
   xmlns:inkscape="http://www.inkscape.org/namespaces/inkscape"
   width="328.23727"
   height="323.68719"
   id="svg3838"
   version="1.1"
   inkscape:version="0.48.5 r10040"
   sodipodi:docname="network_thin_het.svg">
  <defs
     id="defs3840" />
  <sodipodi:namedview
     id="base"
     pagecolor="#ffffff"
     bordercolor="#666666"
     borderopacity="1.0"
     inkscape:pageopacity="0.0"
     inkscape:pageshadow="2"
     inkscape:zoom="1.4"
     inkscape:cx="264.80574"
     inkscape:cy="137.02892"
     inkscape:document-units="px"
     inkscape:current-layer="layer1"
     showgrid="false"
     inkscape:window-width="1656"
     inkscape:window-height="964"
     inkscape:window-x="89"
     inkscape:window-y="44"
     inkscape:window-maximized="0"
     fit-margin-top="0"
     fit-margin-left="0"
     fit-margin-right="0"
     fit-margin-bottom="0" />
  <metadata
     id="metadata3843">
    <rdf:RDF>
      <cc:Work
         rdf:about="">
        <dc:format>image/svg+xml</dc:format>
        <dc:type
           rdf:resource="http://purl.org/dc/dcmitype/StillImage" />
        <dc:title></dc:title>
      </cc:Work>
    </rdf:RDF>
  </metadata>
  <g
     inkscape:label="Layer 1"
     inkscape:groupmode="layer"
     id="layer1"
     transform="translate(-136.50022,-86.379181)">
    <path
       style="fill:#008000"
       id="path3896"
       d="m 317.78274,246.25329 c -0.63886,-1.55455 -1.59727,-2.87291 -2.92273,-3.89934 -1.06018,-0.66745 -2.35884,-0.63866 -3.57054,-0.70077 -1.98652,0.0422 -3.8988,0.57342 -5.80123,1.09213 -1.89428,0.54582 -3.55725,1.59271 -5.18749,2.66744 -1.74351,1.2712 -3.41092,2.64759 -5.08002,4.01531 -1.72048,1.46214 -3.3915,3.03678 -4.70444,4.88247 -0.93892,1.39023 -1.8465,2.83307 -2.34738,4.44426 -0.27228,0.85736 -0.3125,1.75684 -0.33134,2.6488 -0.007,0.63207 -0.0471,1.38248 0.10609,1.82919 0.36586,0.27759 0.72819,0.62671 1.13975,0.87051 0.63637,0.26662 1.31965,0.33554 2.00068,0.38082 1.5896,0.33387 3.19071,0.52222 4.81059,0.62361 2.07275,0.07 4.15413,0.19303 6.22456,0.0369 2.13767,-0.16679 4.25331,-0.62216 6.2763,-1.33014 1.82938,-0.74453 3.57849,-1.63817 5.29608,-2.60942 1.36907,-0.74683 2.70731,-1.55272 3.96177,-2.48123 0.2784,-0.20605 0.61241,-0.35955 0.82257,-0.63486 0.19421,-0.25443 0.23055,-0.59719 0.34582,-0.89579 2.01026,-3.89731 3.02328,-8.17613 3.66174,-12.48507 0.0609,-0.57453 0.12187,-1.14905 0.18281,-1.72357 0.43194,-4.01746 6.11348,-3.40661 5.68155,0.61085 l 0,0 c -0.0711,0.65323 -0.14213,1.30646 -0.2132,1.9597 -0.76875,5.07859 -2.00264,10.11213 -4.46511,14.66333 -0.57065,0.80056 -1.07232,1.65507 -1.71195,2.40167 -0.27431,0.32019 -0.66447,0.5194 -1.00434,0.76891 -1.41348,1.03768 -2.91272,1.9504 -4.45043,2.79101 -2.02475,1.14341 -4.09405,2.18739 -6.2596,3.04178 -2.50478,0.8416 -5.09633,1.43891 -7.73818,1.62407 -2.32264,0.14451 -4.65039,0.0727 -6.97428,-0.0354 -1.63491,-0.10602 -3.27657,-0.23409 -4.87229,-0.62788 -1.67013,-0.13306 -3.31055,-0.4487 -4.76314,-1.33693 -1.49289,-1.04394 -2.8501,-2.27127 -3.44886,-4.0526 -0.31066,-1.16258 -0.3802,-2.32543 -0.32162,-3.5243 0.037,-1.45361 0.15939,-2.91018 0.61645,-4.3012 0.73688,-2.16994 1.84416,-4.17512 3.17172,-6.04271 1.64751,-2.19476 3.56218,-4.17656 5.68681,-5.91739 1.82455,-1.49384 3.64451,-3.00165 5.56444,-4.37122 2.13655,-1.39827 4.33865,-2.71501 6.82129,-3.40403 2.4918,-0.67892 5.01052,-1.31884 7.61546,-1.28474 2.44712,0.13997 4.86794,0.42666 6.87395,1.98107 2.05599,1.72533 3.6799,3.79224 4.65819,6.3184 1.41875,3.78334 -3.9317,5.78976 -5.35045,2.00642 z"
       inkscape:connector-curvature="0" />
    <path
       style="fill:#008000"
       id="path3898"
       d="m 325.45612,93.352514 c -1.94815,-0.74408 -3.95318,-1.222114 -6.03716,-1.261195 -1.09485,0.0821 -2.07655,0.496014 -2.98766,1.088529 -1.42644,0.968593 -2.41493,2.403842 -3.52394,3.694185 -1.49371,1.812677 -3.04961,3.594927 -4.23881,5.628517 -0.77153,1.14808 -1.23553,2.3903 -1.43124,3.74864 -0.19809,1.23016 0.0421,2.41947 0.45656,3.57885 0.51433,1.43744 0.90691,3.04292 1.95551,4.20318 0.66853,0.65583 1.46758,1.25235 2.34998,1.58681 0.83161,0.26821 1.56863,0.7456 2.43533,0.89144 1.28802,0.17192 2.562,0.13086 3.84423,-0.0367 1.64884,-0.32972 3.18109,-1.00187 4.71239,-1.67568 1.47169,-0.62517 2.73418,-1.56658 4.01847,-2.49786 0.86967,-0.84214 2.11457,-1.17464 3.04536,-1.91268 0.87169,-0.78844 1.42937,-1.87103 1.90156,-2.93248 0.59823,-1.51936 0.85726,-3.15081 0.77789,-4.77823 -0.39169,-2.35348 -1.3615,-4.576817 -2.23685,-6.784603 -0.65479,-1.813618 -0.34982,-0.912496 -0.91774,-2.702414 -1.21569,-3.853391 4.23382,-5.572641 5.44952,-1.719251 l 0,0 c 0.47554,1.517691 0.21653,0.743884 0.7819,2.31979 1.1172,2.830278 2.35023,5.684906 2.63567,8.743778 0.0302,2.51461 -0.29563,5.00699 -1.31029,7.33331 -0.95164,1.99085 -2.07668,3.94393 -3.89916,5.26613 -0.95181,0.61039 -1.97997,1.09869 -2.87584,1.79451 -1.6142,1.16802 -3.23578,2.31618 -5.07934,3.10485 -2.03181,0.88536 -4.08127,1.74567 -6.28295,2.1095 -1.90424,0.23691 -3.81478,0.27663 -5.7161,-0.0348 -1.245,-0.27367 -2.38407,-0.7619 -3.55719,-1.24585 -1.71204,-0.77706 -3.29764,-1.8255 -4.53753,-3.25805 -1.36934,-1.78797 -2.28781,-3.80718 -2.9169,-5.97073 -0.65175,-2.04 -1.03889,-4.12935 -0.67923,-6.27151 0.34145,-2.06763 1.00994,-4.02001 2.16741,-5.785458 1.38948,-2.301401 3.08319,-4.386922 4.81991,-6.434711 1.4968,-1.728782 2.86718,-3.605001 4.85015,-4.82508 1.88897,-1.135699 3.9064,-1.906983 6.14342,-1.93807 2.7162,0.08885 5.34957,0.638839 7.88909,1.62294 3.78334,1.418753 1.77692,6.769206 -2.00642,5.350453 z"
       inkscape:connector-curvature="0" />
    <path
       style="fill:#008000"
       id="path3900"
       d="m 444.20014,145.94304 c -0.52054,-1.74788 -1.07088,-3.49267 -2.01023,-5.06486 -0.0486,-0.0393 -0.12409,-0.17645 -0.14582,-0.11785 -0.0289,0.0779 0.0985,0.1429 0.10585,0.22566 0.0117,0.1313 -0.26363,0.0272 -0.39508,0.0173 -1.02535,-0.0772 -0.3165,-0.0364 -1.54867,-0.0888 -2.58551,-0.0503 -5.17191,-0.0165 -7.75768,-0.003 -2.36838,-0.1476 -4.09724,0.25224 -6.05552,1.55292 -2.21411,1.47076 -3.68617,3.65997 -5.28596,5.72061 -1.49319,1.98137 -2.98297,4.0266 -3.88795,6.35148 -0.80111,1.7604 -1.20651,3.62525 -1.39728,5.53839 -0.14575,1.51874 -0.15968,3.06422 0.42368,4.49438 0.60571,1.17627 1.72071,1.97174 2.73668,2.77376 1.47438,1.26606 3.0631,2.36917 4.74144,3.34527 1.1886,0.87056 2.48001,1.52685 3.88419,1.96135 1.52459,0.35217 3.0946,0.3873 4.65151,0.42564 1.5185,0.12816 2.93601,0.01 4.38788,-0.40834 1.48716,-0.58333 2.79728,-1.52778 4.05182,-2.49992 1.52151,-1.42704 2.90803,-2.96327 4.04401,-4.71249 1.4956,-2.26673 2.20516,-4.82533 2.63606,-7.47286 0.19041,-1.96562 0.6067,-4.0045 0.10861,-5.96104 -0.2196,-0.86262 -0.55103,-1.4663 -0.92757,-2.26813 -0.77663,-0.8833 -0.35028,-0.49544 -1.27177,-1.17155 -3.06042,-2.63825 0.67062,-6.96634 3.73104,-4.32809 l 0,0 c 2.04702,1.88228 1.12563,0.83453 2.75154,3.15432 0.66864,1.52808 1.01992,2.12869 1.37346,3.80426 0.53877,2.5534 0.18437,5.16182 -0.12974,7.71549 -0.58834,3.42729 -1.5569,6.73835 -3.4987,9.66962 -1.5038,2.26168 -3.28685,4.30166 -5.33011,6.09762 -1.83445,1.40614 -3.76642,2.73377 -5.97903,3.4701 -2.00687,0.56287 -4.0073,0.77626 -6.091,0.62349 -2.10062,-0.0537 -4.21806,-0.13419 -6.25627,-0.69784 -1.78708,-0.58747 -3.50108,-1.35548 -5.027,-2.47266 -1.89869,-1.12089 -3.72029,-2.35572 -5.39624,-3.79319 -1.86357,-1.47769 -3.65939,-3.05141 -4.56736,-5.3194 -0.77436,-2.27978 -1.02644,-4.62276 -0.7305,-7.02338 0.26381,-2.44399 0.7777,-4.84041 1.78702,-7.09666 1.16395,-2.78815 2.80693,-5.32963 4.66964,-7.7061 2.01269,-2.58691 3.94086,-5.26216 6.75972,-7.05381 2.89384,-1.75862 5.639,-2.63658 9.06413,-2.42745 2.68464,-0.0139 5.37006,-0.0507 8.05433,0.009 2.56884,0.12838 5.11741,0.43425 6.64989,2.788 1.18537,2.05581 1.98698,4.2791 2.62065,6.56272 0.97999,3.91996 -4.56368,5.30588 -5.54367,1.38591 z"
       inkscape:connector-curvature="0" />
    <path
       style="fill:#008000"
       id="path3904"
       d="m 275.5154,381.98703 c -1.8113,-1.56239 -4.05262,-2.25317 -6.34845,-2.72801 -2.61138,-0.60473 -5.09751,-0.24074 -7.63618,0.45097 -3.22127,1.12148 -5.90515,3.23422 -8.48789,5.39498 -2.82634,2.41912 -5.06039,5.34027 -6.94658,8.52322 -1.1072,2.00308 -1.51095,3.61943 -0.82061,5.79306 0.85902,1.56739 2.12527,2.85151 3.37461,4.10931 0.9724,0.86727 2.39723,0.84474 3.63414,0.82163 2.73072,-0.0509 5.42403,-0.52352 8.12748,-0.86471 2.00624,-0.12605 3.93755,-0.54013 5.78582,-1.31758 2.01396,-0.86411 3.67948,-2.23763 5.35067,-3.61916 2.02093,-1.64772 2.79604,-3.94386 3.36391,-6.40118 0.81359,-3.98951 0.80526,-7.97215 -0.13231,-11.9238 -0.86493,-2.46774 -0.3575,-1.25781 -1.52697,-3.62784 -1.75104,-3.64148 3.39879,-6.11782 5.14984,-2.47634 l 0,0 c 1.50205,3.1853 0.857,1.57208 1.94852,4.83428 0.18376,0.83183 0.41198,1.65506 0.55127,2.49548 0.66341,4.00283 0.28355,8.07922 -0.43665,12.04336 -0.91192,3.64413 -2.27641,7.02677 -5.27911,9.46221 -2.11083,1.74134 -4.26336,3.42438 -6.80944,4.4952 -2.32518,0.94638 -4.73627,1.54165 -7.25059,1.70475 -2.95063,0.37182 -5.89176,0.88084 -8.87381,0.90953 -2.80075,-0.0537 -5.57486,-0.45054 -7.66093,-2.51284 -1.93162,-1.95178 -3.83289,-3.98949 -4.82247,-6.60363 -1.02708,-3.97928 -0.54245,-6.62875 1.41729,-10.24601 2.23035,-3.72807 4.86928,-7.15603 8.19514,-9.98662 3.22772,-2.68645 6.61897,-5.23806 10.67521,-6.52835 3.41044,-0.89545 6.81373,-1.31301 10.30292,-0.51823 3.19551,0.69839 6.29023,1.75666 8.81337,3.92649 3.10408,2.58673 -0.55411,6.97657 -3.6582,4.38983 z"
       inkscape:connector-curvature="0" />
    <path
       style="fill:#aa0000"
       id="path4423"
       d="m 72.173616,45.115766 c -2.10983,0 -4.219659,0 -6.329489,0 -1.619869,0 -3.239738,0 -4.859606,0 -1.548848,0 -3.097695,0 -4.646543,0 -1.011296,0 -2.022593,0 -3.03389,0 -0.892796,0.248238 -1.925365,0.527969 -2.863032,0.797281 -1.01755,0.420433 -2.041553,0.82374 -3.106942,1.104861 -0.785113,0.209219 -1.598014,0.239752 -2.405516,0.250304 1.387872,-0.219993 -0.445583,0.334419 -0.758538,0.436909 -0.202265,0.06659 -0.406239,0.127492 -0.611812,0.182871 -1.229237,0.287589 -0.569169,0.155358 2.154551,-2.65208 0.07861,-0.08103 0.0062,0.225714 0.0082,0.338595 0.0039,0.226811 0.0028,0.453658 0.0012,0.68048 0.02589,0.722855 -0.08202,1.459186 0.05659,2.171778 0.331681,1.892869 0.468218,3.8098 0.565696,5.726498 0.07159,1.717823 0.08454,3.437179 0.08877,5.156233 8.52e-4,1.393407 -0.0017,2.786815 -0.0032,4.180221 0.04128,1.3198 0.01331,2.608023 -0.290103,3.897673 -0.197747,0.665536 -0.329248,1.340488 -0.392578,2.03065 -0.03927,0.626915 -0.03768,1.255361 -0.03822,1.883212 1.43e-4,0.296094 0.0012,0.592188 0.0039,0.88827 -1.408144,-1.83853 -4.211738,-2.776829 -2.02518,-2.795771 1.419617,-0.0094 2.833509,-0.02145 4.247741,0.105768 1.620081,0.241576 3.243775,0.439199 4.878654,0.541599 1.403202,0.07341 2.808745,0.07602 4.213464,0.07944 1.315833,9.8e-4 2.631664,-0.0018 3.947495,-0.0032 1.332551,-0.04902 2.638058,0.0042 3.949207,0.254707 1.125072,0.246751 2.273134,0.341003 3.419739,0.418355 0.317362,0.02019 0.635029,0.03696 0.952905,0.04479 -2.555127,0.04232 -2.862182,4.748967 -2.879693,1.929728 0.0036,-1.195395 0.0068,-2.390789 0.0086,-3.586188 -0.02928,-2.082525 0.368648,-4.139595 0.780526,-6.17133 0.51275,-2.394327 0.837653,-4.819461 1.247126,-7.231604 0.401258,-2.023346 0.636048,-4.072356 0.764113,-6.129506 0.162688,-1.440481 0.493349,-2.85486 0.689281,-4.290253 0.041,-0.336463 0.07963,-0.673563 0.100085,-1.012003 0.258354,-4.032342 5.960947,-3.666975 5.702593,0.365367 l 0,0 c -0.03165,0.480817 -0.08124,0.960283 -0.14347,1.438101 -0.183612,1.291262 -0.440778,2.570455 -0.645529,3.858377 -0.144026,2.259225 -0.396892,4.510506 -0.83461,6.733465 -0.426023,2.468111 -0.754256,4.95224 -1.279225,7.403392 -0.336795,1.661307 -0.693784,3.341578 -0.666611,5.044786 -0.0018,1.183573 -0.0048,2.367142 -0.0087,3.55071 0.0039,1.613136 -1.145011,3.868551 -2.872956,3.811115 -0.434342,-0.0045 -0.868069,-0.03271 -1.301569,-0.05779 -1.383832,-0.09448 -2.768165,-0.218884 -4.126758,-0.51095 -0.942257,-0.189596 -1.882139,-0.170789 -2.848768,-0.148988 -1.322623,0.0015 -2.645246,0.0042 -3.96787,0.0032 -1.520822,-0.0038 -3.042537,-0.0081 -4.561571,-0.09091 -1.708776,-0.109789 -3.408817,-0.299367 -5.101422,-0.560126 -1.197891,-0.154911 -2.413295,-0.04006 -3.618794,-0.07592 -1.571425,0.01012 -3.734695,-1.045605 -3.732833,-2.85974 -0.0029,-0.317381 -0.0041,-0.634774 -0.0042,-0.952169 7.97e-4,-0.807931 0.0011,-1.616865 0.06427,-2.42289 0.09563,-0.972079 0.264914,-1.931197 0.536915,-2.870674 0.235738,-0.804843 0.07342,-1.675135 0.119723,-2.518677 0.0015,-1.386758 0.004,-2.773517 0.0032,-4.160277 -0.0039,-1.627639 -0.01546,-3.255555 -0.08152,-4.882091 -0.08898,-1.777358 -0.218123,-3.553678 -0.529156,-5.308381 -0.100105,-0.974286 -0.133033,-1.94143 -0.100239,-2.920669 0.01492,-1.876257 0.06045,-0.690159 2.233515,-3.884083 0.01735,-0.02551 -0.06004,0.01423 -0.09006,0.02134 0.08133,-0.02508 0.16244,-0.05086 0.243712,-0.07612 0.817979,-0.266465 1.588265,-0.659493 2.464157,-0.719095 0.348879,-0.0038 0.705561,0.0094 1.046799,-0.06944 1.019016,-0.251266 1.960556,-0.74131 2.957407,-1.0641 1.460433,-0.419444 2.921647,-0.87191 4.440462,-1.019319 1.011297,0 2.022594,0 3.03389,0 1.548848,0 3.097695,0 4.646543,0 1.619868,0 3.239737,0 4.859606,0 2.10983,0 4.219659,0 6.329489,0 4.04061,0 4.04061,5.714285 0,5.714285 z"
       inkscape:connector-curvature="0"
       transform="translate(136.50022,86.379181)" />
    <path
       style="fill:#aa0000"
       id="path4425"
       d="m 33.962088,181.43683 c -2.15916,-0.1678 -4.285184,-0.48509 -6.408057,-0.90392 -1.033786,-0.20513 -2.077203,-0.34322 -3.128977,-0.40318 -0.680108,-0.0271 -1.360914,-0.0224 -2.041397,-0.0202 -0.72593,-0.0375 -1.389302,-0.003 -2.005528,0.13942 -1.219768,0.54035 -2.528789,0.84343 -3.837024,1.07749 -0.02019,0.10206 -3.163701,0.28447 -1.759756,0.19299 -0.435842,0.16712 -0.974226,0.37799 -1.08459,0.45312 -0.109071,0.0644 -0.319275,0.22918 -0.379411,0.27618 0.408857,-0.40789 -0.692168,0.77641 0.258236,-0.27323 -0.22881,0.45836 -0.591732,0.83436 -0.630667,1.35198 -0.09712,1.06101 -0.08988,2.12854 -0.09455,3.19299 0.08994,1.48582 -0.152721,3.00966 0.0716,4.48442 0.284096,1.28635 0.459053,2.58757 0.560876,3.89985 0.08471,1.1676 -0.0016,2.33064 0.239566,3.47459 0.289807,1.31467 0.433057,2.65413 0.513777,3.99597 0.05573,1.17932 0.05411,2.36018 0.05461,3.54049 -3.93e-4,0.83829 -0.0018,1.67659 -0.0041,2.51488 -8.3e-4,0.26727 -9.17e-4,0.53455 -0.001,0.80182 -0.0039,1.4151 0.220853,0.41439 -2.538354,-2.68278 0.338719,0.003 0.677478,-0.001 1.016213,-0.002 1.318321,-0.003 2.636646,-0.003 3.954968,-0.003 1.686288,-2.1e-4 3.372576,-1.8e-4 5.058864,-1.6e-4 1.183793,-0.0226 2.347567,-0.33763 3.525089,-0.49356 0.866747,-0.0976 1.737045,-0.16116 2.608596,-0.19417 0.553238,-0.0209 0.7071,0.0219 0.408061,-0.0418 0.802738,-0.28765 1.630922,-0.47141 2.473328,-0.59367 0.835413,-0.10011 1.67754,-0.10626 2.517671,-0.11029 -0.565909,-0.0215 -0.984028,0.13802 -1.344076,0.55305 0.467231,-0.45625 0.706615,-0.86439 0.962565,-1.4495 0.774813,-1.76523 1.374469,-3.60354 1.935198,-5.44634 0.546983,-1.88155 1.069965,-3.75827 1.358674,-5.69878 0.21433,-1.89167 0.207153,-3.79905 0.217448,-5.7001 -0.01922,-1.44068 0.04904,-3.00149 -0.04849,-4.37453 -0.257723,-0.88344 -0.200872,-0.61347 -0.594086,-1.36431 -0.126116,-0.1745 -0.119558,-0.20209 -0.07641,-0.0374 -2.788724,-2.92396 1.346382,-6.86781 4.135106,-3.94385 l 0,0 c 0.799035,0.9326 0.478946,0.4787 1.003427,1.33023 0.503964,0.96232 0.957962,1.94049 1.158486,3.01769 0.239154,1.79053 0.104815,3.59998 0.136168,5.40351 -0.01207,2.17697 -0.0106,4.36156 -0.281931,6.52536 -0.34075,2.21502 -0.909966,4.3679 -1.544518,6.51525 -0.645285,2.09632 -1.325137,4.19026 -2.222963,6.19422 -0.420923,0.8732 -0.880965,1.8119 -1.579836,2.47386 -0.816459,1.00528 -1.875032,1.59676 -3.188156,1.71587 -0.582333,0.003 -1.165597,0.003 -1.746177,0.0543 -0.695349,0.0929 -1.352269,0.31169 -2.023876,0.51183 -1.169469,0.19676 -2.344491,0.20749 -3.52463,0.32571 -1.421762,0.18205 -2.823052,0.57714 -4.264726,0.54162 -1.68589,-1e-5 -3.371781,-5e-5 -5.057671,1.6e-4 -1.31243,2.6e-4 -2.624863,1.1e-4 -3.93729,0.003 -0.386645,0.001 -0.773328,0.007 -1.15995,0.001 -2.9133569,-2.73141 -3.0544174,-1.48861 -3.0510062,-3.03243 1.089e-4,-0.27162 2.03e-4,-0.54324 0.00104,-0.81486 0.00223,-0.8324 0.00366,-1.6648 0.00406,-2.49721 -4.237e-4,-1.06974 0.00203,-2.13995 -0.044848,-3.20892 -0.060482,-1.07225 -0.1749589,-2.14263 -0.4091796,-3.19237 -0.2749479,-1.38628 -0.304039,-2.77134 -0.3375962,-4.18037 -0.091316,-1.24441 -0.3018626,-2.46642 -0.5411417,-3.69058 -0.1654103,-1.71271 -0.098237,-3.43142 -0.1076074,-5.15105 0.00646,-1.41238 -0.00828,-2.8333 0.1949945,-4.23437 0.2014534,-0.94995 0.4757563,-1.92999 1.0741276,-2.71825 0.3044849,-0.61322 0.6754074,-1.1996 1.2051831,-1.64228 0.3560121,-0.29931 0.7356175,-0.56947 1.1292805,-0.81708 0.765866,-0.44967 1.582276,-0.74108 2.414022,-1.04102 0.804412,-0.16429 1.593117,-0.25865 2.408389,-0.3452 1.228314,-0.20351 2.395452,-0.59858 3.563597,-1.02305 1.073325,-0.23687 2.141844,-0.32721 3.239349,-0.27831 0.798153,-0.003 1.596743,-0.007 2.394288,0.0299 1.310639,0.0784 2.612396,0.24494 3.900733,0.50147 1.991972,0.393 3.983485,0.68541 6.010754,0.83997 4.009408,0.50118 3.300638,6.17134 -0.70877,5.67016 z"
       inkscape:connector-curvature="0"
       transform="translate(136.50022,86.379181)" />
    <path
       style="fill:#aa0000"
       id="path4429"
       d="m 310.72372,180.91563 c -2.23027,0.44674 -4.41445,1.08243 -6.63951,1.55172 -1.44494,0.31867 -2.91803,0.45402 -4.39392,0.50407 -1.18779,0.0231 -2.37591,0.0128 -3.56383,0.008 -0.77289,-0.003 -1.54579,-0.005 -2.31868,-0.006 -0.0536,-1.4e-4 -0.22321,-4.7e-4 -0.25241,-5.2e-4 2.63103,-2.7748 2.78296,-4.43409 2.89714,-2.51442 0.0466,0.78365 -0.0235,1.5374 -0.11514,2.31671 -0.29019,1.77078 -0.45218,3.55027 -0.79828,5.31215 -0.25327,1.71753 -0.56912,3.42162 -0.86334,5.13291 -0.15737,1.69357 -0.56462,3.34492 -0.84263,5.01941 -0.3812,1.5595 -0.67924,3.13052 -0.86153,4.72508 -0.28504,1.2601 -0.57453,2.50868 -0.72724,3.79252 -0.0752,0.73571 -0.0982,1.47507 -0.10725,2.21411 -0.002,0.51195 0.002,1.02391 0.003,1.53585 0.002,0.46234 0.002,0.92468 0.002,1.38702 0.067,1.604 -0.91763,-2.19793 -2.13371,-2.47132 0.36446,-0.002 0.72885,-0.01 1.09331,-0.013 1.34877,-0.008 2.69758,-0.007 4.04637,-0.008 1.80295,-5.9e-4 3.6059,-4.4e-4 5.40884,-4e-4 1.9819,-0.10722 3.93907,0.17722 5.89359,0.45978 0.9536,0.14983 1.91468,0.21819 2.87854,0.24647 0.42445,0.0103 0.84902,0.0147 1.27358,0.0121 0.32197,-0.004 0.64397,-0.003 0.96595,-0.004 1.05048,0.0913 2.32253,-0.45189 -0.75723,0.63141 0.2873,-0.46252 3.24373,-1.633 1.34115,-0.76826 -0.60574,0.352 -1.23242,2.37193 -0.22771,-0.0456 0.33571,-0.64761 0.8139,-1.23275 1.26091,-1.81196 0.39916,-0.48167 0.56716,-1.11467 0.75303,-1.7498 0.26288,-1.37239 0.57751,-2.73686 0.97032,-4.07842 0.40534,-1.41824 0.79982,-2.84326 1.11034,-4.28616 0.21936,-1.81465 0.57043,-3.60865 0.8609,-5.41266 0.13113,-1.28678 0.61602,-2.49327 0.81408,-3.76784 0.33654,-1.4159 0.60727,-2.84333 0.76838,-4.28982 0.0892,-0.97358 0.10641,-1.95176 0.11438,-2.92879 0.002,-0.73257 -0.002,-1.46515 -0.004,-2.19772 -0.001,-0.58949 -0.002,-1.17899 -0.002,-1.76848 -1.4e-4,-0.30267 -1.1e-4,-0.60534 -9e-5,-0.908 1.3e-4,-1.11457 -0.0132,0.22728 1.67758,2.53592 0.0651,0.0889 0.21187,0.0629 0.31236,0.10812 0.12841,0.0577 -0.28209,0.0189 -0.42231,0.006 -0.32322,-0.0291 -0.64438,-0.0777 -0.96657,-0.11663 -1.28052,-0.23373 -2.5692,-0.41735 -3.86745,-0.51294 -1.04739,-0.0607 -2.09686,-0.0689 -3.14571,-0.0724 -0.44803,-4.3e-4 -0.89607,-3.3e-4 -1.34409,0.003 -1.40095,0.0486 2.73074,-3.96639 2.74091,-2.43049 0.0201,4.04056 -5.69411,4.06899 -5.71421,0.0284 l 0,0 c -0.006,-1.49056 1.41464,-3.33746 2.92888,-3.31206 0.46926,-0.004 0.93854,-0.004 1.40782,-0.003 1.18601,0.004 2.37277,0.0149 3.55688,0.0886 1.42471,0.10977 2.8421,0.29317 4.24737,0.55445 1.7991,0.4057 4.30286,-0.32537 4.30283,3.12332 -2e-5,0.30143 -5e-5,0.60286 9e-5,0.90429 3.3e-4,0.58612 8.8e-4,1.17224 0.002,1.75835 0.002,0.75291 0.006,1.50583 0.004,2.25874 -0.01,1.17655 -0.0349,2.35447 -0.15071,3.52618 -0.17735,1.53782 -0.43179,3.06516 -0.80696,4.56817 -0.21459,1.27063 -0.63049,2.48429 -0.81206,3.75546 -0.3087,1.90658 -0.66533,3.80427 -0.919,5.71907 -0.34959,1.58716 -0.77401,3.15846 -1.22287,4.7198 -0.42923,1.34927 -0.64828,2.75376 -0.98497,4.12619 -0.40062,1.24819 -0.85924,2.53339 -1.6989,3.5599 -0.92372,1.17069 -0.29582,0.16403 -0.88654,1.26875 0.0881,-0.26381 0.27825,-1.06919 0.26423,-0.79142 -0.0487,0.96573 -0.82001,1.7999 -1.46194,2.41975 -3.09668,1.72545 -0.34422,0.18782 -1.01373,0.49954 -1.46097,0.5895 -1.76147,0.87204 -3.02169,0.80314 -0.30686,4e-4 -0.61375,-1.7e-4 -0.9206,0.003 -0.50024,0.004 -1.00052,-0.003 -1.50062,-0.0145 -1.17914,-0.0371 -2.35544,-0.12188 -3.5223,-0.30266 -1.68555,-0.2439 -3.36517,-0.51295 -5.07577,-0.40093 -1.80195,-5e-5 -3.6039,-1.9e-4 -5.40584,4e-4 -1.33316,6.7e-4 -2.66634,3.8e-4 -3.99948,0.008 -0.51055,0.004 -1.02146,0.0236 -1.5318,-1e-5 -1.62564,-0.17121 -3.2693,-1.22801 -3.19184,-3.22618 -2.9e-4,-0.45728 -6.5e-4,-0.91457 -0.002,-1.37185 -0.002,-0.54232 -0.006,-1.08465 -0.003,-1.62697 0.0123,-0.94327 0.0459,-1.88689 0.14783,-2.82533 0.15466,-1.27053 0.36787,-2.53155 0.72378,-3.76322 0.19617,-1.69016 0.48336,-3.36452 0.9025,-5.01497 0.28444,-1.68523 0.68763,-3.34662 0.84809,-5.05147 0.30634,-1.75427 0.62394,-3.50097 0.8873,-5.26221 0.32885,-1.66017 0.46182,-3.34078 0.74692,-5.00896 0.65546,-2.814 -1.84211,0.35535 2.85836,-4.71417 0.0944,1e-4 0.1887,2.4e-4 0.28305,5.1e-4 0.77549,0.002 1.55098,0.004 2.32646,0.007 1.11908,0.004 2.23832,0.0135 3.3573,-0.005 1.14435,-0.035 2.28675,-0.13567 3.40669,-0.38546 2.1546,-0.44861 4.26603,-1.0779 6.42624,-1.50272 3.91997,-0.98 5.30589,4.56367 1.38592,5.54367 z"
       inkscape:connector-curvature="0"
       transform="translate(136.50022,86.379181)" />
  </g>
</svg>
