<?xml version="1.0" encoding="UTF-8" standalone="no"?>
<!-- Created with Inkscape (http://www.inkscape.org/) -->

<svg
   xmlns:dc="http://purl.org/dc/elements/1.1/"
   xmlns:cc="http://creativecommons.org/ns#"
   xmlns:rdf="http://www.w3.org/1999/02/22-rdf-syntax-ns#"
   xmlns:svg="http://www.w3.org/2000/svg"
   xmlns="http://www.w3.org/2000/svg"
   xmlns:sodipodi="http://sodipodi.sourceforge.net/DTD/sodipodi-0.dtd"
   xmlns:inkscape="http://www.inkscape.org/namespaces/inkscape"
   width="388.23999"
   height="372.69"
   id="svg3838"
   version="1.1"
   inkscape:version="0.48.5 r10040"
   sodipodi:docname="network_nodes.svg">
  <defs
     id="defs3840" />
  <sodipodi:namedview
     id="base"
     pagecolor="#ffffff"
     bordercolor="#666666"
     borderopacity="1.0"
     inkscape:pageopacity="0.0"
     inkscape:pageshadow="2"
     inkscape:zoom="1.4"
     inkscape:cx="270.91328"
     inkscape:cy="87.753439"
     inkscape:document-units="px"
     inkscape:current-layer="layer1"
     showgrid="false"
     inkscape:window-width="1656"
     inkscape:window-height="964"
     inkscape:window-x="143"
     inkscape:window-y="51"
     inkscape:window-maximized="0"
     fit-margin-top="0"
     fit-margin-left="0"
     fit-margin-right="0"
     fit-margin-bottom="0" />
  <metadata
     id="metadata3843">
    <rdf:RDF>
      <cc:Work
         rdf:about="">
        <dc:format>image/svg+xml</dc:format>
        <dc:type
           rdf:resource="http://purl.org/dc/dcmitype/StillImage" />
        <dc:title></dc:title>
      </cc:Work>
    </rdf:RDF>
  </metadata>
  <g
     inkscape:label="Layer 1"
     inkscape:groupmode="layer"
     id="layer1"
     transform="translate(-136.50022,-37.376508)">
    <path
       style="fill:#008000"
       id="path3894"
       d="m 270.76637,68.53457 c -1.85699,-0.46237 -3.7332,-0.82234 -5.6355,-1.02888 -1.29832,-0.15743 -2.58309,0.18795 -3.83695,0.4892 -1.67768,0.43633 -3.22178,1.13875 -4.71919,1.99915 -2.08546,1.26734 -4.02874,2.78011 -5.86735,4.38409 -1.53174,1.3853 -3.06715,2.7816 -4.26198,4.47649 -0.75435,1.1114 -1.53858,2.19803 -2.24652,3.33857 -0.47599,0.6294 -0.55532,1.37822 -0.76422,2.11797 -0.34011,0.99362 -0.43681,2.03752 -0.51843,3.07718 -0.0706,1.16264 -0.0644,2.32822 -0.0657,3.49249 8.1e-4,1.33257 0.004,2.66515 0.005,3.99772 -0.25752,-0.3883 0.18096,1.8439 0.17295,1.42426 0.36381,0.48659 0.84185,0.84299 1.28794,1.24608 0.85614,0.70402 1.70283,1.39921 2.57992,2.07426 0.69363,0.46 1.50497,0.73517 2.30459,0.95349 1.32717,0.52813 2.71669,0.79995 4.13122,0.94964 1.45036,0.12304 2.90717,0.12626 4.36165,0.1313 0.655,-0.14742 2.31464,0.22644 2.85711,-0.0564 1.16713,-0.29842 2.22138,-1.00897 3.27359,-1.58991 1.18059,-0.67846 2.26341,-1.49769 3.27519,-2.40476 1.13731,-0.95631 2.23577,-1.91799 3.25439,-3.00106 0.71818,-0.95156 1.61058,-1.78627 2.11114,-2.8836 0.58781,-1.15887 1.05021,-2.38929 1.42156,-3.63471 0.31377,-0.96096 0.35587,-1.96914 0.39085,-2.97026 0.0308,-1.62871 0.0188,-3.25795 0.0155,-4.88686 -0.14829,-1.38794 0.28566,-2.91242 -0.20251,-4.24912 -0.28965,-0.897 -0.69888,-1.81904 -1.42402,-2.44853 -1.27344,-1.3461 -2.5589,-2.68057 -3.85497,-4.00487 -0.23422,-0.23783 -0.46843,-0.47565 -0.70265,-0.71347 -2.83519,-2.87893 1.23623,-6.88849 4.07142,-4.00956 l 0,0 c 0.23841,0.24209 0.47681,0.48417 0.71521,0.72626 1.29744,1.3258 2.58504,2.66104 3.85923,4.00923 1.33704,1.43684 2.35487,3.07702 2.86359,4.99307 0.43765,1.88038 0.42999,3.76118 0.38898,5.68532 0.003,1.70257 0.0166,3.40552 -0.0193,5.10782 -0.0569,1.49605 -0.17227,2.99569 -0.63628,4.43025 -0.48294,1.55646 -1.04772,3.10138 -1.79169,4.55292 -0.81907,1.54945 -1.89835,2.89473 -3.04627,4.21395 -1.13358,1.20207 -2.35339,2.28449 -3.61243,3.34937 -1.33673,1.18586 -2.76288,2.26273 -4.32152,3.14469 -1.63118,0.8955 -3.2623,1.91697 -5.12502,2.22616 -1.25743,0.15661 -2.51426,0.14061 -3.78125,0.12828 -1.65874,-0.006 -3.32027,-0.0136 -4.97342,-0.16632 -1.72739,-0.19879 -3.44781,-0.49931 -5.07482,-1.13608 -1.4987,-0.44168 -2.98416,-0.99557 -4.24552,-1.94212 -0.98326,-0.78801 -1.96493,-1.56016 -2.93009,-2.37104 -0.89122,-0.84836 -1.85776,-1.62086 -2.44711,-2.73421 -0.63124,-1.30849 -0.97199,-2.66912 -0.86142,-4.13673 -0.002,-1.33693 -0.004,-2.67386 -0.005,-4.01079 0.001,-1.31375 -0.003,-2.62904 0.0838,-3.94058 0.11624,-1.4387 0.28356,-2.8788 0.73881,-4.25637 0.41058,-1.18686 0.56317,-2.47829 1.38521,-3.49834 0.7791,-1.25471 1.63693,-2.45321 2.47051,-3.67253 1.48561,-2.02331 3.25283,-3.79053 5.14257,-5.44006 2.12831,-1.84659 4.37469,-3.58941 6.79285,-5.0399 1.96979,-1.11142 4.01205,-2.02707 6.21104,-2.58853 1.89692,-0.45435 3.83542,-0.85783 5.79627,-0.61239 2.15738,0.24097 4.2888,0.6366 6.39499,1.16505 3.91996,0.98 2.53405,6.52367 -1.38592,5.54368 z"
       inkscape:connector-curvature="0" />
    <path
       style="fill:#008000"
       id="path3896"
       d="m 377.78274,196.25329 c -0.63886,-1.55455 -1.59727,-2.87291 -2.92273,-3.89934 -1.06018,-0.66745 -2.35884,-0.63866 -3.57054,-0.70077 -1.98652,0.0422 -3.8988,0.57342 -5.80123,1.09213 -1.89428,0.54582 -3.55725,1.59271 -5.18749,2.66744 -1.74351,1.2712 -3.41092,2.64759 -5.08002,4.01531 -1.72048,1.46214 -3.3915,3.03678 -4.70444,4.88247 -0.93892,1.39023 -1.8465,2.83307 -2.34738,4.44426 -0.27228,0.85736 -0.3125,1.75684 -0.33134,2.6488 -0.007,0.63207 -0.0471,1.38248 0.10609,1.82919 0.36586,0.27759 0.72819,0.62671 1.13975,0.87051 0.63637,0.26662 1.31965,0.33554 2.00068,0.38082 1.5896,0.33387 3.19071,0.52222 4.81059,0.62361 2.07275,0.07 4.15413,0.19303 6.22456,0.0369 2.13767,-0.16679 4.25331,-0.62216 6.2763,-1.33014 1.82938,-0.74453 3.57849,-1.63817 5.29608,-2.60942 1.36907,-0.74683 2.70731,-1.55272 3.96177,-2.48123 0.2784,-0.20605 0.61241,-0.35955 0.82257,-0.63486 0.19421,-0.25443 0.23055,-0.59719 0.34582,-0.89579 2.01026,-3.89731 3.02328,-8.17613 3.66174,-12.48507 0.0609,-0.57453 0.12187,-1.14905 0.18281,-1.72357 0.43194,-4.01746 6.11348,-3.40661 5.68155,0.61085 l 0,0 c -0.0711,0.65323 -0.14213,1.30646 -0.2132,1.9597 -0.76875,5.07859 -2.00264,10.11213 -4.46511,14.66333 -0.57065,0.80056 -1.07232,1.65507 -1.71195,2.40167 -0.27431,0.32019 -0.66447,0.5194 -1.00434,0.76891 -1.41348,1.03768 -2.91272,1.9504 -4.45043,2.79101 -2.02475,1.14341 -4.09405,2.18739 -6.2596,3.04178 -2.50478,0.8416 -5.09633,1.43891 -7.73818,1.62407 -2.32264,0.14451 -4.65039,0.0727 -6.97428,-0.0354 -1.63491,-0.10602 -3.27657,-0.23409 -4.87229,-0.62788 -1.67013,-0.13306 -3.31055,-0.4487 -4.76314,-1.33693 -1.49289,-1.04394 -2.8501,-2.27127 -3.44886,-4.0526 -0.31066,-1.16258 -0.3802,-2.32543 -0.32162,-3.5243 0.037,-1.45361 0.15939,-2.91018 0.61645,-4.3012 0.73688,-2.16994 1.84416,-4.17512 3.17172,-6.04271 1.64751,-2.19476 3.56218,-4.17656 5.68681,-5.91739 1.82455,-1.49384 3.64451,-3.00165 5.56444,-4.37122 2.13655,-1.39827 4.33865,-2.71501 6.82129,-3.40403 2.4918,-0.67892 5.01052,-1.31884 7.61546,-1.28474 2.44712,0.13997 4.86794,0.42666 6.87395,1.98107 2.05599,1.72533 3.6799,3.79224 4.65819,6.3184 1.41875,3.78334 -3.9317,5.78976 -5.35045,2.00642 z"
       inkscape:connector-curvature="0" />
    <path
       style="fill:#008000"
       id="path3898"
       d="m 385.45612,43.352514 c -1.94815,-0.74408 -3.95318,-1.222114 -6.03716,-1.261195 -1.09485,0.0821 -2.07655,0.496014 -2.98766,1.088529 -1.42644,0.968593 -2.41493,2.403842 -3.52394,3.694185 -1.49371,1.812677 -3.04961,3.594927 -4.23881,5.628517 -0.77153,1.14808 -1.23553,2.3903 -1.43124,3.74864 -0.19809,1.23016 0.0421,2.41947 0.45656,3.57885 0.51433,1.43744 0.90691,3.04292 1.95551,4.20318 0.66853,0.65583 1.46758,1.25235 2.34998,1.58681 0.83161,0.26821 1.56863,0.7456 2.43533,0.89144 1.28802,0.17192 2.562,0.13086 3.84423,-0.0367 1.64884,-0.32972 3.18109,-1.00187 4.71239,-1.67568 1.47169,-0.62517 2.73418,-1.56658 4.01847,-2.49786 0.86967,-0.84214 2.11457,-1.17464 3.04536,-1.91268 0.87169,-0.78844 1.42937,-1.87103 1.90156,-2.93248 0.59823,-1.51936 0.85726,-3.15081 0.77789,-4.77823 -0.39169,-2.35348 -1.3615,-4.576817 -2.23685,-6.784603 -0.65479,-1.813618 -0.34982,-0.912496 -0.91774,-2.702414 -1.21569,-3.853391 4.23382,-5.572641 5.44952,-1.719251 l 0,0 c 0.47554,1.517691 0.21653,0.743884 0.7819,2.31979 1.1172,2.830278 2.35023,5.684906 2.63567,8.743778 0.0302,2.51461 -0.29563,5.00699 -1.31029,7.33331 -0.95164,1.99085 -2.07668,3.94393 -3.89916,5.26613 -0.95181,0.61039 -1.97997,1.09869 -2.87584,1.79451 -1.6142,1.16802 -3.23578,2.31618 -5.07934,3.10485 -2.03181,0.88536 -4.08127,1.74567 -6.28295,2.1095 -1.90424,0.23691 -3.81478,0.27663 -5.7161,-0.0348 -1.245,-0.27367 -2.38407,-0.7619 -3.55719,-1.24585 -1.71204,-0.77706 -3.29764,-1.8255 -4.53753,-3.25805 -1.36934,-1.78797 -2.28781,-3.80718 -2.9169,-5.97073 -0.65175,-2.04 -1.03889,-4.12935 -0.67923,-6.27151 0.34145,-2.06763 1.00994,-4.02001 2.16741,-5.785458 1.38948,-2.301401 3.08319,-4.386922 4.81991,-6.434711 1.4968,-1.728782 2.86718,-3.605001 4.85015,-4.82508 1.88897,-1.135699 3.9064,-1.906983 6.14342,-1.93807 2.7162,0.08885 5.34957,0.638839 7.88909,1.62294 3.78334,1.418753 1.77692,6.769206 -2.00642,5.350453 z"
       inkscape:connector-curvature="0" />
    <path
       style="fill:#008000"
       id="path3900"
       d="m 504.20014,95.94304 c -0.52054,-1.74788 -1.07088,-3.49267 -2.01023,-5.06486 -0.0486,-0.0393 -0.12409,-0.17645 -0.14582,-0.11785 -0.0289,0.0779 0.0985,0.1429 0.10585,0.22566 0.0117,0.1313 -0.26363,0.0272 -0.39508,0.0173 -1.02535,-0.0772 -0.3165,-0.0364 -1.54867,-0.0888 -2.58551,-0.0503 -5.17191,-0.0165 -7.75768,-0.003 -2.36838,-0.1476 -4.09724,0.25224 -6.05552,1.55292 -2.21411,1.47076 -3.68617,3.65997 -5.28596,5.72061 -1.49319,1.98137 -2.98297,4.0266 -3.88795,6.35148 -0.80111,1.7604 -1.20651,3.62525 -1.39728,5.53839 -0.14575,1.51874 -0.15968,3.06422 0.42368,4.49438 0.60571,1.17627 1.72071,1.97174 2.73668,2.77376 1.47438,1.26606 3.0631,2.36917 4.74144,3.34527 1.1886,0.87056 2.48001,1.52685 3.88419,1.96135 1.52459,0.35217 3.0946,0.3873 4.65151,0.42564 1.5185,0.12816 2.93601,0.01 4.38788,-0.40834 1.48716,-0.58333 2.79728,-1.52778 4.05182,-2.49992 1.52151,-1.42704 2.90803,-2.96327 4.04401,-4.71249 1.4956,-2.26673 2.20516,-4.82533 2.63606,-7.47286 0.19041,-1.96562 0.6067,-4.0045 0.10861,-5.96104 -0.2196,-0.86262 -0.55103,-1.4663 -0.92757,-2.26813 -0.77663,-0.8833 -0.35028,-0.49544 -1.27177,-1.17155 -3.06042,-2.63825 0.67062,-6.96634 3.73104,-4.32809 l 0,0 c 2.04702,1.88228 1.12563,0.83453 2.75154,3.15432 0.66864,1.52808 1.01992,2.12869 1.37346,3.80426 0.53877,2.5534 0.18437,5.16182 -0.12974,7.71549 -0.58834,3.42729 -1.5569,6.73835 -3.4987,9.66962 -1.5038,2.26168 -3.28685,4.30166 -5.33011,6.09762 -1.83445,1.40614 -3.76642,2.73377 -5.97903,3.4701 -2.00687,0.56287 -4.0073,0.77626 -6.091,0.62349 -2.10062,-0.0537 -4.21806,-0.13419 -6.25627,-0.69784 -1.78708,-0.58747 -3.50108,-1.35548 -5.027,-2.47266 -1.89869,-1.12089 -3.72029,-2.35572 -5.39624,-3.79319 -1.86357,-1.47769 -3.65939,-3.05141 -4.56736,-5.3194 -0.77436,-2.27978 -1.02644,-4.62276 -0.7305,-7.02338 0.26381,-2.44399 0.7777,-4.84041 1.78702,-7.09666 1.16395,-2.78815 2.80693,-5.32963 4.66964,-7.7061 2.01269,-2.58691 3.94086,-5.26216 6.75972,-7.05381 2.89384,-1.75862 5.639,-2.63658 9.06413,-2.42745 2.68464,-0.0139 5.37006,-0.0507 8.05433,0.009 2.56884,0.12838 5.11741,0.43425 6.64989,2.788 1.18537,2.05581 1.98698,4.2791 2.62065,6.56272 0.97999,3.91996 -4.56368,5.30588 -5.54367,1.38591 z"
       inkscape:connector-curvature="0" />
    <path
       style="fill:#008000"
       id="path3902"
       d="m 519.24559,227.95641 c -1.00237,-2.15485 -2.47473,-3.9158 -4.27322,-5.43515 -1.30373,-1.12196 -2.83389,-1.37044 -4.48495,-1.52907 -2.1061,-0.22492 -4.07512,0.18633 -5.93749,1.15612 -2.56923,1.34869 -4.56396,3.4925 -6.50668,5.59897 -2.26182,2.42249 -3.90008,5.08394 -5.18976,8.11325 -0.86802,2.34044 -1.34339,4.83306 -1.29556,7.33033 0.16948,1.98181 1.11893,3.62796 2.38567,5.10881 1.44032,1.44975 3.21764,2.41679 5.11091,3.13379 2.32615,0.7027 4.6938,1.27856 7.13037,1.34406 2.52511,-0.17171 4.55416,-1.79971 6.28023,-3.51531 2.37829,-2.63027 3.51308,-5.89182 4.21823,-9.29896 0.27355,-1.60404 0.17169,-3.0862 -0.32261,-4.61713 -1.12066,-3.88209 4.36945,-5.46694 5.49011,-1.58485 l 0,0 c 0.66489,2.45743 0.91221,4.8552 0.42251,7.38726 -0.97729,4.5232 -2.60804,8.80674 -5.84563,12.23081 -3.10996,2.92893 -6.0568,4.95857 -10.46731,5.10805 -3.06823,-0.14578 -6.06763,-0.75928 -8.98369,-1.73079 -2.79094,-1.11159 -5.4001,-2.58196 -7.44798,-4.82897 -2.04845,-2.55368 -3.53405,-5.36642 -3.68503,-8.70873 0.0138,-3.28352 0.5412,-6.54327 1.75744,-9.60913 1.57449,-3.65416 3.52448,-6.80833 6.24412,-9.73935 2.42432,-2.62189 4.95936,-5.21245 8.18286,-6.84984 2.86545,-1.36159 5.85542,-2.07193 9.04827,-1.71224 2.79419,0.30424 5.42453,0.98633 7.60827,2.86874 2.3608,2.03476 4.331,4.38429 5.67193,7.22382 1.80702,3.61403 -3.30399,6.16954 -5.11101,2.55551 z"
       inkscape:connector-curvature="0" />
    <path
       style="fill:#008000"
       id="path3904"
       d="m 335.5154,331.98703 c -1.8113,-1.56239 -4.05262,-2.25317 -6.34845,-2.72801 -2.61138,-0.60473 -5.09751,-0.24074 -7.63618,0.45097 -3.22127,1.12148 -5.90515,3.23422 -8.48789,5.39498 -2.82634,2.41912 -5.06039,5.34027 -6.94658,8.52322 -1.1072,2.00308 -1.51095,3.61943 -0.82061,5.79306 0.85902,1.56739 2.12527,2.85151 3.37461,4.10931 0.9724,0.86727 2.39723,0.84474 3.63414,0.82163 2.73072,-0.0509 5.42403,-0.52352 8.12748,-0.86471 2.00624,-0.12605 3.93755,-0.54013 5.78582,-1.31758 2.01396,-0.86411 3.67948,-2.23763 5.35067,-3.61916 2.02093,-1.64772 2.79604,-3.94386 3.36391,-6.40118 0.81359,-3.98951 0.80526,-7.97215 -0.13231,-11.9238 -0.86493,-2.46774 -0.3575,-1.25781 -1.52697,-3.62784 -1.75104,-3.64148 3.39879,-6.11782 5.14984,-2.47634 l 0,0 c 1.50205,3.1853 0.857,1.57208 1.94852,4.83428 0.18376,0.83183 0.41198,1.65506 0.55127,2.49548 0.66341,4.00283 0.28355,8.07922 -0.43665,12.04336 -0.91192,3.64413 -2.27641,7.02677 -5.27911,9.46221 -2.11083,1.74134 -4.26336,3.42438 -6.80944,4.4952 -2.32518,0.94638 -4.73627,1.54165 -7.25059,1.70475 -2.95063,0.37182 -5.89176,0.88084 -8.87381,0.90953 -2.80075,-0.0537 -5.57486,-0.45054 -7.66093,-2.51284 -1.93162,-1.95178 -3.83289,-3.98949 -4.82247,-6.60363 -1.02708,-3.97928 -0.54245,-6.62875 1.41729,-10.24601 2.23035,-3.72807 4.86928,-7.15603 8.19514,-9.98662 3.22772,-2.68645 6.61897,-5.23806 10.67521,-6.52835 3.41044,-0.89545 6.81373,-1.31301 10.30292,-0.51823 3.19551,0.69839 6.29023,1.75666 8.81337,3.92649 3.10408,2.58673 -0.55411,6.97657 -3.6582,4.38983 z"
       inkscape:connector-curvature="0" />
    <path
       style="fill:#008000"
       id="path3906"
       d="m 237.0879,219.35783 c -2.42312,-1.43668 -5.13746,-2.23962 -7.87928,-2.79777 -3.02576,-0.48222 -5.83375,0.36141 -8.59658,1.49728 -3.03039,1.53292 -5.80995,3.54604 -8.44157,5.68229 -2.46792,2.11381 -4.64438,4.5668 -6.5304,7.20863 -1.64646,2.42784 -2.61815,5.10992 -3.14093,7.97328 -0.23027,2.12332 -0.6205,4.49866 0.25226,6.52768 0.71549,1.55609 2.07843,2.30136 3.57921,2.98098 2.5576,1.04206 5.21863,1.84506 7.91057,2.45908 1.83998,0.29205 3.71665,0.67023 5.59009,0.65644 0.76149,-0.006 1.56609,-0.20655 2.30263,-0.35304 3.3414,-0.97151 6.31268,-2.78501 9.10129,-4.81815 2.91068,-2.36562 4.44383,-5.20767 5.49306,-8.74333 0.87,-3.53805 0.8074,-7.25337 -0.44266,-10.70622 -0.24882,-0.68727 -0.61689,-1.32532 -0.92534,-1.98798 -0.41931,-0.60302 -0.83863,-1.20603 -1.25795,-1.80904 -2.24433,-3.35999 2.5074,-6.53395 4.75174,-3.17397 l 0,0 c 0.57556,0.88643 1.15113,1.77286 1.72669,2.65929 0.41012,0.95166 0.89298,1.87517 1.23035,2.85498 1.54201,4.47842 1.53559,9.29021 0.3789,13.84301 -0.25618,0.81144 -0.46707,1.63859 -0.76855,2.43431 -1.39184,3.67358 -3.80821,6.77838 -6.8316,9.25491 -3.48532,2.51594 -7.21298,4.73255 -11.41615,5.81108 -1.63372,0.28723 -2.04822,0.43255 -3.71381,0.43636 -2.18061,0.005 -4.36153,-0.43529 -6.50099,-0.7901 -3.09115,-0.71753 -6.1532,-1.62985 -9.07889,-2.86551 -2.8685,-1.40035 -5.31472,-3.18719 -6.52577,-6.26601 -0.1722,-0.54373 -0.38647,-1.0759 -0.51661,-1.6312 -0.5991,-2.55623 -0.28244,-5.26831 0.0459,-7.8309 0.70913,-3.68084 1.9754,-7.14984 4.12163,-10.2582 2.20749,-3.03724 4.6934,-5.89053 7.57449,-8.31149 3.07577,-2.47443 6.30741,-4.82333 9.88009,-6.53063 3.90425,-1.57318 7.66781,-2.51636 11.90793,-1.79934 3.40007,0.71422 6.7544,1.73774 9.74881,3.54758 3.42643,2.14151 0.39787,6.98722 -3.02857,4.8457 z"
       inkscape:connector-curvature="0" />
    <path
       style="fill:#000000"
       id="path4499"
       d="m 44.524424,321.42128 c -3.496213,0.45972 -7.00444,0.81573 -10.518649,1.10324 -1.248589,0.0853 -2.498942,0.15472 -3.750472,0.17479 -0.163868,0.003 -0.328457,-0.002 -0.491727,-0.007 -2.019962,-0.0372 -1.967314,-2.89389 0.05265,-2.85666 l 0,0 c 0.590919,0.0204 -0.03613,4.3e-4 0.394006,0.006 1.188848,-0.0184 2.37653,-0.0859 3.56263,-0.16563 3.473651,-0.28403 6.941354,-0.63608 10.397179,-1.09069 2.004704,-0.25059 2.359089,2.58449 0.354385,2.83508 z"
       inkscape:connector-curvature="0"
       transform="translate(136.50022,37.376508)" />
    <path
       style="fill:#000000"
       id="path4501"
       d="m 190.83433,305.94294 c -5.67084,0.54038 -11.36126,0.83687 -17.05038,1.10413 -1.76762,0.0846 -3.53598,0.15498 -5.30565,0.17172 -0.54878,0.002 -1.09755,-0.002 -1.64631,-0.006 -0.11966,-7e-4 -0.23932,-0.002 -0.35898,-0.003 0.25867,-3.74412 2.12215,-2.82714 2.95351,-0.83678 0.0256,0.15094 0.0513,0.30188 0.0769,0.45281 0.17695,2.01254 -2.66921,2.26279 -2.84616,0.25025 l 0,0 c 0.0178,0.0613 0.0355,0.12264 0.0533,0.18396 0.52598,0.81665 0.56888,-2.31515 -0.20125,-2.90715 0.11447,10e-4 0.22893,0.002 0.3434,0.003 0.53291,0.004 1.06585,0.008 1.59878,0.006 1.73391,-0.0161 3.4665,-0.0861 5.1984,-0.1687 5.62852,-0.26436 11.25831,-0.55729 16.86892,-1.08981 2.00795,-0.2231 2.32347,2.61657 0.31552,2.83967 z"
       inkscape:connector-curvature="0" />
    <path
       style="fill:#000000"
       id="path4503"
       d="m 40.23871,212.84985 c -3.418791,0.43128 -6.843551,0.82109 -10.278068,1.10321 -1.062425,0.0844 -2.125069,0.16376 -3.190981,0.17493 -0.345659,0.002 -0.691327,1.3e-4 -1.036919,-0.007 -0.03753,-2.7e-4 -0.07498,-0.003 -0.112466,-0.004 -2.016954,-0.11631 -1.852467,-2.96872 0.164487,-2.85241 l 0,0 c 0.0046,1.2e-4 0.0093,1.8e-4 0.01389,3.4e-4 0.313977,0.005 0.627986,0.009 0.942021,0.006 0.99755,-0.01 1.99186,-0.0881 2.986221,-0.16549 3.394251,-0.27842 6.778725,-0.66482 10.157426,-1.09073 2.004704,-0.25058 2.359089,2.58449 0.354385,2.83508 z"
       inkscape:connector-curvature="0"
       transform="translate(136.50022,37.376508)" />
    <path
       style="fill:#000000"
       id="path4505"
       d="m 169.59607,198.0835 c -3.15032,0.40622 -6.30164,0.7987 -9.46372,1.1015 -1.23872,0.34959 -2.39735,0.90295 -3.62851,1.28314 -0.2807,0.0854 -0.56441,0.15995 -0.84899,0.23098 -1.9607,0.48715 -2.64963,-2.28569 -0.68893,-2.77284 l 0,0 c 0.23379,-0.0577 0.46666,-0.11916 0.69724,-0.18881 1.41457,-0.43395 2.72993,-1.13558 4.19693,-1.39661 3.13468,-0.29998 6.25855,-0.69004 9.3816,-1.09244 2.0047,-0.25059 2.35909,2.58449 0.35438,2.83508 z"
       inkscape:connector-curvature="0" />
    <path
       style="fill:#000000"
       id="path4507"
       d="m 165.31036,145.22636 c -2.92525,0.36565 -5.85049,0.73131 -8.77573,1.09696 -0.8468,0.13716 -1.70188,0.17335 -2.55801,0.18119 -0.89569,-0.15423 -2.59555,0.47536 -0.33038,-0.5223 -0.16315,0.22129 -0.3263,0.44259 -0.48945,0.66389 -1.32312,1.52675 -3.48228,-0.34443 -2.15915,-1.87118 l 0,0 c 0.01,0.0215 0.02,0.043 0.0299,0.0646 1.4554,-1.18437 1.38089,-1.26399 2.92455,-1.19202 0.74614,-0.006 1.49051,-0.035 2.22813,-0.15923 2.92524,-0.36566 5.85048,-0.73132 8.77573,-1.09697 2.0047,-0.25059 2.35909,2.58449 0.35438,2.83508 z"
       inkscape:connector-curvature="0" />
    <path
       style="fill:#000000"
       id="path4509"
       d="m 104.28571,356.9142 c 0,2.92524 0,5.85049 0,8.77573 0.42402,0.39648 0.69607,0.99987 0.98983,1.52829 0.45191,0.45537 -0.88985,-0.34496 0.18926,-0.22989 0.0299,4.8e-4 0.0597,0.004 0.0896,0.006 2.00959,-0.20783 2.30349,2.63416 0.29391,2.84198 l 0,0 c -0.21976,0.0137 -0.43951,0.0207 -0.65926,-0.004 -0.92157,-0.0947 -1.93576,-0.30489 -2.41094,-1.22612 -0.52387,-0.94319 -1.21045,-1.81497 -1.34951,-2.91608 0,-2.92524 0,-5.85049 0,-8.77573 0,-2.02031 2.85714,-2.02031 2.85714,0 z"
       inkscape:connector-curvature="0"
       transform="translate(136.50022,37.376508)" />
    <path
       style="fill:#000000"
       id="path4511"
       d="m 164.28571,352.62849 c 0,2.92524 0,5.85048 0,8.77573 0,0.74072 0,1.48145 0,2.22218 0,0.38168 0,0.76337 0,1.14505 0.17024,0.58698 -0.72699,-0.81144 -0.0553,-0.65144 0.0116,0.001 0.0225,0.006 0.0338,0.01 2.0203,-0.004 2.02533,2.85358 0.005,2.85714 l 0,0 c -0.24067,-0.0109 -0.48032,-0.0295 -0.71491,-0.0907 -1.04223,-0.26423 -2.16129,-0.81759 -2.1258,-2.12457 0,-0.38168 0,-0.76337 0,-1.14505 0,-0.74073 0,-1.48146 0,-2.22218 0,-2.92525 0,-5.85049 0,-8.77573 0,-2.02031 2.85714,-2.02031 2.85714,0 z"
       inkscape:connector-curvature="0"
       transform="translate(136.50022,37.376508)" />
    <path
       style="fill:#000000"
       id="path4513"
       d="m 210,349.77134 c 0,3.26904 0,6.53809 0,9.80713 0,0.93627 0,1.87254 0,2.80882 0,2.0203 -2.85714,2.0203 -2.85714,0 l 0,0 c 0,-0.93628 0,-1.87255 0,-2.80882 0,-3.26904 0,-6.53809 0,-9.80713 0,-2.0203 2.85714,-2.0203 2.85714,0 z"
       inkscape:connector-curvature="0"
       transform="translate(136.50022,37.376508)" />
    <path
       style="fill:#000000"
       id="path4515"
       d="m 271.04415,347.26068 c -0.73131,2.92524 -1.46262,5.85049 -2.19393,8.77573 -0.11347,0.45389 -0.22694,0.90778 -0.34042,1.36167 0.0964,-0.99684 0.0627,1.97238 0.0628,2.04447 0.002,2.02031 -2.85466,2.02381 -2.85714,0.004 l 0,0 c -0.001,-0.91345 -0.0301,-1.82898 0.0225,-2.74093 0.11347,-0.4539 0.22694,-0.90779 0.34042,-1.36168 0.73131,-2.92524 1.46262,-5.85049 2.19393,-8.77573 0.48999,-1.95998 3.26183,-1.26703 2.77183,0.69296 z"
       inkscape:connector-curvature="0"
       transform="translate(136.50022,37.376508)" />
    <path
       style="fill:#000000"
       id="path4517"
       d="m 317.44197,346.56772 c 0.84947,3.20981 1.5694,6.44988 2.20976,9.70721 0.12499,0.66841 0.26021,1.33552 0.35619,2.00891 -0.30342,1.43521 -2.27325,1.2137 -3.29269,0.80629 -1.84772,-0.81703 -0.69227,-3.43011 1.15546,-2.61308 l 0,0 c 1.74721,0.81362 0.92016,0.26544 -0.6978,2.16157 -0.094,-0.60659 -0.20819,-1.20995 -0.32466,-1.81266 -0.63076,-3.20983 -1.34046,-6.40246 -2.1781,-9.56528 -0.48999,-1.95999 2.28184,-2.65294 2.77184,-0.69296 z"
       inkscape:connector-curvature="0"
       transform="translate(136.50022,37.376508)" />
    <path
       style="fill:#000000"
       id="path4533"
       d="m 365.24424,339.67721 c 2.4075,1.41477 4.47162,3.31646 6.75926,4.89532 1.43766,0.9353 2.88222,1.86564 4.37665,2.7099 0.41004,0.32977 0.34959,0.1243 0.21041,0.0885 2.03869,0.82457 2.93106,1.57214 3.06346,3.62902 -0.008,1.1822 -0.0357,0.70328 -0.71215,2.3614 -0.50417,0.84813 -1.49085,1.09702 -2.22135,1.6671 -0.91741,0.67414 -1.81981,1.36893 -2.72875,2.0576 -0.84093,0.69883 -1.66938,1.40112 -2.56172,2.03432 -1.13358,0.8082 -2.30128,1.56144 -3.39283,2.4286 -0.50407,0.41354 -1.00704,0.82958 -1.48717,1.271 0.21793,-0.13247 -4.11724,-5.45261 -1.73754,-5.48386 -2.24412,0.73138 -2.35971,0.72308 -2.99881,2.49885 -0.002,0.006 -0.002,-0.0481 -0.004,-0.47365 -0.0142,-1.7126 -0.0169,-3.42527 -0.0201,-5.13792 -0.003,-1.79847 -0.004,-3.59695 -0.004,-5.39543 -10e-5,-0.83502 0,-1.67003 7e-5,-2.50505 4e-5,-0.42352 5e-5,-0.84703 6e-5,-1.27055 1e-5,-0.27123 1e-5,-0.54245 1e-5,-0.81368 0,-0.0352 -1e-5,-0.0705 -1e-5,-0.10572 -3e-5,-4.54569 6.42854,-4.54574 6.42858,-5e-5 l 0,0 c 0,0.0353 0,0.0705 0,0.10576 0,0.27128 0,0.54257 -1e-5,0.81386 -10e-6,0.42364 -2e-5,0.84729 -6e-5,1.27093 -7e-5,0.83448 -1.7e-4,1.66897 -7e-5,2.50346 2.9e-4,1.79487 10e-4,3.58973 0.004,5.3846 0.003,1.70903 0.006,3.41807 0.0201,5.12706 0.003,1.04092 0.006,2.62917 -0.95713,3.32309 -0.71033,0.51193 -1.58946,0.73497 -2.38419,1.10246 -2.24514,0.0294 -4.4782,-4.24779 -2.68908,-5.68449 0.59718,-0.54586 1.21723,-1.06627 1.84548,-1.57588 1.18278,-0.92983 2.43058,-1.7608 3.65788,-2.62704 0.83629,-0.59279 1.59402,-1.27576 2.39859,-1.91471 1.02094,-0.77345 2.03874,-1.54838 3.07371,-2.30153 0.54112,-0.34342 0.48938,-0.33055 0.95515,-0.57218 0.15331,-0.0795 0.57112,-0.36748 0.46281,-0.23295 -0.30773,0.38225 -0.67834,0.32746 -0.87406,0.74641 -0.16616,0.47149 -0.30508,0.95349 -0.49849,1.41447 -0.0428,0.10212 0.0307,-0.21937 0.0432,-0.3294 0.004,-0.0322 -0.0702,0.53484 -0.0404,0.59441 0.12681,1.45275 1.36023,2.04558 2.67915,2.48221 -0.94862,-0.11677 -1.87263,-0.38973 -2.69691,-0.88624 -1.6723,-0.94784 -3.29267,-1.9868 -4.89937,-3.03988 -2.17812,-1.54261 -4.19168,-3.3146 -6.47737,-4.70865 -3.85473,-2.40921 -0.4476,-7.86063 3.40714,-5.45142 z"
       inkscape:connector-curvature="0"
       transform="translate(136.50022,37.376508)" />
    <path
       style="fill:#000000"
       id="path4542"
       d="m 147.63743,70.48052 c 0.34414,2.743279 0.50634,5.485982 0.35991,8.246538 -0.0853,2.191071 -0.62127,4.325717 -0.9239,6.490337 -0.11349,1.2126 -0.19276,2.40538 -0.43983,3.596963 -0.48288,1.025679 -0.37781,0.940541 -0.70074,1.97522 -0.21288,0.563926 -0.43011,1.126201 -0.6498,1.687505 -0.86542,2.19984 -0.10352,0.244603 -5.60097,-2.981862 0.22628,-0.527122 0.52267,-1.015307 0.86351,-1.47634 0.71872,-1.085477 1.92502,-1.498803 3.09566,-1.888825 1.50525,-0.368456 2.95348,-0.91645 4.43294,-1.369696 1.41857,-0.290805 2.80285,-0.700551 4.20187,-1.070295 0.95039,-0.242377 1.92485,-0.350226 2.90183,-0.403859 0.31196,-0.01895 0.62376,-0.01792 0.93522,0.0054 -0.40386,-0.02125 0.84735,-0.0098 0.89425,-0.0098 0.45922,0.08812 1.56282,-0.240356 -0.16826,0.11108 -0.17429,0.03538 -0.89599,0.424519 0.13532,-0.10601 0.3932,-0.185253 0.79483,-0.352394 1.20281,-0.502208 1.59253,-0.525819 -0.19736,-0.211707 -2.02591,2.805842 -0.1541,0.254309 0.0732,0.590192 0.10979,0.885288 -0.28378,-1.15054 -0.73574,-2.222788 -1.26318,-3.281897 -0.83393,-1.563767 -1.83463,-3.009161 -2.89673,-4.422897 -1.47348,-1.799311 -2.72709,-3.750626 -3.90573,-5.750007 -0.6383,-1.266644 -1.47175,-2.410414 -2.12704,-3.668068 -0.23526,-0.444237 -0.42734,-0.905318 -0.565,-1.388144 4.3055,2.89141 3.83241,2.456989 1.91956,2.460014 -0.0655,1.91e-4 -0.13106,-1.97e-4 -0.19659,-4.38e-4 -4.54562,-0.02434 -4.5112,-6.452822 0.0344,-6.42848 l 0,0 c 0.0508,2.02e-4 0.1016,5.1e-4 0.15241,3.54e-4 2.00792,-0.0029 1.557,-0.01024 4.33229,2.431391 -0.11901,-0.40619 -0.14698,-0.395457 0.0316,-0.03055 0.59259,1.156101 1.39646,2.184278 1.95629,3.359355 1.05728,1.793611 2.17738,3.545528 3.50794,5.153872 1.30493,1.737827 2.5202,3.531354 3.53152,5.459382 0.60859,1.259423 1.17868,2.542766 1.52509,3.896478 0.0939,0.451765 0.47569,0.936567 0.28182,1.355294 -1.2138,2.621668 -3.76338,3.709137 -2.19993,3.202646 -0.19279,0.07095 -0.3828,0.149233 -0.5706,0.232522 -0.8768,0.431254 -1.80825,0.731919 -2.79933,0.653748 -0.50922,2.05e-4 -1.01941,0.01103 -1.52785,-0.02121 0.23162,0.01635 0.31272,0.0091 0.037,0.01654 -0.53869,0.02709 -1.07669,0.07306 -1.60256,0.20007 -1.32175,0.348321 -2.6294,0.74556 -3.97258,1.005212 -1.43443,0.431622 -2.83258,0.980868 -4.29305,1.325417 -1.69812,0.547587 -0.8622,0.400061 0.16045,-0.502047 0.0569,-0.05018 -0.2104,0.227216 -0.14711,0.173632 0.33632,-0.839775 -0.41111,0.937771 -0.56852,1.05397 -6.03423,-2.74717 -6.62093,-0.736008 -5.79906,-2.828057 0.20607,-0.526438 0.40981,-1.053797 0.60979,-1.58258 -0.0445,0.49845 -0.007,-0.0042 0.12903,-0.513969 0.0817,-0.306296 0.28884,-1.043085 0.517,-1.327587 0.0552,-0.06885 -0.0502,0.169211 -0.0754,0.253816 -0.0128,0.155952 0.0742,0.359075 -0.0383,0.467855 -0.1082,0.104645 0.0123,-0.300812 0.021,-0.451089 0.0339,-0.58954 0.0855,-1.179691 0.14687,-1.766879 0.0312,-0.298386 0.0675,-0.596215 0.10119,-0.894323 0.28206,-1.983701 0.76093,-3.941497 0.87054,-5.945271 0.13823,-2.40532 -0.0374,-4.792256 -0.33029,-7.183446 -0.50199,-4.517884 5.88726,-5.227801 6.38925,-0.709917 z"
       inkscape:connector-curvature="0" />
    <path
       style="fill:#000000;stroke-width:0.60000002;stroke-miterlimit:4;stroke-dasharray:none"
       id="path5324"
       d="m 155.42879,94.150584 c 0.0422,2.17657 0.0102,4.339298 -0.22221,6.504366 -0.24847,1.98362 -0.37728,3.97707 -0.44791,5.97392 -0.0503,1.6846 -0.0486,3.37012 -0.0492,5.05529 9.7e-4,1.62287 0.003,3.24574 0.004,4.86861 8.4e-4,1.59087 9.7e-4,3.18175 0.001,4.77263 4e-5,1.47264 1e-5,2.94528 0,4.41792 -1e-5,1.75326 -1e-5,3.50653 -1e-5,5.2598 0.2361,1.76866 0.4448,3.53799 0.57624,5.31781 0.0798,1.55948 0.44007,3.08629 0.63426,4.63523 0.23337,1.70253 0.11611,3.42726 0.29128,5.13179 0.2567,2.28055 0.41901,4.56462 0.73636,6.8375 0.31014,2.207 0.48293,4.42887 0.57502,6.65462 0.0192,1.60918 0.0305,3.20186 0.22983,4.79888 0.24772,2.85471 0.52608,5.70517 0.79283,8.5587 0.29282,3.19494 0.38123,6.40269 0.43093,9.609 0.0323,2.90068 0.0265,5.8016 0.0246,8.70241 0.22335,2.55839 0.3472,5.13065 0.64476,7.68161 0.38402,2.77822 0.58937,5.57441 0.69836,8.37545 0.30978,3.01315 0.53703,6.03048 0.66859,9.05653 0.29506,2.95813 0.55673,5.91696 0.71069,8.88603 0.29206,2.67479 0.56098,5.35009 0.8973,8.01964 0.31384,3.22369 0.95421,6.40008 1.42632,9.60132 0.63732,3.5382 0.99592,7.11624 1.41173,10.68492 0.59652,4.00585 1.35405,7.98828 2.10121,11.96886 0.7735,3.74889 1.31757,7.53295 1.90625,11.31246 0.48041,2.79274 0.75666,5.60993 0.88832,8.43872 -0.0157,2.77828 0.18708,5.53919 0.39412,8.30719 0.42594,3.25871 0.74733,6.52764 0.94663,9.80777 0.13226,2.48908 0.15526,4.98193 0.16474,7.47392 0.002,2.17511 -0.003,4.35021 -0.005,6.52532 -0.002,3.39266 -0.002,6.78533 -0.003,10.178 -0.0414,2.82859 0.0958,5.66189 -0.0942,8.48559 -0.29441,2.30579 -0.45506,4.6213 -0.5421,6.9431 0.0229,2.56146 -0.15085,5.10187 -0.42475,7.64628 -0.20707,2.11183 -0.29925,4.22383 -0.57665,6.32852 -0.27264,1.87578 -0.39429,3.76811 -0.46603,5.66076 -0.0496,1.81812 -0.045,3.63714 -0.0449,5.45577 -0.11008,1.823 -0.41678,3.62524 -0.59593,5.44167 -0.0926,0.87107 -0.10868,1.74685 -0.11571,2.6219 -0.004,0.95283 -9.8e-4,1.90566 8.6e-4,2.85849 0.13209,0.97282 -0.34628,1.85655 -0.55797,2.76845 -0.0853,0.8569 -0.23612,1.69364 -0.47272,2.52357 -0.16605,0.70544 -0.30837,1.42463 -0.36859,2.14807 -0.16411,0.97542 -0.56465,1.83989 -1.19649,2.59261 -0.0789,0.094 -0.31267,0.37649 -0.2484,0.2719 0.15854,-0.25803 0.35552,-0.49037 0.53328,-0.73555 0.57242,-1.55268 -0.24153,1.32748 -0.33033,1.59029 -0.17367,0.73654 -0.35079,1.46256 -0.62377,2.17131 -0.15082,0.45945 -0.22776,0.94223 -0.30205,1.41964 -0.0116,0.0579 -0.0152,0.11716 -0.0228,0.1756 -0.50234,4.51785 -6.89154,3.80744 -6.3892,-0.71041 l 0,0 c 0.018,-0.15625 0.0374,-0.31233 0.062,-0.46771 0.15095,-0.94749 0.33423,-1.89698 0.67955,-2.79548 0.0495,-0.11166 0.3546,-1.35027 0.51385,-1.8742 0.22695,-0.64839 0.2551,-1.31035 0.57256,-2.19596 1.24361,-1.91425 0.38748,-0.82096 0.3537,-0.068 0.11554,-1.11016 0.29971,-2.21634 0.58748,-3.29543 0.1702,-0.58754 0.26381,-1.64396 0.48292,-2.55874 0.22623,-0.73417 0.10026,-0.36664 0.28417,-0.8621 0.0275,-0.0741 0.0792,-0.3018 0.0817,-0.22275 0.0479,1.53496 -0.13663,0.44532 -0.0675,0.13735 -0.002,-0.97481 -0.005,-1.94963 -6.5e-4,-2.92444 0.009,-1.06971 0.0347,-2.14001 0.14707,-3.20479 0.16084,-1.60504 0.39627,-3.20078 0.56435,-4.80486 -1e-4,-1.90079 -0.005,-3.80201 0.0496,-5.70221 0.0809,-2.09197 0.21759,-4.18334 0.51674,-6.25696 0.27208,-2.05264 0.34113,-4.11522 0.55818,-6.17454 0.25824,-2.39721 0.41864,-4.78682 0.39239,-7.20095 0.0914,-2.39744 0.24594,-4.79062 0.55479,-7.17119 0.22045,-2.662 -0.008,-5.34708 0.0769,-8.01504 2.5e-4,-3.39439 4.6e-4,-6.78877 0.003,-10.18316 0.002,-2.16513 0.007,-4.33026 0.005,-6.49539 -0.009,-2.37071 -0.0293,-4.74225 -0.15308,-7.11029 -0.1954,-3.25007 -0.53071,-6.48641 -0.94044,-9.71636 -0.21144,-2.82889 -0.41902,-5.65252 -0.40526,-8.49161 -0.11747,-2.59756 -0.37617,-5.18337 -0.81897,-7.74733 -0.5749,-3.71364 -1.1115,-7.43052 -1.87214,-11.11343 -0.77381,-4.12701 -1.56206,-8.25546 -2.16827,-12.41049 -0.40802,-3.50479 -0.75894,-7.01872 -1.38649,-10.4933 -0.47578,-3.24543 -1.12897,-6.46485 -1.44431,-9.7331 -0.35601,-2.82603 -0.64591,-5.65824 -0.93915,-8.49146 -0.15375,-2.98723 -0.43371,-5.96217 -0.71324,-8.93979 -0.13078,-3.03668 -0.3771,-6.06215 -0.66984,-9.08726 -0.10042,-2.64142 -0.2984,-5.27764 -0.66206,-7.8972 -0.31058,-2.7947 -0.48524,-5.60713 -0.68581,-8.41137 0.002,-2.86632 0.008,-5.73276 -0.0238,-8.59895 -0.0467,-3.03987 -0.12749,-6.08123 -0.40385,-9.11046 -0.26032,-2.79068 -0.53535,-5.57838 -0.77247,-8.37059 -0.21577,-1.77138 -0.26627,-3.53831 -0.27265,-5.32163 -0.0816,-2.01677 -0.23829,-4.0299 -0.51878,-6.02968 -0.33091,-2.37511 -0.50788,-4.76116 -0.77167,-7.14433 -0.13677,-1.63974 -0.10476,-3.28462 -0.26885,-4.92277 -0.20185,-1.6554 -0.60238,-3.2855 -0.66583,-4.95575 -0.14057,-1.93672 -0.42871,-3.85365 -0.59343,-5.7875 1e-5,-1.75328 1e-5,-3.50656 2e-5,-5.25984 1e-5,-1.47251 4e-5,-2.94503 0,-4.41755 -8e-5,-1.58969 -2.2e-4,-3.17939 -0.001,-4.76908 -9.8e-4,-1.62495 -0.003,-3.2499 -0.004,-4.87486 6.6e-4,-1.76078 -4.8e-4,-3.52193 0.0533,-5.28209 0.0774,-2.15235 0.21578,-4.30132 0.48149,-6.439646 0.21343,-1.933511 0.21503,-3.864717 0.18454,-5.80946 0,-4.545686 6.42858,-4.545686 6.42858,0 z"
       inkscape:connector-curvature="0" />
    <path
       style="fill:#000000;stroke-width:0.60000002;stroke-miterlimit:4;stroke-dasharray:none"
       id="path5326"
       d="m 27.469642,358.17632 c 1.960995,0.23671 3.889437,0.66773 5.839578,0.97442 1.577793,0.14226 3.12808,0.35878 4.667171,0.73774 1.062599,0.24314 2.1536,0.2556 3.229949,0.41133 1.657526,0.33867 3.344108,0.4528 5.03007,0.53285 1.770111,0.1951 3.520179,0.51858 5.294895,0.67456 1.358005,0.10223 2.720589,0.10913 4.081666,0.11588 1.409972,0.0885 2.777221,0.45408 4.179333,0.6016 1.334426,0.12017 2.677386,0.10531 4.016027,0.11124 1.917171,0.004 3.834349,7.9e-4 5.751522,-9e-4 1.758539,-0.001 3.517078,-0.002 5.275618,-0.002 1.934369,-1.7e-4 3.868737,-1.3e-4 5.803106,-1.2e-4 1.851719,10e-6 3.703438,2e-5 5.555157,3e-5 1.991023,0.0356 3.965755,0.36134 5.95022,0.52917 1.65069,0.12842 3.306616,0.16586 4.96162,0.18404 1.61488,0.0103 3.229816,0.006 4.844716,0.004 1.86427,-0.002 3.72854,-0.002 5.59282,-0.003 1.63056,-2.8e-4 3.26112,-2.4e-4 4.89168,-2.4e-4 1.90369,1e-5 3.80738,2e-5 5.71108,3e-5 1.40312,0 2.80625,10e-6 4.20938,10e-6 1.77867,0 3.55735,0 5.33602,0 1.88243,0.0965 3.73402,-0.0566 5.59698,-0.29709 1.3306,-0.20061 2.6677,-0.3347 4.01178,-0.39096 1.72172,-0.0426 3.44435,-0.0316 5.16647,-0.0308 1.51761,0.12468 2.99176,-0.14237 4.47989,-0.38458 1.46714,-0.2392 2.95409,-0.28698 4.43728,-0.31505 1.75515,-0.0206 3.51047,-0.0154 5.26571,-0.0139 1.55233,0.0169 3.0903,0.0534 4.62778,-0.16868 1.57628,-0.26646 3.16749,-0.40542 4.76245,-0.491 1.33259,-0.0598 2.66692,-0.0553 4.00051,-0.0558 1.70799,0.002 3.40107,-0.31399 5.09764,-0.49553 1.28332,-0.13011 2.57167,-0.19058 3.8609,-0.212 1.49389,-0.0116 2.98788,-0.006 4.4818,-0.005 1.34117,-0.16512 2.67121,-0.40003 4.01323,-0.55974 1.09255,-0.14094 2.1954,-0.14624 3.29503,-0.15443 1.4859,-0.004 2.97182,-0.001 4.45772,6.5e-4 0.98045,0.001 1.96089,0.002 2.94133,0.002 1.14953,1.9e-4 2.29906,1.3e-4 3.44859,1.3e-4 1.39953,-2e-5 2.79907,-2e-5 4.1986,-3e-5 1.17103,-0.0372 2.35229,0.0834 3.51579,-0.0693 1.87067,-0.2756 3.75396,-0.44016 5.64026,-0.55837 1.26937,-0.0741 2.54098,-0.0873 3.81213,-0.0913 1.58695,-5.8e-4 3.17391,0.002 4.76086,0.003 1.42944,0.0147 2.84366,0.0542 4.25684,-0.16582 1.60551,-0.28933 3.22934,-0.42685 4.85725,-0.4978 1.86766,-0.0594 3.73659,-0.0536 5.60496,-0.0542 1.70372,7e-4 3.40745,0.003 5.11117,0.004 1.92361,9.8e-4 3.84722,9.9e-4 5.77083,0.001 1.54525,0.0249 3.06787,-0.31579 4.59895,-0.49594 1.43499,-0.15413 2.87856,-0.19645 4.32064,-0.21677 1.12453,-0.0108 2.24915,-0.006 3.37371,-0.005 1.26573,0.002 2.53147,0.002 3.79721,0.003 1.27894,2.8e-4 2.55789,2.5e-4 3.83684,2.4e-4 1.23728,-1e-5 2.47456,-2e-5 3.71184,-3e-5 1.33377,0 2.66753,0 4.0013,0 1.21023,0 2.42046,0 3.6307,0 1.42227,-0.0232 2.83247,-0.321 4.24602,-0.49404 1.31844,-0.14595 2.63485,-0.12941 3.93835,-0.37071 1.74044,-0.31385 3.50487,-0.4413 5.26923,-0.51768 1.41086,0.0764 2.77306,-0.23219 4.15692,-0.44474 1.38543,-0.0984 2.73378,-0.31728 4.09543,-0.57481 1.7485,-0.31893 3.52898,-0.38535 5.3016,-0.4342 1.62386,-0.23929 3.24841,-0.46016 4.88416,-0.59945 1.35054,-0.0744 2.66963,-0.41494 4.00552,-0.62047 1.14352,-0.0586 2.20814,-0.41668 3.33425,-0.61602 1.69512,-0.26438 3.36818,-0.61925 5.07611,-0.81809 1.7598,-0.38352 3.54177,-0.63515 5.33423,-0.79872 1.30633,-0.009 2.55742,-0.14344 3.82954,-0.40404 1.29479,-0.17815 2.56515,-0.43334 3.84584,-0.68991 1.34364,-0.25533 2.70685,-0.37662 4.07092,-0.4507 0.67978,-0.0315 1.36031,-0.0306 2.04062,-0.0288 0.56191,0.003 1.12383,0.004 1.68576,0.005 0.1528,0.007 1.07956,-0.2775 1.92686,-0.45183 0.43959,-0.0855 0.88012,-0.16754 1.32364,-0.23007 0.50864,-0.0523 1.02052,-0.0372 1.53094,-0.0347 1.06604,-0.14183 3.63596,2.26038 2.56491,1.02943 3.38072,3.03875 -0.91673,7.81981 -4.29744,4.78106 l 0,0 c -2.05267,-2.08217 3.08551,0.86443 1.70073,0.618 -0.14277,-7.1e-4 -1.149,0.0164 -0.61607,-0.0261 -0.30796,0.0441 -0.61371,0.10241 -0.91922,0.16076 -1.06908,0.21663 -2.12014,0.59777 -3.22295,0.58208 -0.56481,-7.6e-4 -1.12962,-0.002 -1.69443,-0.005 -0.55951,-0.002 -1.1192,-0.004 -1.67838,0.0195 -1.05736,0.0561 -2.11462,0.14316 -3.15715,0.33552 -1.26895,0.25237 -2.53213,0.51042 -3.81447,0.68357 -1.5045,0.3082 -3.00531,0.49503 -4.54351,0.50895 -1.74165,0.15401 -3.46178,0.44198 -5.17641,0.78256 -1.59618,0.18046 -3.15617,0.52741 -4.7412,0.77064 -1.1523,0.17569 -2.2608,0.59512 -3.43632,0.63239 -1.4779,0.22141 -2.9357,0.60434 -4.43295,0.67091 -1.7578,0.14599 -3.49484,0.44015 -5.24877,0.61975 -1.43082,0.0383 -2.86974,0.0785 -4.28284,0.32481 -1.43289,0.27045 -2.86132,0.51048 -4.31733,0.61272 -1.61141,0.24506 -3.21393,0.57649 -4.85434,0.51274 -1.47149,0.0618 -2.94366,0.16108 -4.3957,0.42025 -1.43043,0.25579 -2.86259,0.31978 -4.30879,0.42682 -1.67087,0.20233 -3.33602,0.54955 -5.02331,0.54121 -1.21024,0 -2.42047,0 -3.6307,0 -1.33376,0 -2.66751,0 -4.00127,10e-6 -1.23728,0 -2.47457,1e-5 -3.71185,2e-5 -1.27961,10e-6 -2.55923,4e-5 -3.83884,-2.4e-4 -1.26799,-3.9e-4 -2.53597,-0.001 -3.80396,-0.003 -1.09199,-0.001 -2.18402,-0.006 -3.27599,0.004 -1.22278,0.0166 -2.44699,0.0485 -3.66424,0.17403 -1.7784,0.20561 -3.54598,0.59616 -5.34459,0.5393 -1.92496,-7e-5 -3.84993,-8e-5 -5.7749,-0.001 -1.70159,-0.001 -3.40318,-0.003 -5.10477,-0.004 -1.77822,5.7e-4 -3.55695,-0.005 -5.33455,0.0484 -1.39817,0.0573 -2.79173,0.17914 -4.16987,0.4315 -1.73577,0.25638 -3.46946,0.27919 -5.22199,0.23789 -1.57852,-0.001 -3.15705,-0.004 -4.73558,-0.003 -1.1442,0.003 -2.28884,0.0136 -3.43151,0.0789 -1.80559,0.11229 -3.60691,0.27661 -5.39765,0.5386 -1.38537,0.12014 -2.76878,0.11429 -4.15899,0.10157 -1.39953,10e-6 -2.79906,2e-5 -4.19859,3e-5 -1.15003,0 -2.30005,6e-5 -3.45008,-1.3e-4 -0.9825,-2.2e-4 -1.96499,-7.5e-4 -2.94748,-0.002 -1.46777,-0.002 -2.93554,-0.005 -4.4033,-8.2e-4 -0.86238,0.006 -1.72827,3.1e-4 -2.58534,0.10994 -1.59431,0.188 -3.17028,0.51585 -4.77583,0.6044 -1.45729,-0.001 -2.91462,-0.006 -4.37187,0.004 -1.09646,0.0171 -2.19211,0.0677 -3.28369,0.17665 -1.92175,0.20374 -3.8385,0.55555 -5.77593,0.53171 -1.22057,5.1e-4 -2.44181,-0.005 -3.66156,0.0467 -1.41023,0.0744 -2.81652,0.19774 -4.20965,0.43754 -1.83819,0.25307 -3.67447,0.27171 -5.52799,0.23122 -1.7138,-0.002 -3.42769,-0.007 -5.14142,0.0128 -1.17707,0.0211 -2.35824,0.0476 -3.52343,0.23269 -1.82712,0.29721 -3.65555,0.58462 -5.51518,0.46803 -1.63439,-7.3e-4 -3.2692,-0.0104 -4.90328,0.0256 -1.15653,0.0449 -2.3054,0.17225 -3.45016,0.34348 -2.13398,0.2748 -4.26464,0.44335 -6.41894,0.34985 -1.77867,0 -3.55735,0 -5.33602,0 -1.40314,0 -2.80627,0 -4.2094,-1e-5 -1.90369,-10e-6 -3.80738,-2e-5 -5.71107,-3e-5 -1.63009,0 -3.26018,-4e-5 -4.89026,2.5e-4 -1.8628,4e-4 -3.72559,0.001 -5.58838,0.003 -1.64064,0.001 -3.281304,0.006 -4.921913,-0.004 -1.812829,-0.0203 -3.626578,-0.0637 -5.434509,-0.20672 -1.803817,-0.1539 -3.600637,-0.44139 -5.406,-0.50609 -1.851724,-1e-5 -3.703447,-2e-5 -5.55517,-3e-5 -1.934081,-10e-6 -3.868162,-5e-5 -5.802243,1.2e-4 -1.756926,2.3e-4 -3.513853,6.6e-4 -5.270779,0.002 -1.928649,0.002 -3.857303,0.005 -5.785951,8.3e-4 -1.562521,-0.007 -3.129751,0.005 -4.686418,-0.1493 -1.180208,-0.13251 -2.345915,-0.34307 -3.512493,-0.56355 -1.541236,-0.008 -3.084126,-0.0193 -4.621474,-0.1413 -1.686386,-0.15268 -3.356791,-0.41086 -5.031512,-0.65647 -1.931545,-0.0939 -3.863854,-0.23143 -5.764102,-0.61058 -1.213973,-0.28011 -2.531734,-0.0912 -3.730696,-0.51424 -1.361899,-0.33876 -2.730204,-0.48284 -4.127346,-0.62852 -1.96771,-0.3124 -3.914138,-0.74157 -5.892743,-0.98306 -4.483837,-0.7473 -3.426987,-7.08841 1.056851,-6.3411 z"
       inkscape:connector-curvature="0"
       transform="translate(136.50022,37.376508)" />
    <path
       style="fill:#000000;stroke:#b30000;stroke-width:3.6;stroke-linecap:round;stroke-linejoin:round;stroke-opacity:1;stroke-miterlimit:4;stroke-dasharray:none"
       d="m 84.285714,196.26143 144.999996,-30 z"
       id="path5336"
       inkscape:connector-curvature="0"
       transform="translate(136.50022,37.376508)" />
    <path
       style="fill:#000000;fill-opacity:1;fill-rule:nonzero;stroke:none"
       id="path5342"
       d="m 144.21971,170.98364 c -0.18283,-1.09696 -0.36565,-2.19393 -0.54848,-3.2909 0.0324,0.37818 0.21292,0.57913 0.55575,0.67972 -0.38604,0.004 -0.77191,0.0155 -1.15789,0.0223 0.18366,0.017 -0.55943,-0.009 -0.42012,0.005 0.50713,0.0525 -0.0779,0.22478 -0.40554,0.42792 -0.76345,0.52845 -1.36577,1.22572 -1.98812,1.90764 -0.63855,0.86744 -1.38042,1.66503 -1.93168,2.59504 -0.48569,0.70411 -0.88237,1.43416 -1.0859,2.26503 -0.26112,0.73961 -0.56415,1.46473 -0.72398,2.23427 -0.0771,0.3286 -0.0855,0.66486 -0.0914,1.00055 0.0981,0.87802 -1.22414,-1.28676 -0.87637,-1.12122 0.26299,0.12518 0.52199,0.25858 0.78299,0.38787 0.84677,0.75197 -0.18556,0.0364 0.51128,0.37017 -0.4028,-0.0992 0.0837,-0.0597 0.32175,-0.0582 0.41659,4.3e-4 0.83317,-0.002 1.24976,-0.004 0.49151,-0.0407 0.54742,0.0597 1.20263,-0.36457 0.74728,-0.40085 1.59014,-0.79789 2.14452,-1.45991 0.69087,-0.5584 1.23386,-1.20898 1.75953,-1.91528 0.61988,-0.95318 1.06104,-1.99724 1.55789,-3.01654 0.40097,-0.7112 0.53021,-1.50282 0.60952,-2.30262 0.0554,-0.94666 0.0413,-1.89599 0.0384,-2.84385 -0.004,-1.06673 -0.007,-2.13347 -0.009,-3.2002 -0.005,-0.75613 0.0243,-1.57262 -0.0483,-2.28845 -0.34153,-1.04386 -0.51369,-2.13262 -0.75518,-3.20304 -0.2681,-1.24294 -0.46985,-2.49958 -0.57966,-3.76638 -0.057,-0.74034 -0.0539,-1.48343 -0.0532,-2.22543 9.5e-4,-0.39783 0.003,-0.79567 0.006,-1.19349 -0.0114,-1.14887 2.85808,-0.60482 2.85822,0.55362 0.16335,1.00564 0.3853,2.0387 0.50785,3.07283 0.41011,1.66247 0.55203,3.37155 0.8536,5.05211 0.40434,1.86547 0.59019,3.7631 0.70442,5.66516 0.0673,1.2957 0.0821,2.59312 0.0841,3.89028 -9.6e-4,0.94196 -0.004,1.88391 -0.006,2.82586 -0.001,0.84262 -0.001,1.68524 -0.002,2.52786 -4e-5,0.41584 -5e-5,0.83168 -1e-5,1.24751 0.1,1.04697 -0.29043,-0.57988 0.0979,0.36886 0.33421,0.7649 0.4655,1.58987 0.56094,2.41258 0.0312,0.28237 0.0529,0.56562 0.0605,0.84956 -0.0117,0.26881 0.0171,-0.21519 -0.008,0.17594 -0.19265,2.0111 -3.03678,1.73865 -2.84412,-0.27245 l 0,0 c -0.002,0.0305 -0.004,0.061 -0.005,0.0916 2e-5,0.0111 3e-5,0.0222 5e-5,0.0333 -0.007,-0.17809 -0.0227,-0.37108 -0.042,-0.55211 -0.064,-0.56481 -0.13365,-1.13653 -0.36846,-1.66053 -0.18742,-0.46291 -0.35187,-0.94271 -0.30896,-1.44642 -5e-5,-0.41608 -3e-5,-0.83217 1e-5,-1.24825 1.3e-4,-0.84395 3.8e-4,-1.68791 0.002,-2.53186 0.001,-0.939 0.005,-1.878 0.006,-2.817 -0.002,-1.24185 -0.0154,-2.48396 -0.079,-3.72445 -0.10631,-1.79275 -0.28144,-3.58072 -0.66593,-5.33833 -0.30278,-1.73676 -0.47371,-3.49593 -0.87767,-5.21604 -0.13317,-1.14648 -0.41583,-2.26404 -0.52734,-3.40563 -1.4e-4,-1.15166 2.85429,-1.66321 2.85598,-0.53249 -0.003,0.39156 -0.005,0.78313 -0.006,1.1747 -6.4e-4,0.66036 -0.005,1.32176 0.043,1.98081 0.0942,1.13709 0.28366,2.26377 0.51989,3.37957 0.2394,1.06128 0.40894,2.13887 0.74844,3.17387 0.17494,0.97454 0.1239,1.95333 0.1251,2.94195 0.002,1.06534 0.004,2.13068 0.009,3.19602 0.003,1.04756 0.0195,2.0971 -0.0532,3.1428 -0.11821,1.1318 -0.33657,2.25324 -0.88427,3.26554 -0.57507,1.1767 -1.08849,2.38442 -1.83349,3.46913 -0.59257,0.79615 -1.21309,1.54981 -1.98462,2.18201 -0.84873,0.8468 -1.83904,1.52852 -2.92669,2.03931 -0.7767,0.36178 -1.60476,0.70807 -2.47889,0.6697 -0.42575,0.001 -0.85149,0.004 -1.27725,0.004 -0.51264,-0.004 -1.04414,0.006 -1.52116,-0.21457 -0.12473,-0.0595 -1.76348,-1.05331 -1.06633,-0.7144 1.55321,0.55824 -1.17024,-0.21147 -0.98978,-1.56058 0.0102,-0.51732 0.0387,-1.03531 0.15353,-1.54171 0.17405,-0.80393 0.43476,-1.5842 0.74964,-2.34413 0.28784,-1.10428 0.76816,-2.11448 1.41926,-3.05407 0.66985,-1.06982 1.47963,-2.03566 2.25683,-3.02723 0.80351,-0.88031 1.60891,-1.75487 2.60847,-2.41943 0.71293,-0.42571 1.37878,-0.93462 2.26585,-0.85224 0.46782,-0.008 0.93579,-0.0289 1.40368,-0.016 1.02747,0.13928 1.74233,0.66625 2.06652,1.70098 0.18282,1.09697 0.36565,2.19393 0.54848,3.2909 0.33214,1.99282 -2.48613,2.46253 -2.81827,0.46971 z"
       inkscape:connector-curvature="0"
       transform="translate(136.50022,37.376508)" />
  </g>
</svg>
