<?xml version="1.0" encoding="UTF-8" standalone="no"?>
<!-- Created with Inkscape (http://www.inkscape.org/) -->

<svg
   xmlns:dc="http://purl.org/dc/elements/1.1/"
   xmlns:cc="http://creativecommons.org/ns#"
   xmlns:rdf="http://www.w3.org/1999/02/22-rdf-syntax-ns#"
   xmlns:svg="http://www.w3.org/2000/svg"
   xmlns="http://www.w3.org/2000/svg"
   xmlns:sodipodi="http://sodipodi.sourceforge.net/DTD/sodipodi-0.dtd"
   xmlns:inkscape="http://www.inkscape.org/namespaces/inkscape"
   width="328.23727"
   height="323.68719"
   id="svg3838"
   version="1.1"
   inkscape:version="0.48.5 r10040"
   sodipodi:docname="network_full.svg">
  <defs
     id="defs3840" />
  <sodipodi:namedview
     id="base"
     pagecolor="#ffffff"
     bordercolor="#666666"
     borderopacity="1.0"
     inkscape:pageopacity="0.0"
     inkscape:pageshadow="2"
     inkscape:zoom="1.4"
     inkscape:cx="264.80574"
     inkscape:cy="137.02892"
     inkscape:document-units="px"
     inkscape:current-layer="layer1"
     showgrid="false"
     inkscape:window-width="1656"
     inkscape:window-height="964"
     inkscape:window-x="45"
     inkscape:window-y="20"
     inkscape:window-maximized="0"
     fit-margin-top="0"
     fit-margin-left="0"
     fit-margin-right="0"
     fit-margin-bottom="0" />
  <metadata
     id="metadata3843">
    <rdf:RDF>
      <cc:Work
         rdf:about="">
        <dc:format>image/svg+xml</dc:format>
        <dc:type
           rdf:resource="http://purl.org/dc/dcmitype/StillImage" />
        <dc:title></dc:title>
      </cc:Work>
    </rdf:RDF>
  </metadata>
  <g
     inkscape:label="Layer 1"
     inkscape:groupmode="layer"
     id="layer1"
     transform="translate(-136.50022,-86.379181)">
    <path
       style="fill:#008000"
       id="path3896"
       d="m 317.78274,246.25329 c -0.63886,-1.55455 -1.59727,-2.87291 -2.92273,-3.89934 -1.06018,-0.66745 -2.35884,-0.63866 -3.57054,-0.70077 -1.98652,0.0422 -3.8988,0.57342 -5.80123,1.09213 -1.89428,0.54582 -3.55725,1.59271 -5.18749,2.66744 -1.74351,1.2712 -3.41092,2.64759 -5.08002,4.01531 -1.72048,1.46214 -3.3915,3.03678 -4.70444,4.88247 -0.93892,1.39023 -1.8465,2.83307 -2.34738,4.44426 -0.27228,0.85736 -0.3125,1.75684 -0.33134,2.6488 -0.007,0.63207 -0.0471,1.38248 0.10609,1.82919 0.36586,0.27759 0.72819,0.62671 1.13975,0.87051 0.63637,0.26662 1.31965,0.33554 2.00068,0.38082 1.5896,0.33387 3.19071,0.52222 4.81059,0.62361 2.07275,0.07 4.15413,0.19303 6.22456,0.0369 2.13767,-0.16679 4.25331,-0.62216 6.2763,-1.33014 1.82938,-0.74453 3.57849,-1.63817 5.29608,-2.60942 1.36907,-0.74683 2.70731,-1.55272 3.96177,-2.48123 0.2784,-0.20605 0.61241,-0.35955 0.82257,-0.63486 0.19421,-0.25443 0.23055,-0.59719 0.34582,-0.89579 2.01026,-3.89731 3.02328,-8.17613 3.66174,-12.48507 0.0609,-0.57453 0.12187,-1.14905 0.18281,-1.72357 0.43194,-4.01746 6.11348,-3.40661 5.68155,0.61085 l 0,0 c -0.0711,0.65323 -0.14213,1.30646 -0.2132,1.9597 -0.76875,5.07859 -2.00264,10.11213 -4.46511,14.66333 -0.57065,0.80056 -1.07232,1.65507 -1.71195,2.40167 -0.27431,0.32019 -0.66447,0.5194 -1.00434,0.76891 -1.41348,1.03768 -2.91272,1.9504 -4.45043,2.79101 -2.02475,1.14341 -4.09405,2.18739 -6.2596,3.04178 -2.50478,0.8416 -5.09633,1.43891 -7.73818,1.62407 -2.32264,0.14451 -4.65039,0.0727 -6.97428,-0.0354 -1.63491,-0.10602 -3.27657,-0.23409 -4.87229,-0.62788 -1.67013,-0.13306 -3.31055,-0.4487 -4.76314,-1.33693 -1.49289,-1.04394 -2.8501,-2.27127 -3.44886,-4.0526 -0.31066,-1.16258 -0.3802,-2.32543 -0.32162,-3.5243 0.037,-1.45361 0.15939,-2.91018 0.61645,-4.3012 0.73688,-2.16994 1.84416,-4.17512 3.17172,-6.04271 1.64751,-2.19476 3.56218,-4.17656 5.68681,-5.91739 1.82455,-1.49384 3.64451,-3.00165 5.56444,-4.37122 2.13655,-1.39827 4.33865,-2.71501 6.82129,-3.40403 2.4918,-0.67892 5.01052,-1.31884 7.61546,-1.28474 2.44712,0.13997 4.86794,0.42666 6.87395,1.98107 2.05599,1.72533 3.6799,3.79224 4.65819,6.3184 1.41875,3.78334 -3.9317,5.78976 -5.35045,2.00642 z"
       inkscape:connector-curvature="0" />
    <path
       style="fill:#008000"
       id="path3898"
       d="m 325.45612,93.352514 c -1.94815,-0.74408 -3.95318,-1.222114 -6.03716,-1.261195 -1.09485,0.0821 -2.07655,0.496014 -2.98766,1.088529 -1.42644,0.968593 -2.41493,2.403842 -3.52394,3.694185 -1.49371,1.812677 -3.04961,3.594927 -4.23881,5.628517 -0.77153,1.14808 -1.23553,2.3903 -1.43124,3.74864 -0.19809,1.23016 0.0421,2.41947 0.45656,3.57885 0.51433,1.43744 0.90691,3.04292 1.95551,4.20318 0.66853,0.65583 1.46758,1.25235 2.34998,1.58681 0.83161,0.26821 1.56863,0.7456 2.43533,0.89144 1.28802,0.17192 2.562,0.13086 3.84423,-0.0367 1.64884,-0.32972 3.18109,-1.00187 4.71239,-1.67568 1.47169,-0.62517 2.73418,-1.56658 4.01847,-2.49786 0.86967,-0.84214 2.11457,-1.17464 3.04536,-1.91268 0.87169,-0.78844 1.42937,-1.87103 1.90156,-2.93248 0.59823,-1.51936 0.85726,-3.15081 0.77789,-4.77823 -0.39169,-2.35348 -1.3615,-4.576817 -2.23685,-6.784603 -0.65479,-1.813618 -0.34982,-0.912496 -0.91774,-2.702414 -1.21569,-3.853391 4.23382,-5.572641 5.44952,-1.719251 l 0,0 c 0.47554,1.517691 0.21653,0.743884 0.7819,2.31979 1.1172,2.830278 2.35023,5.684906 2.63567,8.743778 0.0302,2.51461 -0.29563,5.00699 -1.31029,7.33331 -0.95164,1.99085 -2.07668,3.94393 -3.89916,5.26613 -0.95181,0.61039 -1.97997,1.09869 -2.87584,1.79451 -1.6142,1.16802 -3.23578,2.31618 -5.07934,3.10485 -2.03181,0.88536 -4.08127,1.74567 -6.28295,2.1095 -1.90424,0.23691 -3.81478,0.27663 -5.7161,-0.0348 -1.245,-0.27367 -2.38407,-0.7619 -3.55719,-1.24585 -1.71204,-0.77706 -3.29764,-1.8255 -4.53753,-3.25805 -1.36934,-1.78797 -2.28781,-3.80718 -2.9169,-5.97073 -0.65175,-2.04 -1.03889,-4.12935 -0.67923,-6.27151 0.34145,-2.06763 1.00994,-4.02001 2.16741,-5.785458 1.38948,-2.301401 3.08319,-4.386922 4.81991,-6.434711 1.4968,-1.728782 2.86718,-3.605001 4.85015,-4.82508 1.88897,-1.135699 3.9064,-1.906983 6.14342,-1.93807 2.7162,0.08885 5.34957,0.638839 7.88909,1.62294 3.78334,1.418753 1.77692,6.769206 -2.00642,5.350453 z"
       inkscape:connector-curvature="0" />
    <path
       style="fill:#008000"
       id="path3900"
       d="m 444.20014,145.94304 c -0.52054,-1.74788 -1.07088,-3.49267 -2.01023,-5.06486 -0.0486,-0.0393 -0.12409,-0.17645 -0.14582,-0.11785 -0.0289,0.0779 0.0985,0.1429 0.10585,0.22566 0.0117,0.1313 -0.26363,0.0272 -0.39508,0.0173 -1.02535,-0.0772 -0.3165,-0.0364 -1.54867,-0.0888 -2.58551,-0.0503 -5.17191,-0.0165 -7.75768,-0.003 -2.36838,-0.1476 -4.09724,0.25224 -6.05552,1.55292 -2.21411,1.47076 -3.68617,3.65997 -5.28596,5.72061 -1.49319,1.98137 -2.98297,4.0266 -3.88795,6.35148 -0.80111,1.7604 -1.20651,3.62525 -1.39728,5.53839 -0.14575,1.51874 -0.15968,3.06422 0.42368,4.49438 0.60571,1.17627 1.72071,1.97174 2.73668,2.77376 1.47438,1.26606 3.0631,2.36917 4.74144,3.34527 1.1886,0.87056 2.48001,1.52685 3.88419,1.96135 1.52459,0.35217 3.0946,0.3873 4.65151,0.42564 1.5185,0.12816 2.93601,0.01 4.38788,-0.40834 1.48716,-0.58333 2.79728,-1.52778 4.05182,-2.49992 1.52151,-1.42704 2.90803,-2.96327 4.04401,-4.71249 1.4956,-2.26673 2.20516,-4.82533 2.63606,-7.47286 0.19041,-1.96562 0.6067,-4.0045 0.10861,-5.96104 -0.2196,-0.86262 -0.55103,-1.4663 -0.92757,-2.26813 -0.77663,-0.8833 -0.35028,-0.49544 -1.27177,-1.17155 -3.06042,-2.63825 0.67062,-6.96634 3.73104,-4.32809 l 0,0 c 2.04702,1.88228 1.12563,0.83453 2.75154,3.15432 0.66864,1.52808 1.01992,2.12869 1.37346,3.80426 0.53877,2.5534 0.18437,5.16182 -0.12974,7.71549 -0.58834,3.42729 -1.5569,6.73835 -3.4987,9.66962 -1.5038,2.26168 -3.28685,4.30166 -5.33011,6.09762 -1.83445,1.40614 -3.76642,2.73377 -5.97903,3.4701 -2.00687,0.56287 -4.0073,0.77626 -6.091,0.62349 -2.10062,-0.0537 -4.21806,-0.13419 -6.25627,-0.69784 -1.78708,-0.58747 -3.50108,-1.35548 -5.027,-2.47266 -1.89869,-1.12089 -3.72029,-2.35572 -5.39624,-3.79319 -1.86357,-1.47769 -3.65939,-3.05141 -4.56736,-5.3194 -0.77436,-2.27978 -1.02644,-4.62276 -0.7305,-7.02338 0.26381,-2.44399 0.7777,-4.84041 1.78702,-7.09666 1.16395,-2.78815 2.80693,-5.32963 4.66964,-7.7061 2.01269,-2.58691 3.94086,-5.26216 6.75972,-7.05381 2.89384,-1.75862 5.639,-2.63658 9.06413,-2.42745 2.68464,-0.0139 5.37006,-0.0507 8.05433,0.009 2.56884,0.12838 5.11741,0.43425 6.64989,2.788 1.18537,2.05581 1.98698,4.2791 2.62065,6.56272 0.97999,3.91996 -4.56368,5.30588 -5.54367,1.38591 z"
       inkscape:connector-curvature="0" />
    <path
       style="fill:#008000"
       id="path3904"
       d="m 275.5154,381.98703 c -1.8113,-1.56239 -4.05262,-2.25317 -6.34845,-2.72801 -2.61138,-0.60473 -5.09751,-0.24074 -7.63618,0.45097 -3.22127,1.12148 -5.90515,3.23422 -8.48789,5.39498 -2.82634,2.41912 -5.06039,5.34027 -6.94658,8.52322 -1.1072,2.00308 -1.51095,3.61943 -0.82061,5.79306 0.85902,1.56739 2.12527,2.85151 3.37461,4.10931 0.9724,0.86727 2.39723,0.84474 3.63414,0.82163 2.73072,-0.0509 5.42403,-0.52352 8.12748,-0.86471 2.00624,-0.12605 3.93755,-0.54013 5.78582,-1.31758 2.01396,-0.86411 3.67948,-2.23763 5.35067,-3.61916 2.02093,-1.64772 2.79604,-3.94386 3.36391,-6.40118 0.81359,-3.98951 0.80526,-7.97215 -0.13231,-11.9238 -0.86493,-2.46774 -0.3575,-1.25781 -1.52697,-3.62784 -1.75104,-3.64148 3.39879,-6.11782 5.14984,-2.47634 l 0,0 c 1.50205,3.1853 0.857,1.57208 1.94852,4.83428 0.18376,0.83183 0.41198,1.65506 0.55127,2.49548 0.66341,4.00283 0.28355,8.07922 -0.43665,12.04336 -0.91192,3.64413 -2.27641,7.02677 -5.27911,9.46221 -2.11083,1.74134 -4.26336,3.42438 -6.80944,4.4952 -2.32518,0.94638 -4.73627,1.54165 -7.25059,1.70475 -2.95063,0.37182 -5.89176,0.88084 -8.87381,0.90953 -2.80075,-0.0537 -5.57486,-0.45054 -7.66093,-2.51284 -1.93162,-1.95178 -3.83289,-3.98949 -4.82247,-6.60363 -1.02708,-3.97928 -0.54245,-6.62875 1.41729,-10.24601 2.23035,-3.72807 4.86928,-7.15603 8.19514,-9.98662 3.22772,-2.68645 6.61897,-5.23806 10.67521,-6.52835 3.41044,-0.89545 6.81373,-1.31301 10.30292,-0.51823 3.19551,0.69839 6.29023,1.75666 8.81337,3.92649 3.10408,2.58673 -0.55411,6.97657 -3.6582,4.38983 z"
       inkscape:connector-curvature="0" />
    <path
       style="fill:#000000"
       id="path3910"
       d="m 326.53142,128.22563 c 0.59844,2.89903 0.93276,5.84283 1.15688,8.7917 0.26246,2.18936 0.0929,4.35102 -0.165,6.52667 -0.26555,2.39273 -0.31262,4.80192 -0.35416,7.20672 0.14969,2.56754 0.39207,5.12827 0.54871,7.69557 0.10362,1.73679 0.13048,3.47659 0.1415,5.216 0.005,1.73643 0.002,3.47287 3e-5,5.20929 -0.002,1.89306 -0.002,3.78613 -0.002,5.67919 -1.6e-4,1.6039 -1.4e-4,3.20781 -1.4e-4,4.81171 -0.0439,1.80421 -0.35021,3.60846 -0.64197,5.38962 -0.46107,2.27397 -0.52843,4.59567 -0.81355,6.89092 -0.31892,2.00452 -0.53725,4.01902 -0.85281,6.02386 -0.29004,2.5352 -0.69696,5.05409 -0.95405,7.59341 -0.0829,2.37653 -0.45126,4.72095 -0.7609,7.07404 -0.10746,1.49504 -0.46935,2.94459 -0.90697,4.3724 -0.43104,1.67758 -0.76104,3.38429 -1.06717,5.09006 -0.17585,1.11966 -0.32428,2.24411 -0.42875,3.37278 -0.0992,0.98893 -0.5462,1.72247 -0.85866,2.22829 -0.62667,1.00348 -0.95853,2.12956 -1.37928,3.22744 -0.0662,0.1964 -0.13234,0.39281 -0.19852,0.58922 -1.30266,3.82486 -6.71184,1.98261 -5.40917,-1.84225 l 0,0 c 0.0907,-0.26413 0.18135,-0.52826 0.27203,-0.79239 0.55436,-1.44569 1.04821,-2.91512 1.88239,-4.23153 0.16148,-0.24193 0.50833,-1.02736 0.46216,-0.74018 -0.45022,2.80033 -0.54639,1.65219 -0.46061,1.03149 0.12082,-1.29077 0.28865,-2.57707 0.49482,-3.85694 0.35226,-1.94539 0.72474,-3.89461 1.24341,-5.80208 0.37217,-1.10312 0.6003,-2.23193 0.68903,-3.393 0.30329,-2.2977 0.66481,-4.58508 0.74132,-6.90639 0.27064,-2.64255 0.68619,-5.265 0.99413,-7.90284 0.30705,-1.9508 0.51736,-3.91133 0.82967,-5.86175 0.3154,-2.36273 0.34821,-4.76331 0.84506,-7.1047 0.25083,-1.46923 0.50365,-2.96376 0.56411,-4.44945 -1e-5,-1.60416 -3e-5,-3.20832 1.3e-4,-4.81249 2.5e-4,-1.89443 6.3e-4,-3.78886 0.002,-5.68328 0.001,-1.72285 0.005,-3.44569 8e-5,-5.16853 -0.0102,-1.63555 -0.0341,-3.27149 -0.13106,-4.90462 -0.16502,-2.71579 -0.44108,-5.42368 -0.55841,-8.14207 0.0453,-2.59643 0.10159,-5.19727 0.39303,-7.78017 0.21487,-1.81258 0.38695,-3.59605 0.14152,-5.42342 -0.20106,-2.67709 -0.50163,-5.34953 -1.03706,-7.98269 -0.87653,-3.94439 4.70169,-5.184 5.57822,-1.23961 z"
       inkscape:connector-curvature="0" />
    <path
       style="fill:#000000"
       id="path3912"
       d="m 305.61137,282.73238 c -0.33775,3.2091 -0.832,6.40077 -1.27968,9.59629 -0.49105,3.49637 -0.62953,7.02631 -0.71844,10.55152 -0.20485,3.1992 -0.46155,6.39286 -0.86206,9.57344 -0.3619,2.97083 -0.85694,5.92483 -1.32213,8.88124 -0.44486,3.1327 -0.93754,6.25266 -1.20227,9.40734 -0.26551,2.56848 -0.55996,5.12475 -1.39028,7.57799 -0.6519,1.68649 -1.37758,3.33473 -1.81268,5.09366 -0.48016,2.45702 -0.87457,4.92796 -1.35657,7.38458 -0.46034,2.40668 -1.29305,4.69634 -2.33397,6.90624 -0.63419,1.29995 -1.38824,2.55354 -2.20723,3.7473 -0.62592,0.99362 -1.28032,1.95008 -1.78171,3.01594 -0.84468,1.51888 -1.55062,3.11183 -2.44102,4.60447 -0.36478,0.58178 -0.74971,1.15384 -1.21025,1.66462 -0.0664,0.0944 -0.79532,0.72377 -0.20325,0.23281 -2.05344,3.47993 -6.9748,0.57593 -4.92136,-2.904 l 0,0 c 0.50374,-0.71396 1.2638,-1.65128 0.9432,-1.22354 -0.0909,0.10702 0.47531,-0.62131 0.49506,-0.71544 0.81251,-1.33389 1.41606,-2.78502 2.19084,-4.14161 0.65245,-1.33151 1.43873,-2.5658 2.24482,-3.80682 0.66837,-0.91715 1.22377,-1.93533 1.73729,-2.9422 0.86564,-1.76161 1.49405,-3.61167 1.88023,-5.53809 0.50282,-2.56204 0.90325,-5.14124 1.42765,-7.69945 0.50057,-1.915 1.20755,-3.74519 1.95839,-5.57451 0.74402,-1.9674 0.78636,-4.10157 1.08685,-6.16311 0.27985,-3.2907 0.78261,-6.54714 1.25146,-9.81463 0.45634,-2.89852 0.94352,-5.79443 1.29747,-8.70717 0.37722,-2.9917 0.61608,-5.99516 0.81907,-9.00383 0.0953,-3.74215 0.24904,-7.48877 0.77193,-11.2 0.44061,-3.1415 0.92819,-6.27914 1.2593,-9.43407 0.44622,-4.0159 6.12555,-3.38486 5.67934,0.63103 z"
       inkscape:connector-curvature="0" />
    <path
       style="fill:#000000"
       id="path3916"
       d="m 291.77266,234.40212 c -3.67164,-0.21519 -7.04905,-1.65977 -10.25557,-3.35395 -4.045,-2.48767 -7.68364,-5.5645 -11.21324,-8.72376 -3.69201,-3.51955 -7.1407,-7.27772 -10.64069,-10.98466 -3.03603,-3.24277 -6.13955,-6.41519 -9.38534,-9.44772 -3.08996,-2.8385 -6.12075,-5.73973 -9.1231,-8.67038 -2.45783,-2.46855 -4.96395,-4.88552 -7.47274,-7.30067 -1.3781,-1.01747 -2.30327,-2.42489 -3.28623,-3.78997 -0.9825,-1.26715 -2.13244,-2.38833 -3.1826,-3.59729 -1.66767,-1.71391 -3.04601,-3.6737 -4.50696,-5.55832 -0.97062,-1.13823 -1.84862,-2.36936 -2.908,-3.42946 -1.3921,-1.44898 -2.71532,-2.96634 -4.09111,-4.43308 -1.68161,-1.79629 -3.46012,-3.51991 -4.91513,-5.50987 -2.34844,-3.28806 2.30158,-6.60926 4.65003,-3.3212 l 0,0 c 1.24406,1.82274 2.99168,3.26442 4.43334,4.92226 1.36755,1.45867 2.67949,2.9712 4.06724,4.40777 1.15231,1.24095 2.23013,2.54651 3.2862,3.87081 1.39158,1.8075 2.71119,3.68067 4.30959,5.3167 1.1533,1.34651 2.45357,2.56732 3.50241,4.00347 0.78368,1.09787 1.4651,2.21302 2.60656,3.00367 2.51469,2.42651 5.03492,4.84659 7.49896,7.3261 2.97258,2.9018 5.97359,5.77418 9.03316,8.58448 3.3321,3.11465 6.52173,6.3695 9.63866,9.69975 3.39119,3.59176 6.73256,7.23279 10.3001,10.65276 3.18418,2.85936 6.47029,5.6353 10.08835,7.9368 2.55677,1.38039 5.25148,2.56817 8.19714,2.71643 4.0159,0.44621 3.38486,6.12554 -0.63103,5.67933 z"
       inkscape:connector-curvature="0" />
    <path
       style="fill:#000000"
       id="path3918"
       d="m 330.36598,240.32431 c 2.49453,-1.82132 5.01128,-3.61054 7.43596,-5.52497 3.12755,-2.43938 6.24048,-4.89801 9.33107,-7.38414 3.86601,-3.14454 7.77366,-6.23204 11.76242,-9.2198 3.81018,-2.80724 7.7998,-5.35599 11.67188,-8.07474 3.15014,-2.15232 6.39052,-4.16797 9.56531,-6.285 2.83165,-1.99367 5.52979,-4.17029 8.2638,-6.29518 2.65143,-2.06265 5.48024,-3.87837 8.21383,-5.8265 2.26872,-1.58477 4.5445,-3.15919 6.76991,-4.8046 2.54099,-1.75501 5.007,-3.61046 7.41332,-5.54614 1.46833,-1.3599 3.1123,-2.44262 4.92507,-3.27574 3.68291,-1.66216 6.03355,3.54626 2.35064,5.20841 l 0,0 c -1.38836,0.60742 -2.57896,1.49433 -3.69541,2.52093 -2.46799,1.9829 -4.99368,3.8895 -7.59851,5.68888 -2.2535,1.66306 -4.55303,3.26116 -6.85029,4.86289 -2.67013,1.90019 -5.42905,3.67662 -8.02229,5.68398 -2.8433,2.20913 -5.6479,4.47422 -8.59983,6.53729 -3.13713,2.09192 -6.33792,4.08527 -9.45308,6.20823 -3.82527,2.68307 -7.76128,5.20564 -11.52892,7.97106 -3.93653,2.94772 -7.79153,5.99569 -11.60646,9.09875 -3.10513,2.49718 -6.23188,4.96777 -9.37391,7.41826 -2.49788,1.96786 -5.08353,3.8159 -7.65315,5.68804 -3.28798,2.34855 -6.60934,-2.30135 -3.32136,-4.64991 z"
       inkscape:connector-curvature="0" />
    <path
       style="fill:#000000"
       id="path3920"
       d="m 331.88202,265.15136 c 3.21805,-0.29546 6.44315,-0.43872 9.65951,-0.7556 3.44636,-0.37011 6.91111,-0.48846 10.37418,-0.56289 3.26932,-0.15727 6.5238,0.0344 9.78164,0.28302 2.90515,0.391 5.80974,0.75866 8.73518,0.95588 2.90625,0.084 5.80447,0.34148 8.69003,0.69212 3.20739,0.30438 6.32429,1.02441 9.39524,1.96744 2.37616,0.78563 4.73905,1.61071 7.13296,2.34067 2.60338,0.78847 5.2175,1.53964 7.80144,2.39214 2.21242,0.90002 4.53115,1.47105 6.82126,2.12826 1.91539,0.35356 3.67852,1.07349 5.38704,1.9899 1.72536,1.09047 3.55315,2.00566 5.27743,3.09549 0.87797,0.49411 1.22652,1.00505 1.90576,1.83245 1.96041,3.53317 -3.03624,6.30562 -4.99666,2.77245 l 0,0 c 1.48049,1.45128 0.43891,0.41279 0.0275,0.21887 -1.60946,-1.02853 -3.33395,-1.86623 -4.94287,-2.89864 -1.3409,-0.74319 -2.71918,-1.24362 -4.23471,-1.518 -2.36319,-0.6784 -4.75578,-1.27086 -7.04,-2.19582 -2.54178,-0.844 -5.11788,-1.57362 -7.67932,-2.35324 -2.39377,-0.73569 -4.7624,-1.54815 -7.13747,-2.34205 -2.75034,-0.84478 -5.5371,-1.49757 -8.41313,-1.75812 -2.78263,-0.34475 -5.57878,-0.57935 -8.38167,-0.66276 -2.94077,-0.20102 -5.86443,-0.54733 -8.78287,-0.95933 -3.07284,-0.23453 -6.14033,-0.42412 -9.22446,-0.26775 -3.31698,0.0708 -6.63576,0.18113 -9.93669,0.53671 -3.19275,0.31408 -6.39321,0.46559 -9.5883,0.74813 -4.0159,0.44622 -4.64694,-5.23312 -0.63104,-5.67933 z"
       inkscape:connector-curvature="0" />
    <path
       style="fill:#000000"
       id="path3922"
       d="m 422.37095,314.81967 c -2.42751,2.70001 -4.76888,5.47465 -7.19309,8.17778 -2.47325,2.91927 -5.00945,5.78232 -7.62566,8.57399 -2.93239,3.03667 -6.04928,5.89821 -9.18628,8.72226 -3.37294,3.0877 -6.86216,6.04103 -10.36839,8.97489 -3.37681,2.63708 -6.92083,5.04935 -10.63824,7.17764 -3.11862,1.69156 -6.15351,3.53004 -9.25628,5.25077 -2.88467,1.76299 -5.76595,3.52747 -8.76457,5.09117 -3.33702,1.82429 -6.97389,2.94174 -10.55837,4.15602 -3.06277,1.0671 -6.14004,2.0859 -9.16869,3.24839 -2.61593,1.07942 -5.27056,2.06463 -7.96205,2.93862 -3.72562,1.10254 -7.43995,2.24082 -11.15343,3.38321 -3.31566,0.93906 -6.61174,1.94276 -9.94652,2.81301 -2.62352,0.86639 -5.34046,1.28089 -8.04676,1.76761 -2.2129,0.41991 -4.43771,0.80712 -6.6129,1.39806 -0.40701,0.0942 -0.84771,0.25989 -1.2395,0.39811 -3.71647,1.58568 -5.95895,-3.6702 -2.24248,-5.25588 l 0,0 c 0.65118,-0.26093 1.31175,-0.48316 1.99212,-0.65887 2.3378,-0.62822 4.72247,-1.0617 7.10042,-1.50711 2.56117,-0.45271 5.12862,-0.84585 7.60887,-1.67173 3.25531,-0.84601 6.46988,-1.83283 9.70684,-2.74498 3.68582,-1.13347 7.37176,-2.26537 11.07033,-3.35695 2.59782,-0.84156 5.15732,-1.79774 7.6815,-2.83948 3.09985,-1.18464 6.24451,-2.23644 9.37893,-3.32422 3.30844,-1.12062 6.67414,-2.13057 9.75514,-3.8135 2.95732,-1.53325 5.77962,-3.2986 8.63023,-5.019 3.08147,-1.70814 6.09424,-3.53562 9.19168,-5.2144 3.42729,-1.95514 6.68598,-4.18382 9.80669,-6.59893 3.45374,-2.88995 6.89152,-5.79811 10.21334,-8.84035 3.01809,-2.71405 6.0149,-5.4668 8.83931,-8.3823 2.58834,-2.76062 5.09277,-5.59591 7.54097,-8.48163 2.3961,-2.6707 4.70826,-5.41393 7.10823,-8.08101 2.62959,-3.06786 6.9682,0.65095 4.33861,3.71881 z"
       inkscape:connector-curvature="0" />
    <path
       style="fill:#000000"
       id="path3924"
       d="m 183.54067,310.93361 c 2.48158,0.0165 4.96351,-0.0621 7.44111,0.0917 2.4224,0.15896 4.81551,0.51236 7.20863,0.90301 1.54315,0.45759 3.11651,0.78432 4.67441,1.17843 2.06507,0.42149 4.12558,0.86836 6.18722,1.30991 2.38528,0.58389 4.76,1.22864 7.1661,1.72232 2.4745,0.3285 4.96142,0.57597 7.44521,0.83807 2.71477,0.27067 5.44371,0.32862 8.16965,0.3701 2.39027,-0.0844 4.75712,0.25688 7.13203,0.46116 2.99566,0.22129 6.00184,0.23426 9.00407,0.25935 2.80523,0.0173 5.61053,0.0144 8.4158,0.0126 2.98611,-0.002 5.97223,-0.003 8.95835,-0.003 3.19995,-3.9e-4 6.3999,-4.1e-4 9.59985,-4.2e-4 2.70361,10e-6 5.40721,2e-5 8.11082,3e-5 4.07398,0.0266 8.14172,0.0372 12.2096,-0.19862 3.36462,-0.23965 6.73362,-0.39132 10.10559,-0.46871 3.34607,-0.0363 6.67963,-0.40084 10.00401,-0.75678 3.59063,-0.33409 7.18653,-0.64504 10.75699,-1.15929 3.10566,-0.38777 6.18113,-0.95743 9.26245,-1.4971 3.08732,-0.48697 6.17295,-0.98173 9.24678,-1.54745 2.62631,-0.45108 5.22302,-1.05733 7.82616,-1.62492 3.23874,-0.6236 6.48099,-1.24153 9.67704,-2.06059 2.60157,-0.60707 5.20153,-1.21678 7.79477,-1.85897 2.05725,-0.54391 4.07298,-1.22482 6.09404,-1.88799 2.50354,-0.6724 5.04684,-1.21002 7.58752,-1.72649 2.41151,-0.40524 4.78845,-0.98596 7.20415,-1.36711 2.04876,-0.45125 4.12136,-0.7781 6.17287,-1.21571 2.09903,-0.54975 4.28062,-0.66178 6.37507,-1.21663 1.14217,-0.40911 2.35968,-0.45698 3.53306,-0.70264 1.5965,-0.2895 3.20114,-0.58044 4.75869,-1.04281 1.0957,-0.39737 2.19482,-0.76081 3.34311,-0.96938 0.84909,-0.19333 1.67228,0.006 2.48047,0.25179 3.79309,1.39247 1.82384,6.75672 -1.96925,5.36424 l 0,0 c 0.15314,0.0212 1.07868,-0.0136 0.47969,0.0117 -0.95351,0.15736 -1.83681,0.55359 -2.7579,0.83429 -1.74161,0.48869 -3.51349,0.86282 -5.29569,1.16919 -1.0517,0.18249 -2.11574,0.27006 -3.13522,0.61429 -2.18467,0.55976 -4.43353,0.74835 -6.62668,1.27596 -2.1526,0.4541 -4.32352,0.81013 -6.47474,1.2713 -2.33269,0.36141 -4.62395,0.94169 -6.95349,1.32214 -2.32391,0.46858 -4.64605,0.97177 -6.9427,1.5562 -2.15518,0.70499 -4.30425,1.43159 -6.49947,2.00442 -2.58012,0.63887 -5.16668,1.24677 -7.75544,1.84909 -3.26264,0.82937 -6.56642,1.47914 -9.87298,2.10692 -2.66386,0.58042 -5.32138,1.19923 -8.00877,1.66162 -3.0903,0.56875 -6.19234,1.06707 -9.29618,1.55631 -3.14027,0.54894 -6.27473,1.1286 -9.43939,1.52521 -3.63798,0.51576 -7.2982,0.8519 -10.95662,1.18423 -3.48304,0.37292 -6.97596,0.74743 -10.48168,0.78777 -3.30571,0.0753 -6.60837,0.22567 -9.90684,0.46069 -4.17771,0.2403 -8.35517,0.23845 -12.53903,0.20813 -2.7036,-1e-5 -5.40719,-3e-5 -8.11079,-3e-5 -3.19965,1e-5 -6.39931,2e-5 -9.59896,4.1e-4 -2.98522,4.8e-4 -5.97045,0.001 -8.95567,0.003 -2.82241,0.002 -5.64486,0.005 -8.46724,-0.0128 -3.15027,-0.0264 -6.30463,-0.0426 -9.44767,-0.28032 -2.24109,-0.1941 -4.47214,-0.5259 -6.72786,-0.44066 -2.89741,-0.0444 -5.7978,-0.11033 -8.68305,-0.40108 -2.67082,-0.28277 -5.3474,-0.53621 -8.00372,-0.92522 -2.41746,-0.50482 -4.80969,-1.13092 -7.20497,-1.73051 -2.14492,-0.46043 -4.29016,-0.9185 -6.43643,-1.36923 -1.37318,-0.38199 -2.7969,-0.59055 -4.14784,-1.06677 -2.2137,-0.36144 -4.42477,-0.69674 -6.66625,-0.84089 -2.34929,-0.16931 -4.7089,-0.0389 -7.06279,-0.0792 -4.04061,0 -4.04061,-5.71429 0,-5.71429 z"
       inkscape:connector-curvature="0" />
    <path
       style="fill:#000000"
       id="path3926"
       d="m 445.71429,261.67865 c 0,-2.48646 0,-4.97293 0,-7.4594 0,-2.47702 0,-4.95404 0,-7.43106 0,-2.33385 0,-4.66771 0,-7.00156 -0.0501,-2.74474 0.10328,-5.49663 -0.0799,-8.2369 -0.11902,-2.28804 -0.48068,-4.53843 -0.84173,-6.79586 -0.21313,-1.94953 -0.44907,-3.88356 -0.77243,-5.8179 -0.49003,-1.7717 -0.79488,-3.58501 -1.162,-5.38447 -0.3704,-2.10635 -0.79065,-4.20471 -1.31226,-6.27906 -0.66647,-1.62849 -1.11974,-3.288 -1.35386,-5.03122 -0.26714,-1.72597 -0.61469,-3.42706 -1.03041,-5.1227 -0.43168,-1.30087 -1.06269,-2.5229 -1.68598,-3.74074 -0.74086,-1.19722 -1.28721,-2.49008 -2.07906,-3.65572 -0.10286,-0.14777 -0.21019,-0.29234 -0.32571,-0.43041 -2.54471,-3.13863 1.89399,-6.73739 4.43869,-3.59875 l 0,0 c 0.21844,0.27224 0.43173,0.54855 0.62724,0.83802 0.91261,1.3639 1.59861,2.84255 2.43105,4.2541 0.81694,1.61118 1.6446,3.22963 2.14388,4.97358 0.46645,1.90473 0.85102,3.81983 1.14853,5.75862 0.17911,1.52761 0.71607,2.9166 1.2276,4.36252 0.54195,2.15783 0.98286,4.33997 1.36946,6.53058 0.37996,1.86625 0.71008,3.74122 1.19893,5.58359 0.32548,1.94751 0.57373,3.89585 0.77915,5.85905 0.38852,2.43819 0.76974,4.87173 0.90216,7.34185 0.16783,2.86062 0.0635,5.72727 0.091,8.59182 0,2.33385 0,4.66771 0,7.00156 0,2.47702 0,4.95404 0,7.43106 0,2.48647 0,4.97294 0,7.4594 0,4.04061 -5.71428,4.04061 -5.71428,0 z"
       inkscape:connector-curvature="0" />
    <path
       style="fill:#000000"
       id="path3928"
       d="m 409.60991,136.72698 c -2.18747,-2.1056 -4.60399,-3.92276 -7.13486,-5.58951 -2.68748,-1.67928 -5.48034,-3.19077 -8.33974,-4.55539 -2.16636,-1.05428 -4.46544,-1.78469 -6.73099,-2.5862 -1.88046,-0.57832 -3.72649,-1.26464 -5.55897,-1.97879 -1.79635,-0.71849 -3.61365,-1.3878 -5.39112,-2.15367 -1.4285,-0.71945 -2.93753,-1.21467 -4.42508,-1.78228 -1.2943,-0.44772 -2.55357,-0.97903 -3.81463,-1.51199 -1.46949,-0.60286 -2.96242,-1.19687 -4.50161,-1.59839 -1.66931,-0.45673 -3.27473,-1.10217 -4.9354,-1.58541 -0.69158,-0.1834 -1.39983,-0.28583 -2.11405,-0.31386 -1.43399,-0.23097 -2.81997,-0.6822 -4.1881,-1.1592 -1.43589,-0.55473 -2.96599,-0.75576 -4.48932,-0.88965 -1.05257,-0.0762 -2.10795,-0.0989 -3.16296,-0.10052 -1.33856,0.12339 -2.42541,-1.00281 -3.24551,-1.95628 -0.0492,-0.0572 0.0592,0.13873 0.0888,0.2081 -2.75928,-2.95177 1.41516,-6.85397 4.17443,-3.90221 l 0,0 c 0.23313,0.28709 0.47516,0.56718 0.6994,0.86127 0.91419,1.19891 -3.62471,-1.21506 -1.70712,-0.92516 1.22306,0.002 2.44654,0.0306 3.66646,0.12363 1.99755,0.18393 3.99658,0.47699 5.88229,1.19396 0.56923,0.20596 1.14786,0.41062 1.72875,0.57676 0.32251,0.0922 0.67923,0.0888 0.97601,0.24512 0.0445,0.0234 -0.1,0.011 -0.14999,0.0164 1.16347,0.0609 2.31923,0.22098 3.44332,0.53661 1.62615,0.47665 3.20251,1.0927 4.83254,1.5564 1.78091,0.49687 3.52851,1.13106 5.23111,1.85081 1.21378,0.51527 2.42544,1.02686 3.6738,1.45453 1.52823,0.63338 3.13241,1.09429 4.61092,1.85904 1.70988,0.74824 3.47041,1.37705 5.20051,2.07504 1.77335,0.69841 3.56663,1.35075 5.38761,1.91484 2.4518,0.87442 4.942,1.6663 7.28539,2.81653 3.09239,1.48323 6.11904,3.11211 9.02172,4.94128 2.84756,1.88435 5.56975,3.93714 8.02697,6.31755 2.85714,2.85715 -1.18347,6.89776 -4.04061,4.04061 z"
       inkscape:connector-curvature="0" />
    <path
       style="fill:#000000"
       id="path3930"
       d="m 285.6596,108.79075 c -2.85456,-0.20966 -5.70611,-0.44332 -8.56511,-0.58852 -2.30468,-0.1414 -4.59771,-0.14406 -6.89566,0.0633 -2.69321,0.14074 -5.34549,0.57869 -7.9933,1.06369 -2.59324,0.56604 -5.17361,1.19168 -7.74485,1.85093 -1.99132,0.43749 -3.98617,0.8341 -5.89689,1.55725 -1.32087,0.41275 -2.60539,0.90806 -3.88516,1.4314 -1.42739,0.52868 -2.91594,0.87454 -4.35306,1.37226 -1.00778,0.29513 -1.91329,0.72494 -2.7584,1.3427 -1.46675,1.02502 -3.03717,1.89679 -4.62857,2.71156 -0.91113,0.56259 -1.98109,0.76129 -2.92805,1.22882 -1.45336,0.4465 -2.77722,1.18287 -4.05203,1.99714 -1.13849,0.66659 -2.15209,1.51588 -3.19422,2.31838 -3.20162,2.46499 -6.68764,-2.06278 -3.48602,-4.52777 l 0,0 c 1.18388,-0.91132 2.3456,-1.86237 3.63441,-2.62549 1.45218,-0.90565 2.9871,-1.86792 4.65091,-2.32612 0.91627,-0.42609 1.89215,-0.67758 2.78472,-1.15844 1.35042,-0.68054 2.67671,-1.42524 3.92129,-2.2849 1.30952,-0.90885 2.70151,-1.63299 4.23378,-2.09185 1.33049,-0.43942 2.68461,-0.80602 4.01453,-1.24632 1.33173,-0.54322 2.66848,-1.0624 4.04152,-1.4926 2.10775,-0.7833 4.2867,-1.28741 6.48614,-1.74231 2.6996,-0.68813 5.40623,-1.35172 8.13041,-1.93541 2.81995,-0.51652 5.64686,-0.9761 8.51398,-1.13451 2.56405,-0.22735 5.12433,-0.23667 7.69493,-0.0786 2.7621,0.14082 5.51922,0.34469 8.2747,0.58115 4.04061,0 4.04061,5.71428 0,5.71428 z"
       inkscape:connector-curvature="0" />
    <path
       style="fill:#000000"
       id="path3932"
       d="m 187.13893,160.09209 c -1.17651,2.46687 -2.21182,4.9956 -3.28303,7.50879 -1.09998,3.20552 -2.19602,6.41195 -3.31513,9.61101 -1.34044,3.56913 -2.52472,7.19881 -3.57111,10.86483 -0.68051,2.88208 -1.51193,5.7298 -2.11346,8.62978 -0.5943,2.46108 -1.10972,4.94467 -1.5087,7.44522 -0.58039,2.87305 -0.89173,5.78306 -1.06939,8.70536 -0.13994,2.84382 -0.14094,5.69193 -0.14575,8.53844 -0.006,2.78493 -0.23987,5.58012 -0.62403,8.33842 -0.35749,2.00313 -0.59978,4.02258 -0.71739,6.05339 -0.14441,2.16566 -0.0717,4.32157 0.10917,6.48074 0.35387,1.75282 0.14506,0.83548 0.6415,2.74853 1.00059,3.91476 -4.53572,5.3298 -5.53631,1.41504 l 0,0 c -0.62037,-2.45769 -0.35491,-1.22771 -0.79975,-3.68921 -0.20131,-2.42889 -0.27828,-4.85658 -0.11896,-7.29193 0.13128,-2.18747 0.37827,-4.36498 0.76465,-6.52307 0.36581,-2.49092 0.5499,-5.02561 0.56684,-7.54162 0.005,-2.95993 0.007,-5.92155 0.15646,-8.87853 0.19217,-3.10833 0.51748,-6.20543 1.13108,-9.26229 0.41851,-2.58773 0.9394,-5.16142 1.55741,-7.70876 0.63942,-3.03381 1.48683,-6.01966 2.21338,-9.03343 1.08362,-3.76915 2.28869,-7.50697 3.67059,-11.17779 1.16087,-3.31841 2.28513,-6.649 3.4523,-9.96492 1.15796,-2.71615 2.26807,-5.45494 3.57824,-8.10308 2.00471,-3.50823 6.9661,-0.67315 4.96139,2.83508 z"
       inkscape:connector-curvature="0" />
    <path
       style="fill:#000000"
       id="path3934"
       d="m 165.08557,313.06704 c 0.54652,2.50567 1.25175,4.96644 2.13759,7.37226 1.02757,2.45217 2.07024,4.90601 3.30929,7.26088 1.16525,2.19232 2.51442,4.2713 3.82411,6.37854 1.51922,2.31977 3.20993,4.52452 4.84347,6.76571 1.75326,2.48996 3.56888,4.93775 5.59228,7.21504 1.3721,1.55945 2.86207,3.00609 4.63246,4.10267 2.17132,1.08347 4.08859,2.57976 5.96994,4.09552 1.59356,1.16772 3.12545,2.41268 4.72,3.5783 1.63498,0.90326 3.25829,1.8235 4.89828,2.71766 1.60782,0.89562 3.06069,2.04592 4.65434,2.96264 1.2408,0.7692 2.57278,1.37005 3.89411,1.98489 1.77938,0.76256 3.55473,1.53831 5.29473,2.38764 1.36639,0.65946 2.81428,1.12207 4.21139,1.70493 1.15772,0.54526 2.44368,0.68309 3.68135,0.97221 1.46563,0.28614 2.88064,0.77241 4.31119,1.19116 3.87642,1.14013 2.26403,6.62222 -1.61239,5.48209 l 0,0 c -1.32655,-0.39173 -2.63839,-0.84624 -3.99876,-1.10879 -1.56486,-0.3656 -3.18223,-0.57668 -4.64142,-1.28831 -1.45727,-0.66955 -3.04444,-1.06543 -4.46833,-1.82319 -1.70088,-0.83994 -3.44927,-1.58095 -5.18851,-2.33688 -1.48677,-0.69183 -2.97967,-1.37925 -4.37889,-2.23939 -1.52826,-0.91016 -2.96845,-1.96034 -4.49546,-2.87265 -1.8592,-1.01493 -3.71372,-2.03706 -5.53399,-3.12096 -1.66782,-1.21934 -3.27267,-2.51846 -4.93608,-3.74431 -1.71513,-1.38642 -3.45818,-2.74104 -5.44618,-3.71961 -2.1971,-1.41883 -4.13579,-3.15063 -5.844,-5.13523 -2.13894,-2.41817 -4.08077,-4.99804 -5.93456,-7.64053 -1.71526,-2.35523 -3.49379,-4.66991 -5.07871,-7.11494 -1.38293,-2.22661 -2.7984,-4.42901 -4.03254,-6.74327 -1.34591,-2.58037 -2.50529,-5.25509 -3.6122,-7.94486 -0.94904,-2.59832 -1.72757,-5.24893 -2.31618,-7.95331 -0.97999,-3.91996 4.56368,-5.30588 5.54367,-1.38591 z"
       inkscape:connector-curvature="0" />
    <path
       style="fill:#000000"
       id="path3936"
       d="m 248.80645,369.39292 c -1.43746,-1.96603 -2.81313,-3.96227 -4.32764,-5.87059 -1.12196,-1.44586 -2.36898,-2.78548 -3.63415,-4.10522 -1.73367,-1.61654 -2.94434,-3.65598 -4.15755,-5.66616 -1.26028,-2.18787 -2.35682,-4.46925 -3.43114,-6.75345 -0.8418,-1.93935 -1.71248,-3.86185 -2.4748,-5.83409 -1.11564,-3.0569 -2.29045,-6.08788 -3.5388,-9.09276 -1.59425,-3.9035 -3.17396,-7.80918 -4.5522,-11.79435 -1.05921,-3.54504 -2.14623,-7.08118 -3.14558,-10.64374 -0.85565,-3.2426 -1.92952,-6.41135 -2.99107,-9.58923 -1.08388,-3.05465 -1.8863,-6.19959 -2.63709,-9.3497 -0.47585,-3.20097 -1.36076,-6.29593 -2.42593,-9.34357 -1.37194,-3.60067 -2.54477,-7.27186 -3.58139,-10.98188 -1.01715,-3.47425 -1.72807,-7.03661 -2.30689,-10.60813 -0.38627,-3.32016 -0.63736,-6.65682 -0.91391,-9.98881 -0.39658,-4.07198 -0.99739,-8.1178 -1.57732,-12.16634 -0.61564,-4.24877 -0.81225,-8.53706 -0.91974,-12.82348 -0.0707,-3.90317 -0.0638,-7.80719 -0.0601,-11.71083 0.005,-2.82201 0.008,-5.64402 0.0102,-8.46603 0.001,-2.40144 0.001,-4.80289 0.002,-7.20433 -0.0988,-1.96876 0.1043,-3.91281 0.34491,-5.86263 0.18199,-1.45496 0.29776,-2.91647 0.34739,-4.38162 -0.003,-1.84752 0.0249,-3.67976 0.25252,-5.51511 0.2817,-0.80372 0.0599,-1.82524 0.39311,-2.61439 0.22574,-0.53467 0.51294,-1.04125 0.76941,-1.56187 2.454,-3.21005 6.99369,0.26043 4.53969,3.47048 l 0,0 c 0.87115,-2.60356 -0.13682,0.9569 -0.0332,1.42362 -0.21596,1.66124 -0.19377,3.32133 -0.21066,4.99446 -0.0573,1.63313 -0.18342,3.26252 -0.38701,4.88433 -0.21225,1.71979 -0.40677,3.42474 -0.30189,5.16293 -8e-5,2.40264 -2.6e-4,4.80527 -0.002,7.20791 -0.002,2.82256 -0.006,5.64511 -0.0102,8.46766 -0.004,3.85433 -0.0106,7.70903 0.0583,11.5629 0.10083,4.06307 0.28102,8.12828 0.8638,12.15588 0.59578,4.16083 1.21156,8.31917 1.61551,12.50446 0.26365,3.18558 0.50997,6.37467 0.86051,9.55079 0.5395,3.3619 1.21247,6.71444 2.16991,9.9836 0.99977,3.59492 2.14528,7.14778 3.47295,10.63576 1.12323,3.23079 2.08473,6.51037 2.58922,9.90212 0.70864,2.9867 1.46955,5.96814 2.49833,8.8631 1.08866,3.26635 2.19065,6.52348 3.07255,9.85471 0.96866,3.45373 2.02535,6.88068 3.04425,10.31979 1.3396,3.87585 2.87988,7.67248 4.42865,11.46938 1.26648,3.04892 2.46054,6.12364 3.59198,9.22544 0.71321,1.84666 1.53119,3.64476 2.31574,5.46214 0.99039,2.10704 1.99925,4.21231 3.15368,6.23455 0.99422,1.65111 1.95196,3.347 3.38966,4.66295 1.38763,1.44868 2.75242,2.92166 3.98472,4.50703 1.48573,1.87304 2.85986,3.81441 4.24107,5.76412 2.58673,3.10409 -1.80311,6.76228 -4.38984,3.6582 z"
       inkscape:connector-curvature="0" />
    <path
       style="fill:#000000"
       id="path3938"
       d="m 261.42857,355.87893 c -0.26958,-2.55503 -0.34836,-5.12896 -0.65135,-7.67955 -0.37961,-2.43211 -0.58888,-4.88112 -0.69712,-7.33865 -0.11771,-2.90402 -0.0183,-5.81116 -0.16895,-8.71327 -0.16752,-3.7913 -0.52328,-7.56541 -0.85899,-11.34394 -0.33094,-3.86669 -0.4117,-7.74755 -0.46164,-11.62607 -0.0327,-3.41399 -0.0275,-6.82818 -0.0252,-10.24228 0.003,-3.4607 0.005,-6.9214 0.005,-10.3821 7e-4,-3.64363 7.1e-4,-7.28726 7.3e-4,-10.93089 -0.10009,-3.27262 0.0556,-6.52705 0.33379,-9.78568 0.20697,-3.29289 0.57295,-6.57128 0.79354,-9.86343 0.16473,-3.89501 0.23968,-7.78547 0.72842,-11.65689 0.34799,-3.2259 1.32063,-6.32925 2.1488,-9.45224 0.60217,-2.86557 1.31402,-5.69927 2.21887,-8.48407 0.93241,-3.1965 1.90014,-6.38177 2.74034,-9.6042 0.72265,-2.71445 1.76356,-5.32509 3.01455,-7.83524 1.36004,-2.73927 2.60088,-5.53363 3.85717,-8.32117 1.2344,-2.90536 2.78826,-5.64383 4.4727,-8.30628 1.32551,-1.97951 2.49242,-4.07302 3.53773,-6.2137 1.03895,-2.33381 2.34232,-4.53741 3.66498,-6.71884 1.36451,-2.1558 2.59148,-4.38867 3.61501,-6.72555 0.91832,-2.0811 1.93004,-4.11837 2.88033,-6.18428 0.97367,-2.0263 1.62893,-4.17799 2.44306,-6.26841 0.83583,-2.36951 1.74978,-4.71784 2.78279,-7.00878 0.88373,-2.02699 1.78988,-4.04686 2.61723,-6.09731 1.00204,-2.25885 2.0203,-4.50997 3.02417,-6.76833 0.99001,-2.13161 2.18375,-4.16838 3.08631,-6.33989 0.61646,-1.10752 1.06741,-2.5055 2.09828,-3.33166 0.32486,-0.26036 0.71358,-0.42907 1.07037,-0.64361 0.32454,-0.0908 0.64908,-0.18159 0.97362,-0.27239 3.95402,-0.83205 5.13071,4.75977 1.1767,5.59182 l 0,0 c 0.0649,-0.0362 0.12977,-0.0723 0.19465,-0.10847 0.73673,-0.58975 0.23293,-0.1129 0.70109,-0.71899 0.0581,-0.0752 -0.10447,0.15868 -0.15436,0.2395 -0.29136,0.47202 -0.55594,0.96023 -0.79389,1.46135 -0.93493,2.19934 -2.09113,4.29326 -3.1312,6.44361 -0.97902,2.20208 -1.96905,4.39849 -2.95194,6.59852 -0.86523,2.11669 -1.7851,4.21197 -2.70653,6.30514 -1.00097,2.19373 -1.85507,4.45733 -2.66432,6.72771 -0.85937,2.19493 -1.54329,4.45841 -2.57703,6.58337 -0.94056,2.0347 -1.93185,4.04535 -2.84021,6.0953 -1.13366,2.55997 -2.45792,5.02276 -3.95973,7.3871 -1.23711,2.03422 -2.45407,4.0906 -3.41955,6.27062 -1.14404,2.32143 -2.39992,4.59996 -3.83897,6.75196 -1.54172,2.43539 -2.96872,4.9367 -4.09165,7.59839 -1.28772,2.85723 -2.56101,5.72087 -3.95559,8.52836 -1.07993,2.1526 -1.97267,4.39496 -2.59706,6.72458 -0.87201,3.33157 -1.86595,6.62762 -2.83636,9.93148 -0.87838,2.68219 -1.53584,5.41991 -2.12859,8.17861 -0.76525,2.8795 -1.6767,5.73873 -2.00385,8.71241 -0.48984,3.75555 -0.50885,7.53548 -0.69493,11.31373 -0.2243,3.32645 -0.59093,6.63913 -0.80138,9.96629 -0.2645,3.09731 -0.41419,6.18845 -0.31307,9.29959 -3e-5,3.64408 -3e-5,7.28816 -7.4e-4,10.93224 -8.4e-4,3.46152 -0.002,6.92303 -0.005,10.38454 -0.002,3.38838 -0.007,6.77686 0.0248,10.16513 0.0478,3.73429 0.12274,7.47094 0.43971,11.194 0.34182,3.85201 0.70222,7.69991 0.8743,11.56477 0.14026,2.91489 0.0699,5.83241 0.17061,8.74904 0.1,2.32158 0.30551,4.63346 0.66469,6.93077 0.31352,2.76994 0.44427,5.55936 0.68921,8.33623 0,4.04061 -5.71429,4.04061 -5.71429,0 z"
       inkscape:connector-curvature="0" />
    <path
       style="fill:#000000"
       id="path3942"
       d="m 342.10817,117.25701 c 1.48232,2.75938 3.16776,5.40049 4.75273,8.10096 1.59029,2.42539 2.8322,5.04986 4.30837,7.54037 1.10795,1.96939 2.49938,3.75255 3.85647,5.55202 1.66845,1.9356 2.90491,4.16207 4.08577,6.41267 1.42063,2.41622 2.97424,4.7527 4.47879,7.11754 1.53046,2.32661 3.01561,4.68411 4.44628,7.07344 1.79905,2.78915 3.64122,5.5499 5.50491,8.29658 2.26842,3.19936 4.77276,6.22043 7.07794,9.39265 1.83649,2.68437 3.52597,5.46655 5.24354,8.22788 1.33144,2.27346 3.013,4.30003 4.59249,6.39935 1.72125,2.37026 3.17606,4.91631 4.75604,7.37871 1.55266,2.10932 2.99422,4.29271 4.47445,6.45245 1.56849,1.97577 3.0038,4.03465 4.30036,6.1986 1.93345,3.17518 3.83916,6.36251 5.59471,9.63979 0.90311,1.79194 2.03864,3.45189 2.79715,5.31389 0.44259,1.14145 0.9705,2.24443 1.47397,3.35966 0.66848,1.25614 1.18258,2.58385 1.6972,3.90773 0.69684,1.76824 1.32204,3.56498 1.92065,5.36872 0.41862,1.23655 1.02247,2.39835 1.47936,3.61851 0.34282,1.32745 0.7816,2.62441 1.111,3.95779 0.29501,1.01265 0.63491,2.01248 1.02065,2.99416 0.18251,0.41284 0.33465,0.95085 0.35736,1.54631 0.0835,1.21177 -0.31896,-0.71784 0.0538,0.0589 -0.31078,-0.47198 0.55967,1.19562 0.33162,0.94977 -0.10604,-0.11431 -0.20881,-0.29228 -0.15882,-0.43996 0.0409,-0.12076 0.13168,0.21835 0.19671,0.32801 0.27541,0.46441 0.14964,0.24718 0.46721,0.9375 0.22023,0.68288 0.28104,1.33637 0.62464,1.95808 0.33946,0.44206 0.52869,1.17746 0.59935,1.80798 -0.017,0.44822 0.1569,1.92941 -0.0942,0.0983 -0.007,-0.0269 -0.0147,-0.0539 -0.022,-0.0808 1.91541,3.55777 -3.11604,6.26657 -5.03145,2.7088 l 0,0 c -0.0853,-0.17172 -0.17057,-0.34343 -0.25586,-0.51515 -0.14416,-0.6458 -0.32026,-1.06563 -0.28347,-1.65384 0.2836,1.07034 0.67366,1.25249 0.0314,0.297 -0.38091,-0.73607 -0.81799,-1.60541 -0.84127,-2.41807 -0.15892,-0.33302 -0.64923,-1.03402 -0.75224,-1.58306 -0.3308,-0.72852 -0.63505,-1.49931 -0.57807,-2.3195 0.50582,1.73957 0.27488,0.90841 0.0349,0.40451 -0.47687,-1.2197 -0.90035,-2.46095 -1.25129,-3.72294 -0.27617,-1.14798 -0.67,-2.2834 -0.94837,-3.41174 -0.28874,-1.28436 -1.27665,-2.41154 -1.5154,-3.72384 -0.56689,-1.71549 -1.16317,-3.42314 -1.82569,-5.10405 -0.473,-1.23105 -0.95813,-2.45873 -1.57902,-3.62495 -0.53915,-1.20419 -1.10673,-2.39491 -1.58545,-3.62518 -0.5786,-1.67798 -1.84021,-3.0558 -2.51151,-4.69436 -1.7141,-3.20046 -3.57795,-6.31128 -5.46594,-9.41207 -1.22535,-2.06866 -2.62853,-4.00195 -4.10694,-5.89613 -1.51144,-2.20958 -2.99236,-4.43639 -4.57153,-6.59902 -1.49903,-2.34478 -2.89081,-4.76083 -4.51141,-7.02655 -1.67861,-2.23461 -3.4596,-4.39749 -4.87738,-6.81531 -1.64542,-2.64588 -3.26579,-5.31035 -5.01549,-7.88887 -2.33736,-3.22347 -4.89365,-6.28164 -7.18226,-9.54126 -1.92433,-2.8364 -3.82801,-5.68655 -5.6797,-8.57067 -1.4026,-2.3455 -2.86306,-4.65707 -4.3643,-6.94058 -1.58982,-2.49956 -3.23778,-4.96587 -4.71863,-7.53196 -1.03525,-1.97769 -2.10582,-3.93604 -3.58728,-5.62525 -1.48563,-1.97104 -2.99916,-3.93057 -4.2139,-6.08614 -1.47192,-2.49976 -2.73112,-5.11961 -4.3166,-7.55436 -1.59545,-2.71961 -3.29299,-5.37918 -4.78567,-8.15783 -2.0047,-3.50823 2.95669,-6.34331 4.96139,-2.83508 z"
       inkscape:connector-curvature="0" />
    <path
       style="fill:#000000"
       id="path3944"
       d="m 405.39066,161.54039 c -2.56586,-0.32616 -5.15749,-0.028 -7.69764,0.36731 -3.45517,0.5264 -6.86733,1.33026 -10.24976,2.2048 -3.64798,1.02752 -7.3094,1.98789 -10.90931,3.17798 -3.52299,1.25752 -7.11267,2.30693 -10.74108,3.21103 -3.44687,0.81922 -6.7812,2.02406 -10.14468,3.12147 -4.90536,1.59759 -9.83849,3.10742 -14.74845,4.69042 -4.96941,1.71757 -10.01795,3.22717 -14.91474,5.14633 -4.05035,1.59128 -7.97543,3.47541 -11.8938,5.36342 -4.0266,1.94956 -8.05278,3.89514 -12.13106,5.73508 -3.41771,1.47265 -6.76242,3.0804 -10.05143,4.81935 -3.27153,1.86926 -6.46024,3.87634 -9.69997,5.79901 -2.89221,1.71917 -5.62191,3.68641 -8.39683,5.58259 -2.03454,1.25482 -3.99516,2.62227 -5.98359,3.94738 -1.96561,1.37734 -3.92305,2.76656 -5.88588,4.14821 -2.00454,1.47566 -4.03395,2.91781 -6.0944,4.3144 -2.48257,1.62345 -4.95874,3.25609 -7.4612,4.84938 -2.43476,1.45055 -4.78414,3.04018 -7.23659,4.46027 -2.35527,1.30218 -4.55617,2.85988 -6.8692,4.23899 -2.70973,1.74544 -5.47255,3.40311 -8.19014,5.13588 -2.75186,1.60673 -5.35359,3.44313 -7.96964,5.25862 -2.18594,1.49496 -4.41508,2.92582 -6.52033,4.53435 -1.26811,1.08166 -2.63165,2.03961 -3.94694,3.06094 -0.99008,0.70899 -1.98708,1.41531 -2.94149,2.17393 -1.09271,0.71579 -2.15818,1.46247 -3.24115,2.19062 -0.61922,0.64207 -1.3886,1.11277 -2.1525,1.56066 -1.02393,0.65387 -2.07584,1.26712 -3.06695,1.9719 -1.04692,0.66448 -2.09956,1.31521 -3.17162,1.93757 -1.06087,0.64671 -1.98753,1.49368 -2.96174,2.26272 -0.92502,0.7533 -0.50822,0.37816 -1.26271,1.11158 -2.92926,2.78315 -6.86524,-1.35945 -3.93597,-4.1426 l 0,0 c 1.1083,-1.03803 0.55343,-0.55579 1.65808,-1.4542 1.1889,-0.9385 2.32366,-1.96404 3.64015,-2.72329 0.92674,-0.53498 1.83121,-1.10224 2.74331,-1.66358 1.15726,-0.80963 2.36637,-1.54016 3.56484,-2.28552 0.6987,-0.31082 1.18185,-0.92261 1.80362,-1.3485 0.96376,-0.60386 1.85606,-1.32478 2.84028,-1.90119 0.97258,-0.76494 1.97947,-1.48933 2.98499,-2.20796 1.32941,-1.02732 2.70107,-1.99755 3.98153,-3.08751 2.17646,-1.65584 4.46529,-3.14924 6.72706,-4.68475 2.67707,-1.85719 5.34154,-3.73443 8.15506,-5.38199 2.76638,-1.76387 5.57789,-3.4528 8.3379,-5.22697 2.33675,-1.39054 4.55609,-2.96891 6.93784,-4.27924 2.38517,-1.37025 4.65476,-2.93274 7.02379,-4.33124 2.4571,-1.56373 4.88808,-3.16661 7.32545,-4.76023 2.03323,-1.37575 4.03169,-2.80235 6.00986,-4.25602 2.003,-1.40947 3.99923,-2.82847 6.00684,-4.23105 1.97102,-1.31223 3.91195,-2.67062 5.9299,-3.91118 2.877,-1.96143 5.70365,-4.00203 8.70347,-5.77789 3.32114,-1.9683 6.58537,-4.03123 9.94436,-5.93597 3.39435,-1.79399 6.84606,-3.45496 10.37211,-4.97624 4.03487,-1.82014 8.01764,-3.74593 12.00136,-5.67461 4.0504,-1.94993 8.1079,-3.89557 12.29499,-5.53805 5.00908,-1.94918 10.157,-3.51993 15.24031,-5.26223 4.9039,-1.57974 9.83003,-3.08921 14.72913,-4.68415 3.49346,-1.13928 6.95775,-2.38613 10.53835,-3.23445 3.49064,-0.86533 6.94026,-1.88268 10.32835,-3.0918 3.72069,-1.22641 7.50151,-2.22738 11.27216,-3.28457 3.5692,-0.92002 7.16906,-1.76657 10.81468,-2.32058 3.06308,-0.46117 6.179,-0.79368 9.26979,-0.38879 4.00941,0.50118 3.30064,6.17134 -0.70877,5.67016 z"
       inkscape:connector-curvature="0" />
    <path
       style="fill:#000000"
       id="path3946"
       d="m 425.46918,196.04952 c -1.55974,2.14773 -2.87472,4.4678 -4.25372,6.73504 -1.3444,2.27407 -2.93424,4.39994 -4.23524,6.69811 -1.27682,2.10697 -2.19625,4.39584 -3.1607,6.65544 -1.22585,2.81503 -2.55112,5.57966 -3.70013,8.42735 -1.22931,2.82527 -2.31615,5.70772 -3.49993,8.55116 -1.15031,2.75067 -2.5715,5.3687 -4.00472,7.97827 -1.40991,2.53758 -2.74952,5.11036 -3.97155,7.74338 -1.17926,2.49042 -2.55252,4.88284 -3.9663,7.24594 -1.5034,2.41018 -2.80747,4.9344 -4.1929,7.41182 -1.2469,2.12707 -2.535,4.22788 -3.84479,6.3166 -1.36112,2.46849 -2.89796,4.81734 -4.45356,7.16562 -1.6858,2.62975 -3.17072,5.37727 -4.79189,8.0466 -1.46875,2.49067 -2.75846,5.08757 -4.07891,7.66036 -1.01528,2.11876 -2.39591,4.02071 -3.59566,6.03036 -1.08484,1.75371 -2.14249,3.52261 -3.36618,5.18416 -1.50902,1.8065 -2.751,3.81166 -4.05055,5.76909 -1.53901,2.34372 -2.84966,4.82725 -4.47688,7.11181 -1.33244,1.81122 -3.00283,3.3256 -4.50131,4.99052 -1.81692,1.93689 -3.44808,4.02701 -5.03764,6.15039 -1.41096,2.08663 -2.92972,4.09069 -4.57009,6.00134 -1.25282,1.46359 -2.70944,2.72508 -4.18102,3.96009 -1.2221,0.94925 -2.25459,2.0741 -3.23688,3.26054 -0.9064,1.10746 -1.8648,2.17046 -2.8487,3.20914 -1.35428,1.23915 -2.69306,2.47513 -3.96511,3.80291 -1.33191,1.19182 -2.3049,2.66656 -3.38377,4.06977 -0.92166,1.16992 -1.98538,2.21458 -3.03414,3.26813 -1.18826,1.35122 -2.20173,2.84026 -3.40446,4.18057 -0.59972,0.7938 -1.34684,1.19765 -2.15939,1.73024 -0.13443,0.0881 0.28853,-0.14177 0.43279,-0.21266 -0.93786,0.55775 -1.67365,0.87054 -2.70294,1.35694 -0.73335,0.6296 -1.63412,1.06946 -2.38084,1.684 -0.58556,0.46359 -1.27626,0.77327 -1.86008,1.23368 -0.84367,0.45913 -1.46528,1.05002 -2.22701,1.66518 -0.80931,0.64555 -1.73049,1.05264 -2.68073,1.42562 -0.0956,0.0375 0.19582,-0.0621 0.29374,-0.0931 0.10435,-0.0238 0.13617,-0.066 0.20702,-0.15103 -2.45013,3.213 -6.994,-0.25201 -4.54387,-3.46501 l 0,0 c 0.43309,-0.54646 0.95114,-1.01403 1.5516,-1.37349 0.76061,-0.35716 0.79074,-0.32753 1.58217,-0.78871 0.75315,-0.60816 1.5151,-1.35592 2.3739,-1.80315 0.0214,-0.0111 -0.0296,0.038 -0.0443,0.0571 0.61098,-0.46564 1.26945,-0.85088 1.91065,-1.2722 1.10718,-0.80786 2.24315,-1.58351 3.41196,-2.30201 0.57867,-0.26558 2.30986,-1.07207 1.73949,-0.7891 2.14665,-1.28016 -0.81183,0.95758 0.55881,-0.42605 0.0996,-0.10051 0.19678,-0.20332 0.29517,-0.30497 1.27383,-1.39971 2.28345,-3.01622 3.59672,-4.38338 0.8782,-0.88207 1.7744,-1.75159 2.55614,-2.72278 1.20577,-1.56328 2.31623,-3.19655 3.78609,-4.53766 1.26434,-1.31849 2.5848,-2.56539 3.94339,-3.78012 0.89777,-0.94621 1.77112,-1.91572 2.59719,-2.92557 1.20268,-1.44814 2.48069,-2.81864 3.962,-3.9899 1.23512,-1.03656 2.47057,-2.07965 3.52182,-3.30878 1.55986,-1.81056 2.98468,-3.72361 4.32831,-5.70015 1.6955,-2.26462 3.44012,-4.49048 5.37434,-6.55919 1.36154,-1.49897 2.85291,-2.88227 4.09516,-4.48695 1.60316,-2.21623 2.82674,-4.67849 4.36033,-6.94294 1.35346,-2.03802 2.65039,-4.12451 4.21817,-6.00804 1.12293,-1.5068 2.06111,-3.13533 3.05955,-4.72514 1.14387,-1.89725 2.44087,-3.70146 3.41227,-5.70065 1.38442,-2.6925 2.73338,-5.41153 4.27774,-8.01566 1.66018,-2.73305 3.17576,-5.54961 4.91221,-8.23616 1.53,-2.30905 3.03866,-4.61702 4.37612,-7.04552 1.25941,-2.00811 2.49858,-4.0274 3.69935,-6.07129 1.41448,-2.52551 2.74299,-5.10049 4.27737,-7.55767 1.31372,-2.19002 2.58726,-4.40906 3.68565,-6.71625 1.27734,-2.74908 2.67277,-5.43775 4.14568,-8.08744 1.3352,-2.43103 2.66657,-4.86585 3.73971,-7.42793 1.18003,-2.82078 2.25163,-5.68599 3.4747,-8.48969 1.16406,-2.8823 2.4966,-5.68469 3.74337,-8.53153 1.05217,-2.46506 2.0704,-4.95549 3.45976,-7.2558 1.34895,-2.32828 2.9135,-4.52336 4.3097,-6.82413 1.45217,-2.38723 2.8424,-4.8255 4.48587,-7.0868 2.34856,-3.28798 6.99846,0.0334 4.64991,3.32136 z"
       inkscape:connector-curvature="0" />
    <path
       style="fill:#000000"
       id="path3954"
       d="m 228.96152,140.14024 c 1.22277,1.27649 2.61424,2.3701 4.05292,3.38927 1.61736,1.26359 3.27188,2.47921 4.88287,3.75032 1.89326,1.53347 3.99031,2.79503 6.08641,4.02831 2.47721,1.38037 4.96308,2.74612 7.41015,4.17972 2.40763,1.36342 4.77787,2.78525 7.14808,4.2114 1.71434,1.15524 3.54545,2.09115 5.41307,2.96387 1.91569,0.92665 3.73859,2.03495 5.63789,2.98891 1.82434,0.94833 3.70594,1.77794 5.58092,2.61923 1.97399,0.93213 3.9994,1.75014 6.02285,2.5674 1.72781,0.64603 3.44032,1.33219 5.15763,2.00649 1.27577,0.43832 2.5274,0.90376 3.70221,1.57165 0.70879,0.20138 1.49778,0.53063 2.2102,0.83437 1.45414,0.51658 2.89527,1.06857 4.32583,1.65048 1.96761,0.79539 3.91003,1.66838 5.81862,2.59781 2.28189,1.29449 4.69046,2.31023 7.07697,3.38667 2.05317,0.90952 4.13035,1.76483 6.18064,2.67993 2.32681,1.11458 4.63939,2.26233 6.91042,3.48681 1.9661,1.17461 4.08968,2.03564 6.15952,3.00145 2.61621,1.19718 5.00866,2.81228 7.37835,4.42945 2.82295,1.9373 5.61538,3.92293 8.30651,6.04055 2.00769,1.56228 4.04646,3.0834 6.18326,4.46495 2.44592,1.51679 4.78945,3.18427 7.09364,4.90673 2.47562,1.81031 4.75553,3.85229 7.03141,5.90136 1.99415,1.96009 4.07008,3.83424 6.10369,5.75294 1.35728,1.36045 2.70042,2.73207 4.08563,4.06589 1.66353,1.76571 3.31652,3.54283 5.04002,5.2508 1.72655,1.59796 3.34982,3.30046 4.95242,5.02067 1.03444,1.25886 2.2216,2.36365 3.3507,3.5338 1.36594,1.43547 2.74358,2.8597 4.13035,4.27504 0.67996,0.75377 1.4818,1.35773 2.17855,2.09498 -0.0642,-0.0686 -0.26745,-0.2625 -0.19252,-0.20583 0.61924,0.46834 1.19375,1.01559 1.75852,1.56995 0.61607,0.49336 1.11133,1.18934 1.81883,1.56941 0.69477,0.62931 1.4932,1.09129 2.24214,1.64829 0.87525,0.763 1.84509,1.39934 2.769,2.10058 0.83759,0.59351 1.64089,1.21691 2.36056,1.95384 0.86711,0.85889 -0.40038,0.03 -0.47496,-0.28914 -0.0986,-0.42201 1.82096,1.55482 0.84313,0.60927 0.69738,0.53511 1.24278,1.22836 1.81286,1.89008 0.12297,0.19374 0.73881,0.76049 -10e-4,0.0703 0.84372,0.70604 1.66503,1.44539 2.4266,2.23987 0.7386,0.93776 0.59628,0.44802 -0.0443,0.0936 -1.38487,-0.25349 -1.62636,-0.62975 1.88975,1.3781 -0.0288,-0.0519 -0.12517,-0.20056 -0.0863,-0.1557 0.53107,0.61322 0.94809,1.151 1.55538,1.68953 0.434,0.37877 0.87103,0.75423 1.31607,1.12 -0.003,-8.2e-4 0.0509,0.0411 0.0631,0.0509 3.15513,2.52422 -0.41465,6.98625 -3.56978,4.46203 l 0,0 c -0.17954,-0.14521 0.10826,0.0887 -0.12304,-0.0995 -0.50149,-0.41267 -0.99471,-0.83532 -1.48337,-1.26308 -0.92395,-0.82334 -1.75175,-1.71374 -2.4784,-2.71357 3.39931,1.64851 2.69599,1.23986 1.10692,0.95148 -0.89682,-0.32103 -1.70456,-0.81211 -2.29213,-1.58155 -0.38408,-0.41326 -1.22891,-0.916 -1.42183,-1.3786 -0.0181,-0.0433 0.0846,0.0406 0.12686,0.061 -0.49124,-0.37158 -0.94757,-0.70655 -1.31351,-1.19505 -0.0739,-0.0857 -1.22256,-1.3079 -0.66961,-0.87608 -2.01872,-1.60217 1.6679,1.16893 -1.28905,-1.0906 -0.51308,-0.5415 -1.11783,-0.94074 -1.71688,-1.3818 -0.91441,-0.70034 -1.8837,-1.3285 -2.75203,-2.08769 -0.63915,-0.49995 -1.37641,-0.868 -1.95624,-1.44561 -0.99896,-0.69478 -1.89225,-1.50196 -2.75949,-2.35093 -0.49687,-0.72098 -1.11563,-0.82137 -1.63498,-1.43646 -0.65555,-0.71193 -1.46354,-1.25892 -2.09017,-2.00275 -1.3973,-1.42616 -2.78562,-2.86106 -4.16193,-4.30752 -1.15323,-1.19657 -2.36601,-2.33114 -3.42669,-3.61413 -1.54188,-1.67106 -3.1259,-3.30374 -4.79086,-4.85348 -1.69797,-1.69102 -3.34376,-3.43439 -4.97594,-5.18812 -1.37128,-1.32045 -2.70213,-2.6775 -4.04366,-4.02589 -2.00129,-1.88844 -4.04597,-3.73142 -6.00607,-5.66295 -2.14711,-1.93406 -4.29247,-3.86704 -6.63109,-5.57246 -2.19989,-1.64812 -4.44029,-3.23903 -6.77821,-4.68684 -2.28072,-1.48176 -4.46772,-3.09663 -6.61078,-4.77089 -2.588,-2.04054 -5.28003,-3.94573 -7.99538,-5.81209 -2.1127,-1.4467 -4.24248,-2.89975 -6.57591,-3.97144 -2.16633,-1.01745 -4.39328,-1.91688 -6.4529,-3.14917 -2.14505,-1.16082 -4.3347,-2.23894 -6.53079,-3.29958 -2.05282,-0.92343 -4.14107,-1.76884 -6.19664,-2.68714 -2.43826,-1.10267 -4.90244,-2.14038 -7.23575,-3.46133 -1.79002,-0.88023 -3.62036,-1.69188 -5.46835,-2.44083 -1.47539,-0.60543 -2.96779,-1.15635 -4.46264,-1.70844 -0.8997,-0.4222 -1.8737,-0.66319 -2.76059,-1.11235 -0.92577,-0.54314 -1.95355,-0.82474 -2.95162,-1.21027 -1.72989,-0.68645 -3.46059,-1.37159 -5.20313,-2.02466 -2.08929,-0.84606 -4.18201,-1.68922 -6.22107,-2.65195 -1.96033,-0.88098 -3.92763,-1.75001 -5.83573,-2.74131 -1.83214,-0.94412 -3.61626,-1.98077 -5.46148,-2.90275 -2.04847,-0.95725 -4.0575,-1.98741 -5.94205,-3.24577 -2.34994,-1.41655 -4.70262,-2.82395 -7.09042,-4.17713 -2.44911,-1.43758 -4.94207,-2.79841 -7.41984,-4.18542 -2.3229,-1.36968 -4.64138,-2.77646 -6.74025,-4.47733 -1.51999,-1.21771 -3.10746,-2.35225 -4.63367,-3.56323 -1.70007,-1.20606 -3.33752,-2.50794 -4.78871,-4.01034 -2.85714,-2.85715 1.18347,-6.89776 4.04061,-4.04061 z"
       inkscape:connector-curvature="0" />
    <path
       style="fill:#000000"
       id="path3956"
       d="m 182.25036,237.75284 c 0.19756,-2.34829 0.48012,-4.67526 0.89442,-6.99519 0.43112,-1.7719 0.92491,-3.52507 1.68209,-5.18608 0.71572,-1.4266 1.51294,-2.81279 2.35518,-4.16857 1.08686,-2.16883 2.10215,-4.37169 3.27593,-6.4957 1.00979,-1.71717 2.06927,-3.40633 3.28066,-4.98907 1.32229,-1.60462 2.60337,-3.24234 3.86584,-4.89429 1.36593,-1.70644 2.76551,-3.38237 3.92601,-5.23824 1.16621,-1.98509 2.5829,-3.79423 4.09439,-5.52382 1.33505,-1.5533 2.69498,-3.08065 4.06325,-4.60628 1.82958,-1.83357 3.6621,-3.66059 5.4369,-5.54792 1.44225,-1.53431 2.86343,-3.0896 4.41889,-4.51029 1.915,-1.75416 3.96746,-3.37312 5.78624,-5.22736 1.46199,-1.64467 3.06516,-3.15541 4.65125,-4.67823 1.2407,-1.18722 2.46065,-2.39579 3.67883,-3.60602 1.28934,-1.26673 2.48602,-2.61493 3.77823,-3.8797 1.38984,-1.33587 2.93495,-2.47693 4.27353,-3.86716 1.35331,-1.64267 3.02745,-2.94325 4.62839,-4.32339 1.92919,-1.51389 3.65959,-3.25106 5.53724,-4.82638 1.98853,-1.88058 4.20798,-3.4872 6.33098,-5.20785 1.84181,-1.37548 3.63233,-2.81248 5.34647,-4.34388 1.54915,-1.45355 3.06022,-2.93841 4.67451,-4.3204 1.43159,-1.19715 2.82992,-2.43711 4.07465,-3.82977 1.05146,-1.1228 2.27519,-2.06067 3.5064,-2.97512 1.09343,-0.83033 2.21986,-1.61886 3.37005,-2.36883 1.48375,-1.04795 3.03979,-1.98221 4.62983,-2.85919 1.74047,-0.97745 3.58387,-1.76742 5.41289,-2.56458 0.89252,-0.34482 1.70483,-0.86278 2.5382,-1.33051 0.72397,-0.47123 1.5553,-0.58486 2.39518,-0.60914 1.14835,-0.008 2.23315,-0.10572 3.27179,0.64805 0.52524,0.38118 0.7953,1.02576 1.19294,1.53864 1.77427,3.63022 -3.35964,6.13941 -5.13391,2.50919 l 0,0 c 1.2831,1.16663 0.24451,0.45829 2.08581,1.02097 0.59178,0.18084 -1.93723,-0.15979 -1.27719,-0.004 -0.45637,0.006 1.10836,-0.4944 0.26213,-0.12036 -1.00058,0.56157 -1.98716,1.16612 -3.05662,1.58787 -1.67015,0.724 -3.35485,1.44193 -4.94211,2.33367 -1.47552,0.80454 -2.90609,1.68157 -4.27951,2.65034 -1.05355,0.67003 -2.06563,1.4053 -3.06253,2.15571 -0.93501,0.69431 -1.87412,1.38845 -2.68366,2.22979 -1.42475,1.552 -2.96067,2.99249 -4.58972,4.32972 -1.58489,1.35473 -3.05631,2.82378 -4.58437,4.24163 -1.78345,1.59002 -3.63686,3.09436 -5.55429,4.52064 -2.10091,1.70116 -4.29489,3.29141 -6.26237,5.15137 -1.86499,1.55323 -3.56638,3.28981 -5.48381,4.78114 -1.47407,1.25794 -3.00693,2.44704 -4.24158,3.95929 -1.38209,1.42182 -2.92693,2.63873 -4.38339,3.9776 -1.28219,1.25357 -2.4641,2.59606 -3.74684,3.84876 -1.24126,1.23313 -2.48444,2.46446 -3.74862,3.67418 -1.55553,1.49343 -3.12703,2.97517 -4.56021,4.58885 -1.91434,1.90078 -3.98928,3.63414 -6.00078,5.43185 -1.45643,1.3005 -2.73755,2.78262 -4.09038,4.18804 -1.74409,1.85417 -3.5373,3.65738 -5.34543,5.44834 -1.3535,1.50911 -2.70348,3.01368 -4.01836,4.55563 -1.31858,1.50203 -2.55095,3.07492 -3.55938,4.80651 -1.26438,1.99313 -2.72807,3.83362 -4.21968,5.66066 -1.26641,1.65712 -2.55041,3.3011 -3.87778,4.90986 -1.047,1.35019 -1.93469,2.81232 -2.81224,4.27607 -1.22896,2.20448 -2.23356,4.5219 -3.4237,6.74674 -0.73542,1.17414 -1.42462,2.37943 -2.05095,3.61458 -0.62924,1.14606 -0.79511,2.49421 -1.21005,3.72162 -0.39709,2.22201 -0.6573,4.44969 -0.84948,6.69904 -0.50118,4.00941 -6.17133,3.30064 -5.67016,-0.70877 z"
       inkscape:connector-curvature="0" />
    <path
       style="fill:#000000"
       id="path3958"
       d="m 244.3404,125.93361 c 2.36045,0 4.7209,0 7.08135,0 2.00031,-0.0389 3.98452,-0.0206 5.97098,0.22568 2.09728,0.18539 4.15415,0.63751 6.24176,0.89461 2.44567,0.15216 4.87925,0.39259 7.31679,0.64223 2.33078,0.21091 4.66233,0.30454 6.98629,0.58577 2.54614,0.26932 5.0713,0.67861 7.62196,0.90976 3.25546,0.24017 6.52117,0.28023 9.78399,0.30969 3.48205,-0.0221 6.95554,-0.002 10.43116,0.21764 2.98716,0.21847 5.9781,0.37082 8.97188,0.45565 2.37134,0.0571 4.74363,0.0492 7.11548,0.0497 3.37972,0.18204 6.75504,0.42796 10.13635,0.5839 2.24405,-0.0217 4.45709,0.3301 6.68027,0.576 1.89172,0.2023 3.79561,0.23262 5.69617,0.25662 2.45072,0.11331 4.85812,0.57133 7.27465,0.95476 2.2356,0.21356 4.44503,0.61472 6.66899,0.91705 1.88183,0.14761 3.74931,0.38375 5.62168,0.62179 2.00496,0.21568 3.97661,0.64672 5.97843,0.89054 1.41116,0.058 2.7722,0.4331 4.15674,0.67072 1.63488,0.36721 3.24602,0.82 4.87086,1.22677 1.05715,0.2534 2.13177,0.38974 3.21652,0.42511 1.56481,0.16912 3.11105,0.46762 4.67782,0.62062 1.76026,0.32152 3.52643,0.58954 5.27651,0.96329 1.00262,0.22198 2.00885,0.44496 3.03182,0.54781 1.31067,0.0972 2.53011,0.63401 3.78599,0.97879 1.26239,0.45253 2.54153,0.84536 3.86187,1.08343 1.00842,0.0547 1.74331,0.28515 2.74623,0.6148 0.26858,0.24062 0.53715,0.48123 0.80572,0.72184 2.60355,3.09 -1.76637,6.77197 -4.36991,3.68197 l 0,0 c 0.20221,0.16185 0.40442,0.3237 0.60663,0.48555 2.78331,0.73155 -0.14659,0.11748 -0.81926,0.11642 -1.48648,-0.27584 -2.9452,-0.67163 -4.36342,-1.19896 -0.98243,-0.27619 -2.02164,-0.71939 -2.8456,-0.80027 -1.22492,-0.1304 -2.4343,-0.36902 -3.63468,-0.64336 -1.54295,-0.33021 -3.10055,-0.55276 -4.64735,-0.86507 -1.44969,-0.14622 -2.88819,-0.37326 -4.32771,-0.59663 -1.48202,-0.0611 -2.953,-0.23776 -4.39611,-0.59393 -1.48764,-0.3762 -2.96407,-0.78733 -4.45737,-1.13881 -1.29175,-0.22787 -2.55457,-0.58072 -3.87241,-0.62848 -2.00998,-0.24896 -3.99189,-0.66644 -6.00367,-0.8937 -1.88943,-0.24131 -3.77251,-0.47483 -5.67145,-0.62836 -2.26583,-0.30988 -4.51717,-0.71357 -6.79458,-0.9356 -2.14422,-0.34189 -4.27766,-0.75191 -6.44972,-0.88427 -2.08663,-0.0268 -4.17653,-0.0656 -6.25311,-0.29096 -2.10205,-0.23359 -4.19161,-0.57619 -6.3141,-0.54727 -3.29392,-0.15225 -6.5828,-0.37963 -9.87404,-0.57782 -2.42554,-5.3e-4 -4.85153,0.007 -7.27653,-0.052 -3.06028,-0.0872 -6.11774,-0.24154 -9.17127,-0.4648 -3.37231,-0.21471 -6.74251,-0.22469 -10.12125,-0.20642 -3.41918,-0.0311 -6.84145,-0.0751 -10.25252,-0.33319 -2.60643,-0.2402 -5.18792,-0.64777 -7.78946,-0.92757 -2.28842,-0.27803 -4.5864,-0.35416 -6.88122,-0.57402 -2.47932,-0.25438 -4.95416,-0.49118 -7.44113,-0.65634 -2.08924,-0.26324 -4.14889,-0.70205 -6.2472,-0.8953 -1.74872,-0.22337 -3.49615,-0.2047 -5.25847,-0.18108 -2.36045,0 -4.7209,0 -7.08135,0 -4.04061,0 -4.04061,-5.71429 0,-5.71429 z"
       inkscape:connector-curvature="0" />
    <path
       style="fill:#000000"
       id="path3966"
       d="m 188.18077,278.89826 c 2.07579,0.25976 4.16185,0.41609 6.25002,0.53073 1.22622,0.0638 2.45409,0.0771 3.68168,0.0808 1.37628,-0.056 2.74078,-0.3473 4.11355,-0.50293 1.57769,-0.16496 3.16451,-0.19632 4.74934,-0.21463 1.58109,-0.0166 3.14062,-0.34852 4.7135,-0.50799 2.37063,-0.1155 4.72331,-0.42853 7.08792,-0.62703 2.17869,-0.26264 4.3916,-0.11095 6.56764,-0.35927 2.00988,-0.18979 3.99189,-0.53769 5.98272,-0.86046 2.29248,-0.33655 4.56565,-0.75771 6.87319,-0.98908 2.0895,-0.0795 4.1549,-0.27153 6.22777,-0.53466 1.81511,-0.25388 3.63648,-0.54797 5.43005,-0.93135 2.22535,-0.36426 4.42243,-0.85206 6.61344,-1.38249 1.91102,-0.44326 3.77383,-1.03758 5.70852,-1.38011 1.75585,-0.38379 3.47722,-0.89617 5.20143,-1.39956 1.63715,-0.61372 3.30118,-1.14338 5.01208,-1.50542 -0.0453,-0.16322 -0.25002,0.12311 -0.34761,0.22699 -0.26359,0.36403 -0.13244,0.15686 -0.37721,0.63152 1.5275,-3.74076 6.81773,-1.58056 5.29024,2.1602 l 0,0 c -0.28712,0.57399 -0.12922,0.31139 -0.46362,0.79378 -0.78177,0.89171 -1.77863,1.47762 -2.9311,1.78059 -1.56868,0.3234 -3.07531,0.86014 -4.58166,1.39772 -1.92868,0.56282 -3.85584,1.13215 -5.82406,1.54407 -1.81364,0.30707 -3.54624,0.91836 -5.34247,1.30408 -2.2488,0.5444 -4.50458,1.04664 -6.78825,1.42192 -1.94611,0.40036 -3.91221,0.74013 -5.88019,1.00686 -2.12389,0.2696 -4.24343,0.47457 -6.38388,0.55229 -2.19093,0.21409 -4.34604,0.63147 -6.52321,0.94345 -2.10166,0.33992 -4.19632,0.70087 -6.31735,0.90456 -2.21739,0.20886 -4.45112,0.15509 -6.67014,0.36877 -2.33395,0.19449 -4.65651,0.50647 -6.99649,0.61864 -1.73979,0.17043 -3.4626,0.55172 -5.21599,0.53589 -1.3933,0.0157 -2.78853,0.0388 -4.17601,0.17921 -1.59012,0.17711 -3.16691,0.52967 -4.76972,0.53869 -1.32644,-0.004 -2.65316,-0.0197 -3.97807,-0.0894 -2.2201,-0.12242 -4.43791,-0.28987 -6.64483,-0.56623 -4.00941,-0.50118 -3.30064,-6.17134 0.70877,-5.67016 z"
       inkscape:connector-curvature="0" />
    <path
       style="fill:#aa0000"
       id="path4368"
       d="m 67.598977,35.391813 c -2.049833,-0.665248 -4.116043,-1.276664 -6.174801,-1.915905 -1.112594,-0.344746 -2.272594,-0.443849 -3.429518,-0.49694 -1.062307,-0.03088 -2.125265,-0.01986 -3.187852,-0.01537 -1.012341,0.0044 -2.024687,0.0071 -3.037036,0.0086 -0.747833,8.49e-4 -1.495667,8.36e-4 -2.2435,8.35e-4 -0.848022,-3.8e-5 -1.696043,-6.7e-5 -2.544065,-8.1e-5 -1.184396,0.227542 -2.315643,0.644139 -3.448354,1.050575 -1.044535,0.53269 -2.078624,1.083129 -3.186871,1.471395 -0.500644,0.165519 -1.013567,0.288025 -1.538201,0.340694 -1.807137,0.309398 2.584523,-4.088065 2.612687,-2.273423 0.0044,-0.26639 0.0066,1.130205 0.0067,1.178576 -0.112734,1.032515 0.189461,1.955232 0.498758,2.921362 0.771592,1.577678 1.185364,3.256939 1.43253,4.985572 0.03311,1.414352 0.380892,2.774766 0.615013,4.161575 0.221358,1.413205 0.590218,2.793199 0.794892,4.212767 0.157632,1.130095 0.212511,2.27027 0.232843,3.409962 0.02905,0.06014 -0.03104,2.595273 0.01512,1.611314 0.260041,0.828493 0.454258,1.67387 0.587279,2.531418 0.109096,0.824131 0.109916,1.657576 0.114371,2.487454 8.25e-4,0.381643 2.74e-4,0.763295 -0.0032,1.144924 0.05514,1.425059 -3.793163,-2.809337 -2.258736,-2.789578 0.370886,-0.0089 0.741848,-0.01178 1.112824,-0.01364 1.203886,-0.07906 2.370617,0.25327 3.539991,0.48171 1.008238,0.17378 2.031628,0.201017 3.051883,0.221256 1.602702,0.01971 3.205593,0.01423 4.80838,0.01276 1.29468,-0.0015 2.58936,-0.0028 3.88404,-0.0034 0.973247,-4.06e-4 1.946494,-4.17e-4 2.919742,-4.27e-4 0.754049,2e-6 1.508097,1.7e-5 2.262146,2.7e-5 0.463461,8e-6 0.926922,8e-6 1.390384,8e-6 0.113585,0 0.452781,-0.01875 0.340755,0 -0.157991,0.02645 -0.320859,0.005 -0.480001,0.02331 -0.07348,0.0084 -0.274942,0.09926 -0.214593,0.05649 0.196177,-0.13903 0.86419,-0.416916 0.661635,-0.287354 -0.147923,0.09462 -0.31399,0.157307 -0.470985,0.235961 -0.472267,0.462699 0.734244,-0.990214 0.754361,-1.016772 0.249606,-0.513822 0.488284,-1.191068 0.592836,-1.830156 0.188596,-1.307871 0.221178,-2.63155 0.246043,-3.950729 0.0142,-1.14196 0.0076,-2.284039 0.0054,-3.426049 -0.05019,-1.615709 0.09455,-3.242666 -0.07812,-4.851579 -0.108857,-1.508364 -0.498973,-2.962709 -0.891922,-4.416014 -0.02907,-0.417044 -0.740399,-1.957935 0.04559,-0.318796 -0.423772,-0.477374 -0.738224,-1.262465 -1.196673,-1.839303 0.18248,0.441688 0.01063,-0.05131 -0.01811,0.08737 -3.297578,-2.335061 0.0047,-6.99854 3.302276,-4.663478 l 0,0 c 0.825059,0.61618 0.396571,0.255501 1.260039,1.111536 0.664438,0.887507 1.054849,1.728709 1.187803,1.8277 0.432403,0.778323 0.766082,1.432642 0.935707,2.305071 0.478011,1.771761 0.926,3.55402 1.066286,5.390554 0.14428,1.782593 0.09353,3.567996 0.101397,5.355711 0.0023,1.182283 0.0091,2.364642 -0.0064,3.546868 -0.03225,1.655314 -0.08201,3.316894 -0.354287,4.953402 -0.287989,1.349939 -0.711914,2.671191 -1.426275,3.861988 -0.580079,0.82554 -1.219872,1.618345 -1.942819,2.324023 -1.044149,0.674464 -2.114093,1.290641 -3.419911,1.234536 -0.463484,0 -0.926969,-10e-7 -1.390453,-8e-6 -0.754004,-1e-5 -1.508007,-2.5e-5 -2.26201,-2.7e-5 -0.972288,1e-5 -1.944576,2.1e-5 -2.916864,4.26e-4 -1.293911,6.65e-4 -2.587821,0.002 -3.881731,0.0034 -1.643303,0.0015 -3.286718,0.0072 -4.929924,-0.01394 -1.35209,-0.02814 -2.707421,-0.08123 -4.040751,-0.327963 -0.811337,-0.161056 -1.583295,-0.431744 -2.406632,-0.373888 -0.351156,0.0017 -0.702289,0.0045 -1.053358,0.01303 -1.645351,0.01365 -2.861864,-0.878464 -3.542965,-2.976982 0.0029,-0.354217 0.0041,-0.708447 0.0031,-1.062676 -0.0027,-0.565787 0.002,-1.134185 -0.05542,-1.697518 -0.08115,-0.711222 -0.330317,-1.389678 -0.50337,-2.080555 -0.143016,-0.931372 -0.191208,-1.840982 -0.157211,-2.783242 -0.01482,-0.904776 -0.054,-1.810266 -0.177348,-2.7077 -0.189086,-1.372607 -0.578367,-2.700691 -0.773015,-4.070983 -0.237412,-1.438251 -0.599544,-2.85681 -0.63948,-4.321882 -0.185418,-1.416174 -0.606294,-2.732429 -1.215546,-4.029442 -0.482502,-1.514694 -0.876338,-3.048432 -0.769489,-4.654661 -3.88e-4,-0.469568 0.0064,-0.822566 -0.004,-1.007046 -0.0029,-0.105681 -0.061,-0.496011 -0.0038,-0.560451 2.745172,-3.094955 4.292309,-3.102608 2.661124,-3.039595 -0.382584,0.04402 0.0112,0.009 0.13495,-0.05179 1.086738,-0.34608 2.029454,-1.052397 3.101824,-1.441633 1.745585,-0.626343 3.510915,-1.261803 5.37835,-1.386335 0.847992,1.4e-5 1.695984,4.3e-5 2.543976,8.1e-5 0.745076,1e-6 1.490152,1.5e-5 2.235227,-8.29e-4 1.007045,-0.0015 2.014087,-0.0041 3.021124,-0.0085 1.162331,-0.0049 2.325138,-0.01691 3.487056,0.02194 1.639108,0.08182 3.277772,0.25493 4.851537,0.74813 2.162256,0.673499 4.335791,1.306727 6.484176,2.021925 3.783341,1.418753 1.776922,6.769206 -2.00642,5.350453 z"
       inkscape:connector-curvature="0"
       transform="translate(136.50022,86.379181)" />
    <path
       style="fill:#aa0000"
       id="path4370"
       d="m 32.088175,182.25862 c -2.360451,0 -4.720903,0 -7.081354,0 -1.631238,0 -3.262476,0 -4.893713,0 -1.237668,0.0912 -2.409444,-0.30278 -3.585523,-0.6122 -0.289898,-0.0891 -0.594999,-0.0934 -0.896023,-0.10241 -0.883568,-0.009 -1.767238,-0.004 -2.650839,-0.003 -0.54424,0.22217 -1.127317,0.35887 -1.698425,0.50217 -0.251028,0.0604 -1.7751681,0.44176 0.746159,-0.3785 0.106868,-0.0348 -0.178613,0.13645 -0.268788,0.20352 -0.354582,0.26371 -0.753258,0.45002 -1.139112,0.66305 -0.469878,0.22048 -0.8680787,0.54361 -1.267646,0.86885 -0.039329,0.033 -0.1519522,0.13735 -0.1179858,0.0989 0.4272299,-0.48381 0.5229,-0.55744 0.754827,-1.06836 0.024303,-0.0535 0.00273,0.11758 0.00215,0.17637 -0.011385,0.69899 -0.0018,1.39819 0.00135,2.09723 -0.1135406,1.0516 0.1851677,1.98754 0.5025027,2.97028 0.611011,1.16479 1.157002,2.36961 1.614388,3.60323 0.445243,1.36367 0.937136,2.68789 1.206447,4.10356 0.166696,1.18463 0.527782,2.32666 0.73659,3.50865 0.144162,0.90079 0.209428,1.81023 0.233981,2.72123 0.0091,0.56618 0.0033,1.1325 0.0017,1.69872 -0.0021,0.8188 -0.0025,1.63761 -0.0029,2.45641 -2e-4,0.42885 -2.16e-4,0.8577 -1.97e-4,1.28654 1.9e-5,0.1397 3e-5,0.2794 3.3e-5,0.4191 6e-6,0.29618 5e-6,0.59236 6e-6,0.88854 -0.548006,-2.05278 0.10913,-0.52624 0.335657,-0.0259 0.151325,0.25239 0.313451,0.49798 0.483272,0.73821 -0.527751,-0.51194 -0.945355,-0.99122 -1.645727,-1.08825 0.155092,-0.007 0.733762,-0.009 1.000357,-0.01 1.54893,0.0942 3.069598,-0.12207 4.602144,-0.30554 1.584312,-0.32064 3.256494,-0.11853 4.83378,-0.43799 1.30266,-0.26724 2.615334,-0.42915 3.908286,-0.73744 1.491154,-0.36997 3.020343,-0.52509 4.550092,-0.61829 0.758017,-0.28051 1.581601,-0.44416 2.379164,-0.59296 -0.613883,0.29467 1.877314,-0.45091 1.204405,-0.14908 -1.911985,0.8576 -1.139641,0.1385 -2.070103,1.23508 0.178472,-0.4567 -0.333436,0.69428 -0.226481,0.53342 0.329582,-0.53009 0.659163,-1.06019 0.988744,-1.59028 -0.370589,0.40343 -0.180716,0.15284 -0.112318,0.051 0.323367,-0.49436 0.738355,-1.03246 0.994861,-1.6357 0.604246,-1.00385 1.010181,-2.09991 1.291349,-3.23299 0.242731,-1.32776 0.309241,-2.67778 0.341192,-4.02437 -0.02844,-0.59485 0.0567,-1.19918 0.01071,-1.79356 -0.02117,-0.27361 -0.237476,-0.49535 -0.337925,-0.75073 -0.607956,-0.82812 -1.268311,-1.60962 -1.912855,-2.4106 -0.555048,-0.90396 -1.296841,-1.65686 -2.042782,-2.40067 -0.504938,-0.38812 -0.209783,-0.15878 -0.882421,-0.69192 -3.164995,-2.51184 0.387283,-6.98782 3.552278,-4.47598 l 0,0 c 0.894535,0.71073 0.437921,0.33693 1.367596,1.12414 0.889215,0.88881 1.780826,1.79505 2.457253,2.86205 1.005636,1.24976 2.097106,2.4566 2.786421,3.92121 0.599813,1.55415 0.862147,3.09096 0.714303,4.75571 -0.04463,1.7804 -0.146316,3.56683 -0.520896,5.31313 -0.409753,1.54918 -0.941525,3.0667 -1.760588,4.45272 -0.413545,0.75668 -0.861265,1.50954 -1.346211,2.21981 -0.215985,0.31216 -1.138636,1.8746 -0.810244,0.99359 1.160914,-3.11451 0.830734,-1.0236 0.433164,-0.42686 -0.217445,0.28381 -0.357993,0.64847 -0.652335,0.85142 -1.055877,0.72805 -1.489379,0.77716 -2.464418,0.89513 -1.026787,0.16252 -2.004031,0.56037 -3.041631,0.67148 -1.199306,0.0696 -2.399476,0.18201 -3.568348,0.47341 -1.436506,0.34079 -2.891952,0.53697 -4.339774,0.82264 -1.673286,0.23548 -3.368706,0.24221 -5.045303,0.46733 -1.750179,0.20935 -3.496255,0.43436 -5.263777,0.34599 -0.345911,0.001 -0.691812,0.002 -1.03766,0.01 -1.217776,-0.0157 -2.059925,-0.3597 -2.984082,-1.30446 -0.315684,-0.44363 -0.6115107,-0.90169 -0.8785422,-1.37636 -0.4480324,-0.91312 -0.6481206,-1.08436 -1.0048939,-2.65747 -3e-7,-0.29614 5e-7,-0.59227 -5.3e-6,-0.88841 -3.4e-6,-0.13966 -1.39e-5,-0.27932 -3.36e-5,-0.41899 -1.87e-5,-0.4299 -2.4e-6,-0.8598 1.983e-4,-1.2897 4.194e-4,-0.82347 9.026e-4,-1.64694 0.00297,-2.4704 0.00151,-0.5108 0.00632,-1.02167 2.668e-4,-1.53245 -0.015818,-0.63067 -0.056445,-1.26002 -0.1502197,-1.88458 -0.2022328,-1.16721 -0.575704,-2.29392 -0.7293715,-3.46829 -0.1864289,-1.10557 -0.6434515,-2.11078 -0.9571055,-3.18198 -0.4563503,-1.30996 -1.1534209,-2.51875 -1.6815915,-3.79962 -0.4909506,-1.52816 -0.8827604,-3.07466 -0.7775148,-4.69608 -0.0036,-0.79969 -0.016712,-1.59971 0.00527,-2.39921 0.07618,-1.28534 0.3772172,-2.53746 1.4703473,-3.36978 0.6860589,-0.55453 1.3958894,-1.08245 2.1881927,-1.47781 0.4932409,-0.25704 0.5296909,-0.27756 1.952369,-0.9834 1.0200756,-0.25435 2.0130426,-0.63349 3.0765436,-0.67307 0.950488,-0.001 1.901112,-0.008 2.851523,0.006 0.728081,0.026 1.458093,0.0897 2.162381,0.28835 0.706713,0.18695 1.38547,0.48457 2.127457,0.42305 1.631237,0 3.262475,0 4.893713,0 2.360451,0 4.720903,0 7.081354,0 4.04061,0 4.04061,5.71428 0,5.71428 z"
       inkscape:connector-curvature="0"
       transform="translate(136.50022,86.379181)" />
    <path
       style="fill:#aa0000"
       id="path4372"
       d="m 311.48066,192.71672 c -2.35662,-0.54128 -4.75903,-0.83168 -7.1665,-1.02062 -1.77191,-0.12438 -3.54806,-0.15364 -5.32363,-0.16128 -1.42103,-0.002 -2.84205,0.003 -4.26308,0.006 0.39915,-0.072 -0.91572,0.0536 -0.69122,0.002 1.12008,-0.25862 1.56009,-0.25726 2.1621,-1.30073 0.48626,-1.5231 0.46436,-0.59848 -1.7998,1.7609 -0.19599,0.20424 -1.03884,0.23328 -1.27124,0.25893 -0.45261,0.0153 -1.2128,0.0592 0.78947,-0.22974 0.16299,-0.0235 -0.57157,0.32536 -0.43696,0.23049 0.14385,-0.10139 0.36292,-0.43089 0.44918,-0.27748 0.0878,0.15616 -0.27293,0.23217 -0.40939,0.34825 -1.07733,0.90561 -0.22469,0.15637 0.0881,-0.32159 -0.0578,1.20295 -0.0463,2.40808 -0.0465,3.61205 0.002,1.66857 0.006,3.33713 0.008,5.0057 0.0281,1.45589 -0.37347,2.86767 -0.53406,4.30787 -0.29315,1.46055 -0.58375,2.91812 -0.78927,4.394 0.0219,0.98302 -0.42169,1.87037 -0.63113,2.80438 -0.11193,0.61965 -0.15282,1.24825 -0.18279,1.87627 -0.0107,0.0153 -0.005,0.52035 -0.0111,0.25733 0.0162,0.77574 0.0179,-0.0204 -0.44911,-1.31627 -0.10913,-0.3028 -1.02745,-0.68681 -0.7069,-0.65779 0.29202,0.0264 0.47304,0.35419 0.73982,0.47585 0.91728,0.0534 1.88297,0.25142 2.80662,0.39692 2.00884,0.3406 4.05116,0.34135 6.06874,0.58937 1.39312,0.23185 2.78596,0.46855 4.19482,0.57882 0.96068,0.062 1.92352,0.0678 2.88578,0.0707 0.83757,-6.1e-4 1.67514,-0.003 2.51271,-0.004 0.80481,-9.2e-4 1.60963,-0.001 2.41445,-0.002 0.47489,-8e-5 0.94978,-5e-5 1.42467,-3e-5 -0.19171,0.0415 0.59399,-0.0358 0.44876,1e-5 -1.12183,0.27673 -1.77253,0.3098 -2.30787,1.46128 -0.012,0.026 -0.0247,0.10432 -0.0361,0.078 -0.10552,-0.24257 0.0213,-1.39955 0.0213,-1.68269 0.28521,-1.89636 0.47831,-3.79564 0.58063,-5.711 0.24233,-2.41184 -0.079,-4.78474 -0.46948,-7.15779 -0.33181,-2.31159 -0.91286,-4.57411 -1.26359,-6.88317 -0.18307,-1.20321 -0.26421,-2.41777 -0.29313,-3.63343 0.051,1.38329 1.0121,2.01632 2.33178,2.24625 0.255,0.0444 0.51555,-0.0637 0.77434,-0.0583 -3.18963,2.48048 -6.69756,-2.03034 -3.50793,-4.51082 l 0,0 c 0.38182,-0.25484 0.72743,-0.57484 1.14548,-0.76452 2.41542,-1.09592 4.66945,0.4985 4.96908,2.95512 0.0218,0.97516 0.0837,1.9496 0.23096,2.9148 0.34038,2.28443 0.93943,4.51851 1.25168,6.80753 0.45619,2.77973 0.79651,5.56996 0.53678,8.39253 -0.0985,1.8052 -0.18945,3.6325 -0.57231,5.40327 -1.7e-4,1.04497 0.0349,2.10154 -0.1923,3.12862 -0.55348,1.68844 -1.77353,2.81942 -3.64823,2.72852 -0.47444,-10e-6 -0.94887,-4e-5 -1.42331,3e-5 -0.80278,1.7e-4 -1.60557,6e-4 -2.40835,0.002 -0.84586,0.001 -1.69171,0.004 -2.53756,0.004 -1.10965,-0.003 -2.21998,-0.0127 -3.32751,-0.0892 -1.50237,-0.12383 -2.99217,-0.34787 -4.47666,-0.6086 -2.05892,-0.29608 -4.1679,-0.20565 -6.21797,-0.61089 -1.67006,-0.26375 -3.41776,-0.36805 -4.93094,-1.18705 -0.87129,-0.56442 -1.992,-1.26981 -2.27633,-3.07141 -0.0101,-0.27341 -0.002,-0.5469 0.0108,-0.82015 0.0504,-1.01795 0.13113,-2.03751 0.35924,-3.03358 0.25084,-0.92164 0.49244,-1.24771 0.50283,-2.15936 0.19986,-1.42744 0.44703,-2.84633 0.77118,-4.25132 0.14212,-1.22452 0.45659,-2.42844 0.49724,-3.65284 -0.002,-1.67142 -0.006,-3.34285 -0.008,-5.01427 3.6e-4,-1.54329 -0.0428,-3.09588 0.13836,-4.63112 0.28294,-1.25421 0.78483,-2.33777 1.89984,-3.0676 1.14648,-0.79587 1.35396,-1.10895 2.85899,-1.36346 -1.35165,0.259 -2.61878,4.09104 -1.79854,1.43184 0.76606,-1.46961 2.06706,-2.28956 3.76773,-2.16558 1.43407,-0.004 2.86814,-0.008 4.30222,-0.006 1.91809,0.009 3.8368,0.0424 5.75077,0.17914 2.72181,0.21817 5.43799,0.55008 8.1003,1.17332 3.91997,0.97999 2.53405,6.52366 -1.38591,5.54367 z"
       inkscape:connector-curvature="0"
       transform="translate(136.50022,86.379181)" />
  </g>
</svg>
