<?xml version="1.0" encoding="UTF-8" standalone="no"?>
<!-- Created with Inkscape (http://www.inkscape.org/) -->

<svg
   xmlns:dc="http://purl.org/dc/elements/1.1/"
   xmlns:cc="http://creativecommons.org/ns#"
   xmlns:rdf="http://www.w3.org/1999/02/22-rdf-syntax-ns#"
   xmlns:svg="http://www.w3.org/2000/svg"
   xmlns="http://www.w3.org/2000/svg"
   xmlns:sodipodi="http://sodipodi.sourceforge.net/DTD/sodipodi-0.dtd"
   xmlns:inkscape="http://www.inkscape.org/namespaces/inkscape"
   width="388.23999"
   height="372.69"
   id="svg3838"
   version="1.1"
   inkscape:version="0.48.5 r10040"
   sodipodi:docname="network_nodes_coords.svg">
  <defs
     id="defs3840" />
  <sodipodi:namedview
     id="base"
     pagecolor="#ffffff"
     bordercolor="#666666"
     borderopacity="1.0"
     inkscape:pageopacity="0.0"
     inkscape:pageshadow="2"
     inkscape:zoom="1.4"
     inkscape:cx="270.91328"
     inkscape:cy="87.753439"
     inkscape:document-units="px"
     inkscape:current-layer="layer1"
     showgrid="false"
     inkscape:window-width="1656"
     inkscape:window-height="964"
     inkscape:window-x="143"
     inkscape:window-y="51"
     inkscape:window-maximized="0"
     fit-margin-top="0"
     fit-margin-left="0"
     fit-margin-right="0"
     fit-margin-bottom="0" />
  <metadata
     id="metadata3843">
    <rdf:RDF>
      <cc:Work
         rdf:about="">
        <dc:format>image/svg+xml</dc:format>
        <dc:type
           rdf:resource="http://purl.org/dc/dcmitype/StillImage" />
        <dc:title></dc:title>
      </cc:Work>
    </rdf:RDF>
  </metadata>
  <g
     inkscape:label="Layer 1"
     inkscape:groupmode="layer"
     id="layer1"
     transform="translate(-136.50022,-37.376508)">
    <path
       style="fill:#008000"
       id="path3894"
       d="m 270.76637,68.53457 c -1.85699,-0.46237 -3.7332,-0.82234 -5.6355,-1.02888 -1.29832,-0.15743 -2.58309,0.18795 -3.83695,0.4892 -1.67768,0.43633 -3.22178,1.13875 -4.71919,1.99915 -2.08546,1.26734 -4.02874,2.78011 -5.86735,4.38409 -1.53174,1.3853 -3.06715,2.7816 -4.26198,4.47649 -0.75435,1.1114 -1.53858,2.19803 -2.24652,3.33857 -0.47599,0.6294 -0.55532,1.37822 -0.76422,2.11797 -0.34011,0.99362 -0.43681,2.03752 -0.51843,3.07718 -0.0706,1.16264 -0.0644,2.32822 -0.0657,3.49249 8.1e-4,1.33257 0.004,2.66515 0.005,3.99772 -0.25752,-0.3883 0.18096,1.8439 0.17295,1.42426 0.36381,0.48659 0.84185,0.84299 1.28794,1.24608 0.85614,0.70402 1.70283,1.39921 2.57992,2.07426 0.69363,0.46 1.50497,0.73517 2.30459,0.95349 1.32717,0.52813 2.71669,0.79995 4.13122,0.94964 1.45036,0.12304 2.90717,0.12626 4.36165,0.1313 0.655,-0.14742 2.31464,0.22644 2.85711,-0.0564 1.16713,-0.29842 2.22138,-1.00897 3.27359,-1.58991 1.18059,-0.67846 2.26341,-1.49769 3.27519,-2.40476 1.13731,-0.95631 2.23577,-1.91799 3.25439,-3.00106 0.71818,-0.95156 1.61058,-1.78627 2.11114,-2.8836 0.58781,-1.15887 1.05021,-2.38929 1.42156,-3.63471 0.31377,-0.96096 0.35587,-1.96914 0.39085,-2.97026 0.0308,-1.62871 0.0188,-3.25795 0.0155,-4.88686 -0.14829,-1.38794 0.28566,-2.91242 -0.20251,-4.24912 -0.28965,-0.897 -0.69888,-1.81904 -1.42402,-2.44853 -1.27344,-1.3461 -2.5589,-2.68057 -3.85497,-4.00487 -0.23422,-0.23783 -0.46843,-0.47565 -0.70265,-0.71347 -2.83519,-2.87893 1.23623,-6.88849 4.07142,-4.00956 l 0,0 c 0.23841,0.24209 0.47681,0.48417 0.71521,0.72626 1.29744,1.3258 2.58504,2.66104 3.85923,4.00923 1.33704,1.43684 2.35487,3.07702 2.86359,4.99307 0.43765,1.88038 0.42999,3.76118 0.38898,5.68532 0.003,1.70257 0.0166,3.40552 -0.0193,5.10782 -0.0569,1.49605 -0.17227,2.99569 -0.63628,4.43025 -0.48294,1.55646 -1.04772,3.10138 -1.79169,4.55292 -0.81907,1.54945 -1.89835,2.89473 -3.04627,4.21395 -1.13358,1.20207 -2.35339,2.28449 -3.61243,3.34937 -1.33673,1.18586 -2.76288,2.26273 -4.32152,3.14469 -1.63118,0.8955 -3.2623,1.91697 -5.12502,2.22616 -1.25743,0.15661 -2.51426,0.14061 -3.78125,0.12828 -1.65874,-0.006 -3.32027,-0.0136 -4.97342,-0.16632 -1.72739,-0.19879 -3.44781,-0.49931 -5.07482,-1.13608 -1.4987,-0.44168 -2.98416,-0.99557 -4.24552,-1.94212 -0.98326,-0.78801 -1.96493,-1.56016 -2.93009,-2.37104 -0.89122,-0.84836 -1.85776,-1.62086 -2.44711,-2.73421 -0.63124,-1.30849 -0.97199,-2.66912 -0.86142,-4.13673 -0.002,-1.33693 -0.004,-2.67386 -0.005,-4.01079 0.001,-1.31375 -0.003,-2.62904 0.0838,-3.94058 0.11624,-1.4387 0.28356,-2.8788 0.73881,-4.25637 0.41058,-1.18686 0.56317,-2.47829 1.38521,-3.49834 0.7791,-1.25471 1.63693,-2.45321 2.47051,-3.67253 1.48561,-2.02331 3.25283,-3.79053 5.14257,-5.44006 2.12831,-1.84659 4.37469,-3.58941 6.79285,-5.0399 1.96979,-1.11142 4.01205,-2.02707 6.21104,-2.58853 1.89692,-0.45435 3.83542,-0.85783 5.79627,-0.61239 2.15738,0.24097 4.2888,0.6366 6.39499,1.16505 3.91996,0.98 2.53405,6.52367 -1.38592,5.54368 z"
       inkscape:connector-curvature="0" />
    <path
       style="fill:#008000"
       id="path3896"
       d="m 377.78274,196.25329 c -0.63886,-1.55455 -1.59727,-2.87291 -2.92273,-3.89934 -1.06018,-0.66745 -2.35884,-0.63866 -3.57054,-0.70077 -1.98652,0.0422 -3.8988,0.57342 -5.80123,1.09213 -1.89428,0.54582 -3.55725,1.59271 -5.18749,2.66744 -1.74351,1.2712 -3.41092,2.64759 -5.08002,4.01531 -1.72048,1.46214 -3.3915,3.03678 -4.70444,4.88247 -0.93892,1.39023 -1.8465,2.83307 -2.34738,4.44426 -0.27228,0.85736 -0.3125,1.75684 -0.33134,2.6488 -0.007,0.63207 -0.0471,1.38248 0.10609,1.82919 0.36586,0.27759 0.72819,0.62671 1.13975,0.87051 0.63637,0.26662 1.31965,0.33554 2.00068,0.38082 1.5896,0.33387 3.19071,0.52222 4.81059,0.62361 2.07275,0.07 4.15413,0.19303 6.22456,0.0369 2.13767,-0.16679 4.25331,-0.62216 6.2763,-1.33014 1.82938,-0.74453 3.57849,-1.63817 5.29608,-2.60942 1.36907,-0.74683 2.70731,-1.55272 3.96177,-2.48123 0.2784,-0.20605 0.61241,-0.35955 0.82257,-0.63486 0.19421,-0.25443 0.23055,-0.59719 0.34582,-0.89579 2.01026,-3.89731 3.02328,-8.17613 3.66174,-12.48507 0.0609,-0.57453 0.12187,-1.14905 0.18281,-1.72357 0.43194,-4.01746 6.11348,-3.40661 5.68155,0.61085 l 0,0 c -0.0711,0.65323 -0.14213,1.30646 -0.2132,1.9597 -0.76875,5.07859 -2.00264,10.11213 -4.46511,14.66333 -0.57065,0.80056 -1.07232,1.65507 -1.71195,2.40167 -0.27431,0.32019 -0.66447,0.5194 -1.00434,0.76891 -1.41348,1.03768 -2.91272,1.9504 -4.45043,2.79101 -2.02475,1.14341 -4.09405,2.18739 -6.2596,3.04178 -2.50478,0.8416 -5.09633,1.43891 -7.73818,1.62407 -2.32264,0.14451 -4.65039,0.0727 -6.97428,-0.0354 -1.63491,-0.10602 -3.27657,-0.23409 -4.87229,-0.62788 -1.67013,-0.13306 -3.31055,-0.4487 -4.76314,-1.33693 -1.49289,-1.04394 -2.8501,-2.27127 -3.44886,-4.0526 -0.31066,-1.16258 -0.3802,-2.32543 -0.32162,-3.5243 0.037,-1.45361 0.15939,-2.91018 0.61645,-4.3012 0.73688,-2.16994 1.84416,-4.17512 3.17172,-6.04271 1.64751,-2.19476 3.56218,-4.17656 5.68681,-5.91739 1.82455,-1.49384 3.64451,-3.00165 5.56444,-4.37122 2.13655,-1.39827 4.33865,-2.71501 6.82129,-3.40403 2.4918,-0.67892 5.01052,-1.31884 7.61546,-1.28474 2.44712,0.13997 4.86794,0.42666 6.87395,1.98107 2.05599,1.72533 3.6799,3.79224 4.65819,6.3184 1.41875,3.78334 -3.9317,5.78976 -5.35045,2.00642 z"
       inkscape:connector-curvature="0" />
    <path
       style="fill:#008000"
       id="path3898"
       d="m 385.45612,43.352514 c -1.94815,-0.74408 -3.95318,-1.222114 -6.03716,-1.261195 -1.09485,0.0821 -2.07655,0.496014 -2.98766,1.088529 -1.42644,0.968593 -2.41493,2.403842 -3.52394,3.694185 -1.49371,1.812677 -3.04961,3.594927 -4.23881,5.628517 -0.77153,1.14808 -1.23553,2.3903 -1.43124,3.74864 -0.19809,1.23016 0.0421,2.41947 0.45656,3.57885 0.51433,1.43744 0.90691,3.04292 1.95551,4.20318 0.66853,0.65583 1.46758,1.25235 2.34998,1.58681 0.83161,0.26821 1.56863,0.7456 2.43533,0.89144 1.28802,0.17192 2.562,0.13086 3.84423,-0.0367 1.64884,-0.32972 3.18109,-1.00187 4.71239,-1.67568 1.47169,-0.62517 2.73418,-1.56658 4.01847,-2.49786 0.86967,-0.84214 2.11457,-1.17464 3.04536,-1.91268 0.87169,-0.78844 1.42937,-1.87103 1.90156,-2.93248 0.59823,-1.51936 0.85726,-3.15081 0.77789,-4.77823 -0.39169,-2.35348 -1.3615,-4.576817 -2.23685,-6.784603 -0.65479,-1.813618 -0.34982,-0.912496 -0.91774,-2.702414 -1.21569,-3.853391 4.23382,-5.572641 5.44952,-1.719251 l 0,0 c 0.47554,1.517691 0.21653,0.743884 0.7819,2.31979 1.1172,2.830278 2.35023,5.684906 2.63567,8.743778 0.0302,2.51461 -0.29563,5.00699 -1.31029,7.33331 -0.95164,1.99085 -2.07668,3.94393 -3.89916,5.26613 -0.95181,0.61039 -1.97997,1.09869 -2.87584,1.79451 -1.6142,1.16802 -3.23578,2.31618 -5.07934,3.10485 -2.03181,0.88536 -4.08127,1.74567 -6.28295,2.1095 -1.90424,0.23691 -3.81478,0.27663 -5.7161,-0.0348 -1.245,-0.27367 -2.38407,-0.7619 -3.55719,-1.24585 -1.71204,-0.77706 -3.29764,-1.8255 -4.53753,-3.25805 -1.36934,-1.78797 -2.28781,-3.80718 -2.9169,-5.97073 -0.65175,-2.04 -1.03889,-4.12935 -0.67923,-6.27151 0.34145,-2.06763 1.00994,-4.02001 2.16741,-5.785458 1.38948,-2.301401 3.08319,-4.386922 4.81991,-6.434711 1.4968,-1.728782 2.86718,-3.605001 4.85015,-4.82508 1.88897,-1.135699 3.9064,-1.906983 6.14342,-1.93807 2.7162,0.08885 5.34957,0.638839 7.88909,1.62294 3.78334,1.418753 1.77692,6.769206 -2.00642,5.350453 z"
       inkscape:connector-curvature="0" />
    <path
       style="fill:#008000"
       id="path3900"
       d="m 504.20014,95.94304 c -0.52054,-1.74788 -1.07088,-3.49267 -2.01023,-5.06486 -0.0486,-0.0393 -0.12409,-0.17645 -0.14582,-0.11785 -0.0289,0.0779 0.0985,0.1429 0.10585,0.22566 0.0117,0.1313 -0.26363,0.0272 -0.39508,0.0173 -1.02535,-0.0772 -0.3165,-0.0364 -1.54867,-0.0888 -2.58551,-0.0503 -5.17191,-0.0165 -7.75768,-0.003 -2.36838,-0.1476 -4.09724,0.25224 -6.05552,1.55292 -2.21411,1.47076 -3.68617,3.65997 -5.28596,5.72061 -1.49319,1.98137 -2.98297,4.0266 -3.88795,6.35148 -0.80111,1.7604 -1.20651,3.62525 -1.39728,5.53839 -0.14575,1.51874 -0.15968,3.06422 0.42368,4.49438 0.60571,1.17627 1.72071,1.97174 2.73668,2.77376 1.47438,1.26606 3.0631,2.36917 4.74144,3.34527 1.1886,0.87056 2.48001,1.52685 3.88419,1.96135 1.52459,0.35217 3.0946,0.3873 4.65151,0.42564 1.5185,0.12816 2.93601,0.01 4.38788,-0.40834 1.48716,-0.58333 2.79728,-1.52778 4.05182,-2.49992 1.52151,-1.42704 2.90803,-2.96327 4.04401,-4.71249 1.4956,-2.26673 2.20516,-4.82533 2.63606,-7.47286 0.19041,-1.96562 0.6067,-4.0045 0.10861,-5.96104 -0.2196,-0.86262 -0.55103,-1.4663 -0.92757,-2.26813 -0.77663,-0.8833 -0.35028,-0.49544 -1.27177,-1.17155 -3.06042,-2.63825 0.67062,-6.96634 3.73104,-4.32809 l 0,0 c 2.04702,1.88228 1.12563,0.83453 2.75154,3.15432 0.66864,1.52808 1.01992,2.12869 1.37346,3.80426 0.53877,2.5534 0.18437,5.16182 -0.12974,7.71549 -0.58834,3.42729 -1.5569,6.73835 -3.4987,9.66962 -1.5038,2.26168 -3.28685,4.30166 -5.33011,6.09762 -1.83445,1.40614 -3.76642,2.73377 -5.97903,3.4701 -2.00687,0.56287 -4.0073,0.77626 -6.091,0.62349 -2.10062,-0.0537 -4.21806,-0.13419 -6.25627,-0.69784 -1.78708,-0.58747 -3.50108,-1.35548 -5.027,-2.47266 -1.89869,-1.12089 -3.72029,-2.35572 -5.39624,-3.79319 -1.86357,-1.47769 -3.65939,-3.05141 -4.56736,-5.3194 -0.77436,-2.27978 -1.02644,-4.62276 -0.7305,-7.02338 0.26381,-2.44399 0.7777,-4.84041 1.78702,-7.09666 1.16395,-2.78815 2.80693,-5.32963 4.66964,-7.7061 2.01269,-2.58691 3.94086,-5.26216 6.75972,-7.05381 2.89384,-1.75862 5.639,-2.63658 9.06413,-2.42745 2.68464,-0.0139 5.37006,-0.0507 8.05433,0.009 2.56884,0.12838 5.11741,0.43425 6.64989,2.788 1.18537,2.05581 1.98698,4.2791 2.62065,6.56272 0.97999,3.91996 -4.56368,5.30588 -5.54367,1.38591 z"
       inkscape:connector-curvature="0" />
    <path
       style="fill:#008000"
       id="path3902"
       d="m 519.24559,227.95641 c -1.00237,-2.15485 -2.47473,-3.9158 -4.27322,-5.43515 -1.30373,-1.12196 -2.83389,-1.37044 -4.48495,-1.52907 -2.1061,-0.22492 -4.07512,0.18633 -5.93749,1.15612 -2.56923,1.34869 -4.56396,3.4925 -6.50668,5.59897 -2.26182,2.42249 -3.90008,5.08394 -5.18976,8.11325 -0.86802,2.34044 -1.34339,4.83306 -1.29556,7.33033 0.16948,1.98181 1.11893,3.62796 2.38567,5.10881 1.44032,1.44975 3.21764,2.41679 5.11091,3.13379 2.32615,0.7027 4.6938,1.27856 7.13037,1.34406 2.52511,-0.17171 4.55416,-1.79971 6.28023,-3.51531 2.37829,-2.63027 3.51308,-5.89182 4.21823,-9.29896 0.27355,-1.60404 0.17169,-3.0862 -0.32261,-4.61713 -1.12066,-3.88209 4.36945,-5.46694 5.49011,-1.58485 l 0,0 c 0.66489,2.45743 0.91221,4.8552 0.42251,7.38726 -0.97729,4.5232 -2.60804,8.80674 -5.84563,12.23081 -3.10996,2.92893 -6.0568,4.95857 -10.46731,5.10805 -3.06823,-0.14578 -6.06763,-0.75928 -8.98369,-1.73079 -2.79094,-1.11159 -5.4001,-2.58196 -7.44798,-4.82897 -2.04845,-2.55368 -3.53405,-5.36642 -3.68503,-8.70873 0.0138,-3.28352 0.5412,-6.54327 1.75744,-9.60913 1.57449,-3.65416 3.52448,-6.80833 6.24412,-9.73935 2.42432,-2.62189 4.95936,-5.21245 8.18286,-6.84984 2.86545,-1.36159 5.85542,-2.07193 9.04827,-1.71224 2.79419,0.30424 5.42453,0.98633 7.60827,2.86874 2.3608,2.03476 4.331,4.38429 5.67193,7.22382 1.80702,3.61403 -3.30399,6.16954 -5.11101,2.55551 z"
       inkscape:connector-curvature="0" />
    <path
       style="fill:#008000"
       id="path3904"
       d="m 335.5154,331.98703 c -1.8113,-1.56239 -4.05262,-2.25317 -6.34845,-2.72801 -2.61138,-0.60473 -5.09751,-0.24074 -7.63618,0.45097 -3.22127,1.12148 -5.90515,3.23422 -8.48789,5.39498 -2.82634,2.41912 -5.06039,5.34027 -6.94658,8.52322 -1.1072,2.00308 -1.51095,3.61943 -0.82061,5.79306 0.85902,1.56739 2.12527,2.85151 3.37461,4.10931 0.9724,0.86727 2.39723,0.84474 3.63414,0.82163 2.73072,-0.0509 5.42403,-0.52352 8.12748,-0.86471 2.00624,-0.12605 3.93755,-0.54013 5.78582,-1.31758 2.01396,-0.86411 3.67948,-2.23763 5.35067,-3.61916 2.02093,-1.64772 2.79604,-3.94386 3.36391,-6.40118 0.81359,-3.98951 0.80526,-7.97215 -0.13231,-11.9238 -0.86493,-2.46774 -0.3575,-1.25781 -1.52697,-3.62784 -1.75104,-3.64148 3.39879,-6.11782 5.14984,-2.47634 l 0,0 c 1.50205,3.1853 0.857,1.57208 1.94852,4.83428 0.18376,0.83183 0.41198,1.65506 0.55127,2.49548 0.66341,4.00283 0.28355,8.07922 -0.43665,12.04336 -0.91192,3.64413 -2.27641,7.02677 -5.27911,9.46221 -2.11083,1.74134 -4.26336,3.42438 -6.80944,4.4952 -2.32518,0.94638 -4.73627,1.54165 -7.25059,1.70475 -2.95063,0.37182 -5.89176,0.88084 -8.87381,0.90953 -2.80075,-0.0537 -5.57486,-0.45054 -7.66093,-2.51284 -1.93162,-1.95178 -3.83289,-3.98949 -4.82247,-6.60363 -1.02708,-3.97928 -0.54245,-6.62875 1.41729,-10.24601 2.23035,-3.72807 4.86928,-7.15603 8.19514,-9.98662 3.22772,-2.68645 6.61897,-5.23806 10.67521,-6.52835 3.41044,-0.89545 6.81373,-1.31301 10.30292,-0.51823 3.19551,0.69839 6.29023,1.75666 8.81337,3.92649 3.10408,2.58673 -0.55411,6.97657 -3.6582,4.38983 z"
       inkscape:connector-curvature="0" />
    <path
       style="fill:#008000"
       id="path3906"
       d="m 237.0879,219.35783 c -2.42312,-1.43668 -5.13746,-2.23962 -7.87928,-2.79777 -3.02576,-0.48222 -5.83375,0.36141 -8.59658,1.49728 -3.03039,1.53292 -5.80995,3.54604 -8.44157,5.68229 -2.46792,2.11381 -4.64438,4.5668 -6.5304,7.20863 -1.64646,2.42784 -2.61815,5.10992 -3.14093,7.97328 -0.23027,2.12332 -0.6205,4.49866 0.25226,6.52768 0.71549,1.55609 2.07843,2.30136 3.57921,2.98098 2.5576,1.04206 5.21863,1.84506 7.91057,2.45908 1.83998,0.29205 3.71665,0.67023 5.59009,0.65644 0.76149,-0.006 1.56609,-0.20655 2.30263,-0.35304 3.3414,-0.97151 6.31268,-2.78501 9.10129,-4.81815 2.91068,-2.36562 4.44383,-5.20767 5.49306,-8.74333 0.87,-3.53805 0.8074,-7.25337 -0.44266,-10.70622 -0.24882,-0.68727 -0.61689,-1.32532 -0.92534,-1.98798 -0.41931,-0.60302 -0.83863,-1.20603 -1.25795,-1.80904 -2.24433,-3.35999 2.5074,-6.53395 4.75174,-3.17397 l 0,0 c 0.57556,0.88643 1.15113,1.77286 1.72669,2.65929 0.41012,0.95166 0.89298,1.87517 1.23035,2.85498 1.54201,4.47842 1.53559,9.29021 0.3789,13.84301 -0.25618,0.81144 -0.46707,1.63859 -0.76855,2.43431 -1.39184,3.67358 -3.80821,6.77838 -6.8316,9.25491 -3.48532,2.51594 -7.21298,4.73255 -11.41615,5.81108 -1.63372,0.28723 -2.04822,0.43255 -3.71381,0.43636 -2.18061,0.005 -4.36153,-0.43529 -6.50099,-0.7901 -3.09115,-0.71753 -6.1532,-1.62985 -9.07889,-2.86551 -2.8685,-1.40035 -5.31472,-3.18719 -6.52577,-6.26601 -0.1722,-0.54373 -0.38647,-1.0759 -0.51661,-1.6312 -0.5991,-2.55623 -0.28244,-5.26831 0.0459,-7.8309 0.70913,-3.68084 1.9754,-7.14984 4.12163,-10.2582 2.20749,-3.03724 4.6934,-5.89053 7.57449,-8.31149 3.07577,-2.47443 6.30741,-4.82333 9.88009,-6.53063 3.90425,-1.57318 7.66781,-2.51636 11.90793,-1.79934 3.40007,0.71422 6.7544,1.73774 9.74881,3.54758 3.42643,2.14151 0.39787,6.98722 -3.02857,4.8457 z"
       inkscape:connector-curvature="0" />
  </g>
</svg>
