<?xml version="1.0" encoding="UTF-8" standalone="no"?>
<!-- Created with Inkscape (http://www.inkscape.org/) -->

<svg
   xmlns:dc="http://purl.org/dc/elements/1.1/"
   xmlns:cc="http://creativecommons.org/ns#"
   xmlns:rdf="http://www.w3.org/1999/02/22-rdf-syntax-ns#"
   xmlns:svg="http://www.w3.org/2000/svg"
   xmlns="http://www.w3.org/2000/svg"
   xmlns:sodipodi="http://sodipodi.sourceforge.net/DTD/sodipodi-0.dtd"
   xmlns:inkscape="http://www.inkscape.org/namespaces/inkscape"
   width="328.23727"
   height="323.68719"
   id="svg3838"
   version="1.1"
   inkscape:version="0.48.5 r10040"
   sodipodi:docname="network_marked.svg">
  <defs
     id="defs3840" />
  <sodipodi:namedview
     id="base"
     pagecolor="#ffffff"
     bordercolor="#666666"
     borderopacity="1.0"
     inkscape:pageopacity="0.0"
     inkscape:pageshadow="2"
     inkscape:zoom="1.4"
     inkscape:cx="264.80574"
     inkscape:cy="137.02892"
     inkscape:document-units="px"
     inkscape:current-layer="layer1"
     showgrid="false"
     inkscape:window-width="1656"
     inkscape:window-height="964"
     inkscape:window-x="45"
     inkscape:window-y="20"
     inkscape:window-maximized="0"
     fit-margin-top="0"
     fit-margin-left="0"
     fit-margin-right="0"
     fit-margin-bottom="0" />
  <metadata
     id="metadata3843">
    <rdf:RDF>
      <cc:Work
         rdf:about="">
        <dc:format>image/svg+xml</dc:format>
        <dc:type
           rdf:resource="http://purl.org/dc/dcmitype/StillImage" />
        <dc:title></dc:title>
      </cc:Work>
    </rdf:RDF>
  </metadata>
  <g
     inkscape:label="Layer 1"
     inkscape:groupmode="layer"
     id="layer1"
     transform="translate(-136.50022,-86.379181)">
    <path
       style="fill:#008000"
       id="path3894"
       d="m 210.76637,118.53457 c -1.85699,-0.46237 -3.7332,-0.82234 -5.6355,-1.02888 -1.29832,-0.15743 -2.58309,0.18795 -3.83695,0.4892 -1.67768,0.43633 -3.22178,1.13875 -4.71919,1.99915 -2.08546,1.26734 -4.02874,2.78011 -5.86735,4.38409 -1.53174,1.3853 -3.06715,2.7816 -4.26198,4.47649 -0.75435,1.1114 -1.53858,2.19803 -2.24652,3.33857 -0.47599,0.6294 -0.55532,1.37822 -0.76422,2.11797 -0.34011,0.99362 -0.43681,2.03752 -0.51843,3.07718 -0.0706,1.16264 -0.0644,2.32822 -0.0657,3.49249 8.1e-4,1.33257 0.004,2.66515 0.005,3.99772 -0.25752,-0.3883 0.18096,1.8439 0.17295,1.42426 0.36381,0.48659 0.84185,0.84299 1.28794,1.24608 0.85614,0.70402 1.70283,1.39921 2.57992,2.07426 0.69363,0.46 1.50497,0.73517 2.30459,0.95349 1.32717,0.52813 2.71669,0.79995 4.13122,0.94964 1.45036,0.12304 2.90717,0.12626 4.36165,0.1313 0.655,-0.14742 2.31464,0.22644 2.85711,-0.0564 1.16713,-0.29842 2.22138,-1.00897 3.27359,-1.58991 1.18059,-0.67846 2.26341,-1.49769 3.27519,-2.40476 1.13731,-0.95631 2.23577,-1.91799 3.25439,-3.00106 0.71818,-0.95156 1.61058,-1.78627 2.11114,-2.8836 0.58781,-1.15887 1.05021,-2.38929 1.42156,-3.63471 0.31377,-0.96096 0.35587,-1.96914 0.39085,-2.97026 0.0308,-1.62871 0.0188,-3.25795 0.0155,-4.88686 -0.14829,-1.38794 0.28566,-2.91242 -0.20251,-4.24912 -0.28965,-0.897 -0.69888,-1.81904 -1.42402,-2.44853 -1.27344,-1.3461 -2.5589,-2.68057 -3.85497,-4.00487 -0.23422,-0.23783 -0.46843,-0.47565 -0.70265,-0.71347 -2.83519,-2.87893 1.23623,-6.88849 4.07142,-4.00956 l 0,0 c 0.23841,0.24209 0.47681,0.48417 0.71521,0.72626 1.29744,1.3258 2.58504,2.66104 3.85923,4.00923 1.33704,1.43684 2.35487,3.07702 2.86359,4.99307 0.43765,1.88038 0.42999,3.76118 0.38898,5.68532 0.003,1.70257 0.0166,3.40552 -0.0193,5.10782 -0.0569,1.49605 -0.17227,2.99569 -0.63628,4.43025 -0.48294,1.55646 -1.04772,3.10138 -1.79169,4.55292 -0.81907,1.54945 -1.89835,2.89473 -3.04627,4.21395 -1.13358,1.20207 -2.35339,2.28449 -3.61243,3.34937 -1.33673,1.18586 -2.76288,2.26273 -4.32152,3.14469 -1.63118,0.8955 -3.2623,1.91697 -5.12502,2.22616 -1.25743,0.15661 -2.51426,0.14061 -3.78125,0.12828 -1.65874,-0.006 -3.32027,-0.0136 -4.97342,-0.16632 -1.72739,-0.19879 -3.44781,-0.49931 -5.07482,-1.13608 -1.4987,-0.44168 -2.98416,-0.99557 -4.24552,-1.94212 -0.98326,-0.78801 -1.96493,-1.56016 -2.93009,-2.37104 -0.89122,-0.84836 -1.85776,-1.62086 -2.44711,-2.73421 -0.63124,-1.30849 -0.97199,-2.66912 -0.86142,-4.13673 -0.002,-1.33693 -0.004,-2.67386 -0.005,-4.01079 0.001,-1.31375 -0.003,-2.62904 0.0838,-3.94058 0.11624,-1.4387 0.28356,-2.8788 0.73881,-4.25637 0.41058,-1.18686 0.56317,-2.47829 1.38521,-3.49834 0.7791,-1.25471 1.63693,-2.45321 2.47051,-3.67253 1.48561,-2.02331 3.25283,-3.79053 5.14257,-5.44006 2.12831,-1.84659 4.37469,-3.58941 6.79285,-5.0399 1.96979,-1.11142 4.01205,-2.02707 6.21104,-2.58853 1.89692,-0.45435 3.83542,-0.85783 5.79627,-0.61239 2.15738,0.24097 4.2888,0.6366 6.39499,1.16505 3.91996,0.98 2.53405,6.52367 -1.38592,5.54368 z"
       inkscape:connector-curvature="0" />
    <path
       style="fill:#008000"
       id="path3896"
       d="m 317.78274,246.25329 c -0.63886,-1.55455 -1.59727,-2.87291 -2.92273,-3.89934 -1.06018,-0.66745 -2.35884,-0.63866 -3.57054,-0.70077 -1.98652,0.0422 -3.8988,0.57342 -5.80123,1.09213 -1.89428,0.54582 -3.55725,1.59271 -5.18749,2.66744 -1.74351,1.2712 -3.41092,2.64759 -5.08002,4.01531 -1.72048,1.46214 -3.3915,3.03678 -4.70444,4.88247 -0.93892,1.39023 -1.8465,2.83307 -2.34738,4.44426 -0.27228,0.85736 -0.3125,1.75684 -0.33134,2.6488 -0.007,0.63207 -0.0471,1.38248 0.10609,1.82919 0.36586,0.27759 0.72819,0.62671 1.13975,0.87051 0.63637,0.26662 1.31965,0.33554 2.00068,0.38082 1.5896,0.33387 3.19071,0.52222 4.81059,0.62361 2.07275,0.07 4.15413,0.19303 6.22456,0.0369 2.13767,-0.16679 4.25331,-0.62216 6.2763,-1.33014 1.82938,-0.74453 3.57849,-1.63817 5.29608,-2.60942 1.36907,-0.74683 2.70731,-1.55272 3.96177,-2.48123 0.2784,-0.20605 0.61241,-0.35955 0.82257,-0.63486 0.19421,-0.25443 0.23055,-0.59719 0.34582,-0.89579 2.01026,-3.89731 3.02328,-8.17613 3.66174,-12.48507 0.0609,-0.57453 0.12187,-1.14905 0.18281,-1.72357 0.43194,-4.01746 6.11348,-3.40661 5.68155,0.61085 l 0,0 c -0.0711,0.65323 -0.14213,1.30646 -0.2132,1.9597 -0.76875,5.07859 -2.00264,10.11213 -4.46511,14.66333 -0.57065,0.80056 -1.07232,1.65507 -1.71195,2.40167 -0.27431,0.32019 -0.66447,0.5194 -1.00434,0.76891 -1.41348,1.03768 -2.91272,1.9504 -4.45043,2.79101 -2.02475,1.14341 -4.09405,2.18739 -6.2596,3.04178 -2.50478,0.8416 -5.09633,1.43891 -7.73818,1.62407 -2.32264,0.14451 -4.65039,0.0727 -6.97428,-0.0354 -1.63491,-0.10602 -3.27657,-0.23409 -4.87229,-0.62788 -1.67013,-0.13306 -3.31055,-0.4487 -4.76314,-1.33693 -1.49289,-1.04394 -2.8501,-2.27127 -3.44886,-4.0526 -0.31066,-1.16258 -0.3802,-2.32543 -0.32162,-3.5243 0.037,-1.45361 0.15939,-2.91018 0.61645,-4.3012 0.73688,-2.16994 1.84416,-4.17512 3.17172,-6.04271 1.64751,-2.19476 3.56218,-4.17656 5.68681,-5.91739 1.82455,-1.49384 3.64451,-3.00165 5.56444,-4.37122 2.13655,-1.39827 4.33865,-2.71501 6.82129,-3.40403 2.4918,-0.67892 5.01052,-1.31884 7.61546,-1.28474 2.44712,0.13997 4.86794,0.42666 6.87395,1.98107 2.05599,1.72533 3.6799,3.79224 4.65819,6.3184 1.41875,3.78334 -3.9317,5.78976 -5.35045,2.00642 z"
       inkscape:connector-curvature="0" />
    <path
       style="fill:#008000"
       id="path3898"
       d="m 325.45612,93.352514 c -1.94815,-0.74408 -3.95318,-1.222114 -6.03716,-1.261195 -1.09485,0.0821 -2.07655,0.496014 -2.98766,1.088529 -1.42644,0.968593 -2.41493,2.403842 -3.52394,3.694185 -1.49371,1.812677 -3.04961,3.594927 -4.23881,5.628517 -0.77153,1.14808 -1.23553,2.3903 -1.43124,3.74864 -0.19809,1.23016 0.0421,2.41947 0.45656,3.57885 0.51433,1.43744 0.90691,3.04292 1.95551,4.20318 0.66853,0.65583 1.46758,1.25235 2.34998,1.58681 0.83161,0.26821 1.56863,0.7456 2.43533,0.89144 1.28802,0.17192 2.562,0.13086 3.84423,-0.0367 1.64884,-0.32972 3.18109,-1.00187 4.71239,-1.67568 1.47169,-0.62517 2.73418,-1.56658 4.01847,-2.49786 0.86967,-0.84214 2.11457,-1.17464 3.04536,-1.91268 0.87169,-0.78844 1.42937,-1.87103 1.90156,-2.93248 0.59823,-1.51936 0.85726,-3.15081 0.77789,-4.77823 -0.39169,-2.35348 -1.3615,-4.576817 -2.23685,-6.784603 -0.65479,-1.813618 -0.34982,-0.912496 -0.91774,-2.702414 -1.21569,-3.853391 4.23382,-5.572641 5.44952,-1.719251 l 0,0 c 0.47554,1.517691 0.21653,0.743884 0.7819,2.31979 1.1172,2.830278 2.35023,5.684906 2.63567,8.743778 0.0302,2.51461 -0.29563,5.00699 -1.31029,7.33331 -0.95164,1.99085 -2.07668,3.94393 -3.89916,5.26613 -0.95181,0.61039 -1.97997,1.09869 -2.87584,1.79451 -1.6142,1.16802 -3.23578,2.31618 -5.07934,3.10485 -2.03181,0.88536 -4.08127,1.74567 -6.28295,2.1095 -1.90424,0.23691 -3.81478,0.27663 -5.7161,-0.0348 -1.245,-0.27367 -2.38407,-0.7619 -3.55719,-1.24585 -1.71204,-0.77706 -3.29764,-1.8255 -4.53753,-3.25805 -1.36934,-1.78797 -2.28781,-3.80718 -2.9169,-5.97073 -0.65175,-2.04 -1.03889,-4.12935 -0.67923,-6.27151 0.34145,-2.06763 1.00994,-4.02001 2.16741,-5.785458 1.38948,-2.301401 3.08319,-4.386922 4.81991,-6.434711 1.4968,-1.728782 2.86718,-3.605001 4.85015,-4.82508 1.88897,-1.135699 3.9064,-1.906983 6.14342,-1.93807 2.7162,0.08885 5.34957,0.638839 7.88909,1.62294 3.78334,1.418753 1.77692,6.769206 -2.00642,5.350453 z"
       inkscape:connector-curvature="0" />
    <path
       style="fill:#008000"
       id="path3900"
       d="m 444.20014,145.94304 c -0.52054,-1.74788 -1.07088,-3.49267 -2.01023,-5.06486 -0.0486,-0.0393 -0.12409,-0.17645 -0.14582,-0.11785 -0.0289,0.0779 0.0985,0.1429 0.10585,0.22566 0.0117,0.1313 -0.26363,0.0272 -0.39508,0.0173 -1.02535,-0.0772 -0.3165,-0.0364 -1.54867,-0.0888 -2.58551,-0.0503 -5.17191,-0.0165 -7.75768,-0.003 -2.36838,-0.1476 -4.09724,0.25224 -6.05552,1.55292 -2.21411,1.47076 -3.68617,3.65997 -5.28596,5.72061 -1.49319,1.98137 -2.98297,4.0266 -3.88795,6.35148 -0.80111,1.7604 -1.20651,3.62525 -1.39728,5.53839 -0.14575,1.51874 -0.15968,3.06422 0.42368,4.49438 0.60571,1.17627 1.72071,1.97174 2.73668,2.77376 1.47438,1.26606 3.0631,2.36917 4.74144,3.34527 1.1886,0.87056 2.48001,1.52685 3.88419,1.96135 1.52459,0.35217 3.0946,0.3873 4.65151,0.42564 1.5185,0.12816 2.93601,0.01 4.38788,-0.40834 1.48716,-0.58333 2.79728,-1.52778 4.05182,-2.49992 1.52151,-1.42704 2.90803,-2.96327 4.04401,-4.71249 1.4956,-2.26673 2.20516,-4.82533 2.63606,-7.47286 0.19041,-1.96562 0.6067,-4.0045 0.10861,-5.96104 -0.2196,-0.86262 -0.55103,-1.4663 -0.92757,-2.26813 -0.77663,-0.8833 -0.35028,-0.49544 -1.27177,-1.17155 -3.06042,-2.63825 0.67062,-6.96634 3.73104,-4.32809 l 0,0 c 2.04702,1.88228 1.12563,0.83453 2.75154,3.15432 0.66864,1.52808 1.01992,2.12869 1.37346,3.80426 0.53877,2.5534 0.18437,5.16182 -0.12974,7.71549 -0.58834,3.42729 -1.5569,6.73835 -3.4987,9.66962 -1.5038,2.26168 -3.28685,4.30166 -5.33011,6.09762 -1.83445,1.40614 -3.76642,2.73377 -5.97903,3.4701 -2.00687,0.56287 -4.0073,0.77626 -6.091,0.62349 -2.10062,-0.0537 -4.21806,-0.13419 -6.25627,-0.69784 -1.78708,-0.58747 -3.50108,-1.35548 -5.027,-2.47266 -1.89869,-1.12089 -3.72029,-2.35572 -5.39624,-3.79319 -1.86357,-1.47769 -3.65939,-3.05141 -4.56736,-5.3194 -0.77436,-2.27978 -1.02644,-4.62276 -0.7305,-7.02338 0.26381,-2.44399 0.7777,-4.84041 1.78702,-7.09666 1.16395,-2.78815 2.80693,-5.32963 4.66964,-7.7061 2.01269,-2.58691 3.94086,-5.26216 6.75972,-7.05381 2.89384,-1.75862 5.639,-2.63658 9.06413,-2.42745 2.68464,-0.0139 5.37006,-0.0507 8.05433,0.009 2.56884,0.12838 5.11741,0.43425 6.64989,2.788 1.18537,2.05581 1.98698,4.2791 2.62065,6.56272 0.97999,3.91996 -4.56368,5.30588 -5.54367,1.38591 z"
       inkscape:connector-curvature="0" />
    <path
       style="fill:#008000"
       id="path3902"
       d="m 459.24559,277.95641 c -1.00237,-2.15485 -2.47473,-3.9158 -4.27322,-5.43515 -1.30373,-1.12196 -2.83389,-1.37044 -4.48495,-1.52907 -2.1061,-0.22492 -4.07512,0.18633 -5.93749,1.15612 -2.56923,1.34869 -4.56396,3.4925 -6.50668,5.59897 -2.26182,2.42249 -3.90008,5.08394 -5.18976,8.11325 -0.86802,2.34044 -1.34339,4.83306 -1.29556,7.33033 0.16948,1.98181 1.11893,3.62796 2.38567,5.10881 1.44032,1.44975 3.21764,2.41679 5.11091,3.13379 2.32615,0.7027 4.6938,1.27856 7.13037,1.34406 2.52511,-0.17171 4.55416,-1.79971 6.28023,-3.51531 2.37829,-2.63027 3.51308,-5.89182 4.21823,-9.29896 0.27355,-1.60404 0.17169,-3.0862 -0.32261,-4.61713 -1.12066,-3.88209 4.36945,-5.46694 5.49011,-1.58485 l 0,0 c 0.66489,2.45743 0.91221,4.8552 0.42251,7.38726 -0.97729,4.5232 -2.60804,8.80674 -5.84563,12.23081 -3.10996,2.92893 -6.0568,4.95857 -10.46731,5.10805 -3.06823,-0.14578 -6.06763,-0.75928 -8.98369,-1.73079 -2.79094,-1.11159 -5.4001,-2.58196 -7.44798,-4.82897 -2.04845,-2.55368 -3.53405,-5.36642 -3.68503,-8.70873 0.0138,-3.28352 0.5412,-6.54327 1.75744,-9.60913 1.57449,-3.65416 3.52448,-6.80833 6.24412,-9.73935 2.42432,-2.62189 4.95936,-5.21245 8.18286,-6.84984 2.86545,-1.36159 5.85542,-2.07193 9.04827,-1.71224 2.79419,0.30424 5.42453,0.98633 7.60827,2.86874 2.3608,2.03476 4.331,4.38429 5.67193,7.22382 1.80702,3.61403 -3.30399,6.16954 -5.11101,2.55551 z"
       inkscape:connector-curvature="0" />
    <path
       style="fill:#008000"
       id="path3904"
       d="m 275.5154,381.98703 c -1.8113,-1.56239 -4.05262,-2.25317 -6.34845,-2.72801 -2.61138,-0.60473 -5.09751,-0.24074 -7.63618,0.45097 -3.22127,1.12148 -5.90515,3.23422 -8.48789,5.39498 -2.82634,2.41912 -5.06039,5.34027 -6.94658,8.52322 -1.1072,2.00308 -1.51095,3.61943 -0.82061,5.79306 0.85902,1.56739 2.12527,2.85151 3.37461,4.10931 0.9724,0.86727 2.39723,0.84474 3.63414,0.82163 2.73072,-0.0509 5.42403,-0.52352 8.12748,-0.86471 2.00624,-0.12605 3.93755,-0.54013 5.78582,-1.31758 2.01396,-0.86411 3.67948,-2.23763 5.35067,-3.61916 2.02093,-1.64772 2.79604,-3.94386 3.36391,-6.40118 0.81359,-3.98951 0.80526,-7.97215 -0.13231,-11.9238 -0.86493,-2.46774 -0.3575,-1.25781 -1.52697,-3.62784 -1.75104,-3.64148 3.39879,-6.11782 5.14984,-2.47634 l 0,0 c 1.50205,3.1853 0.857,1.57208 1.94852,4.83428 0.18376,0.83183 0.41198,1.65506 0.55127,2.49548 0.66341,4.00283 0.28355,8.07922 -0.43665,12.04336 -0.91192,3.64413 -2.27641,7.02677 -5.27911,9.46221 -2.11083,1.74134 -4.26336,3.42438 -6.80944,4.4952 -2.32518,0.94638 -4.73627,1.54165 -7.25059,1.70475 -2.95063,0.37182 -5.89176,0.88084 -8.87381,0.90953 -2.80075,-0.0537 -5.57486,-0.45054 -7.66093,-2.51284 -1.93162,-1.95178 -3.83289,-3.98949 -4.82247,-6.60363 -1.02708,-3.97928 -0.54245,-6.62875 1.41729,-10.24601 2.23035,-3.72807 4.86928,-7.15603 8.19514,-9.98662 3.22772,-2.68645 6.61897,-5.23806 10.67521,-6.52835 3.41044,-0.89545 6.81373,-1.31301 10.30292,-0.51823 3.19551,0.69839 6.29023,1.75666 8.81337,3.92649 3.10408,2.58673 -0.55411,6.97657 -3.6582,4.38983 z"
       inkscape:connector-curvature="0" />
    <path
       style="fill:#008000"
       id="path3906"
       d="m 177.0879,269.35783 c -2.42312,-1.43668 -5.13746,-2.23962 -7.87928,-2.79777 -3.02576,-0.48222 -5.83375,0.36141 -8.59658,1.49728 -3.03039,1.53292 -5.80995,3.54604 -8.44157,5.68229 -2.46792,2.11381 -4.64438,4.5668 -6.5304,7.20863 -1.64646,2.42784 -2.61815,5.10992 -3.14093,7.97328 -0.23027,2.12332 -0.6205,4.49866 0.25226,6.52768 0.71549,1.55609 2.07843,2.30136 3.57921,2.98098 2.5576,1.04206 5.21863,1.84506 7.91057,2.45908 1.83998,0.29205 3.71665,0.67023 5.59009,0.65644 0.76149,-0.006 1.56609,-0.20655 2.30263,-0.35304 3.3414,-0.97151 6.31268,-2.78501 9.10129,-4.81815 2.91068,-2.36562 4.44383,-5.20767 5.49306,-8.74333 0.87,-3.53805 0.8074,-7.25337 -0.44266,-10.70622 -0.24882,-0.68727 -0.61689,-1.32532 -0.92534,-1.98798 -0.41931,-0.60302 -0.83863,-1.20603 -1.25795,-1.80904 -2.24433,-3.35999 2.5074,-6.53395 4.75174,-3.17397 l 0,0 c 0.57556,0.88643 1.15113,1.77286 1.72669,2.65929 0.41012,0.95166 0.89298,1.87517 1.23035,2.85498 1.54201,4.47842 1.53559,9.29021 0.3789,13.84301 -0.25618,0.81144 -0.46707,1.63859 -0.76855,2.43431 -1.39184,3.67358 -3.80821,6.77838 -6.8316,9.25491 -3.48532,2.51594 -7.21298,4.73255 -11.41615,5.81108 -1.63372,0.28723 -2.04822,0.43255 -3.71381,0.43636 -2.18061,0.005 -4.36153,-0.43529 -6.50099,-0.7901 -3.09115,-0.71753 -6.1532,-1.62985 -9.07889,-2.86551 -2.8685,-1.40035 -5.31472,-3.18719 -6.52577,-6.26601 -0.1722,-0.54373 -0.38647,-1.0759 -0.51661,-1.6312 -0.5991,-2.55623 -0.28244,-5.26831 0.0459,-7.8309 0.70913,-3.68084 1.9754,-7.14984 4.12163,-10.2582 2.20749,-3.03724 4.6934,-5.89053 7.57449,-8.31149 3.07577,-2.47443 6.30741,-4.82333 9.88009,-6.53063 3.90425,-1.57318 7.66781,-2.51636 11.90793,-1.79934 3.40007,0.71422 6.7544,1.73774 9.74881,3.54758 3.42643,2.14151 0.39787,6.98722 -3.02857,4.8457 z"
       inkscape:connector-curvature="0" />
    <path
       style="fill:#000000"
       id="path3910"
       d="m 326.53142,128.22563 c 0.59844,2.89903 0.93276,5.84283 1.15688,8.7917 0.26246,2.18936 0.0929,4.35102 -0.165,6.52667 -0.26555,2.39273 -0.31262,4.80192 -0.35416,7.20672 0.14969,2.56754 0.39207,5.12827 0.54871,7.69557 0.10362,1.73679 0.13048,3.47659 0.1415,5.216 0.005,1.73643 0.002,3.47287 3e-5,5.20929 -0.002,1.89306 -0.002,3.78613 -0.002,5.67919 -1.6e-4,1.6039 -1.4e-4,3.20781 -1.4e-4,4.81171 -0.0439,1.80421 -0.35021,3.60846 -0.64197,5.38962 -0.46107,2.27397 -0.52843,4.59567 -0.81355,6.89092 -0.31892,2.00452 -0.53725,4.01902 -0.85281,6.02386 -0.29004,2.5352 -0.69696,5.05409 -0.95405,7.59341 -0.0829,2.37653 -0.45126,4.72095 -0.7609,7.07404 -0.10746,1.49504 -0.46935,2.94459 -0.90697,4.3724 -0.43104,1.67758 -0.76104,3.38429 -1.06717,5.09006 -0.17585,1.11966 -0.32428,2.24411 -0.42875,3.37278 -0.0992,0.98893 -0.5462,1.72247 -0.85866,2.22829 -0.62667,1.00348 -0.95853,2.12956 -1.37928,3.22744 -0.0662,0.1964 -0.13234,0.39281 -0.19852,0.58922 -1.30266,3.82486 -6.71184,1.98261 -5.40917,-1.84225 l 0,0 c 0.0907,-0.26413 0.18135,-0.52826 0.27203,-0.79239 0.55436,-1.44569 1.04821,-2.91512 1.88239,-4.23153 0.16148,-0.24193 0.50833,-1.02736 0.46216,-0.74018 -0.45022,2.80033 -0.54639,1.65219 -0.46061,1.03149 0.12082,-1.29077 0.28865,-2.57707 0.49482,-3.85694 0.35226,-1.94539 0.72474,-3.89461 1.24341,-5.80208 0.37217,-1.10312 0.6003,-2.23193 0.68903,-3.393 0.30329,-2.2977 0.66481,-4.58508 0.74132,-6.90639 0.27064,-2.64255 0.68619,-5.265 0.99413,-7.90284 0.30705,-1.9508 0.51736,-3.91133 0.82967,-5.86175 0.3154,-2.36273 0.34821,-4.76331 0.84506,-7.1047 0.25083,-1.46923 0.50365,-2.96376 0.56411,-4.44945 -1e-5,-1.60416 -3e-5,-3.20832 1.3e-4,-4.81249 2.5e-4,-1.89443 6.3e-4,-3.78886 0.002,-5.68328 0.001,-1.72285 0.005,-3.44569 8e-5,-5.16853 -0.0102,-1.63555 -0.0341,-3.27149 -0.13106,-4.90462 -0.16502,-2.71579 -0.44108,-5.42368 -0.55841,-8.14207 0.0453,-2.59643 0.10159,-5.19727 0.39303,-7.78017 0.21487,-1.81258 0.38695,-3.59605 0.14152,-5.42342 -0.20106,-2.67709 -0.50163,-5.34953 -1.03706,-7.98269 -0.87653,-3.94439 4.70169,-5.184 5.57822,-1.23961 z"
       inkscape:connector-curvature="0" />
    <path
       style="fill:#000000"
       id="path3912"
       d="m 305.61137,282.73238 c -0.33775,3.2091 -0.832,6.40077 -1.27968,9.59629 -0.49105,3.49637 -0.62953,7.02631 -0.71844,10.55152 -0.20485,3.1992 -0.46155,6.39286 -0.86206,9.57344 -0.3619,2.97083 -0.85694,5.92483 -1.32213,8.88124 -0.44486,3.1327 -0.93754,6.25266 -1.20227,9.40734 -0.26551,2.56848 -0.55996,5.12475 -1.39028,7.57799 -0.6519,1.68649 -1.37758,3.33473 -1.81268,5.09366 -0.48016,2.45702 -0.87457,4.92796 -1.35657,7.38458 -0.46034,2.40668 -1.29305,4.69634 -2.33397,6.90624 -0.63419,1.29995 -1.38824,2.55354 -2.20723,3.7473 -0.62592,0.99362 -1.28032,1.95008 -1.78171,3.01594 -0.84468,1.51888 -1.55062,3.11183 -2.44102,4.60447 -0.36478,0.58178 -0.74971,1.15384 -1.21025,1.66462 -0.0664,0.0944 -0.79532,0.72377 -0.20325,0.23281 -2.05344,3.47993 -6.9748,0.57593 -4.92136,-2.904 l 0,0 c 0.50374,-0.71396 1.2638,-1.65128 0.9432,-1.22354 -0.0909,0.10702 0.47531,-0.62131 0.49506,-0.71544 0.81251,-1.33389 1.41606,-2.78502 2.19084,-4.14161 0.65245,-1.33151 1.43873,-2.5658 2.24482,-3.80682 0.66837,-0.91715 1.22377,-1.93533 1.73729,-2.9422 0.86564,-1.76161 1.49405,-3.61167 1.88023,-5.53809 0.50282,-2.56204 0.90325,-5.14124 1.42765,-7.69945 0.50057,-1.915 1.20755,-3.74519 1.95839,-5.57451 0.74402,-1.9674 0.78636,-4.10157 1.08685,-6.16311 0.27985,-3.2907 0.78261,-6.54714 1.25146,-9.81463 0.45634,-2.89852 0.94352,-5.79443 1.29747,-8.70717 0.37722,-2.9917 0.61608,-5.99516 0.81907,-9.00383 0.0953,-3.74215 0.24904,-7.48877 0.77193,-11.2 0.44061,-3.1415 0.92819,-6.27914 1.2593,-9.43407 0.44622,-4.0159 6.12555,-3.38486 5.67934,0.63103 z"
       inkscape:connector-curvature="0" />
    <path
       style="fill:#000000"
       id="path3916"
       d="m 291.77266,234.40212 c -3.67164,-0.21519 -7.04905,-1.65977 -10.25557,-3.35395 -4.045,-2.48767 -7.68364,-5.5645 -11.21324,-8.72376 -3.69201,-3.51955 -7.1407,-7.27772 -10.64069,-10.98466 -3.03603,-3.24277 -6.13955,-6.41519 -9.38534,-9.44772 -3.08996,-2.8385 -6.12075,-5.73973 -9.1231,-8.67038 -2.45783,-2.46855 -4.96395,-4.88552 -7.47274,-7.30067 -1.3781,-1.01747 -2.30327,-2.42489 -3.28623,-3.78997 -0.9825,-1.26715 -2.13244,-2.38833 -3.1826,-3.59729 -1.66767,-1.71391 -3.04601,-3.6737 -4.50696,-5.55832 -0.97062,-1.13823 -1.84862,-2.36936 -2.908,-3.42946 -1.3921,-1.44898 -2.71532,-2.96634 -4.09111,-4.43308 -1.68161,-1.79629 -3.46012,-3.51991 -4.91513,-5.50987 -2.34844,-3.28806 2.30158,-6.60926 4.65003,-3.3212 l 0,0 c 1.24406,1.82274 2.99168,3.26442 4.43334,4.92226 1.36755,1.45867 2.67949,2.9712 4.06724,4.40777 1.15231,1.24095 2.23013,2.54651 3.2862,3.87081 1.39158,1.8075 2.71119,3.68067 4.30959,5.3167 1.1533,1.34651 2.45357,2.56732 3.50241,4.00347 0.78368,1.09787 1.4651,2.21302 2.60656,3.00367 2.51469,2.42651 5.03492,4.84659 7.49896,7.3261 2.97258,2.9018 5.97359,5.77418 9.03316,8.58448 3.3321,3.11465 6.52173,6.3695 9.63866,9.69975 3.39119,3.59176 6.73256,7.23279 10.3001,10.65276 3.18418,2.85936 6.47029,5.6353 10.08835,7.9368 2.55677,1.38039 5.25148,2.56817 8.19714,2.71643 4.0159,0.44621 3.38486,6.12554 -0.63103,5.67933 z"
       inkscape:connector-curvature="0" />
    <path
       style="fill:#000000"
       id="path3918"
       d="m 330.36598,240.32431 c 2.49453,-1.82132 5.01128,-3.61054 7.43596,-5.52497 3.12755,-2.43938 6.24048,-4.89801 9.33107,-7.38414 3.86601,-3.14454 7.77366,-6.23204 11.76242,-9.2198 3.81018,-2.80724 7.7998,-5.35599 11.67188,-8.07474 3.15014,-2.15232 6.39052,-4.16797 9.56531,-6.285 2.83165,-1.99367 5.52979,-4.17029 8.2638,-6.29518 2.65143,-2.06265 5.48024,-3.87837 8.21383,-5.8265 2.26872,-1.58477 4.5445,-3.15919 6.76991,-4.8046 2.54099,-1.75501 5.007,-3.61046 7.41332,-5.54614 1.46833,-1.3599 3.1123,-2.44262 4.92507,-3.27574 3.68291,-1.66216 6.03355,3.54626 2.35064,5.20841 l 0,0 c -1.38836,0.60742 -2.57896,1.49433 -3.69541,2.52093 -2.46799,1.9829 -4.99368,3.8895 -7.59851,5.68888 -2.2535,1.66306 -4.55303,3.26116 -6.85029,4.86289 -2.67013,1.90019 -5.42905,3.67662 -8.02229,5.68398 -2.8433,2.20913 -5.6479,4.47422 -8.59983,6.53729 -3.13713,2.09192 -6.33792,4.08527 -9.45308,6.20823 -3.82527,2.68307 -7.76128,5.20564 -11.52892,7.97106 -3.93653,2.94772 -7.79153,5.99569 -11.60646,9.09875 -3.10513,2.49718 -6.23188,4.96777 -9.37391,7.41826 -2.49788,1.96786 -5.08353,3.8159 -7.65315,5.68804 -3.28798,2.34855 -6.60934,-2.30135 -3.32136,-4.64991 z"
       inkscape:connector-curvature="0" />
    <path
       style="fill:#000000"
       id="path3920"
       d="m 331.88202,265.15136 c 3.21805,-0.29546 6.44315,-0.43872 9.65951,-0.7556 3.44636,-0.37011 6.91111,-0.48846 10.37418,-0.56289 3.26932,-0.15727 6.5238,0.0344 9.78164,0.28302 2.90515,0.391 5.80974,0.75866 8.73518,0.95588 2.90625,0.084 5.80447,0.34148 8.69003,0.69212 3.20739,0.30438 6.32429,1.02441 9.39524,1.96744 2.37616,0.78563 4.73905,1.61071 7.13296,2.34067 2.60338,0.78847 5.2175,1.53964 7.80144,2.39214 2.21242,0.90002 4.53115,1.47105 6.82126,2.12826 1.91539,0.35356 3.67852,1.07349 5.38704,1.9899 1.72536,1.09047 3.55315,2.00566 5.27743,3.09549 0.87797,0.49411 1.22652,1.00505 1.90576,1.83245 1.96041,3.53317 -3.03624,6.30562 -4.99666,2.77245 l 0,0 c 1.48049,1.45128 0.43891,0.41279 0.0275,0.21887 -1.60946,-1.02853 -3.33395,-1.86623 -4.94287,-2.89864 -1.3409,-0.74319 -2.71918,-1.24362 -4.23471,-1.518 -2.36319,-0.6784 -4.75578,-1.27086 -7.04,-2.19582 -2.54178,-0.844 -5.11788,-1.57362 -7.67932,-2.35324 -2.39377,-0.73569 -4.7624,-1.54815 -7.13747,-2.34205 -2.75034,-0.84478 -5.5371,-1.49757 -8.41313,-1.75812 -2.78263,-0.34475 -5.57878,-0.57935 -8.38167,-0.66276 -2.94077,-0.20102 -5.86443,-0.54733 -8.78287,-0.95933 -3.07284,-0.23453 -6.14033,-0.42412 -9.22446,-0.26775 -3.31698,0.0708 -6.63576,0.18113 -9.93669,0.53671 -3.19275,0.31408 -6.39321,0.46559 -9.5883,0.74813 -4.0159,0.44622 -4.64694,-5.23312 -0.63104,-5.67933 z"
       inkscape:connector-curvature="0" />
    <path
       style="fill:#000000"
       id="path3922"
       d="m 422.37095,314.81967 c -2.42751,2.70001 -4.76888,5.47465 -7.19309,8.17778 -2.47325,2.91927 -5.00945,5.78232 -7.62566,8.57399 -2.93239,3.03667 -6.04928,5.89821 -9.18628,8.72226 -3.37294,3.0877 -6.86216,6.04103 -10.36839,8.97489 -3.37681,2.63708 -6.92083,5.04935 -10.63824,7.17764 -3.11862,1.69156 -6.15351,3.53004 -9.25628,5.25077 -2.88467,1.76299 -5.76595,3.52747 -8.76457,5.09117 -3.33702,1.82429 -6.97389,2.94174 -10.55837,4.15602 -3.06277,1.0671 -6.14004,2.0859 -9.16869,3.24839 -2.61593,1.07942 -5.27056,2.06463 -7.96205,2.93862 -3.72562,1.10254 -7.43995,2.24082 -11.15343,3.38321 -3.31566,0.93906 -6.61174,1.94276 -9.94652,2.81301 -2.62352,0.86639 -5.34046,1.28089 -8.04676,1.76761 -2.2129,0.41991 -4.43771,0.80712 -6.6129,1.39806 -0.40701,0.0942 -0.84771,0.25989 -1.2395,0.39811 -3.71647,1.58568 -5.95895,-3.6702 -2.24248,-5.25588 l 0,0 c 0.65118,-0.26093 1.31175,-0.48316 1.99212,-0.65887 2.3378,-0.62822 4.72247,-1.0617 7.10042,-1.50711 2.56117,-0.45271 5.12862,-0.84585 7.60887,-1.67173 3.25531,-0.84601 6.46988,-1.83283 9.70684,-2.74498 3.68582,-1.13347 7.37176,-2.26537 11.07033,-3.35695 2.59782,-0.84156 5.15732,-1.79774 7.6815,-2.83948 3.09985,-1.18464 6.24451,-2.23644 9.37893,-3.32422 3.30844,-1.12062 6.67414,-2.13057 9.75514,-3.8135 2.95732,-1.53325 5.77962,-3.2986 8.63023,-5.019 3.08147,-1.70814 6.09424,-3.53562 9.19168,-5.2144 3.42729,-1.95514 6.68598,-4.18382 9.80669,-6.59893 3.45374,-2.88995 6.89152,-5.79811 10.21334,-8.84035 3.01809,-2.71405 6.0149,-5.4668 8.83931,-8.3823 2.58834,-2.76062 5.09277,-5.59591 7.54097,-8.48163 2.3961,-2.6707 4.70826,-5.41393 7.10823,-8.08101 2.62959,-3.06786 6.9682,0.65095 4.33861,3.71881 z"
       inkscape:connector-curvature="0" />
    <path
       style="fill:#000000"
       id="path3930"
       d="m 285.6596,108.79075 c -2.85456,-0.20966 -5.70611,-0.44332 -8.56511,-0.58852 -2.30468,-0.1414 -4.59771,-0.14406 -6.89566,0.0633 -2.69321,0.14074 -5.34549,0.57869 -7.9933,1.06369 -2.59324,0.56604 -5.17361,1.19168 -7.74485,1.85093 -1.99132,0.43749 -3.98617,0.8341 -5.89689,1.55725 -1.32087,0.41275 -2.60539,0.90806 -3.88516,1.4314 -1.42739,0.52868 -2.91594,0.87454 -4.35306,1.37226 -1.00778,0.29513 -1.91329,0.72494 -2.7584,1.3427 -1.46675,1.02502 -3.03717,1.89679 -4.62857,2.71156 -0.91113,0.56259 -1.98109,0.76129 -2.92805,1.22882 -1.45336,0.4465 -2.77722,1.18287 -4.05203,1.99714 -1.13849,0.66659 -2.15209,1.51588 -3.19422,2.31838 -3.20162,2.46499 -6.68764,-2.06278 -3.48602,-4.52777 l 0,0 c 1.18388,-0.91132 2.3456,-1.86237 3.63441,-2.62549 1.45218,-0.90565 2.9871,-1.86792 4.65091,-2.32612 0.91627,-0.42609 1.89215,-0.67758 2.78472,-1.15844 1.35042,-0.68054 2.67671,-1.42524 3.92129,-2.2849 1.30952,-0.90885 2.70151,-1.63299 4.23378,-2.09185 1.33049,-0.43942 2.68461,-0.80602 4.01453,-1.24632 1.33173,-0.54322 2.66848,-1.0624 4.04152,-1.4926 2.10775,-0.7833 4.2867,-1.28741 6.48614,-1.74231 2.6996,-0.68813 5.40623,-1.35172 8.13041,-1.93541 2.81995,-0.51652 5.64686,-0.9761 8.51398,-1.13451 2.56405,-0.22735 5.12433,-0.23667 7.69493,-0.0786 2.7621,0.14082 5.51922,0.34469 8.2747,0.58115 4.04061,0 4.04061,5.71428 0,5.71428 z"
       inkscape:connector-curvature="0" />
    <path
       style="fill:#000000"
       id="path3934"
       d="m 165.08557,313.06704 c 0.54652,2.50567 1.25175,4.96644 2.13759,7.37226 1.02757,2.45217 2.07024,4.90601 3.30929,7.26088 1.16525,2.19232 2.51442,4.2713 3.82411,6.37854 1.51922,2.31977 3.20993,4.52452 4.84347,6.76571 1.75326,2.48996 3.56888,4.93775 5.59228,7.21504 1.3721,1.55945 2.86207,3.00609 4.63246,4.10267 2.17132,1.08347 4.08859,2.57976 5.96994,4.09552 1.59356,1.16772 3.12545,2.41268 4.72,3.5783 1.63498,0.90326 3.25829,1.8235 4.89828,2.71766 1.60782,0.89562 3.06069,2.04592 4.65434,2.96264 1.2408,0.7692 2.57278,1.37005 3.89411,1.98489 1.77938,0.76256 3.55473,1.53831 5.29473,2.38764 1.36639,0.65946 2.81428,1.12207 4.21139,1.70493 1.15772,0.54526 2.44368,0.68309 3.68135,0.97221 1.46563,0.28614 2.88064,0.77241 4.31119,1.19116 3.87642,1.14013 2.26403,6.62222 -1.61239,5.48209 l 0,0 c -1.32655,-0.39173 -2.63839,-0.84624 -3.99876,-1.10879 -1.56486,-0.3656 -3.18223,-0.57668 -4.64142,-1.28831 -1.45727,-0.66955 -3.04444,-1.06543 -4.46833,-1.82319 -1.70088,-0.83994 -3.44927,-1.58095 -5.18851,-2.33688 -1.48677,-0.69183 -2.97967,-1.37925 -4.37889,-2.23939 -1.52826,-0.91016 -2.96845,-1.96034 -4.49546,-2.87265 -1.8592,-1.01493 -3.71372,-2.03706 -5.53399,-3.12096 -1.66782,-1.21934 -3.27267,-2.51846 -4.93608,-3.74431 -1.71513,-1.38642 -3.45818,-2.74104 -5.44618,-3.71961 -2.1971,-1.41883 -4.13579,-3.15063 -5.844,-5.13523 -2.13894,-2.41817 -4.08077,-4.99804 -5.93456,-7.64053 -1.71526,-2.35523 -3.49379,-4.66991 -5.07871,-7.11494 -1.38293,-2.22661 -2.7984,-4.42901 -4.03254,-6.74327 -1.34591,-2.58037 -2.50529,-5.25509 -3.6122,-7.94486 -0.94904,-2.59832 -1.72757,-5.24893 -2.31618,-7.95331 -0.97999,-3.91996 4.56368,-5.30588 5.54367,-1.38591 z"
       inkscape:connector-curvature="0" />
    <path
       style="fill:#000000"
       id="path3936"
       d="m 248.80645,369.39292 c -1.43746,-1.96603 -2.81313,-3.96227 -4.32764,-5.87059 -1.12196,-1.44586 -2.36898,-2.78548 -3.63415,-4.10522 -1.73367,-1.61654 -2.94434,-3.65598 -4.15755,-5.66616 -1.26028,-2.18787 -2.35682,-4.46925 -3.43114,-6.75345 -0.8418,-1.93935 -1.71248,-3.86185 -2.4748,-5.83409 -1.11564,-3.0569 -2.29045,-6.08788 -3.5388,-9.09276 -1.59425,-3.9035 -3.17396,-7.80918 -4.5522,-11.79435 -1.05921,-3.54504 -2.14623,-7.08118 -3.14558,-10.64374 -0.85565,-3.2426 -1.92952,-6.41135 -2.99107,-9.58923 -1.08388,-3.05465 -1.8863,-6.19959 -2.63709,-9.3497 -0.47585,-3.20097 -1.36076,-6.29593 -2.42593,-9.34357 -1.37194,-3.60067 -2.54477,-7.27186 -3.58139,-10.98188 -1.01715,-3.47425 -1.72807,-7.03661 -2.30689,-10.60813 -0.38627,-3.32016 -0.63736,-6.65682 -0.91391,-9.98881 -0.39658,-4.07198 -0.99739,-8.1178 -1.57732,-12.16634 -0.61564,-4.24877 -0.81225,-8.53706 -0.91974,-12.82348 -0.0707,-3.90317 -0.0638,-7.80719 -0.0601,-11.71083 0.005,-2.82201 0.008,-5.64402 0.0102,-8.46603 0.001,-2.40144 0.001,-4.80289 0.002,-7.20433 -0.0988,-1.96876 0.1043,-3.91281 0.34491,-5.86263 0.18199,-1.45496 0.29776,-2.91647 0.34739,-4.38162 -0.003,-1.84752 0.0249,-3.67976 0.25252,-5.51511 0.2817,-0.80372 0.0599,-1.82524 0.39311,-2.61439 0.22574,-0.53467 0.51294,-1.04125 0.76941,-1.56187 2.454,-3.21005 6.99369,0.26043 4.53969,3.47048 l 0,0 c 0.87115,-2.60356 -0.13682,0.9569 -0.0332,1.42362 -0.21596,1.66124 -0.19377,3.32133 -0.21066,4.99446 -0.0573,1.63313 -0.18342,3.26252 -0.38701,4.88433 -0.21225,1.71979 -0.40677,3.42474 -0.30189,5.16293 -8e-5,2.40264 -2.6e-4,4.80527 -0.002,7.20791 -0.002,2.82256 -0.006,5.64511 -0.0102,8.46766 -0.004,3.85433 -0.0106,7.70903 0.0583,11.5629 0.10083,4.06307 0.28102,8.12828 0.8638,12.15588 0.59578,4.16083 1.21156,8.31917 1.61551,12.50446 0.26365,3.18558 0.50997,6.37467 0.86051,9.55079 0.5395,3.3619 1.21247,6.71444 2.16991,9.9836 0.99977,3.59492 2.14528,7.14778 3.47295,10.63576 1.12323,3.23079 2.08473,6.51037 2.58922,9.90212 0.70864,2.9867 1.46955,5.96814 2.49833,8.8631 1.08866,3.26635 2.19065,6.52348 3.07255,9.85471 0.96866,3.45373 2.02535,6.88068 3.04425,10.31979 1.3396,3.87585 2.87988,7.67248 4.42865,11.46938 1.26648,3.04892 2.46054,6.12364 3.59198,9.22544 0.71321,1.84666 1.53119,3.64476 2.31574,5.46214 0.99039,2.10704 1.99925,4.21231 3.15368,6.23455 0.99422,1.65111 1.95196,3.347 3.38966,4.66295 1.38763,1.44868 2.75242,2.92166 3.98472,4.50703 1.48573,1.87304 2.85986,3.81441 4.24107,5.76412 2.58673,3.10409 -1.80311,6.76228 -4.38984,3.6582 z"
       inkscape:connector-curvature="0" />
    <path
       style="fill:#000000"
       id="path3944"
       d="m 405.39066,161.54039 c -2.56586,-0.32616 -5.15749,-0.028 -7.69764,0.36731 -3.45517,0.5264 -6.86733,1.33026 -10.24976,2.2048 -3.64798,1.02752 -7.3094,1.98789 -10.90931,3.17798 -3.52299,1.25752 -7.11267,2.30693 -10.74108,3.21103 -3.44687,0.81922 -6.7812,2.02406 -10.14468,3.12147 -4.90536,1.59759 -9.83849,3.10742 -14.74845,4.69042 -4.96941,1.71757 -10.01795,3.22717 -14.91474,5.14633 -4.05035,1.59128 -7.97543,3.47541 -11.8938,5.36342 -4.0266,1.94956 -8.05278,3.89514 -12.13106,5.73508 -3.41771,1.47265 -6.76242,3.0804 -10.05143,4.81935 -3.27153,1.86926 -6.46024,3.87634 -9.69997,5.79901 -2.89221,1.71917 -5.62191,3.68641 -8.39683,5.58259 -2.03454,1.25482 -3.99516,2.62227 -5.98359,3.94738 -1.96561,1.37734 -3.92305,2.76656 -5.88588,4.14821 -2.00454,1.47566 -4.03395,2.91781 -6.0944,4.3144 -2.48257,1.62345 -4.95874,3.25609 -7.4612,4.84938 -2.43476,1.45055 -4.78414,3.04018 -7.23659,4.46027 -2.35527,1.30218 -4.55617,2.85988 -6.8692,4.23899 -2.70973,1.74544 -5.47255,3.40311 -8.19014,5.13588 -2.75186,1.60673 -5.35359,3.44313 -7.96964,5.25862 -2.18594,1.49496 -4.41508,2.92582 -6.52033,4.53435 -1.26811,1.08166 -2.63165,2.03961 -3.94694,3.06094 -0.99008,0.70899 -1.98708,1.41531 -2.94149,2.17393 -1.09271,0.71579 -2.15818,1.46247 -3.24115,2.19062 -0.61922,0.64207 -1.3886,1.11277 -2.1525,1.56066 -1.02393,0.65387 -2.07584,1.26712 -3.06695,1.9719 -1.04692,0.66448 -2.09956,1.31521 -3.17162,1.93757 -1.06087,0.64671 -1.98753,1.49368 -2.96174,2.26272 -0.92502,0.7533 -0.50822,0.37816 -1.26271,1.11158 -2.92926,2.78315 -6.86524,-1.35945 -3.93597,-4.1426 l 0,0 c 1.1083,-1.03803 0.55343,-0.55579 1.65808,-1.4542 1.1889,-0.9385 2.32366,-1.96404 3.64015,-2.72329 0.92674,-0.53498 1.83121,-1.10224 2.74331,-1.66358 1.15726,-0.80963 2.36637,-1.54016 3.56484,-2.28552 0.6987,-0.31082 1.18185,-0.92261 1.80362,-1.3485 0.96376,-0.60386 1.85606,-1.32478 2.84028,-1.90119 0.97258,-0.76494 1.97947,-1.48933 2.98499,-2.20796 1.32941,-1.02732 2.70107,-1.99755 3.98153,-3.08751 2.17646,-1.65584 4.46529,-3.14924 6.72706,-4.68475 2.67707,-1.85719 5.34154,-3.73443 8.15506,-5.38199 2.76638,-1.76387 5.57789,-3.4528 8.3379,-5.22697 2.33675,-1.39054 4.55609,-2.96891 6.93784,-4.27924 2.38517,-1.37025 4.65476,-2.93274 7.02379,-4.33124 2.4571,-1.56373 4.88808,-3.16661 7.32545,-4.76023 2.03323,-1.37575 4.03169,-2.80235 6.00986,-4.25602 2.003,-1.40947 3.99923,-2.82847 6.00684,-4.23105 1.97102,-1.31223 3.91195,-2.67062 5.9299,-3.91118 2.877,-1.96143 5.70365,-4.00203 8.70347,-5.77789 3.32114,-1.9683 6.58537,-4.03123 9.94436,-5.93597 3.39435,-1.79399 6.84606,-3.45496 10.37211,-4.97624 4.03487,-1.82014 8.01764,-3.74593 12.00136,-5.67461 4.0504,-1.94993 8.1079,-3.89557 12.29499,-5.53805 5.00908,-1.94918 10.157,-3.51993 15.24031,-5.26223 4.9039,-1.57974 9.83003,-3.08921 14.72913,-4.68415 3.49346,-1.13928 6.95775,-2.38613 10.53835,-3.23445 3.49064,-0.86533 6.94026,-1.88268 10.32835,-3.0918 3.72069,-1.22641 7.50151,-2.22738 11.27216,-3.28457 3.5692,-0.92002 7.16906,-1.76657 10.81468,-2.32058 3.06308,-0.46117 6.179,-0.79368 9.26979,-0.38879 4.00941,0.50118 3.30064,6.17134 -0.70877,5.67016 z"
       inkscape:connector-curvature="0" />
    <path
       style="fill:#000000"
       id="path3958"
       d="m 244.3404,125.93361 c 2.36045,0 4.7209,0 7.08135,0 2.00031,-0.0389 3.98452,-0.0206 5.97098,0.22568 2.09728,0.18539 4.15415,0.63751 6.24176,0.89461 2.44567,0.15216 4.87925,0.39259 7.31679,0.64223 2.33078,0.21091 4.66233,0.30454 6.98629,0.58577 2.54614,0.26932 5.0713,0.67861 7.62196,0.90976 3.25546,0.24017 6.52117,0.28023 9.78399,0.30969 3.48205,-0.0221 6.95554,-0.002 10.43116,0.21764 2.98716,0.21847 5.9781,0.37082 8.97188,0.45565 2.37134,0.0571 4.74363,0.0492 7.11548,0.0497 3.37972,0.18204 6.75504,0.42796 10.13635,0.5839 2.24405,-0.0217 4.45709,0.3301 6.68027,0.576 1.89172,0.2023 3.79561,0.23262 5.69617,0.25662 2.45072,0.11331 4.85812,0.57133 7.27465,0.95476 2.2356,0.21356 4.44503,0.61472 6.66899,0.91705 1.88183,0.14761 3.74931,0.38375 5.62168,0.62179 2.00496,0.21568 3.97661,0.64672 5.97843,0.89054 1.41116,0.058 2.7722,0.4331 4.15674,0.67072 1.63488,0.36721 3.24602,0.82 4.87086,1.22677 1.05715,0.2534 2.13177,0.38974 3.21652,0.42511 1.56481,0.16912 3.11105,0.46762 4.67782,0.62062 1.76026,0.32152 3.52643,0.58954 5.27651,0.96329 1.00262,0.22198 2.00885,0.44496 3.03182,0.54781 1.31067,0.0972 2.53011,0.63401 3.78599,0.97879 1.26239,0.45253 2.54153,0.84536 3.86187,1.08343 1.00842,0.0547 1.74331,0.28515 2.74623,0.6148 0.26858,0.24062 0.53715,0.48123 0.80572,0.72184 2.60355,3.09 -1.76637,6.77197 -4.36991,3.68197 l 0,0 c 0.20221,0.16185 0.40442,0.3237 0.60663,0.48555 2.78331,0.73155 -0.14659,0.11748 -0.81926,0.11642 -1.48648,-0.27584 -2.9452,-0.67163 -4.36342,-1.19896 -0.98243,-0.27619 -2.02164,-0.71939 -2.8456,-0.80027 -1.22492,-0.1304 -2.4343,-0.36902 -3.63468,-0.64336 -1.54295,-0.33021 -3.10055,-0.55276 -4.64735,-0.86507 -1.44969,-0.14622 -2.88819,-0.37326 -4.32771,-0.59663 -1.48202,-0.0611 -2.953,-0.23776 -4.39611,-0.59393 -1.48764,-0.3762 -2.96407,-0.78733 -4.45737,-1.13881 -1.29175,-0.22787 -2.55457,-0.58072 -3.87241,-0.62848 -2.00998,-0.24896 -3.99189,-0.66644 -6.00367,-0.8937 -1.88943,-0.24131 -3.77251,-0.47483 -5.67145,-0.62836 -2.26583,-0.30988 -4.51717,-0.71357 -6.79458,-0.9356 -2.14422,-0.34189 -4.27766,-0.75191 -6.44972,-0.88427 -2.08663,-0.0268 -4.17653,-0.0656 -6.25311,-0.29096 -2.10205,-0.23359 -4.19161,-0.57619 -6.3141,-0.54727 -3.29392,-0.15225 -6.5828,-0.37963 -9.87404,-0.57782 -2.42554,-5.3e-4 -4.85153,0.007 -7.27653,-0.052 -3.06028,-0.0872 -6.11774,-0.24154 -9.17127,-0.4648 -3.37231,-0.21471 -6.74251,-0.22469 -10.12125,-0.20642 -3.41918,-0.0311 -6.84145,-0.0751 -10.25252,-0.33319 -2.60643,-0.2402 -5.18792,-0.64777 -7.78946,-0.92757 -2.28842,-0.27803 -4.5864,-0.35416 -6.88122,-0.57402 -2.47932,-0.25438 -4.95416,-0.49118 -7.44113,-0.65634 -2.08924,-0.26324 -4.14889,-0.70205 -6.2472,-0.8953 -1.74872,-0.22337 -3.49615,-0.2047 -5.25847,-0.18108 -2.36045,0 -4.7209,0 -7.08135,0 -4.04061,0 -4.04061,-5.71429 0,-5.71429 z"
       inkscape:connector-curvature="0" />
    <path
       style="fill:#000000"
       id="path3966"
       d="m 188.18077,278.89826 c 2.07579,0.25976 4.16185,0.41609 6.25002,0.53073 1.22622,0.0638 2.45409,0.0771 3.68168,0.0808 1.37628,-0.056 2.74078,-0.3473 4.11355,-0.50293 1.57769,-0.16496 3.16451,-0.19632 4.74934,-0.21463 1.58109,-0.0166 3.14062,-0.34852 4.7135,-0.50799 2.37063,-0.1155 4.72331,-0.42853 7.08792,-0.62703 2.17869,-0.26264 4.3916,-0.11095 6.56764,-0.35927 2.00988,-0.18979 3.99189,-0.53769 5.98272,-0.86046 2.29248,-0.33655 4.56565,-0.75771 6.87319,-0.98908 2.0895,-0.0795 4.1549,-0.27153 6.22777,-0.53466 1.81511,-0.25388 3.63648,-0.54797 5.43005,-0.93135 2.22535,-0.36426 4.42243,-0.85206 6.61344,-1.38249 1.91102,-0.44326 3.77383,-1.03758 5.70852,-1.38011 1.75585,-0.38379 3.47722,-0.89617 5.20143,-1.39956 1.63715,-0.61372 3.30118,-1.14338 5.01208,-1.50542 -0.0453,-0.16322 -0.25002,0.12311 -0.34761,0.22699 -0.26359,0.36403 -0.13244,0.15686 -0.37721,0.63152 1.5275,-3.74076 6.81773,-1.58056 5.29024,2.1602 l 0,0 c -0.28712,0.57399 -0.12922,0.31139 -0.46362,0.79378 -0.78177,0.89171 -1.77863,1.47762 -2.9311,1.78059 -1.56868,0.3234 -3.07531,0.86014 -4.58166,1.39772 -1.92868,0.56282 -3.85584,1.13215 -5.82406,1.54407 -1.81364,0.30707 -3.54624,0.91836 -5.34247,1.30408 -2.2488,0.5444 -4.50458,1.04664 -6.78825,1.42192 -1.94611,0.40036 -3.91221,0.74013 -5.88019,1.00686 -2.12389,0.2696 -4.24343,0.47457 -6.38388,0.55229 -2.19093,0.21409 -4.34604,0.63147 -6.52321,0.94345 -2.10166,0.33992 -4.19632,0.70087 -6.31735,0.90456 -2.21739,0.20886 -4.45112,0.15509 -6.67014,0.36877 -2.33395,0.19449 -4.65651,0.50647 -6.99649,0.61864 -1.73979,0.17043 -3.4626,0.55172 -5.21599,0.53589 -1.3933,0.0157 -2.78853,0.0388 -4.17601,0.17921 -1.59012,0.17711 -3.16691,0.52967 -4.76972,0.53869 -1.32644,-0.004 -2.65316,-0.0197 -3.97807,-0.0894 -2.2201,-0.12242 -4.43791,-0.28987 -6.64483,-0.56623 -4.00941,-0.50118 -3.30064,-6.17134 0.70877,-5.67016 z"
       inkscape:connector-curvature="0" />
  </g>
</svg>
