<?xml version="1.0" encoding="UTF-8" standalone="no"?>
<!-- Created with Inkscape (http://www.inkscape.org/) -->

<svg
   xmlns:dc="http://purl.org/dc/elements/1.1/"
   xmlns:cc="http://creativecommons.org/ns#"
   xmlns:rdf="http://www.w3.org/1999/02/22-rdf-syntax-ns#"
   xmlns:svg="http://www.w3.org/2000/svg"
   xmlns="http://www.w3.org/2000/svg"
   xmlns:sodipodi="http://sodipodi.sourceforge.net/DTD/sodipodi-0.dtd"
   xmlns:inkscape="http://www.inkscape.org/namespaces/inkscape"
   width="388.23999"
   height="372.69"
   id="svg3838"
   version="1.1"
   inkscape:version="0.48.5 r10040"
   sodipodi:docname="network_nodes_coords.svg">
  <defs
     id="defs3840" />
  <sodipodi:namedview
     id="base"
     pagecolor="#ffffff"
     bordercolor="#666666"
     borderopacity="1.0"
     inkscape:pageopacity="0.0"
     inkscape:pageshadow="2"
     inkscape:zoom="1.4"
     inkscape:cx="270.91328"
     inkscape:cy="87.753439"
     inkscape:document-units="px"
     inkscape:current-layer="layer1"
     showgrid="false"
     inkscape:window-width="1656"
     inkscape:window-height="964"
     inkscape:window-x="143"
     inkscape:window-y="51"
     inkscape:window-maximized="0"
     fit-margin-top="0"
     fit-margin-left="0"
     fit-margin-right="0"
     fit-margin-bottom="0" />
  <metadata
     id="metadata3843">
    <rdf:RDF>
      <cc:Work
         rdf:about="">
        <dc:format>image/svg+xml</dc:format>
        <dc:type
           rdf:resource="http://purl.org/dc/dcmitype/StillImage" />
        <dc:title></dc:title>
      </cc:Work>
    </rdf:RDF>
  </metadata>
  <g
     inkscape:label="Layer 1"
     inkscape:groupmode="layer"
     id="layer1"
     transform="translate(-136.50022,-37.376508)">
    <path
       style="fill:#008000"
       id="path3894"
       d="m 270.76637,68.53457 c -1.85699,-0.46237 -3.7332,-0.82234 -5.6355,-1.02888 -1.29832,-0.15743 -2.58309,0.18795 -3.83695,0.4892 -1.67768,0.43633 -3.22178,1.13875 -4.71919,1.99915 -2.08546,1.26734 -4.02874,2.78011 -5.86735,4.38409 -1.53174,1.3853 -3.06715,2.7816 -4.26198,4.47649 -0.75435,1.1114 -1.53858,2.19803 -2.24652,3.33857 -0.47599,0.6294 -0.55532,1.37822 -0.76422,2.11797 -0.34011,0.99362 -0.43681,2.03752 -0.51843,3.07718 -0.0706,1.16264 -0.0644,2.32822 -0.0657,3.49249 8.1e-4,1.33257 0.004,2.66515 0.005,3.99772 -0.25752,-0.3883 0.18096,1.8439 0.17295,1.42426 0.36381,0.48659 0.84185,0.84299 1.28794,1.24608 0.85614,0.70402 1.70283,1.39921 2.57992,2.07426 0.69363,0.46 1.50497,0.73517 2.30459,0.95349 1.32717,0.52813 2.71669,0.79995 4.13122,0.94964 1.45036,0.12304 2.90717,0.12626 4.36165,0.1313 0.655,-0.14742 2.31464,0.22644 2.85711,-0.0564 1.16713,-0.29842 2.22138,-1.00897 3.27359,-1.58991 1.18059,-0.67846 2.26341,-1.49769 3.27519,-2.40476 1.13731,-0.95631 2.23577,-1.91799 3.25439,-3.00106 0.71818,-0.95156 1.61058,-1.78627 2.11114,-2.8836 0.58781,-1.15887 1.05021,-2.38929 1.42156,-3.63471 0.31377,-0.96096 0.35587,-1.96914 0.39085,-2.97026 0.0308,-1.62871 0.0188,-3.25795 0.0155,-4.88686 -0.14829,-1.38794 0.28566,-2.91242 -0.20251,-4.24912 -0.28965,-0.897 -0.69888,-1.81904 -1.42402,-2.44853 -1.27344,-1.3461 -2.5589,-2.68057 -3.85497,-4.00487 -0.23422,-0.23783 -0.46843,-0.47565 -0.70265,-0.71347 -2.83519,-2.87893 1.23623,-6.88849 4.07142,-4.00956 l 0,0 c 0.23841,0.24209 0.47681,0.48417 0.71521,0.72626 1.29744,1.3258 2.58504,2.66104 3.85923,4.00923 1.33704,1.43684 2.35487,3.07702 2.86359,4.99307 0.43765,1.88038 0.42999,3.76118 0.38898,5.68532 0.003,1.70257 0.0166,3.40552 -0.0193,5.10782 -0.0569,1.49605 -0.17227,2.99569 -0.63628,4.43025 -0.48294,1.55646 -1.04772,3.10138 -1.79169,4.55292 -0.81907,1.54945 -1.89835,2.89473 -3.04627,4.21395 -1.13358,1.20207 -2.35339,2.28449 -3.61243,3.34937 -1.33673,1.18586 -2.76288,2.26273 -4.32152,3.14469 -1.63118,0.8955 -3.2623,1.91697 -5.12502,2.22616 -1.25743,0.15661 -2.51426,0.14061 -3.78125,0.12828 -1.65874,-0.006 -3.32027,-0.0136 -4.97342,-0.16632 -1.72739,-0.19879 -3.44781,-0.49931 -5.07482,-1.13608 -1.4987,-0.44168 -2.98416,-0.99557 -4.24552,-1.94212 -0.98326,-0.78801 -1.96493,-1.56016 -2.93009,-2.37104 -0.89122,-0.84836 -1.85776,-1.62086 -2.44711,-2.73421 -0.63124,-1.30849 -0.97199,-2.66912 -0.86142,-4.13673 -0.002,-1.33693 -0.004,-2.67386 -0.005,-4.01079 0.001,-1.31375 -0.003,-2.62904 0.0838,-3.94058 0.11624,-1.4387 0.28356,-2.8788 0.73881,-4.25637 0.41058,-1.18686 0.56317,-2.47829 1.38521,-3.49834 0.7791,-1.25471 1.63693,-2.45321 2.47051,-3.67253 1.48561,-2.02331 3.25283,-3.79053 5.14257,-5.44006 2.12831,-1.84659 4.37469,-3.58941 6.79285,-5.0399 1.96979,-1.11142 4.01205,-2.02707 6.21104,-2.58853 1.89692,-0.45435 3.83542,-0.85783 5.79627,-0.61239 2.15738,0.24097 4.2888,0.6366 6.39499,1.16505 3.91996,0.98 2.53405,6.52367 -1.38592,5.54368 z"
       inkscape:connector-curvature="0" />
    <path
       style="fill:#008000"
       id="path3896"
       d="m 377.78274,196.25329 c -0.63886,-1.55455 -1.59727,-2.87291 -2.92273,-3.89934 -1.06018,-0.66745 -2.35884,-0.63866 -3.57054,-0.70077 -1.98652,0.0422 -3.8988,0.57342 -5.80123,1.09213 -1.89428,0.54582 -3.55725,1.59271 -5.18749,2.66744 -1.74351,1.2712 -3.41092,2.64759 -5.08002,4.01531 -1.72048,1.46214 -3.3915,3.03678 -4.70444,4.88247 -0.93892,1.39023 -1.8465,2.83307 -2.34738,4.44426 -0.27228,0.85736 -0.3125,1.75684 -0.33134,2.6488 -0.007,0.63207 -0.0471,1.38248 0.10609,1.82919 0.36586,0.27759 0.72819,0.62671 1.13975,0.87051 0.63637,0.26662 1.31965,0.33554 2.00068,0.38082 1.5896,0.33387 3.19071,0.52222 4.81059,0.62361 2.07275,0.07 4.15413,0.19303 6.22456,0.0369 2.13767,-0.16679 4.25331,-0.62216 6.2763,-1.33014 1.82938,-0.74453 3.57849,-1.63817 5.29608,-2.60942 1.36907,-0.74683 2.70731,-1.55272 3.96177,-2.48123 0.2784,-0.20605 0.61241,-0.35955 0.82257,-0.63486 0.19421,-0.25443 0.23055,-0.59719 0.34582,-0.89579 2.01026,-3.89731 3.02328,-8.17613 3.66174,-12.48507 0.0609,-0.57453 0.12187,-1.14905 0.18281,-1.72357 0.43194,-4.01746 6.11348,-3.40661 5.68155,0.61085 l 0,0 c -0.0711,0.65323 -0.14213,1.30646 -0.2132,1.9597 -0.76875,5.07859 -2.00264,10.11213 -4.46511,14.66333 -0.57065,0.80056 -1.07232,1.65507 -1.71195,2.40167 -0.27431,0.32019 -0.66447,0.5194 -1.00434,0.76891 -1.41348,1.03768 -2.91272,1.9504 -4.45043,2.79101 -2.02475,1.14341 -4.09405,2.18739 -6.2596,3.04178 -2.50478,0.8416 -5.09633,1.43891 -7.73818,1.62407 -2.32264,0.14451 -4.65039,0.0727 -6.97428,-0.0354 -1.63491,-0.10602 -3.27657,-0.23409 -4.87229,-0.62788 -1.67013,-0.13306 -3.31055,-0.4487 -4.76314,-1.33693 -1.49289,-1.04394 -2.8501,-2.27127 -3.44886,-4.0526 -0.31066,-1.16258 -0.3802,-2.32543 -0.32162,-3.5243 0.037,-1.45361 0.15939,-2.91018 0.61645,-4.3012 0.73688,-2.16994 1.84416,-4.17512 3.17172,-6.04271 1.64751,-2.19476 3.56218,-4.17656 5.68681,-5.91739 1.82455,-1.49384 3.64451,-3.00165 5.56444,-4.37122 2.13655,-1.39827 4.33865,-2.71501 6.82129,-3.40403 2.4918,-0.67892 5.01052,-1.31884 7.61546,-1.28474 2.44712,0.13997 4.86794,0.42666 6.87395,1.98107 2.05599,1.72533 3.6799,3.79224 4.65819,6.3184 1.41875,3.78334 -3.9317,5.78976 -5.35045,2.00642 z"
       inkscape:connector-curvature="0" />
    <path
       style="fill:#008000"
       id="path3898"
       d="m 385.45612,43.352514 c -1.94815,-0.74408 -3.95318,-1.222114 -6.03716,-1.261195 -1.09485,0.0821 -2.07655,0.496014 -2.98766,1.088529 -1.42644,0.968593 -2.41493,2.403842 -3.52394,3.694185 -1.49371,1.812677 -3.04961,3.594927 -4.23881,5.628517 -0.77153,1.14808 -1.23553,2.3903 -1.43124,3.74864 -0.19809,1.23016 0.0421,2.41947 0.45656,3.57885 0.51433,1.43744 0.90691,3.04292 1.95551,4.20318 0.66853,0.65583 1.46758,1.25235 2.34998,1.58681 0.83161,0.26821 1.56863,0.7456 2.43533,0.89144 1.28802,0.17192 2.562,0.13086 3.84423,-0.0367 1.64884,-0.32972 3.18109,-1.00187 4.71239,-1.67568 1.47169,-0.62517 2.73418,-1.56658 4.01847,-2.49786 0.86967,-0.84214 2.11457,-1.17464 3.04536,-1.91268 0.87169,-0.78844 1.42937,-1.87103 1.90156,-2.93248 0.59823,-1.51936 0.85726,-3.15081 0.77789,-4.77823 -0.39169,-2.35348 -1.3615,-4.576817 -2.23685,-6.784603 -0.65479,-1.813618 -0.34982,-0.912496 -0.91774,-2.702414 -1.21569,-3.853391 4.23382,-5.572641 5.44952,-1.719251 l 0,0 c 0.47554,1.517691 0.21653,0.743884 0.7819,2.31979 1.1172,2.830278 2.35023,5.684906 2.63567,8.743778 0.0302,2.51461 -0.29563,5.00699 -1.31029,7.33331 -0.95164,1.99085 -2.07668,3.94393 -3.89916,5.26613 -0.95181,0.61039 -1.97997,1.09869 -2.87584,1.79451 -1.6142,1.16802 -3.23578,2.31618 -5.07934,3.10485 -2.03181,0.88536 -4.08127,1.74567 -6.28295,2.1095 -1.90424,0.23691 -3.81478,0.27663 -5.7161,-0.0348 -1.245,-0.27367 -2.38407,-0.7619 -3.55719,-1.24585 -1.71204,-0.77706 -3.29764,-1.8255 -4.53753,-3.25805 -1.36934,-1.78797 -2.28781,-3.80718 -2.9169,-5.97073 -0.65175,-2.04 -1.03889,-4.12935 -0.67923,-6.27151 0.34145,-2.06763 1.00994,-4.02001 2.16741,-5.785458 1.38948,-2.301401 3.08319,-4.386922 4.81991,-6.434711 1.4968,-1.728782 2.86718,-3.605001 4.85015,-4.82508 1.88897,-1.135699 3.9064,-1.906983 6.14342,-1.93807 2.7162,0.08885 5.34957,0.638839 7.88909,1.62294 3.78334,1.418753 1.77692,6.769206 -2.00642,5.350453 z"
       inkscape:connector-curvature="0" />
    <path
       style="fill:#008000"
       id="path3900"
       d="m 504.20014,95.94304 c -0.52054,-1.74788 -1.07088,-3.49267 -2.01023,-5.06486 -0.0486,-0.0393 -0.12409,-0.17645 -0.14582,-0.11785 -0.0289,0.0779 0.0985,0.1429 0.10585,0.22566 0.0117,0.1313 -0.26363,0.0272 -0.39508,0.0173 -1.02535,-0.0772 -0.3165,-0.0364 -1.54867,-0.0888 -2.58551,-0.0503 -5.17191,-0.0165 -7.75768,-0.003 -2.36838,-0.1476 -4.09724,0.25224 -6.05552,1.55292 -2.21411,1.47076 -3.68617,3.65997 -5.28596,5.72061 -1.49319,1.98137 -2.98297,4.0266 -3.88795,6.35148 -0.80111,1.7604 -1.20651,3.62525 -1.39728,5.53839 -0.14575,1.51874 -0.15968,3.06422 0.42368,4.49438 0.60571,1.17627 1.72071,1.97174 2.73668,2.77376 1.47438,1.26606 3.0631,2.36917 4.74144,3.34527 1.1886,0.87056 2.48001,1.52685 3.88419,1.96135 1.52459,0.35217 3.0946,0.3873 4.65151,0.42564 1.5185,0.12816 2.93601,0.01 4.38788,-0.40834 1.48716,-0.58333 2.79728,-1.52778 4.05182,-2.49992 1.52151,-1.42704 2.90803,-2.96327 4.04401,-4.71249 1.4956,-2.26673 2.20516,-4.82533 2.63606,-7.47286 0.19041,-1.96562 0.6067,-4.0045 0.10861,-5.96104 -0.2196,-0.86262 -0.55103,-1.4663 -0.92757,-2.26813 -0.77663,-0.8833 -0.35028,-0.49544 -1.27177,-1.17155 -3.06042,-2.63825 0.67062,-6.96634 3.73104,-4.32809 l 0,0 c 2.04702,1.88228 1.12563,0.83453 2.75154,3.15432 0.66864,1.52808 1.01992,2.12869 1.37346,3.80426 0.53877,2.5534 0.18437,5.16182 -0.12974,7.71549 -0.58834,3.42729 -1.5569,6.73835 -3.4987,9.66962 -1.5038,2.26168 -3.28685,4.30166 -5.33011,6.09762 -1.83445,1.40614 -3.76642,2.73377 -5.97903,3.4701 -2.00687,0.56287 -4.0073,0.77626 -6.091,0.62349 -2.10062,-0.0537 -4.21806,-0.13419 -6.25627,-0.69784 -1.78708,-0.58747 -3.50108,-1.35548 -5.027,-2.47266 -1.89869,-1.12089 -3.72029,-2.35572 -5.39624,-3.79319 -1.86357,-1.47769 -3.65939,-3.05141 -4.56736,-5.3194 -0.77436,-2.27978 -1.02644,-4.62276 -0.7305,-7.02338 0.26381,-2.44399 0.7777,-4.84041 1.78702,-7.09666 1.16395,-2.78815 2.80693,-5.32963 4.66964,-7.7061 2.01269,-2.58691 3.94086,-5.26216 6.75972,-7.05381 2.89384,-1.75862 5.639,-2.63658 9.06413,-2.42745 2.68464,-0.0139 5.37006,-0.0507 8.05433,0.009 2.56884,0.12838 5.11741,0.43425 6.64989,2.788 1.18537,2.05581 1.98698,4.2791 2.62065,6.56272 0.97999,3.91996 -4.56368,5.30588 -5.54367,1.38591 z"
       inkscape:connector-curvature="0" />
    <path
       style="fill:#008000"
       id="path3902"
       d="m 519.24559,227.95641 c -1.00237,-2.15485 -2.47473,-3.9158 -4.27322,-5.43515 -1.30373,-1.12196 -2.83389,-1.37044 -4.48495,-1.52907 -2.1061,-0.22492 -4.07512,0.18633 -5.93749,1.15612 -2.56923,1.34869 -4.56396,3.4925 -6.50668,5.59897 -2.26182,2.42249 -3.90008,5.08394 -5.18976,8.11325 -0.86802,2.34044 -1.34339,4.83306 -1.29556,7.33033 0.16948,1.98181 1.11893,3.62796 2.38567,5.10881 1.44032,1.44975 3.21764,2.41679 5.11091,3.13379 2.32615,0.7027 4.6938,1.27856 7.13037,1.34406 2.52511,-0.17171 4.55416,-1.79971 6.28023,-3.51531 2.37829,-2.63027 3.51308,-5.89182 4.21823,-9.29896 0.27355,-1.60404 0.17169,-3.0862 -0.32261,-4.61713 -1.12066,-3.88209 4.36945,-5.46694 5.49011,-1.58485 l 0,0 c 0.66489,2.45743 0.91221,4.8552 0.42251,7.38726 -0.97729,4.5232 -2.60804,8.80674 -5.84563,12.23081 -3.10996,2.92893 -6.0568,4.95857 -10.46731,5.10805 -3.06823,-0.14578 -6.06763,-0.75928 -8.98369,-1.73079 -2.79094,-1.11159 -5.4001,-2.58196 -7.44798,-4.82897 -2.04845,-2.55368 -3.53405,-5.36642 -3.68503,-8.70873 0.0138,-3.28352 0.5412,-6.54327 1.75744,-9.60913 1.57449,-3.65416 3.52448,-6.80833 6.24412,-9.73935 2.42432,-2.62189 4.95936,-5.21245 8.18286,-6.84984 2.86545,-1.36159 5.85542,-2.07193 9.04827,-1.71224 2.79419,0.30424 5.42453,0.98633 7.60827,2.86874 2.3608,2.03476 4.331,4.38429 5.67193,7.22382 1.80702,3.61403 -3.30399,6.16954 -5.11101,2.55551 z"
       inkscape:connector-curvature="0" />
    <path
       style="fill:#008000"
       id="path3904"
       d="m 335.5154,331.98703 c -1.8113,-1.56239 -4.05262,-2.25317 -6.34845,-2.72801 -2.61138,-0.60473 -5.09751,-0.24074 -7.63618,0.45097 -3.22127,1.12148 -5.90515,3.23422 -8.48789,5.39498 -2.82634,2.41912 -5.06039,5.34027 -6.94658,8.52322 -1.1072,2.00308 -1.51095,3.61943 -0.82061,5.79306 0.85902,1.56739 2.12527,2.85151 3.37461,4.10931 0.9724,0.86727 2.39723,0.84474 3.63414,0.82163 2.73072,-0.0509 5.42403,-0.52352 8.12748,-0.86471 2.00624,-0.12605 3.93755,-0.54013 5.78582,-1.31758 2.01396,-0.86411 3.67948,-2.23763 5.35067,-3.61916 2.02093,-1.64772 2.79604,-3.94386 3.36391,-6.40118 0.81359,-3.98951 0.80526,-7.97215 -0.13231,-11.9238 -0.86493,-2.46774 -0.3575,-1.25781 -1.52697,-3.62784 -1.75104,-3.64148 3.39879,-6.11782 5.14984,-2.47634 l 0,0 c 1.50205,3.1853 0.857,1.57208 1.94852,4.83428 0.18376,0.83183 0.41198,1.65506 0.55127,2.49548 0.66341,4.00283 0.28355,8.07922 -0.43665,12.04336 -0.91192,3.64413 -2.27641,7.02677 -5.27911,9.46221 -2.11083,1.74134 -4.26336,3.42438 -6.80944,4.4952 -2.32518,0.94638 -4.73627,1.54165 -7.25059,1.70475 -2.95063,0.37182 -5.89176,0.88084 -8.87381,0.90953 -2.80075,-0.0537 -5.57486,-0.45054 -7.66093,-2.51284 -1.93162,-1.95178 -3.83289,-3.98949 -4.82247,-6.60363 -1.02708,-3.97928 -0.54245,-6.62875 1.41729,-10.24601 2.23035,-3.72807 4.86928,-7.15603 8.19514,-9.98662 3.22772,-2.68645 6.61897,-5.23806 10.67521,-6.52835 3.41044,-0.89545 6.81373,-1.31301 10.30292,-0.51823 3.19551,0.69839 6.29023,1.75666 8.81337,3.92649 3.10408,2.58673 -0.55411,6.97657 -3.6582,4.38983 z"
       inkscape:connector-curvature="0" />
    <path
       style="fill:#008000"
       id="path3906"
       d="m 237.0879,219.35783 c -2.42312,-1.43668 -5.13746,-2.23962 -7.87928,-2.79777 -3.02576,-0.48222 -5.83375,0.36141 -8.59658,1.49728 -3.03039,1.53292 -5.80995,3.54604 -8.44157,5.68229 -2.46792,2.11381 -4.64438,4.5668 -6.5304,7.20863 -1.64646,2.42784 -2.61815,5.10992 -3.14093,7.97328 -0.23027,2.12332 -0.6205,4.49866 0.25226,6.52768 0.71549,1.55609 2.07843,2.30136 3.57921,2.98098 2.5576,1.04206 5.21863,1.84506 7.91057,2.45908 1.83998,0.29205 3.71665,0.67023 5.59009,0.65644 0.76149,-0.006 1.56609,-0.20655 2.30263,-0.35304 3.3414,-0.97151 6.31268,-2.78501 9.10129,-4.81815 2.91068,-2.36562 4.44383,-5.20767 5.49306,-8.74333 0.87,-3.53805 0.8074,-7.25337 -0.44266,-10.70622 -0.24882,-0.68727 -0.61689,-1.32532 -0.92534,-1.98798 -0.41931,-0.60302 -0.83863,-1.20603 -1.25795,-1.80904 -2.24433,-3.35999 2.5074,-6.53395 4.75174,-3.17397 l 0,0 c 0.57556,0.88643 1.15113,1.77286 1.72669,2.65929 0.41012,0.95166 0.89298,1.87517 1.23035,2.85498 1.54201,4.47842 1.53559,9.29021 0.3789,13.84301 -0.25618,0.81144 -0.46707,1.63859 -0.76855,2.43431 -1.39184,3.67358 -3.80821,6.77838 -6.8316,9.25491 -3.48532,2.51594 -7.21298,4.73255 -11.41615,5.81108 -1.63372,0.28723 -2.04822,0.43255 -3.71381,0.43636 -2.18061,0.005 -4.36153,-0.43529 -6.50099,-0.7901 -3.09115,-0.71753 -6.1532,-1.62985 -9.07889,-2.86551 -2.8685,-1.40035 -5.31472,-3.18719 -6.52577,-6.26601 -0.1722,-0.54373 -0.38647,-1.0759 -0.51661,-1.6312 -0.5991,-2.55623 -0.28244,-5.26831 0.0459,-7.8309 0.70913,-3.68084 1.9754,-7.14984 4.12163,-10.2582 2.20749,-3.03724 4.6934,-5.89053 7.57449,-8.31149 3.07577,-2.47443 6.30741,-4.82333 9.88009,-6.53063 3.90425,-1.57318 7.66781,-2.51636 11.90793,-1.79934 3.40007,0.71422 6.7544,1.73774 9.74881,3.54758 3.42643,2.14151 0.39787,6.98722 -3.02857,4.8457 z"
       inkscape:connector-curvature="0" />
    <path
       style="fill:#000000"
       id="path4499"
       d="m 44.524424,321.42128 c -3.496213,0.45972 -7.00444,0.81573 -10.518649,1.10324 -1.248589,0.0853 -2.498942,0.15472 -3.750472,0.17479 -0.163868,0.003 -0.328457,-0.002 -0.491727,-0.007 -2.019962,-0.0372 -1.967314,-2.89389 0.05265,-2.85666 l 0,0 c 0.590919,0.0204 -0.03613,4.3e-4 0.394006,0.006 1.188848,-0.0184 2.37653,-0.0859 3.56263,-0.16563 3.473651,-0.28403 6.941354,-0.63608 10.397179,-1.09069 2.004704,-0.25059 2.359089,2.58449 0.354385,2.83508 z"
       inkscape:connector-curvature="0"
       transform="translate(136.50022,37.376508)" />
    <path
       style="fill:#000000"
       id="path4501"
       d="m 190.83433,305.94294 c -5.67084,0.54038 -11.36126,0.83687 -17.05038,1.10413 -1.76762,0.0846 -3.53598,0.15498 -5.30565,0.17172 -0.54878,0.002 -1.09755,-0.002 -1.64631,-0.006 -0.11966,-7e-4 -0.23932,-0.002 -0.35898,-0.003 0.25867,-3.74412 2.12215,-2.82714 2.95351,-0.83678 0.0256,0.15094 0.0513,0.30188 0.0769,0.45281 0.17695,2.01254 -2.66921,2.26279 -2.84616,0.25025 l 0,0 c 0.0178,0.0613 0.0355,0.12264 0.0533,0.18396 0.52598,0.81665 0.56888,-2.31515 -0.20125,-2.90715 0.11447,10e-4 0.22893,0.002 0.3434,0.003 0.53291,0.004 1.06585,0.008 1.59878,0.006 1.73391,-0.0161 3.4665,-0.0861 5.1984,-0.1687 5.62852,-0.26436 11.25831,-0.55729 16.86892,-1.08981 2.00795,-0.2231 2.32347,2.61657 0.31552,2.83967 z"
       inkscape:connector-curvature="0" />
    <path
       style="fill:#000000"
       id="path4503"
       d="m 40.23871,212.84985 c -3.418791,0.43128 -6.843551,0.82109 -10.278068,1.10321 -1.062425,0.0844 -2.125069,0.16376 -3.190981,0.17493 -0.345659,0.002 -0.691327,1.3e-4 -1.036919,-0.007 -0.03753,-2.7e-4 -0.07498,-0.003 -0.112466,-0.004 -2.016954,-0.11631 -1.852467,-2.96872 0.164487,-2.85241 l 0,0 c 0.0046,1.2e-4 0.0093,1.8e-4 0.01389,3.4e-4 0.313977,0.005 0.627986,0.009 0.942021,0.006 0.99755,-0.01 1.99186,-0.0881 2.986221,-0.16549 3.394251,-0.27842 6.778725,-0.66482 10.157426,-1.09073 2.004704,-0.25058 2.359089,2.58449 0.354385,2.83508 z"
       inkscape:connector-curvature="0"
       transform="translate(136.50022,37.376508)" />
    <path
       style="fill:#000000"
       id="path4505"
       d="m 169.59607,198.0835 c -3.15032,0.40622 -6.30164,0.7987 -9.46372,1.1015 -1.23872,0.34959 -2.39735,0.90295 -3.62851,1.28314 -0.2807,0.0854 -0.56441,0.15995 -0.84899,0.23098 -1.9607,0.48715 -2.64963,-2.28569 -0.68893,-2.77284 l 0,0 c 0.23379,-0.0577 0.46666,-0.11916 0.69724,-0.18881 1.41457,-0.43395 2.72993,-1.13558 4.19693,-1.39661 3.13468,-0.29998 6.25855,-0.69004 9.3816,-1.09244 2.0047,-0.25059 2.35909,2.58449 0.35438,2.83508 z"
       inkscape:connector-curvature="0" />
    <path
       style="fill:#000000"
       id="path4507"
       d="m 165.31036,145.22636 c -2.92525,0.36565 -5.85049,0.73131 -8.77573,1.09696 -0.8468,0.13716 -1.70188,0.17335 -2.55801,0.18119 -0.89569,-0.15423 -2.59555,0.47536 -0.33038,-0.5223 -0.16315,0.22129 -0.3263,0.44259 -0.48945,0.66389 -1.32312,1.52675 -3.48228,-0.34443 -2.15915,-1.87118 l 0,0 c 0.01,0.0215 0.02,0.043 0.0299,0.0646 1.4554,-1.18437 1.38089,-1.26399 2.92455,-1.19202 0.74614,-0.006 1.49051,-0.035 2.22813,-0.15923 2.92524,-0.36566 5.85048,-0.73132 8.77573,-1.09697 2.0047,-0.25059 2.35909,2.58449 0.35438,2.83508 z"
       inkscape:connector-curvature="0" />
    <path
       style="fill:#000000"
       id="path4509"
       d="m 104.28571,356.9142 c 0,2.92524 0,5.85049 0,8.77573 0.42402,0.39648 0.69607,0.99987 0.98983,1.52829 0.45191,0.45537 -0.88985,-0.34496 0.18926,-0.22989 0.0299,4.8e-4 0.0597,0.004 0.0896,0.006 2.00959,-0.20783 2.30349,2.63416 0.29391,2.84198 l 0,0 c -0.21976,0.0137 -0.43951,0.0207 -0.65926,-0.004 -0.92157,-0.0947 -1.93576,-0.30489 -2.41094,-1.22612 -0.52387,-0.94319 -1.21045,-1.81497 -1.34951,-2.91608 0,-2.92524 0,-5.85049 0,-8.77573 0,-2.02031 2.85714,-2.02031 2.85714,0 z"
       inkscape:connector-curvature="0"
       transform="translate(136.50022,37.376508)" />
    <path
       style="fill:#000000"
       id="path4511"
       d="m 164.28571,352.62849 c 0,2.92524 0,5.85048 0,8.77573 0,0.74072 0,1.48145 0,2.22218 0,0.38168 0,0.76337 0,1.14505 0.17024,0.58698 -0.72699,-0.81144 -0.0553,-0.65144 0.0116,0.001 0.0225,0.006 0.0338,0.01 2.0203,-0.004 2.02533,2.85358 0.005,2.85714 l 0,0 c -0.24067,-0.0109 -0.48032,-0.0295 -0.71491,-0.0907 -1.04223,-0.26423 -2.16129,-0.81759 -2.1258,-2.12457 0,-0.38168 0,-0.76337 0,-1.14505 0,-0.74073 0,-1.48146 0,-2.22218 0,-2.92525 0,-5.85049 0,-8.77573 0,-2.02031 2.85714,-2.02031 2.85714,0 z"
       inkscape:connector-curvature="0"
       transform="translate(136.50022,37.376508)" />
    <path
       style="fill:#000000"
       id="path4513"
       d="m 210,349.77134 c 0,3.26904 0,6.53809 0,9.80713 0,0.93627 0,1.87254 0,2.80882 0,2.0203 -2.85714,2.0203 -2.85714,0 l 0,0 c 0,-0.93628 0,-1.87255 0,-2.80882 0,-3.26904 0,-6.53809 0,-9.80713 0,-2.0203 2.85714,-2.0203 2.85714,0 z"
       inkscape:connector-curvature="0"
       transform="translate(136.50022,37.376508)" />
    <path
       style="fill:#000000"
       id="path4515"
       d="m 271.04415,347.26068 c -0.73131,2.92524 -1.46262,5.85049 -2.19393,8.77573 -0.11347,0.45389 -0.22694,0.90778 -0.34042,1.36167 0.0964,-0.99684 0.0627,1.97238 0.0628,2.04447 0.002,2.02031 -2.85466,2.02381 -2.85714,0.004 l 0,0 c -0.001,-0.91345 -0.0301,-1.82898 0.0225,-2.74093 0.11347,-0.4539 0.22694,-0.90779 0.34042,-1.36168 0.73131,-2.92524 1.46262,-5.85049 2.19393,-8.77573 0.48999,-1.95998 3.26183,-1.26703 2.77183,0.69296 z"
       inkscape:connector-curvature="0"
       transform="translate(136.50022,37.376508)" />
    <path
       style="fill:#000000"
       id="path4517"
       d="m 317.44197,346.56772 c 0.84947,3.20981 1.5694,6.44988 2.20976,9.70721 0.12499,0.66841 0.26021,1.33552 0.35619,2.00891 -0.30342,1.43521 -2.27325,1.2137 -3.29269,0.80629 -1.84772,-0.81703 -0.69227,-3.43011 1.15546,-2.61308 l 0,0 c 1.74721,0.81362 0.92016,0.26544 -0.6978,2.16157 -0.094,-0.60659 -0.20819,-1.20995 -0.32466,-1.81266 -0.63076,-3.20983 -1.34046,-6.40246 -2.1781,-9.56528 -0.48999,-1.95999 2.28184,-2.65294 2.77184,-0.69296 z"
       inkscape:connector-curvature="0"
       transform="translate(136.50022,37.376508)" />
    <path
       style="fill:#000000"
       id="path4533"
       d="m 365.24424,339.67721 c 2.4075,1.41477 4.47162,3.31646 6.75926,4.89532 1.43766,0.9353 2.88222,1.86564 4.37665,2.7099 0.41004,0.32977 0.34959,0.1243 0.21041,0.0885 2.03869,0.82457 2.93106,1.57214 3.06346,3.62902 -0.008,1.1822 -0.0357,0.70328 -0.71215,2.3614 -0.50417,0.84813 -1.49085,1.09702 -2.22135,1.6671 -0.91741,0.67414 -1.81981,1.36893 -2.72875,2.0576 -0.84093,0.69883 -1.66938,1.40112 -2.56172,2.03432 -1.13358,0.8082 -2.30128,1.56144 -3.39283,2.4286 -0.50407,0.41354 -1.00704,0.82958 -1.48717,1.271 0.21793,-0.13247 -4.11724,-5.45261 -1.73754,-5.48386 -2.24412,0.73138 -2.35971,0.72308 -2.99881,2.49885 -0.002,0.006 -0.002,-0.0481 -0.004,-0.47365 -0.0142,-1.7126 -0.0169,-3.42527 -0.0201,-5.13792 -0.003,-1.79847 -0.004,-3.59695 -0.004,-5.39543 -10e-5,-0.83502 0,-1.67003 7e-5,-2.50505 4e-5,-0.42352 5e-5,-0.84703 6e-5,-1.27055 1e-5,-0.27123 1e-5,-0.54245 1e-5,-0.81368 0,-0.0352 -1e-5,-0.0705 -1e-5,-0.10572 -3e-5,-4.54569 6.42854,-4.54574 6.42858,-5e-5 l 0,0 c 0,0.0353 0,0.0705 0,0.10576 0,0.27128 0,0.54257 -1e-5,0.81386 -10e-6,0.42364 -2e-5,0.84729 -6e-5,1.27093 -7e-5,0.83448 -1.7e-4,1.66897 -7e-5,2.50346 2.9e-4,1.79487 10e-4,3.58973 0.004,5.3846 0.003,1.70903 0.006,3.41807 0.0201,5.12706 0.003,1.04092 0.006,2.62917 -0.95713,3.32309 -0.71033,0.51193 -1.58946,0.73497 -2.38419,1.10246 -2.24514,0.0294 -4.4782,-4.24779 -2.68908,-5.68449 0.59718,-0.54586 1.21723,-1.06627 1.84548,-1.57588 1.18278,-0.92983 2.43058,-1.7608 3.65788,-2.62704 0.83629,-0.59279 1.59402,-1.27576 2.39859,-1.91471 1.02094,-0.77345 2.03874,-1.54838 3.07371,-2.30153 0.54112,-0.34342 0.48938,-0.33055 0.95515,-0.57218 0.15331,-0.0795 0.57112,-0.36748 0.46281,-0.23295 -0.30773,0.38225 -0.67834,0.32746 -0.87406,0.74641 -0.16616,0.47149 -0.30508,0.95349 -0.49849,1.41447 -0.0428,0.10212 0.0307,-0.21937 0.0432,-0.3294 0.004,-0.0322 -0.0702,0.53484 -0.0404,0.59441 0.12681,1.45275 1.36023,2.04558 2.67915,2.48221 -0.94862,-0.11677 -1.87263,-0.38973 -2.69691,-0.88624 -1.6723,-0.94784 -3.29267,-1.9868 -4.89937,-3.03988 -2.17812,-1.54261 -4.19168,-3.3146 -6.47737,-4.70865 -3.85473,-2.40921 -0.4476,-7.86063 3.40714,-5.45142 z"
       inkscape:connector-curvature="0"
       transform="translate(136.50022,37.376508)" />
    <path
       style="fill:#000000"
       id="path4542"
       d="m 147.63743,70.48052 c 0.34414,2.743279 0.50634,5.485982 0.35991,8.246538 -0.0853,2.191071 -0.62127,4.325717 -0.9239,6.490337 -0.11349,1.2126 -0.19276,2.40538 -0.43983,3.596963 -0.48288,1.025679 -0.37781,0.940541 -0.70074,1.97522 -0.21288,0.563926 -0.43011,1.126201 -0.6498,1.687505 -0.86542,2.19984 -0.10352,0.244603 -5.60097,-2.981862 0.22628,-0.527122 0.52267,-1.015307 0.86351,-1.47634 0.71872,-1.085477 1.92502,-1.498803 3.09566,-1.888825 1.50525,-0.368456 2.95348,-0.91645 4.43294,-1.369696 1.41857,-0.290805 2.80285,-0.700551 4.20187,-1.070295 0.95039,-0.242377 1.92485,-0.350226 2.90183,-0.403859 0.31196,-0.01895 0.62376,-0.01792 0.93522,0.0054 -0.40386,-0.02125 0.84735,-0.0098 0.89425,-0.0098 0.45922,0.08812 1.56282,-0.240356 -0.16826,0.11108 -0.17429,0.03538 -0.89599,0.424519 0.13532,-0.10601 0.3932,-0.185253 0.79483,-0.352394 1.20281,-0.502208 1.59253,-0.525819 -0.19736,-0.211707 -2.02591,2.805842 -0.1541,0.254309 0.0732,0.590192 0.10979,0.885288 -0.28378,-1.15054 -0.73574,-2.222788 -1.26318,-3.281897 -0.83393,-1.563767 -1.83463,-3.009161 -2.89673,-4.422897 -1.47348,-1.799311 -2.72709,-3.750626 -3.90573,-5.750007 -0.6383,-1.266644 -1.47175,-2.410414 -2.12704,-3.668068 -0.23526,-0.444237 -0.42734,-0.905318 -0.565,-1.388144 4.3055,2.89141 3.83241,2.456989 1.91956,2.460014 -0.0655,1.91e-4 -0.13106,-1.97e-4 -0.19659,-4.38e-4 -4.54562,-0.02434 -4.5112,-6.452822 0.0344,-6.42848 l 0,0 c 0.0508,2.02e-4 0.1016,5.1e-4 0.15241,3.54e-4 2.00792,-0.0029 1.557,-0.01024 4.33229,2.431391 -0.11901,-0.40619 -0.14698,-0.395457 0.0316,-0.03055 0.59259,1.156101 1.39646,2.184278 1.95629,3.359355 1.05728,1.793611 2.17738,3.545528 3.50794,5.153872 1.30493,1.737827 2.5202,3.531354 3.53152,5.459382 0.60859,1.259423 1.17868,2.542766 1.52509,3.896478 0.0939,0.451765 0.47569,0.936567 0.28182,1.355294 -1.2138,2.621668 -3.76338,3.709137 -2.19993,3.202646 -0.19279,0.07095 -0.3828,0.149233 -0.5706,0.232522 -0.8768,0.431254 -1.80825,0.731919 -2.79933,0.653748 -0.50922,2.05e-4 -1.01941,0.01103 -1.52785,-0.02121 0.23162,0.01635 0.31272,0.0091 0.037,0.01654 -0.53869,0.02709 -1.07669,0.07306 -1.60256,0.20007 -1.32175,0.348321 -2.6294,0.74556 -3.97258,1.005212 -1.43443,0.431622 -2.83258,0.980868 -4.29305,1.325417 -1.69812,0.547587 -0.8622,0.400061 0.16045,-0.502047 0.0569,-0.05018 -0.2104,0.227216 -0.14711,0.173632 0.33632,-0.839775 -0.41111,0.937771 -0.56852,1.05397 -6.03423,-2.74717 -6.62093,-0.736008 -5.79906,-2.828057 0.20607,-0.526438 0.40981,-1.053797 0.60979,-1.58258 -0.0445,0.49845 -0.007,-0.0042 0.12903,-0.513969 0.0817,-0.306296 0.28884,-1.043085 0.517,-1.327587 0.0552,-0.06885 -0.0502,0.169211 -0.0754,0.253816 -0.0128,0.155952 0.0742,0.359075 -0.0383,0.467855 -0.1082,0.104645 0.0123,-0.300812 0.021,-0.451089 0.0339,-0.58954 0.0855,-1.179691 0.14687,-1.766879 0.0312,-0.298386 0.0675,-0.596215 0.10119,-0.894323 0.28206,-1.983701 0.76093,-3.941497 0.87054,-5.945271 0.13823,-2.40532 -0.0374,-4.792256 -0.33029,-7.183446 -0.50199,-4.517884 5.88726,-5.227801 6.38925,-0.709917 z"
       inkscape:connector-curvature="0" />
    <path
       style="fill:#000000;stroke-width:0.60000002;stroke-miterlimit:4;stroke-dasharray:none"
       id="path5324"
       d="m 155.42879,94.150584 c 0.0422,2.17657 0.0102,4.339298 -0.22221,6.504366 -0.24847,1.98362 -0.37728,3.97707 -0.44791,5.97392 -0.0503,1.6846 -0.0486,3.37012 -0.0492,5.05529 9.7e-4,1.62287 0.003,3.24574 0.004,4.86861 8.4e-4,1.59087 9.7e-4,3.18175 0.001,4.77263 4e-5,1.47264 1e-5,2.94528 0,4.41792 -1e-5,1.75326 -1e-5,3.50653 -1e-5,5.2598 0.2361,1.76866 0.4448,3.53799 0.57624,5.31781 0.0798,1.55948 0.44007,3.08629 0.63426,4.63523 0.23337,1.70253 0.11611,3.42726 0.29128,5.13179 0.2567,2.28055 0.41901,4.56462 0.73636,6.8375 0.31014,2.207 0.48293,4.42887 0.57502,6.65462 0.0192,1.60918 0.0305,3.20186 0.22983,4.79888 0.24772,2.85471 0.52608,5.70517 0.79283,8.5587 0.29282,3.19494 0.38123,6.40269 0.43093,9.609 0.0323,2.90068 0.0265,5.8016 0.0246,8.70241 0.22335,2.55839 0.3472,5.13065 0.64476,7.68161 0.38402,2.77822 0.58937,5.57441 0.69836,8.37545 0.30978,3.01315 0.53703,6.03048 0.66859,9.05653 0.29506,2.95813 0.55673,5.91696 0.71069,8.88603 0.29206,2.67479 0.56098,5.35009 0.8973,8.01964 0.31384,3.22369 0.95421,6.40008 1.42632,9.60132 0.63732,3.5382 0.99592,7.11624 1.41173,10.68492 0.59652,4.00585 1.35405,7.98828 2.10121,11.96886 0.7735,3.74889 1.31757,7.53295 1.90625,11.31246 0.48041,2.79274 0.75666,5.60993 0.88832,8.43872 -0.0157,2.77828 0.18708,5.53919 0.39412,8.30719 0.42594,3.25871 0.74733,6.52764 0.94663,9.80777 0.13226,2.48908 0.15526,4.98193 0.16474,7.47392 0.002,2.17511 -0.003,4.35021 -0.005,6.52532 -0.002,3.39266 -0.002,6.78533 -0.003,10.178 -0.0414,2.82859 0.0958,5.66189 -0.0942,8.48559 -0.29441,2.30579 -0.45506,4.6213 -0.5421,6.9431 0.0229,2.56146 -0.15085,5.10187 -0.42475,7.64628 -0.20707,2.11183 -0.29925,4.22383 -0.57665,6.32852 -0.27264,1.87578 -0.39429,3.76811 -0.46603,5.66076 -0.0496,1.81812 -0.045,3.63714 -0.0449,5.45577 -0.11008,1.823 -0.41678,3.62524 -0.59593,5.44167 -0.0926,0.87107 -0.10868,1.74685 -0.11571,2.6219 -0.004,0.95283 -9.8e-4,1.90566 8.6e-4,2.85849 0.13209,0.97282 -0.34628,1.85655 -0.55797,2.76845 -0.0853,0.8569 -0.23612,1.69364 -0.47272,2.52357 -0.16605,0.70544 -0.30837,1.42463 -0.36859,2.14807 -0.16411,0.97542 -0.56465,1.83989 -1.19649,2.59261 -0.0789,0.094 -0.31267,0.37649 -0.2484,0.2719 0.15854,-0.25803 0.35552,-0.49037 0.53328,-0.73555 0.57242,-1.55268 -0.24153,1.32748 -0.33033,1.59029 -0.17367,0.73654 -0.35079,1.46256 -0.62377,2.17131 -0.15082,0.45945 -0.22776,0.94223 -0.30205,1.41964 -0.0116,0.0579 -0.0152,0.11716 -0.0228,0.1756 -0.50234,4.51785 -6.89154,3.80744 -6.3892,-0.71041 l 0,0 c 0.018,-0.15625 0.0374,-0.31233 0.062,-0.46771 0.15095,-0.94749 0.33423,-1.89698 0.67955,-2.79548 0.0495,-0.11166 0.3546,-1.35027 0.51385,-1.8742 0.22695,-0.64839 0.2551,-1.31035 0.57256,-2.19596 1.24361,-1.91425 0.38748,-0.82096 0.3537,-0.068 0.11554,-1.11016 0.29971,-2.21634 0.58748,-3.29543 0.1702,-0.58754 0.26381,-1.64396 0.48292,-2.55874 0.22623,-0.73417 0.10026,-0.36664 0.28417,-0.8621 0.0275,-0.0741 0.0792,-0.3018 0.0817,-0.22275 0.0479,1.53496 -0.13663,0.44532 -0.0675,0.13735 -0.002,-0.97481 -0.005,-1.94963 -6.5e-4,-2.92444 0.009,-1.06971 0.0347,-2.14001 0.14707,-3.20479 0.16084,-1.60504 0.39627,-3.20078 0.56435,-4.80486 -1e-4,-1.90079 -0.005,-3.80201 0.0496,-5.70221 0.0809,-2.09197 0.21759,-4.18334 0.51674,-6.25696 0.27208,-2.05264 0.34113,-4.11522 0.55818,-6.17454 0.25824,-2.39721 0.41864,-4.78682 0.39239,-7.20095 0.0914,-2.39744 0.24594,-4.79062 0.55479,-7.17119 0.22045,-2.662 -0.008,-5.34708 0.0769,-8.01504 2.5e-4,-3.39439 4.6e-4,-6.78877 0.003,-10.18316 0.002,-2.16513 0.007,-4.33026 0.005,-6.49539 -0.009,-2.37071 -0.0293,-4.74225 -0.15308,-7.11029 -0.1954,-3.25007 -0.53071,-6.48641 -0.94044,-9.71636 -0.21144,-2.82889 -0.41902,-5.65252 -0.40526,-8.49161 -0.11747,-2.59756 -0.37617,-5.18337 -0.81897,-7.74733 -0.5749,-3.71364 -1.1115,-7.43052 -1.87214,-11.11343 -0.77381,-4.12701 -1.56206,-8.25546 -2.16827,-12.41049 -0.40802,-3.50479 -0.75894,-7.01872 -1.38649,-10.4933 -0.47578,-3.24543 -1.12897,-6.46485 -1.44431,-9.7331 -0.35601,-2.82603 -0.64591,-5.65824 -0.93915,-8.49146 -0.15375,-2.98723 -0.43371,-5.96217 -0.71324,-8.93979 -0.13078,-3.03668 -0.3771,-6.06215 -0.66984,-9.08726 -0.10042,-2.64142 -0.2984,-5.27764 -0.66206,-7.8972 -0.31058,-2.7947 -0.48524,-5.60713 -0.68581,-8.41137 0.002,-2.86632 0.008,-5.73276 -0.0238,-8.59895 -0.0467,-3.03987 -0.12749,-6.08123 -0.40385,-9.11046 -0.26032,-2.79068 -0.53535,-5.57838 -0.77247,-8.37059 -0.21577,-1.77138 -0.26627,-3.53831 -0.27265,-5.32163 -0.0816,-2.01677 -0.23829,-4.0299 -0.51878,-6.02968 -0.33091,-2.37511 -0.50788,-4.76116 -0.77167,-7.14433 -0.13677,-1.63974 -0.10476,-3.28462 -0.26885,-4.92277 -0.20185,-1.6554 -0.60238,-3.2855 -0.66583,-4.95575 -0.14057,-1.93672 -0.42871,-3.85365 -0.59343,-5.7875 1e-5,-1.75328 1e-5,-3.50656 2e-5,-5.25984 1e-5,-1.47251 4e-5,-2.94503 0,-4.41755 -8e-5,-1.58969 -2.2e-4,-3.17939 -0.001,-4.76908 -9.8e-4,-1.62495 -0.003,-3.2499 -0.004,-4.87486 6.6e-4,-1.76078 -4.8e-4,-3.52193 0.0533,-5.28209 0.0774,-2.15235 0.21578,-4.30132 0.48149,-6.439646 0.21343,-1.933511 0.21503,-3.864717 0.18454,-5.80946 0,-4.545686 6.42858,-4.545686 6.42858,0 z"
       inkscape:connector-curvature="0" />
    <path
       style="fill:#000000;stroke-width:0.60000002;stroke-miterlimit:4;stroke-dasharray:none"
       id="path5326"
       d="m 27.469642,358.17632 c 1.960995,0.23671 3.889437,0.66773 5.839578,0.97442 1.577793,0.14226 3.12808,0.35878 4.667171,0.73774 1.062599,0.24314 2.1536,0.2556 3.229949,0.41133 1.657526,0.33867 3.344108,0.4528 5.03007,0.53285 1.770111,0.1951 3.520179,0.51858 5.294895,0.67456 1.358005,0.10223 2.720589,0.10913 4.081666,0.11588 1.409972,0.0885 2.777221,0.45408 4.179333,0.6016 1.334426,0.12017 2.677386,0.10531 4.016027,0.11124 1.917171,0.004 3.834349,7.9e-4 5.751522,-9e-4 1.758539,-0.001 3.517078,-0.002 5.275618,-0.002 1.934369,-1.7e-4 3.868737,-1.3e-4 5.803106,-1.2e-4 1.851719,10e-6 3.703438,2e-5 5.555157,3e-5 1.991023,0.0356 3.965755,0.36134 5.95022,0.52917 1.65069,0.12842 3.306616,0.16586 4.96162,0.18404 1.61488,0.0103 3.229816,0.006 4.844716,0.004 1.86427,-0.002 3.72854,-0.002 5.59282,-0.003 1.63056,-2.8e-4 3.26112,-2.4e-4 4.89168,-2.4e-4 1.90369,1e-5 3.80738,2e-5 5.71108,3e-5 1.40312,0 2.80625,10e-6 4.20938,10e-6 1.77867,0 3.55735,0 5.33602,0 1.88243,0.0965 3.73402,-0.0566 5.59698,-0.29709 1.3306,-0.20061 2.6677,-0.3347 4.01178,-0.39096 1.72172,-0.0426 3.44435,-0.0316 5.16647,-0.0308 1.51761,0.12468 2.99176,-0.14237 4.47989,-0.38458 1.46714,-0.2392 2.95409,-0.28698 4.43728,-0.31505 1.75515,-0.0206 3.51047,-0.0154 5.26571,-0.0139 1.55233,0.0169 3.0903,0.0534 4.62778,-0.16868 1.57628,-0.26646 3.16749,-0.40542 4.76245,-0.491 1.33259,-0.0598 2.66692,-0.0553 4.00051,-0.0558 1.70799,0.002 3.40107,-0.31399 5.09764,-0.49553 1.28332,-0.13011 2.57167,-0.19058 3.8609,-0.212 1.49389,-0.0116 2.98788,-0.006 4.4818,-0.005 1.34117,-0.16512 2.67121,-0.40003 4.01323,-0.55974 1.09255,-0.14094 2.1954,-0.14624 3.29503,-0.15443 1.4859,-0.004 2.97182,-0.001 4.45772,6.5e-4 0.98045,0.001 1.96089,0.002 2.94133,0.002 1.14953,1.9e-4 2.29906,1.3e-4 3.44859,1.3e-4 1.39953,-2e-5 2.79907,-2e-5 4.1986,-3e-5 1.17103,-0.0372 2.35229,0.0834 3.51579,-0.0693 1.87067,-0.2756 3.75396,-0.44016 5.64026,-0.55837 1.26937,-0.0741 2.54098,-0.0873 3.81213,-0.0913 1.58695,-5.8e-4 3.17391,0.002 4.76086,0.003 1.42944,0.0147 2.84366,0.0542 4.25684,-0.16582 1.60551,-0.28933 3.22934,-0.42685 4.85725,-0.4978 1.86766,-0.0594 3.73659,-0.0536 5.60496,-0.0542 1.70372,7e-4 3.40745,0.003 5.11117,0.004 1.92361,9.8e-4 3.84722,9.9e-4 5.77083,0.001 1.54525,0.0249 3.06787,-0.31579 4.59895,-0.49594 1.43499,-0.15413 2.87856,-0.19645 4.32064,-0.21677 1.12453,-0.0108 2.24915,-0.006 3.37371,-0.005 1.26573,0.002 2.53147,0.002 3.79721,0.003 1.27894,2.8e-4 2.55789,2.5e-4 3.83684,2.4e-4 1.23728,-1e-5 2.47456,-2e-5 3.71184,-3e-5 1.33377,0 2.66753,0 4.0013,0 1.21023,0 2.42046,0 3.6307,0 1.42227,-0.0232 2.83247,-0.321 4.24602,-0.49404 1.31844,-0.14595 2.63485,-0.12941 3.93835,-0.37071 1.74044,-0.31385 3.50487,-0.4413 5.26923,-0.51768 1.41086,0.0764 2.77306,-0.23219 4.15692,-0.44474 1.38543,-0.0984 2.73378,-0.31728 4.09543,-0.57481 1.7485,-0.31893 3.52898,-0.38535 5.3016,-0.4342 1.62386,-0.23929 3.24841,-0.46016 4.88416,-0.59945 1.35054,-0.0744 2.66963,-0.41494 4.00552,-0.62047 1.14352,-0.0586 2.20814,-0.41668 3.33425,-0.61602 1.69512,-0.26438 3.36818,-0.61925 5.07611,-0.81809 1.7598,-0.38352 3.54177,-0.63515 5.33423,-0.79872 1.30633,-0.009 2.55742,-0.14344 3.82954,-0.40404 1.29479,-0.17815 2.56515,-0.43334 3.84584,-0.68991 1.34364,-0.25533 2.70685,-0.37662 4.07092,-0.4507 0.67978,-0.0315 1.36031,-0.0306 2.04062,-0.0288 0.56191,0.003 1.12383,0.004 1.68576,0.005 0.1528,0.007 1.07956,-0.2775 1.92686,-0.45183 0.43959,-0.0855 0.88012,-0.16754 1.32364,-0.23007 0.50864,-0.0523 1.02052,-0.0372 1.53094,-0.0347 1.06604,-0.14183 3.63596,2.26038 2.56491,1.02943 3.38072,3.03875 -0.91673,7.81981 -4.29744,4.78106 l 0,0 c -2.05267,-2.08217 3.08551,0.86443 1.70073,0.618 -0.14277,-7.1e-4 -1.149,0.0164 -0.61607,-0.0261 -0.30796,0.0441 -0.61371,0.10241 -0.91922,0.16076 -1.06908,0.21663 -2.12014,0.59777 -3.22295,0.58208 -0.56481,-7.6e-4 -1.12962,-0.002 -1.69443,-0.005 -0.55951,-0.002 -1.1192,-0.004 -1.67838,0.0195 -1.05736,0.0561 -2.11462,0.14316 -3.15715,0.33552 -1.26895,0.25237 -2.53213,0.51042 -3.81447,0.68357 -1.5045,0.3082 -3.00531,0.49503 -4.54351,0.50895 -1.74165,0.15401 -3.46178,0.44198 -5.17641,0.78256 -1.59618,0.18046 -3.15617,0.52741 -4.7412,0.77064 -1.1523,0.17569 -2.2608,0.59512 -3.43632,0.63239 -1.4779,0.22141 -2.9357,0.60434 -4.43295,0.67091 -1.7578,0.14599 -3.49484,0.44015 -5.24877,0.61975 -1.43082,0.0383 -2.86974,0.0785 -4.28284,0.32481 -1.43289,0.27045 -2.86132,0.51048 -4.31733,0.61272 -1.61141,0.24506 -3.21393,0.57649 -4.85434,0.51274 -1.47149,0.0618 -2.94366,0.16108 -4.3957,0.42025 -1.43043,0.25579 -2.86259,0.31978 -4.30879,0.42682 -1.67087,0.20233 -3.33602,0.54955 -5.02331,0.54121 -1.21024,0 -2.42047,0 -3.6307,0 -1.33376,0 -2.66751,0 -4.00127,10e-6 -1.23728,0 -2.47457,1e-5 -3.71185,2e-5 -1.27961,10e-6 -2.55923,4e-5 -3.83884,-2.4e-4 -1.26799,-3.9e-4 -2.53597,-0.001 -3.80396,-0.003 -1.09199,-0.001 -2.18402,-0.006 -3.27599,0.004 -1.22278,0.0166 -2.44699,0.0485 -3.66424,0.17403 -1.7784,0.20561 -3.54598,0.59616 -5.34459,0.5393 -1.92496,-7e-5 -3.84993,-8e-5 -5.7749,-0.001 -1.70159,-0.001 -3.40318,-0.003 -5.10477,-0.004 -1.77822,5.7e-4 -3.55695,-0.005 -5.33455,0.0484 -1.39817,0.0573 -2.79173,0.17914 -4.16987,0.4315 -1.73577,0.25638 -3.46946,0.27919 -5.22199,0.23789 -1.57852,-0.001 -3.15705,-0.004 -4.73558,-0.003 -1.1442,0.003 -2.28884,0.0136 -3.43151,0.0789 -1.80559,0.11229 -3.60691,0.27661 -5.39765,0.5386 -1.38537,0.12014 -2.76878,0.11429 -4.15899,0.10157 -1.39953,10e-6 -2.79906,2e-5 -4.19859,3e-5 -1.15003,0 -2.30005,6e-5 -3.45008,-1.3e-4 -0.9825,-2.2e-4 -1.96499,-7.5e-4 -2.94748,-0.002 -1.46777,-0.002 -2.93554,-0.005 -4.4033,-8.2e-4 -0.86238,0.006 -1.72827,3.1e-4 -2.58534,0.10994 -1.59431,0.188 -3.17028,0.51585 -4.77583,0.6044 -1.45729,-0.001 -2.91462,-0.006 -4.37187,0.004 -1.09646,0.0171 -2.19211,0.0677 -3.28369,0.17665 -1.92175,0.20374 -3.8385,0.55555 -5.77593,0.53171 -1.22057,5.1e-4 -2.44181,-0.005 -3.66156,0.0467 -1.41023,0.0744 -2.81652,0.19774 -4.20965,0.43754 -1.83819,0.25307 -3.67447,0.27171 -5.52799,0.23122 -1.7138,-0.002 -3.42769,-0.007 -5.14142,0.0128 -1.17707,0.0211 -2.35824,0.0476 -3.52343,0.23269 -1.82712,0.29721 -3.65555,0.58462 -5.51518,0.46803 -1.63439,-7.3e-4 -3.2692,-0.0104 -4.90328,0.0256 -1.15653,0.0449 -2.3054,0.17225 -3.45016,0.34348 -2.13398,0.2748 -4.26464,0.44335 -6.41894,0.34985 -1.77867,0 -3.55735,0 -5.33602,0 -1.40314,0 -2.80627,0 -4.2094,-1e-5 -1.90369,-10e-6 -3.80738,-2e-5 -5.71107,-3e-5 -1.63009,0 -3.26018,-4e-5 -4.89026,2.5e-4 -1.8628,4e-4 -3.72559,0.001 -5.58838,0.003 -1.64064,0.001 -3.281304,0.006 -4.921913,-0.004 -1.812829,-0.0203 -3.626578,-0.0637 -5.434509,-0.20672 -1.803817,-0.1539 -3.600637,-0.44139 -5.406,-0.50609 -1.851724,-1e-5 -3.703447,-2e-5 -5.55517,-3e-5 -1.934081,-10e-6 -3.868162,-5e-5 -5.802243,1.2e-4 -1.756926,2.3e-4 -3.513853,6.6e-4 -5.270779,0.002 -1.928649,0.002 -3.857303,0.005 -5.785951,8.3e-4 -1.562521,-0.007 -3.129751,0.005 -4.686418,-0.1493 -1.180208,-0.13251 -2.345915,-0.34307 -3.512493,-0.56355 -1.541236,-0.008 -3.084126,-0.0193 -4.621474,-0.1413 -1.686386,-0.15268 -3.356791,-0.41086 -5.031512,-0.65647 -1.931545,-0.0939 -3.863854,-0.23143 -5.764102,-0.61058 -1.213973,-0.28011 -2.531734,-0.0912 -3.730696,-0.51424 -1.361899,-0.33876 -2.730204,-0.48284 -4.127346,-0.62852 -1.96771,-0.3124 -3.914138,-0.74157 -5.892743,-0.98306 -4.483837,-0.7473 -3.426987,-7.08841 1.056851,-6.3411 z"
       inkscape:connector-curvature="0"
       transform="translate(136.50022,37.376508)" />
    <path
       style="fill:#4d4d4d;fill-opacity:1;fill-rule:nonzero;stroke:none"
       id="path5386"
       d="m 109.6125,197.46203 c 1.68396,0.27359 3.38445,0.4157 5.08663,0.50975 1.4879,0.0713 2.9778,0.0765 4.46706,0.0801 1.62146,8.1e-4 3.24292,-0.002 4.86437,-0.003 1.67281,-0.001 3.34561,-0.001 5.01842,-0.002 1.81253,-9e-5 3.62506,-6e-5 5.43759,-5e-5 2.0007,-0.0399 4.02326,-0.23153 5.99875,-0.56258 1.82893,-0.37207 3.67339,-0.63394 5.53377,-0.77541 1.55415,-0.2835 3.11352,-0.50806 4.66192,-0.82235 1.97274,-0.33169 3.91956,-0.8236 5.8245,-1.43294 1.86212,-0.64958 3.7364,-1.25943 5.61212,-1.87138 1.65463,-0.59189 3.28535,-1.23962 4.91062,-1.90747 1.60085,-0.6205 3.22487,-1.18909 4.81182,-1.84464 1.42481,-0.53085 2.79971,-1.16063 4.08875,-1.96641 1.23073,-0.84122 2.6455,-1.32857 3.94095,-2.04348 1.44922,-0.80854 2.95191,-1.50023 4.48335,-2.13745 1.04051,-0.50644 2.21926,-0.59569 3.24127,-1.13526 1.12021,-0.48362 2.18724,-1.06352 3.32853,-1.49879 0.93572,-0.58518 2.06664,-0.85503 3.11203,-1.20085 1.18266,-0.45019 2.299,-1.0434 3.46556,-1.53167 0.51217,-0.20537 1.02716,-0.40616 1.55554,-0.56637 0.53142,-0.16574 1.0799,-0.13354 1.60148,-0.13083 4.54562,0.0249 4.5104,6.45338 -0.0352,6.42848 l 0,0 c -1.24038,-0.007 -0.67639,0.0375 0.26132,-0.13433 -0.24937,0.081 -0.63606,0.22355 -0.91123,0.33738 -1.3181,0.54546 -2.57141,1.23729 -3.92423,1.70254 -0.99803,0.32782 -1.99753,0.60323 -2.91479,1.13224 -0.97947,0.31481 -1.83704,0.93048 -2.8047,1.28029 -1.14589,0.51723 -2.33563,0.84996 -3.51862,1.25771 -1.33976,0.54963 -2.64663,1.15602 -3.90959,1.86625 -1.19177,0.62576 -2.45026,1.10086 -3.58366,1.83748 -1.59857,0.98558 -3.28383,1.79761 -5.04472,2.45385 -1.5883,0.64398 -3.2007,1.23101 -4.80223,1.84071 -1.77319,0.72735 -3.55362,1.42949 -5.35937,2.0725 -1.89565,0.61772 -3.78993,1.23129 -5.67103,1.89027 -2.12458,0.66315 -4.28365,1.23465 -6.4804,1.60242 -1.81135,0.36725 -3.63563,0.6464 -5.46137,0.93283 -1.68096,0.12258 -3.34299,0.3807 -4.99549,0.71232 -2.317,0.35945 -4.6709,0.61855 -7.01566,0.64351 -1.81236,-10e-6 -3.62471,-4e-5 -5.43706,5e-5 -1.67117,1.3e-4 -3.34235,2.7e-4 -5.01352,0.002 -1.62846,0.001 -3.25693,0.004 -4.8854,0.003 -1.60354,-0.004 -3.20775,-0.0111 -4.80973,-0.0901 -1.93609,-0.10905 -3.87013,-0.27351 -5.78518,-0.58722 -4.48384,-0.74731 -3.42699,-7.08841 1.05685,-6.34111 z"
       inkscape:connector-curvature="0"
       transform="translate(136.50022,37.376508)" />
    <path
       style="fill:#4d4d4d;fill-opacity:1;fill-rule:nonzero;stroke:none"
       id="path5392"
       d="m 191.91489,281.64893 c 0.58725,-1.96979 0.85548,-4.00382 1.23051,-6.01785 0.39802,-2.17641 0.81831,-4.34996 1.30677,-6.50834 0.41379,-1.95957 0.83852,-3.91885 1.20148,-5.88889 0.44687,-1.97651 0.96791,-3.93531 1.38119,-5.91925 0.54694,-2.06953 1.08433,-4.14284 1.68191,-6.19831 0.49647,-1.9913 0.87677,-4.01789 1.21479,-6.04304 0.48775,-2.32011 1.12187,-4.59349 1.46317,-6.94225 0.44704,-2.71936 0.83771,-5.44304 1.4731,-8.12652 0.55544,-2.58345 1.08887,-5.17059 1.68207,-7.74621 0.47866,-2.55229 0.82552,-5.1292 1.34669,-7.67329 0.36792,-1.90374 0.93358,-3.76051 1.30029,-5.66386 0.35116,-1.66467 0.89651,-3.26335 1.53595,-4.83576 0.66947,-1.55417 1.16993,-3.16636 1.69512,-4.77342 0.24796,-1.28643 0.81125,-2.4682 1.23645,-3.69481 0.16356,-0.63886 0.57867,-1.19175 0.75899,-1.80908 0.11094,-0.9764 0.54065,-1.84618 1.0766,-2.65266 -0.13547,0.0902 -0.1532,0.25055 -0.23212,0.37436 -0.24241,0.3803 0.35497,-0.83097 0.57439,-1.22499 0.0917,-0.17286 0.31171,-1.00973 0.096,-0.18035 -0.01,3.4e-4 -0.004,-0.12838 -0.004,-0.1767 -3.1e-4,0.0368 0.003,0.0736 0.005,0.11034 -0.31441,-4.53481 6.09877,-4.97944 6.41317,-0.44464 l 0,0 c 0.005,0.0806 0.009,0.16117 0.0101,0.24192 0.004,0.37896 -0.009,0.75842 -0.0535,1.13505 -0.14523,0.71802 -0.33503,1.40889 -0.65875,2.07163 -0.11,0.21353 -0.40669,0.86618 -0.33968,0.63552 0.0401,-0.1381 0.0728,-0.2803 0.13643,-0.40927 0.052,-0.10548 -0.0632,0.2267 -0.10128,0.33798 -0.2022,0.59108 -0.19903,0.51111 -0.54831,1.17217 -0.0754,-0.98402 0.0302,0.53582 -0.18313,0.74416 -0.24706,0.80229 -0.61184,1.54311 -0.91709,2.29737 -0.43235,1.14471 -0.91548,2.26179 -1.15864,3.47104 -0.5738,1.75195 -1.13329,3.50652 -1.85356,5.20484 -0.48681,1.1857 -0.90793,2.38021 -1.17799,3.63745 -0.38045,1.92809 -0.92731,3.81497 -1.31594,5.74151 -0.54895,2.58417 -0.85136,5.21677 -1.37585,7.80631 -0.59731,2.59345 -1.1318,5.19899 -1.69462,7.79965 -0.60558,2.49668 -0.93267,5.04097 -1.36574,7.57092 -0.35849,2.38954 -0.9451,4.71652 -1.48324,7.06916 -0.38601,2.27515 -0.80627,4.55409 -1.38615,6.78735 -0.56263,1.88926 -1.03233,3.80637 -1.5582,5.70608 -0.4083,1.93558 -0.89984,3.85166 -1.35301,5.77697 -0.38598,2.05348 -0.81879,4.09833 -1.25384,6.14161 -0.47865,2.07663 -0.86963,4.17265 -1.25665,6.2676 -0.37534,1.96683 -0.60071,3.96797 -1.20701,5.88535 -0.7473,4.48384 -7.08841,3.42699 -6.3411,-1.05685 z"
       inkscape:connector-curvature="0"
       transform="translate(136.50022,37.376508)" />
    <path
       style="fill:#4d4d4d;fill-opacity:1;fill-rule:nonzero;stroke:none"
       id="path5394"
       d="m 261.58132,165.35732 c 1.70311,1.05744 3.46434,2.01257 5.21568,2.98609 1.34002,0.82881 2.72278,1.62371 4.20901,2.16078 1.41671,0.59936 2.90263,1.02813 4.39212,1.40882 1.98138,0.55103 3.99264,1.01457 6.0196,1.36515 2.23427,0.34247 4.44666,0.78235 6.69814,1.00366 2.33661,0.0814 4.64981,0.4219 6.97458,0.64522 2.24017,0.0898 4.45032,0.46529 6.67585,0.70638 2.20051,0.20937 4.41195,0.24095 6.62058,0.26557 1.93624,-0.0654 3.84262,0.3126 5.75423,0.55246 1.67165,0.10777 3.33268,0.16659 4.99348,0.40215 1.85646,0.28752 3.73285,0.37775 5.6078,0.43768 2.03369,-0.0683 4.03699,0.27014 6.04925,0.49775 2.06495,0.39741 4.14542,0.68376 6.20597,1.10235 1.89678,0.30934 3.79477,0.61788 5.696,0.90485 1.68189,0.11268 3.31033,0.48286 4.93256,0.91781 0.51397,0.13808 1.04151,0.16974 1.57026,0.18892 0.51295,0.0117 1.02606,0.008 1.53909,0.006 1.04853,-0.087 2.02794,0.29932 2.95323,0.7388 0.0702,0.0344 0.1405,0.0688 0.21075,0.10318 4.08085,2.00248 1.24892,7.77367 -2.83193,5.7712 l 0,0 c -0.0482,-0.0237 -0.0964,-0.0475 -0.14462,-0.0712 -1.53649,-0.7361 1.63705,0.0668 -0.15472,-0.11349 -0.60722,0.003 -1.21456,0.007 -1.82163,-0.0106 -1.00651,-0.0409 -2.0098,-0.14042 -2.98587,-0.40353 -1.39535,-0.37443 -2.78046,-0.69354 -4.23261,-0.77126 -2.00651,-0.30649 -4.01042,-0.62668 -6.0117,-0.96089 -1.87755,-0.38232 -3.77483,-0.62982 -5.65237,-1.01469 -1.84046,-0.21093 -3.66804,-0.53416 -5.52903,-0.4598 -2.11098,-0.0687 -4.22298,-0.17789 -6.31323,-0.49947 -1.62356,-0.23617 -3.25363,-0.23332 -4.88656,-0.38772 -1.66807,-0.212 -3.33141,-0.55716 -5.02054,-0.50215 -2.4174,-0.0273 -4.83776,-0.0668 -7.24567,-0.3031 -2.1992,-0.24145 -4.38225,-0.61042 -6.59623,-0.69819 -2.33227,-0.22611 -4.6522,-0.564 -6.99642,-0.64736 -2.40838,-0.24413 -4.77937,-0.69155 -7.1686,-1.06833 -2.19346,-0.38866 -4.37402,-0.87608 -6.51997,-1.47355 -1.70848,-0.44615 -3.41773,-0.93619 -5.04848,-1.61674 -1.76849,-0.68173 -3.46916,-1.53828 -5.06779,-2.55883 -1.90072,-1.05853 -3.81351,-2.09559 -5.65614,-3.25485 -3.78224,-2.52149 -0.21631,-7.87038 3.56593,-5.34889 z"
       inkscape:connector-curvature="0"
       transform="translate(136.50022,37.376508)" />
    <path
       style="fill:#4d4d4d;fill-opacity:1;fill-rule:nonzero;stroke:none"
       id="path5396"
       d="m 364.77203,168.0775 c 0.31487,-1.97438 0.42482,-3.9733 0.50757,-5.96849 0.0761,-2.18133 0.0788,-4.36432 0.0823,-6.5467 -0.20612,-2.00516 -0.44288,-4.00504 -0.58062,-6.01655 -0.18639,-1.88982 -0.005,-3.80325 -0.21287,-5.68829 -0.29255,-2.17808 -0.45458,-4.36863 -0.55817,-6.56278 -0.0779,-1.83063 -0.083,-3.66312 -0.0865,-5.49506 -3.3e-4,-2.24799 0.002,-4.49599 0.003,-6.74398 0.0391,-2.08814 -0.31104,-4.15792 -0.50267,-6.23303 -0.14189,-1.57954 -0.10032,-3.15973 -0.36802,-4.72329 -0.20499,-1.8296 -0.58955,-3.62103 -1.0462,-5.40181 -0.29076,-1.40959 -0.63838,-2.79527 -1.12856,-4.14889 -0.50308,-1.40951 -0.49966,-2.91392 -0.52447,-4.39051 -0.0131,-1.350412 -0.0113,-2.700931 -0.005,-4.051382 0.002,-0.397243 0.003,-0.794486 0.005,-1.19173 0.0341,-0.768584 -0.3962,-0.821233 0.45538,1.366152 0.0918,0.235906 0.35631,0.451321 0.55175,0.624139 0.16923,0.139165 0.37104,0.216068 0.57584,0.285658 0.0631,0.01725 0.12629,0.0345 0.18943,0.05175 -4.42446,-1.042816 -2.94969,-7.29994 1.47476,-6.257124 l 0,0 c 0.0726,0.01947 0.14513,0.03894 0.21769,0.05842 0.4663,0.154552 0.90934,0.365995 1.31039,0.652861 1.00326,0.795133 1.74013,1.858847 1.65328,3.242903 -0.002,0.398652 -0.003,0.797305 -0.005,1.195957 -0.006,1.306073 -0.008,2.612207 0.004,3.918247 0.0119,0.76729 -0.0328,1.56647 0.14527,2.31709 0.55378,1.54488 0.98034,3.12277 1.30744,4.73089 0.50086,1.95639 0.927,3.92697 1.15905,5.93548 0.28425,1.72497 0.32002,3.45556 0.42942,5.19767 0.207,2.27157 0.58638,4.53682 0.52958,6.82394 -0.001,2.24278 -0.004,4.48557 -0.003,6.72835 0.003,1.73555 0.007,3.47164 0.0794,5.20601 0.0976,2.0954 0.25854,4.18617 0.53737,6.26615 0.16361,1.94668 0.0993,3.90025 0.22592,5.85018 0.14566,2.16021 0.44521,4.30338 0.59542,6.46291 -0.004,2.26862 -0.007,4.53786 -0.0879,6.80533 -0.0954,2.2591 -0.22723,4.52166 -0.5894,6.75638 -0.74731,4.48384 -7.08841,3.42699 -6.34111,-1.05685 z"
       inkscape:connector-curvature="0"
       transform="translate(136.50022,37.376508)" />
    <path
       style="fill:#4d4d4d;fill-opacity:1;fill-rule:nonzero;stroke:none"
       id="path5398"
       d="m 333.1439,54.732081 c -1.94893,-1.599308 -3.91083,-3.190804 -5.96555,-4.653791 -2.43985,-1.825776 -4.72922,-3.838555 -7.01875,-5.846917 -1.73339,-1.498725 -3.57265,-2.857784 -5.40131,-4.234608 -1.44699,-1.236081 -2.98888,-2.340389 -4.54656,-3.429943 -1.62999,-1.189693 -3.16111,-2.499623 -4.82033,-3.650156 -1.66613,-1.205148 -3.32738,-2.417902 -4.97337,-3.650911 -1.21114,-0.777856 -2.34432,-1.669969 -3.58013,-2.408077 -0.98246,-0.640105 -1.99572,-1.222283 -2.99606,-1.830023 -0.83249,-0.551573 -1.71017,-1.007447 -2.58356,-1.485909 -0.94471,-0.441282 -1.92492,-0.800801 -2.88274,-1.216477 -1.06967,-0.394814 -2.15424,-0.774103 -3.26095,-1.058219 -1.56376,-0.433284 -3.05001,-1.084775 -4.47048,-1.862275 -0.71897,-0.414233 -1.46184,-0.840049 -2.25349,-1.103951 -0.95403,-0.579537 -2.02051,-0.849088 -3.05183,-1.247173 -0.4864,-0.24495 -0.99707,-0.360776 -1.53043,-0.424964 -0.9444,-0.01253 -1.7887,-0.397565 -2.55326,-0.917938 -0.29699,-0.245561 -0.5622,-0.524328 -0.8002,-0.826616 -0.0476,-0.06042 -0.19909,-0.231492 -0.13788,-0.184948 1.56806,1.192326 0.70543,0.840331 1.59083,1.159169 0.0824,0.03025 0.16174,0.03696 0.24759,0.0408 0.13048,4.65e-4 -0.39328,0.0033 -0.51722,0.0041 -1.63955,0.06382 -3.31606,-1.730745 -3.42188,-3.349972 -0.003,-0.06776 -0.005,-0.135523 -0.008,-0.203284 -0.14632,-4.5433309 6.27892,-4.7502475 6.42524,-0.206916 l 0,0 c 1e-4,0.01371 2e-4,0.02742 3e-4,0.04113 -1.03496,-0.875699 -4.3883,-2.7535398 -3.0333,-2.7094262 0.20368,-0.00118 0.40737,-0.00228 0.61104,-0.00391 0.40861,0.00749 0.81622,0.049679 1.21521,0.1410826 0.20062,0.061507 0.42428,0.072719 0.60186,0.1845222 2.44647,1.540349 1.80801,1.440233 1.22234,0.878866 -0.82696,-0.487918 0.0354,-0.03082 -1.63357,-0.493379 -1.09609,-0.3037813 2.14892,0.259764 1.01468,0.07124 1.04185,0.139116 2.06731,0.374057 3.0306,0.806837 1.02209,0.398843 2.12327,0.648306 3.05195,1.247217 1.05601,0.427609 2.09776,0.915482 3.07889,1.493564 0.92768,0.555841 1.94642,0.935461 2.9748,1.254172 1.427,0.388281 2.83865,0.853893 4.21432,1.39434 1.12348,0.5211 2.3082,0.89995 3.4062,1.477908 0.9569,0.554366 1.95066,1.044743 2.87461,1.65841 0.92043,0.644985 1.97087,1.110551 2.8895,1.764454 1.41792,0.858307 2.74196,1.855916 4.12204,2.773058 1.58445,1.190288 3.18747,2.356257 4.79152,3.519399 1.65726,1.159565 3.21414,2.441939 4.82956,3.656602 1.61901,1.132588 3.22492,2.279355 4.72967,3.562891 1.95542,1.473788 3.92066,2.931746 5.77303,4.536979 2.12847,1.867742 4.25412,3.741864 6.5157,5.448203 2.1804,1.56176 4.27424,3.24253 6.34442,4.946311 3.49209,2.910078 -0.62338,7.848643 -4.11548,4.938566 z"
       inkscape:connector-curvature="0"
       transform="translate(136.50022,37.376508)" />
    <path
       style="fill:#4d4d4d;fill-opacity:1;fill-rule:nonzero;stroke:none"
       id="path5400"
       d="m 223.00932,29.827416 c -1.89168,1.429576 -3.98598,2.556711 -6.10413,3.609674 -2.21343,1.121685 -4.51993,2.034248 -6.75827,3.102734 -2.29716,1.125258 -4.49344,2.439358 -6.80878,3.528372 -1.69422,0.893517 -3.44022,1.694905 -5.26337,2.283187 -1.67462,0.524862 -3.32035,1.129738 -4.97189,1.722448 -1.72343,0.60709 -3.46778,1.13784 -5.21904,1.659405 -1.89796,0.488973 -3.80336,0.941238 -5.74094,1.24262 -1.70929,0.415808 -3.46061,0.595416 -5.16135,1.042483 -1.5237,0.422871 -3.09614,0.585413 -4.64939,0.859394 -2.01062,0.262761 -4.01496,0.533998 -6.01936,0.844888 -1.42873,0.171351 -2.83543,0.298416 -4.22648,0.667655 -0.87111,0.273175 -1.76717,0.42455 -2.67547,0.489773 -1.12758,0.123022 -2.28958,0.277648 -3.39677,0.553044 -1.39912,0.363505 -2.82283,0.624672 -4.25752,0.797071 0.0491,0.0027 0.18484,-0.02353 0.14719,0.008 -0.40074,0.33616 -1.66971,0.528936 -2.18243,0.632793 -0.75652,0.113578 -1.52121,0.160902 -2.2854,0.179963 -1.59293,-0.03273 -1.48698,0.449591 2.52367,-1.681073 -0.0439,0.09057 -0.0877,0.181132 -0.13157,0.271698 -1.98482,4.089472 -7.7682,1.282522 -5.78339,-2.80695 l 0,0 c 0.032,-0.06567 0.0639,-0.131351 0.0959,-0.197026 1.09775,-0.667166 2.1955,-1.334331 3.29325,-2.001496 -0.0502,-0.0035 -0.20068,-0.01304 -0.15041,-0.01191 0.42092,-0.0091 0.84095,-0.03729 1.26039,-0.07301 0.85366,-0.08967 1.59575,-0.669806 2.46758,-0.706269 1.20911,-0.13437 2.40385,-0.380131 3.58177,-0.681401 1.45367,-0.313684 2.93766,-0.56382 4.41716,-0.69956 0.49237,-0.01651 0.96986,-0.15159 1.44077,-0.290803 1.60544,-0.419405 3.22824,-0.634144 4.87689,-0.803229 1.96017,-0.303736 3.92059,-0.57519 5.88774,-0.823083 1.38719,-0.244577 2.7909,-0.387472 4.15345,-0.751591 1.91404,-0.490674 3.87154,-0.738989 5.79876,-1.17361 1.64907,-0.248594 3.26481,-0.649727 4.88244,-1.049976 1.63876,-0.487197 3.27191,-0.97514 4.88257,-1.549105 1.74199,-0.624134 3.47896,-1.259318 5.24482,-1.813484 1.56223,-0.436884 2.99532,-1.272027 4.44959,-1.969956 2.30743,-1.056051 4.45604,-2.4237 6.75328,-3.502242 2.21185,-1.053119 4.4868,-1.95888 6.67482,-3.062207 1.70933,-0.83985 3.39841,-1.741558 4.938,-2.867138 3.54958,-2.839668 7.56548,2.180203 4.0159,5.019871 z"
       inkscape:connector-curvature="0"
       transform="translate(136.50022,37.376508)" />
  </g>
</svg>
