<?xml version="1.0" encoding="UTF-8" standalone="no"?>
<!-- Created with Inkscape (http://www.inkscape.org/) -->

<svg
   xmlns:dc="http://purl.org/dc/elements/1.1/"
   xmlns:cc="http://creativecommons.org/ns#"
   xmlns:rdf="http://www.w3.org/1999/02/22-rdf-syntax-ns#"
   xmlns:svg="http://www.w3.org/2000/svg"
   xmlns="http://www.w3.org/2000/svg"
   xmlns:sodipodi="http://sodipodi.sourceforge.net/DTD/sodipodi-0.dtd"
   xmlns:inkscape="http://www.inkscape.org/namespaces/inkscape"
   width="328.23727"
   height="323.68719"
   id="svg3838"
   version="1.1"
   inkscape:version="0.48.5 r10040"
   sodipodi:docname="network_thin.svg">
  <defs
     id="defs3840" />
  <sodipodi:namedview
     id="base"
     pagecolor="#ffffff"
     bordercolor="#666666"
     borderopacity="1.0"
     inkscape:pageopacity="0.0"
     inkscape:pageshadow="2"
     inkscape:zoom="1.4"
     inkscape:cx="264.80574"
     inkscape:cy="137.02892"
     inkscape:document-units="px"
     inkscape:current-layer="layer1"
     showgrid="false"
     inkscape:window-width="1656"
     inkscape:window-height="964"
     inkscape:window-x="89"
     inkscape:window-y="44"
     inkscape:window-maximized="0"
     fit-margin-top="0"
     fit-margin-left="0"
     fit-margin-right="0"
     fit-margin-bottom="0" />
  <metadata
     id="metadata3843">
    <rdf:RDF>
      <cc:Work
         rdf:about="">
        <dc:format>image/svg+xml</dc:format>
        <dc:type
           rdf:resource="http://purl.org/dc/dcmitype/StillImage" />
        <dc:title></dc:title>
      </cc:Work>
    </rdf:RDF>
  </metadata>
  <g
     inkscape:label="Layer 1"
     inkscape:groupmode="layer"
     id="layer1"
     transform="translate(-136.50022,-86.379181)">
    <path
       style="fill:#008000"
       id="path3896"
       d="m 317.78274,246.25329 c -0.63886,-1.55455 -1.59727,-2.87291 -2.92273,-3.89934 -1.06018,-0.66745 -2.35884,-0.63866 -3.57054,-0.70077 -1.98652,0.0422 -3.8988,0.57342 -5.80123,1.09213 -1.89428,0.54582 -3.55725,1.59271 -5.18749,2.66744 -1.74351,1.2712 -3.41092,2.64759 -5.08002,4.01531 -1.72048,1.46214 -3.3915,3.03678 -4.70444,4.88247 -0.93892,1.39023 -1.8465,2.83307 -2.34738,4.44426 -0.27228,0.85736 -0.3125,1.75684 -0.33134,2.6488 -0.007,0.63207 -0.0471,1.38248 0.10609,1.82919 0.36586,0.27759 0.72819,0.62671 1.13975,0.87051 0.63637,0.26662 1.31965,0.33554 2.00068,0.38082 1.5896,0.33387 3.19071,0.52222 4.81059,0.62361 2.07275,0.07 4.15413,0.19303 6.22456,0.0369 2.13767,-0.16679 4.25331,-0.62216 6.2763,-1.33014 1.82938,-0.74453 3.57849,-1.63817 5.29608,-2.60942 1.36907,-0.74683 2.70731,-1.55272 3.96177,-2.48123 0.2784,-0.20605 0.61241,-0.35955 0.82257,-0.63486 0.19421,-0.25443 0.23055,-0.59719 0.34582,-0.89579 2.01026,-3.89731 3.02328,-8.17613 3.66174,-12.48507 0.0609,-0.57453 0.12187,-1.14905 0.18281,-1.72357 0.43194,-4.01746 6.11348,-3.40661 5.68155,0.61085 l 0,0 c -0.0711,0.65323 -0.14213,1.30646 -0.2132,1.9597 -0.76875,5.07859 -2.00264,10.11213 -4.46511,14.66333 -0.57065,0.80056 -1.07232,1.65507 -1.71195,2.40167 -0.27431,0.32019 -0.66447,0.5194 -1.00434,0.76891 -1.41348,1.03768 -2.91272,1.9504 -4.45043,2.79101 -2.02475,1.14341 -4.09405,2.18739 -6.2596,3.04178 -2.50478,0.8416 -5.09633,1.43891 -7.73818,1.62407 -2.32264,0.14451 -4.65039,0.0727 -6.97428,-0.0354 -1.63491,-0.10602 -3.27657,-0.23409 -4.87229,-0.62788 -1.67013,-0.13306 -3.31055,-0.4487 -4.76314,-1.33693 -1.49289,-1.04394 -2.8501,-2.27127 -3.44886,-4.0526 -0.31066,-1.16258 -0.3802,-2.32543 -0.32162,-3.5243 0.037,-1.45361 0.15939,-2.91018 0.61645,-4.3012 0.73688,-2.16994 1.84416,-4.17512 3.17172,-6.04271 1.64751,-2.19476 3.56218,-4.17656 5.68681,-5.91739 1.82455,-1.49384 3.64451,-3.00165 5.56444,-4.37122 2.13655,-1.39827 4.33865,-2.71501 6.82129,-3.40403 2.4918,-0.67892 5.01052,-1.31884 7.61546,-1.28474 2.44712,0.13997 4.86794,0.42666 6.87395,1.98107 2.05599,1.72533 3.6799,3.79224 4.65819,6.3184 1.41875,3.78334 -3.9317,5.78976 -5.35045,2.00642 z"
       inkscape:connector-curvature="0" />
    <path
       style="fill:#008000"
       id="path3898"
       d="m 325.45612,93.352514 c -1.94815,-0.74408 -3.95318,-1.222114 -6.03716,-1.261195 -1.09485,0.0821 -2.07655,0.496014 -2.98766,1.088529 -1.42644,0.968593 -2.41493,2.403842 -3.52394,3.694185 -1.49371,1.812677 -3.04961,3.594927 -4.23881,5.628517 -0.77153,1.14808 -1.23553,2.3903 -1.43124,3.74864 -0.19809,1.23016 0.0421,2.41947 0.45656,3.57885 0.51433,1.43744 0.90691,3.04292 1.95551,4.20318 0.66853,0.65583 1.46758,1.25235 2.34998,1.58681 0.83161,0.26821 1.56863,0.7456 2.43533,0.89144 1.28802,0.17192 2.562,0.13086 3.84423,-0.0367 1.64884,-0.32972 3.18109,-1.00187 4.71239,-1.67568 1.47169,-0.62517 2.73418,-1.56658 4.01847,-2.49786 0.86967,-0.84214 2.11457,-1.17464 3.04536,-1.91268 0.87169,-0.78844 1.42937,-1.87103 1.90156,-2.93248 0.59823,-1.51936 0.85726,-3.15081 0.77789,-4.77823 -0.39169,-2.35348 -1.3615,-4.576817 -2.23685,-6.784603 -0.65479,-1.813618 -0.34982,-0.912496 -0.91774,-2.702414 -1.21569,-3.853391 4.23382,-5.572641 5.44952,-1.719251 l 0,0 c 0.47554,1.517691 0.21653,0.743884 0.7819,2.31979 1.1172,2.830278 2.35023,5.684906 2.63567,8.743778 0.0302,2.51461 -0.29563,5.00699 -1.31029,7.33331 -0.95164,1.99085 -2.07668,3.94393 -3.89916,5.26613 -0.95181,0.61039 -1.97997,1.09869 -2.87584,1.79451 -1.6142,1.16802 -3.23578,2.31618 -5.07934,3.10485 -2.03181,0.88536 -4.08127,1.74567 -6.28295,2.1095 -1.90424,0.23691 -3.81478,0.27663 -5.7161,-0.0348 -1.245,-0.27367 -2.38407,-0.7619 -3.55719,-1.24585 -1.71204,-0.77706 -3.29764,-1.8255 -4.53753,-3.25805 -1.36934,-1.78797 -2.28781,-3.80718 -2.9169,-5.97073 -0.65175,-2.04 -1.03889,-4.12935 -0.67923,-6.27151 0.34145,-2.06763 1.00994,-4.02001 2.16741,-5.785458 1.38948,-2.301401 3.08319,-4.386922 4.81991,-6.434711 1.4968,-1.728782 2.86718,-3.605001 4.85015,-4.82508 1.88897,-1.135699 3.9064,-1.906983 6.14342,-1.93807 2.7162,0.08885 5.34957,0.638839 7.88909,1.62294 3.78334,1.418753 1.77692,6.769206 -2.00642,5.350453 z"
       inkscape:connector-curvature="0" />
    <path
       style="fill:#008000"
       id="path3900"
       d="m 444.20014,145.94304 c -0.52054,-1.74788 -1.07088,-3.49267 -2.01023,-5.06486 -0.0486,-0.0393 -0.12409,-0.17645 -0.14582,-0.11785 -0.0289,0.0779 0.0985,0.1429 0.10585,0.22566 0.0117,0.1313 -0.26363,0.0272 -0.39508,0.0173 -1.02535,-0.0772 -0.3165,-0.0364 -1.54867,-0.0888 -2.58551,-0.0503 -5.17191,-0.0165 -7.75768,-0.003 -2.36838,-0.1476 -4.09724,0.25224 -6.05552,1.55292 -2.21411,1.47076 -3.68617,3.65997 -5.28596,5.72061 -1.49319,1.98137 -2.98297,4.0266 -3.88795,6.35148 -0.80111,1.7604 -1.20651,3.62525 -1.39728,5.53839 -0.14575,1.51874 -0.15968,3.06422 0.42368,4.49438 0.60571,1.17627 1.72071,1.97174 2.73668,2.77376 1.47438,1.26606 3.0631,2.36917 4.74144,3.34527 1.1886,0.87056 2.48001,1.52685 3.88419,1.96135 1.52459,0.35217 3.0946,0.3873 4.65151,0.42564 1.5185,0.12816 2.93601,0.01 4.38788,-0.40834 1.48716,-0.58333 2.79728,-1.52778 4.05182,-2.49992 1.52151,-1.42704 2.90803,-2.96327 4.04401,-4.71249 1.4956,-2.26673 2.20516,-4.82533 2.63606,-7.47286 0.19041,-1.96562 0.6067,-4.0045 0.10861,-5.96104 -0.2196,-0.86262 -0.55103,-1.4663 -0.92757,-2.26813 -0.77663,-0.8833 -0.35028,-0.49544 -1.27177,-1.17155 -3.06042,-2.63825 0.67062,-6.96634 3.73104,-4.32809 l 0,0 c 2.04702,1.88228 1.12563,0.83453 2.75154,3.15432 0.66864,1.52808 1.01992,2.12869 1.37346,3.80426 0.53877,2.5534 0.18437,5.16182 -0.12974,7.71549 -0.58834,3.42729 -1.5569,6.73835 -3.4987,9.66962 -1.5038,2.26168 -3.28685,4.30166 -5.33011,6.09762 -1.83445,1.40614 -3.76642,2.73377 -5.97903,3.4701 -2.00687,0.56287 -4.0073,0.77626 -6.091,0.62349 -2.10062,-0.0537 -4.21806,-0.13419 -6.25627,-0.69784 -1.78708,-0.58747 -3.50108,-1.35548 -5.027,-2.47266 -1.89869,-1.12089 -3.72029,-2.35572 -5.39624,-3.79319 -1.86357,-1.47769 -3.65939,-3.05141 -4.56736,-5.3194 -0.77436,-2.27978 -1.02644,-4.62276 -0.7305,-7.02338 0.26381,-2.44399 0.7777,-4.84041 1.78702,-7.09666 1.16395,-2.78815 2.80693,-5.32963 4.66964,-7.7061 2.01269,-2.58691 3.94086,-5.26216 6.75972,-7.05381 2.89384,-1.75862 5.639,-2.63658 9.06413,-2.42745 2.68464,-0.0139 5.37006,-0.0507 8.05433,0.009 2.56884,0.12838 5.11741,0.43425 6.64989,2.788 1.18537,2.05581 1.98698,4.2791 2.62065,6.56272 0.97999,3.91996 -4.56368,5.30588 -5.54367,1.38591 z"
       inkscape:connector-curvature="0" />
    <path
       style="fill:#008000"
       id="path3904"
       d="m 275.5154,381.98703 c -1.8113,-1.56239 -4.05262,-2.25317 -6.34845,-2.72801 -2.61138,-0.60473 -5.09751,-0.24074 -7.63618,0.45097 -3.22127,1.12148 -5.90515,3.23422 -8.48789,5.39498 -2.82634,2.41912 -5.06039,5.34027 -6.94658,8.52322 -1.1072,2.00308 -1.51095,3.61943 -0.82061,5.79306 0.85902,1.56739 2.12527,2.85151 3.37461,4.10931 0.9724,0.86727 2.39723,0.84474 3.63414,0.82163 2.73072,-0.0509 5.42403,-0.52352 8.12748,-0.86471 2.00624,-0.12605 3.93755,-0.54013 5.78582,-1.31758 2.01396,-0.86411 3.67948,-2.23763 5.35067,-3.61916 2.02093,-1.64772 2.79604,-3.94386 3.36391,-6.40118 0.81359,-3.98951 0.80526,-7.97215 -0.13231,-11.9238 -0.86493,-2.46774 -0.3575,-1.25781 -1.52697,-3.62784 -1.75104,-3.64148 3.39879,-6.11782 5.14984,-2.47634 l 0,0 c 1.50205,3.1853 0.857,1.57208 1.94852,4.83428 0.18376,0.83183 0.41198,1.65506 0.55127,2.49548 0.66341,4.00283 0.28355,8.07922 -0.43665,12.04336 -0.91192,3.64413 -2.27641,7.02677 -5.27911,9.46221 -2.11083,1.74134 -4.26336,3.42438 -6.80944,4.4952 -2.32518,0.94638 -4.73627,1.54165 -7.25059,1.70475 -2.95063,0.37182 -5.89176,0.88084 -8.87381,0.90953 -2.80075,-0.0537 -5.57486,-0.45054 -7.66093,-2.51284 -1.93162,-1.95178 -3.83289,-3.98949 -4.82247,-6.60363 -1.02708,-3.97928 -0.54245,-6.62875 1.41729,-10.24601 2.23035,-3.72807 4.86928,-7.15603 8.19514,-9.98662 3.22772,-2.68645 6.61897,-5.23806 10.67521,-6.52835 3.41044,-0.89545 6.81373,-1.31301 10.30292,-0.51823 3.19551,0.69839 6.29023,1.75666 8.81337,3.92649 3.10408,2.58673 -0.55411,6.97657 -3.6582,4.38983 z"
       inkscape:connector-curvature="0" />
    <path
       style="fill:#000000"
       id="path3910"
       d="m 326.53142,128.22563 c 0.59844,2.89903 0.93276,5.84283 1.15688,8.7917 0.26246,2.18936 0.0929,4.35102 -0.165,6.52667 -0.26555,2.39273 -0.31262,4.80192 -0.35416,7.20672 0.14969,2.56754 0.39207,5.12827 0.54871,7.69557 0.10362,1.73679 0.13048,3.47659 0.1415,5.216 0.005,1.73643 0.002,3.47287 3e-5,5.20929 -0.002,1.89306 -0.002,3.78613 -0.002,5.67919 -1.6e-4,1.6039 -1.4e-4,3.20781 -1.4e-4,4.81171 -0.0439,1.80421 -0.35021,3.60846 -0.64197,5.38962 -0.46107,2.27397 -0.52843,4.59567 -0.81355,6.89092 -0.31892,2.00452 -0.53725,4.01902 -0.85281,6.02386 -0.29004,2.5352 -0.69696,5.05409 -0.95405,7.59341 -0.0829,2.37653 -0.45126,4.72095 -0.7609,7.07404 -0.10746,1.49504 -0.46935,2.94459 -0.90697,4.3724 -0.43104,1.67758 -0.76104,3.38429 -1.06717,5.09006 -0.17585,1.11966 -0.32428,2.24411 -0.42875,3.37278 -0.0992,0.98893 -0.5462,1.72247 -0.85866,2.22829 -0.62667,1.00348 -0.95853,2.12956 -1.37928,3.22744 -0.0662,0.1964 -0.13234,0.39281 -0.19852,0.58922 -1.30266,3.82486 -6.71184,1.98261 -5.40917,-1.84225 l 0,0 c 0.0907,-0.26413 0.18135,-0.52826 0.27203,-0.79239 0.55436,-1.44569 1.04821,-2.91512 1.88239,-4.23153 0.16148,-0.24193 0.50833,-1.02736 0.46216,-0.74018 -0.45022,2.80033 -0.54639,1.65219 -0.46061,1.03149 0.12082,-1.29077 0.28865,-2.57707 0.49482,-3.85694 0.35226,-1.94539 0.72474,-3.89461 1.24341,-5.80208 0.37217,-1.10312 0.6003,-2.23193 0.68903,-3.393 0.30329,-2.2977 0.66481,-4.58508 0.74132,-6.90639 0.27064,-2.64255 0.68619,-5.265 0.99413,-7.90284 0.30705,-1.9508 0.51736,-3.91133 0.82967,-5.86175 0.3154,-2.36273 0.34821,-4.76331 0.84506,-7.1047 0.25083,-1.46923 0.50365,-2.96376 0.56411,-4.44945 -1e-5,-1.60416 -3e-5,-3.20832 1.3e-4,-4.81249 2.5e-4,-1.89443 6.3e-4,-3.78886 0.002,-5.68328 0.001,-1.72285 0.005,-3.44569 8e-5,-5.16853 -0.0102,-1.63555 -0.0341,-3.27149 -0.13106,-4.90462 -0.16502,-2.71579 -0.44108,-5.42368 -0.55841,-8.14207 0.0453,-2.59643 0.10159,-5.19727 0.39303,-7.78017 0.21487,-1.81258 0.38695,-3.59605 0.14152,-5.42342 -0.20106,-2.67709 -0.50163,-5.34953 -1.03706,-7.98269 -0.87653,-3.94439 4.70169,-5.184 5.57822,-1.23961 z"
       inkscape:connector-curvature="0" />
    <path
       style="fill:#000000"
       id="path3912"
       d="m 305.61137,282.73238 c -0.33775,3.2091 -0.832,6.40077 -1.27968,9.59629 -0.49105,3.49637 -0.62953,7.02631 -0.71844,10.55152 -0.20485,3.1992 -0.46155,6.39286 -0.86206,9.57344 -0.3619,2.97083 -0.85694,5.92483 -1.32213,8.88124 -0.44486,3.1327 -0.93754,6.25266 -1.20227,9.40734 -0.26551,2.56848 -0.55996,5.12475 -1.39028,7.57799 -0.6519,1.68649 -1.37758,3.33473 -1.81268,5.09366 -0.48016,2.45702 -0.87457,4.92796 -1.35657,7.38458 -0.46034,2.40668 -1.29305,4.69634 -2.33397,6.90624 -0.63419,1.29995 -1.38824,2.55354 -2.20723,3.7473 -0.62592,0.99362 -1.28032,1.95008 -1.78171,3.01594 -0.84468,1.51888 -1.55062,3.11183 -2.44102,4.60447 -0.36478,0.58178 -0.74971,1.15384 -1.21025,1.66462 -0.0664,0.0944 -0.79532,0.72377 -0.20325,0.23281 -2.05344,3.47993 -6.9748,0.57593 -4.92136,-2.904 l 0,0 c 0.50374,-0.71396 1.2638,-1.65128 0.9432,-1.22354 -0.0909,0.10702 0.47531,-0.62131 0.49506,-0.71544 0.81251,-1.33389 1.41606,-2.78502 2.19084,-4.14161 0.65245,-1.33151 1.43873,-2.5658 2.24482,-3.80682 0.66837,-0.91715 1.22377,-1.93533 1.73729,-2.9422 0.86564,-1.76161 1.49405,-3.61167 1.88023,-5.53809 0.50282,-2.56204 0.90325,-5.14124 1.42765,-7.69945 0.50057,-1.915 1.20755,-3.74519 1.95839,-5.57451 0.74402,-1.9674 0.78636,-4.10157 1.08685,-6.16311 0.27985,-3.2907 0.78261,-6.54714 1.25146,-9.81463 0.45634,-2.89852 0.94352,-5.79443 1.29747,-8.70717 0.37722,-2.9917 0.61608,-5.99516 0.81907,-9.00383 0.0953,-3.74215 0.24904,-7.48877 0.77193,-11.2 0.44061,-3.1415 0.92819,-6.27914 1.2593,-9.43407 0.44622,-4.0159 6.12555,-3.38486 5.67934,0.63103 z"
       inkscape:connector-curvature="0" />
    <path
       style="fill:#000000"
       id="path3916"
       d="m 291.77266,234.40212 c -3.67164,-0.21519 -7.04905,-1.65977 -10.25557,-3.35395 -4.045,-2.48767 -7.68364,-5.5645 -11.21324,-8.72376 -3.69201,-3.51955 -7.1407,-7.27772 -10.64069,-10.98466 -3.03603,-3.24277 -6.13955,-6.41519 -9.38534,-9.44772 -3.08996,-2.8385 -6.12075,-5.73973 -9.1231,-8.67038 -2.45783,-2.46855 -4.96395,-4.88552 -7.47274,-7.30067 -1.3781,-1.01747 -2.30327,-2.42489 -3.28623,-3.78997 -0.9825,-1.26715 -2.13244,-2.38833 -3.1826,-3.59729 -1.66767,-1.71391 -3.04601,-3.6737 -4.50696,-5.55832 -0.97062,-1.13823 -1.84862,-2.36936 -2.908,-3.42946 -1.3921,-1.44898 -2.71532,-2.96634 -4.09111,-4.43308 -1.68161,-1.79629 -3.46012,-3.51991 -4.91513,-5.50987 -2.34844,-3.28806 2.30158,-6.60926 4.65003,-3.3212 l 0,0 c 1.24406,1.82274 2.99168,3.26442 4.43334,4.92226 1.36755,1.45867 2.67949,2.9712 4.06724,4.40777 1.15231,1.24095 2.23013,2.54651 3.2862,3.87081 1.39158,1.8075 2.71119,3.68067 4.30959,5.3167 1.1533,1.34651 2.45357,2.56732 3.50241,4.00347 0.78368,1.09787 1.4651,2.21302 2.60656,3.00367 2.51469,2.42651 5.03492,4.84659 7.49896,7.3261 2.97258,2.9018 5.97359,5.77418 9.03316,8.58448 3.3321,3.11465 6.52173,6.3695 9.63866,9.69975 3.39119,3.59176 6.73256,7.23279 10.3001,10.65276 3.18418,2.85936 6.47029,5.6353 10.08835,7.9368 2.55677,1.38039 5.25148,2.56817 8.19714,2.71643 4.0159,0.44621 3.38486,6.12554 -0.63103,5.67933 z"
       inkscape:connector-curvature="0" />
    <path
       style="fill:#000000"
       id="path3918"
       d="m 330.36598,240.32431 c 2.49453,-1.82132 5.01128,-3.61054 7.43596,-5.52497 3.12755,-2.43938 6.24048,-4.89801 9.33107,-7.38414 3.86601,-3.14454 7.77366,-6.23204 11.76242,-9.2198 3.81018,-2.80724 7.7998,-5.35599 11.67188,-8.07474 3.15014,-2.15232 6.39052,-4.16797 9.56531,-6.285 2.83165,-1.99367 5.52979,-4.17029 8.2638,-6.29518 2.65143,-2.06265 5.48024,-3.87837 8.21383,-5.8265 2.26872,-1.58477 4.5445,-3.15919 6.76991,-4.8046 2.54099,-1.75501 5.007,-3.61046 7.41332,-5.54614 1.46833,-1.3599 3.1123,-2.44262 4.92507,-3.27574 3.68291,-1.66216 6.03355,3.54626 2.35064,5.20841 l 0,0 c -1.38836,0.60742 -2.57896,1.49433 -3.69541,2.52093 -2.46799,1.9829 -4.99368,3.8895 -7.59851,5.68888 -2.2535,1.66306 -4.55303,3.26116 -6.85029,4.86289 -2.67013,1.90019 -5.42905,3.67662 -8.02229,5.68398 -2.8433,2.20913 -5.6479,4.47422 -8.59983,6.53729 -3.13713,2.09192 -6.33792,4.08527 -9.45308,6.20823 -3.82527,2.68307 -7.76128,5.20564 -11.52892,7.97106 -3.93653,2.94772 -7.79153,5.99569 -11.60646,9.09875 -3.10513,2.49718 -6.23188,4.96777 -9.37391,7.41826 -2.49788,1.96786 -5.08353,3.8159 -7.65315,5.68804 -3.28798,2.34855 -6.60934,-2.30135 -3.32136,-4.64991 z"
       inkscape:connector-curvature="0" />
    <path
       style="fill:#000000"
       id="path3920"
       d="m 331.88202,265.15136 c 3.21805,-0.29546 6.44315,-0.43872 9.65951,-0.7556 3.44636,-0.37011 6.91111,-0.48846 10.37418,-0.56289 3.26932,-0.15727 6.5238,0.0344 9.78164,0.28302 2.90515,0.391 5.80974,0.75866 8.73518,0.95588 2.90625,0.084 5.80447,0.34148 8.69003,0.69212 3.20739,0.30438 6.32429,1.02441 9.39524,1.96744 2.37616,0.78563 4.73905,1.61071 7.13296,2.34067 2.60338,0.78847 5.2175,1.53964 7.80144,2.39214 2.21242,0.90002 4.53115,1.47105 6.82126,2.12826 1.91539,0.35356 3.67852,1.07349 5.38704,1.9899 1.72536,1.09047 3.55315,2.00566 5.27743,3.09549 0.87797,0.49411 1.22652,1.00505 1.90576,1.83245 1.96041,3.53317 -3.03624,6.30562 -4.99666,2.77245 l 0,0 c 1.48049,1.45128 0.43891,0.41279 0.0275,0.21887 -1.60946,-1.02853 -3.33395,-1.86623 -4.94287,-2.89864 -1.3409,-0.74319 -2.71918,-1.24362 -4.23471,-1.518 -2.36319,-0.6784 -4.75578,-1.27086 -7.04,-2.19582 -2.54178,-0.844 -5.11788,-1.57362 -7.67932,-2.35324 -2.39377,-0.73569 -4.7624,-1.54815 -7.13747,-2.34205 -2.75034,-0.84478 -5.5371,-1.49757 -8.41313,-1.75812 -2.78263,-0.34475 -5.57878,-0.57935 -8.38167,-0.66276 -2.94077,-0.20102 -5.86443,-0.54733 -8.78287,-0.95933 -3.07284,-0.23453 -6.14033,-0.42412 -9.22446,-0.26775 -3.31698,0.0708 -6.63576,0.18113 -9.93669,0.53671 -3.19275,0.31408 -6.39321,0.46559 -9.5883,0.74813 -4.0159,0.44622 -4.64694,-5.23312 -0.63104,-5.67933 z"
       inkscape:connector-curvature="0" />
    <path
       style="fill:#000000"
       id="path3922"
       d="m 422.37095,314.81967 c -2.42751,2.70001 -4.76888,5.47465 -7.19309,8.17778 -2.47325,2.91927 -5.00945,5.78232 -7.62566,8.57399 -2.93239,3.03667 -6.04928,5.89821 -9.18628,8.72226 -3.37294,3.0877 -6.86216,6.04103 -10.36839,8.97489 -3.37681,2.63708 -6.92083,5.04935 -10.63824,7.17764 -3.11862,1.69156 -6.15351,3.53004 -9.25628,5.25077 -2.88467,1.76299 -5.76595,3.52747 -8.76457,5.09117 -3.33702,1.82429 -6.97389,2.94174 -10.55837,4.15602 -3.06277,1.0671 -6.14004,2.0859 -9.16869,3.24839 -2.61593,1.07942 -5.27056,2.06463 -7.96205,2.93862 -3.72562,1.10254 -7.43995,2.24082 -11.15343,3.38321 -3.31566,0.93906 -6.61174,1.94276 -9.94652,2.81301 -2.62352,0.86639 -5.34046,1.28089 -8.04676,1.76761 -2.2129,0.41991 -4.43771,0.80712 -6.6129,1.39806 -0.40701,0.0942 -0.84771,0.25989 -1.2395,0.39811 -3.71647,1.58568 -5.95895,-3.6702 -2.24248,-5.25588 l 0,0 c 0.65118,-0.26093 1.31175,-0.48316 1.99212,-0.65887 2.3378,-0.62822 4.72247,-1.0617 7.10042,-1.50711 2.56117,-0.45271 5.12862,-0.84585 7.60887,-1.67173 3.25531,-0.84601 6.46988,-1.83283 9.70684,-2.74498 3.68582,-1.13347 7.37176,-2.26537 11.07033,-3.35695 2.59782,-0.84156 5.15732,-1.79774 7.6815,-2.83948 3.09985,-1.18464 6.24451,-2.23644 9.37893,-3.32422 3.30844,-1.12062 6.67414,-2.13057 9.75514,-3.8135 2.95732,-1.53325 5.77962,-3.2986 8.63023,-5.019 3.08147,-1.70814 6.09424,-3.53562 9.19168,-5.2144 3.42729,-1.95514 6.68598,-4.18382 9.80669,-6.59893 3.45374,-2.88995 6.89152,-5.79811 10.21334,-8.84035 3.01809,-2.71405 6.0149,-5.4668 8.83931,-8.3823 2.58834,-2.76062 5.09277,-5.59591 7.54097,-8.48163 2.3961,-2.6707 4.70826,-5.41393 7.10823,-8.08101 2.62959,-3.06786 6.9682,0.65095 4.33861,3.71881 z"
       inkscape:connector-curvature="0" />
    <path
       style="fill:#000000"
       id="path3930"
       d="m 285.6596,108.79075 c -2.85456,-0.20966 -5.70611,-0.44332 -8.56511,-0.58852 -2.30468,-0.1414 -4.59771,-0.14406 -6.89566,0.0633 -2.69321,0.14074 -5.34549,0.57869 -7.9933,1.06369 -2.59324,0.56604 -5.17361,1.19168 -7.74485,1.85093 -1.99132,0.43749 -3.98617,0.8341 -5.89689,1.55725 -1.32087,0.41275 -2.60539,0.90806 -3.88516,1.4314 -1.42739,0.52868 -2.91594,0.87454 -4.35306,1.37226 -1.00778,0.29513 -1.91329,0.72494 -2.7584,1.3427 -1.46675,1.02502 -3.03717,1.89679 -4.62857,2.71156 -0.91113,0.56259 -1.98109,0.76129 -2.92805,1.22882 -1.45336,0.4465 -2.77722,1.18287 -4.05203,1.99714 -1.13849,0.66659 -2.15209,1.51588 -3.19422,2.31838 -3.20162,2.46499 -6.68764,-2.06278 -3.48602,-4.52777 l 0,0 c 1.18388,-0.91132 2.3456,-1.86237 3.63441,-2.62549 1.45218,-0.90565 2.9871,-1.86792 4.65091,-2.32612 0.91627,-0.42609 1.89215,-0.67758 2.78472,-1.15844 1.35042,-0.68054 2.67671,-1.42524 3.92129,-2.2849 1.30952,-0.90885 2.70151,-1.63299 4.23378,-2.09185 1.33049,-0.43942 2.68461,-0.80602 4.01453,-1.24632 1.33173,-0.54322 2.66848,-1.0624 4.04152,-1.4926 2.10775,-0.7833 4.2867,-1.28741 6.48614,-1.74231 2.6996,-0.68813 5.40623,-1.35172 8.13041,-1.93541 2.81995,-0.51652 5.64686,-0.9761 8.51398,-1.13451 2.56405,-0.22735 5.12433,-0.23667 7.69493,-0.0786 2.7621,0.14082 5.51922,0.34469 8.2747,0.58115 4.04061,0 4.04061,5.71428 0,5.71428 z"
       inkscape:connector-curvature="0" />
    <path
       style="fill:#000000"
       id="path3934"
       d="m 165.08557,313.06704 c 0.54652,2.50567 1.25175,4.96644 2.13759,7.37226 1.02757,2.45217 2.07024,4.90601 3.30929,7.26088 1.16525,2.19232 2.51442,4.2713 3.82411,6.37854 1.51922,2.31977 3.20993,4.52452 4.84347,6.76571 1.75326,2.48996 3.56888,4.93775 5.59228,7.21504 1.3721,1.55945 2.86207,3.00609 4.63246,4.10267 2.17132,1.08347 4.08859,2.57976 5.96994,4.09552 1.59356,1.16772 3.12545,2.41268 4.72,3.5783 1.63498,0.90326 3.25829,1.8235 4.89828,2.71766 1.60782,0.89562 3.06069,2.04592 4.65434,2.96264 1.2408,0.7692 2.57278,1.37005 3.89411,1.98489 1.77938,0.76256 3.55473,1.53831 5.29473,2.38764 1.36639,0.65946 2.81428,1.12207 4.21139,1.70493 1.15772,0.54526 2.44368,0.68309 3.68135,0.97221 1.46563,0.28614 2.88064,0.77241 4.31119,1.19116 3.87642,1.14013 2.26403,6.62222 -1.61239,5.48209 l 0,0 c -1.32655,-0.39173 -2.63839,-0.84624 -3.99876,-1.10879 -1.56486,-0.3656 -3.18223,-0.57668 -4.64142,-1.28831 -1.45727,-0.66955 -3.04444,-1.06543 -4.46833,-1.82319 -1.70088,-0.83994 -3.44927,-1.58095 -5.18851,-2.33688 -1.48677,-0.69183 -2.97967,-1.37925 -4.37889,-2.23939 -1.52826,-0.91016 -2.96845,-1.96034 -4.49546,-2.87265 -1.8592,-1.01493 -3.71372,-2.03706 -5.53399,-3.12096 -1.66782,-1.21934 -3.27267,-2.51846 -4.93608,-3.74431 -1.71513,-1.38642 -3.45818,-2.74104 -5.44618,-3.71961 -2.1971,-1.41883 -4.13579,-3.15063 -5.844,-5.13523 -2.13894,-2.41817 -4.08077,-4.99804 -5.93456,-7.64053 -1.71526,-2.35523 -3.49379,-4.66991 -5.07871,-7.11494 -1.38293,-2.22661 -2.7984,-4.42901 -4.03254,-6.74327 -1.34591,-2.58037 -2.50529,-5.25509 -3.6122,-7.94486 -0.94904,-2.59832 -1.72757,-5.24893 -2.31618,-7.95331 -0.97999,-3.91996 4.56368,-5.30588 5.54367,-1.38591 z"
       inkscape:connector-curvature="0" />
    <path
       style="fill:#000000"
       id="path3936"
       d="m 248.80645,369.39292 c -1.43746,-1.96603 -2.81313,-3.96227 -4.32764,-5.87059 -1.12196,-1.44586 -2.36898,-2.78548 -3.63415,-4.10522 -1.73367,-1.61654 -2.94434,-3.65598 -4.15755,-5.66616 -1.26028,-2.18787 -2.35682,-4.46925 -3.43114,-6.75345 -0.8418,-1.93935 -1.71248,-3.86185 -2.4748,-5.83409 -1.11564,-3.0569 -2.29045,-6.08788 -3.5388,-9.09276 -1.59425,-3.9035 -3.17396,-7.80918 -4.5522,-11.79435 -1.05921,-3.54504 -2.14623,-7.08118 -3.14558,-10.64374 -0.85565,-3.2426 -1.92952,-6.41135 -2.99107,-9.58923 -1.08388,-3.05465 -1.8863,-6.19959 -2.63709,-9.3497 -0.47585,-3.20097 -1.36076,-6.29593 -2.42593,-9.34357 -1.37194,-3.60067 -2.54477,-7.27186 -3.58139,-10.98188 -1.01715,-3.47425 -1.72807,-7.03661 -2.30689,-10.60813 -0.38627,-3.32016 -0.63736,-6.65682 -0.91391,-9.98881 -0.39658,-4.07198 -0.99739,-8.1178 -1.57732,-12.16634 -0.61564,-4.24877 -0.81225,-8.53706 -0.91974,-12.82348 -0.0707,-3.90317 -0.0638,-7.80719 -0.0601,-11.71083 0.005,-2.82201 0.008,-5.64402 0.0102,-8.46603 0.001,-2.40144 0.001,-4.80289 0.002,-7.20433 -0.0988,-1.96876 0.1043,-3.91281 0.34491,-5.86263 0.18199,-1.45496 0.29776,-2.91647 0.34739,-4.38162 -0.003,-1.84752 0.0249,-3.67976 0.25252,-5.51511 0.2817,-0.80372 0.0599,-1.82524 0.39311,-2.61439 0.22574,-0.53467 0.51294,-1.04125 0.76941,-1.56187 2.454,-3.21005 6.99369,0.26043 4.53969,3.47048 l 0,0 c 0.87115,-2.60356 -0.13682,0.9569 -0.0332,1.42362 -0.21596,1.66124 -0.19377,3.32133 -0.21066,4.99446 -0.0573,1.63313 -0.18342,3.26252 -0.38701,4.88433 -0.21225,1.71979 -0.40677,3.42474 -0.30189,5.16293 -8e-5,2.40264 -2.6e-4,4.80527 -0.002,7.20791 -0.002,2.82256 -0.006,5.64511 -0.0102,8.46766 -0.004,3.85433 -0.0106,7.70903 0.0583,11.5629 0.10083,4.06307 0.28102,8.12828 0.8638,12.15588 0.59578,4.16083 1.21156,8.31917 1.61551,12.50446 0.26365,3.18558 0.50997,6.37467 0.86051,9.55079 0.5395,3.3619 1.21247,6.71444 2.16991,9.9836 0.99977,3.59492 2.14528,7.14778 3.47295,10.63576 1.12323,3.23079 2.08473,6.51037 2.58922,9.90212 0.70864,2.9867 1.46955,5.96814 2.49833,8.8631 1.08866,3.26635 2.19065,6.52348 3.07255,9.85471 0.96866,3.45373 2.02535,6.88068 3.04425,10.31979 1.3396,3.87585 2.87988,7.67248 4.42865,11.46938 1.26648,3.04892 2.46054,6.12364 3.59198,9.22544 0.71321,1.84666 1.53119,3.64476 2.31574,5.46214 0.99039,2.10704 1.99925,4.21231 3.15368,6.23455 0.99422,1.65111 1.95196,3.347 3.38966,4.66295 1.38763,1.44868 2.75242,2.92166 3.98472,4.50703 1.48573,1.87304 2.85986,3.81441 4.24107,5.76412 2.58673,3.10409 -1.80311,6.76228 -4.38984,3.6582 z"
       inkscape:connector-curvature="0" />
    <path
       style="fill:#000000"
       id="path3944"
       d="m 405.39066,161.54039 c -2.56586,-0.32616 -5.15749,-0.028 -7.69764,0.36731 -3.45517,0.5264 -6.86733,1.33026 -10.24976,2.2048 -3.64798,1.02752 -7.3094,1.98789 -10.90931,3.17798 -3.52299,1.25752 -7.11267,2.30693 -10.74108,3.21103 -3.44687,0.81922 -6.7812,2.02406 -10.14468,3.12147 -4.90536,1.59759 -9.83849,3.10742 -14.74845,4.69042 -4.96941,1.71757 -10.01795,3.22717 -14.91474,5.14633 -4.05035,1.59128 -7.97543,3.47541 -11.8938,5.36342 -4.0266,1.94956 -8.05278,3.89514 -12.13106,5.73508 -3.41771,1.47265 -6.76242,3.0804 -10.05143,4.81935 -3.27153,1.86926 -6.46024,3.87634 -9.69997,5.79901 -2.89221,1.71917 -5.62191,3.68641 -8.39683,5.58259 -2.03454,1.25482 -3.99516,2.62227 -5.98359,3.94738 -1.96561,1.37734 -3.92305,2.76656 -5.88588,4.14821 -2.00454,1.47566 -4.03395,2.91781 -6.0944,4.3144 -2.48257,1.62345 -4.95874,3.25609 -7.4612,4.84938 -2.43476,1.45055 -4.78414,3.04018 -7.23659,4.46027 -2.35527,1.30218 -4.55617,2.85988 -6.8692,4.23899 -2.70973,1.74544 -5.47255,3.40311 -8.19014,5.13588 -2.75186,1.60673 -5.35359,3.44313 -7.96964,5.25862 -2.18594,1.49496 -4.41508,2.92582 -6.52033,4.53435 -1.26811,1.08166 -2.63165,2.03961 -3.94694,3.06094 -0.99008,0.70899 -1.98708,1.41531 -2.94149,2.17393 -1.09271,0.71579 -2.15818,1.46247 -3.24115,2.19062 -0.61922,0.64207 -1.3886,1.11277 -2.1525,1.56066 -1.02393,0.65387 -2.07584,1.26712 -3.06695,1.9719 -1.04692,0.66448 -2.09956,1.31521 -3.17162,1.93757 -1.06087,0.64671 -1.98753,1.49368 -2.96174,2.26272 -0.92502,0.7533 -0.50822,0.37816 -1.26271,1.11158 -2.92926,2.78315 -6.86524,-1.35945 -3.93597,-4.1426 l 0,0 c 1.1083,-1.03803 0.55343,-0.55579 1.65808,-1.4542 1.1889,-0.9385 2.32366,-1.96404 3.64015,-2.72329 0.92674,-0.53498 1.83121,-1.10224 2.74331,-1.66358 1.15726,-0.80963 2.36637,-1.54016 3.56484,-2.28552 0.6987,-0.31082 1.18185,-0.92261 1.80362,-1.3485 0.96376,-0.60386 1.85606,-1.32478 2.84028,-1.90119 0.97258,-0.76494 1.97947,-1.48933 2.98499,-2.20796 1.32941,-1.02732 2.70107,-1.99755 3.98153,-3.08751 2.17646,-1.65584 4.46529,-3.14924 6.72706,-4.68475 2.67707,-1.85719 5.34154,-3.73443 8.15506,-5.38199 2.76638,-1.76387 5.57789,-3.4528 8.3379,-5.22697 2.33675,-1.39054 4.55609,-2.96891 6.93784,-4.27924 2.38517,-1.37025 4.65476,-2.93274 7.02379,-4.33124 2.4571,-1.56373 4.88808,-3.16661 7.32545,-4.76023 2.03323,-1.37575 4.03169,-2.80235 6.00986,-4.25602 2.003,-1.40947 3.99923,-2.82847 6.00684,-4.23105 1.97102,-1.31223 3.91195,-2.67062 5.9299,-3.91118 2.877,-1.96143 5.70365,-4.00203 8.70347,-5.77789 3.32114,-1.9683 6.58537,-4.03123 9.94436,-5.93597 3.39435,-1.79399 6.84606,-3.45496 10.37211,-4.97624 4.03487,-1.82014 8.01764,-3.74593 12.00136,-5.67461 4.0504,-1.94993 8.1079,-3.89557 12.29499,-5.53805 5.00908,-1.94918 10.157,-3.51993 15.24031,-5.26223 4.9039,-1.57974 9.83003,-3.08921 14.72913,-4.68415 3.49346,-1.13928 6.95775,-2.38613 10.53835,-3.23445 3.49064,-0.86533 6.94026,-1.88268 10.32835,-3.0918 3.72069,-1.22641 7.50151,-2.22738 11.27216,-3.28457 3.5692,-0.92002 7.16906,-1.76657 10.81468,-2.32058 3.06308,-0.46117 6.179,-0.79368 9.26979,-0.38879 4.00941,0.50118 3.30064,6.17134 -0.70877,5.67016 z"
       inkscape:connector-curvature="0" />
    <path
       style="fill:#000000"
       id="path3958"
       d="m 244.3404,125.93361 c 2.36045,0 4.7209,0 7.08135,0 2.00031,-0.0389 3.98452,-0.0206 5.97098,0.22568 2.09728,0.18539 4.15415,0.63751 6.24176,0.89461 2.44567,0.15216 4.87925,0.39259 7.31679,0.64223 2.33078,0.21091 4.66233,0.30454 6.98629,0.58577 2.54614,0.26932 5.0713,0.67861 7.62196,0.90976 3.25546,0.24017 6.52117,0.28023 9.78399,0.30969 3.48205,-0.0221 6.95554,-0.002 10.43116,0.21764 2.98716,0.21847 5.9781,0.37082 8.97188,0.45565 2.37134,0.0571 4.74363,0.0492 7.11548,0.0497 3.37972,0.18204 6.75504,0.42796 10.13635,0.5839 2.24405,-0.0217 4.45709,0.3301 6.68027,0.576 1.89172,0.2023 3.79561,0.23262 5.69617,0.25662 2.45072,0.11331 4.85812,0.57133 7.27465,0.95476 2.2356,0.21356 4.44503,0.61472 6.66899,0.91705 1.88183,0.14761 3.74931,0.38375 5.62168,0.62179 2.00496,0.21568 3.97661,0.64672 5.97843,0.89054 1.41116,0.058 2.7722,0.4331 4.15674,0.67072 1.63488,0.36721 3.24602,0.82 4.87086,1.22677 1.05715,0.2534 2.13177,0.38974 3.21652,0.42511 1.56481,0.16912 3.11105,0.46762 4.67782,0.62062 1.76026,0.32152 3.52643,0.58954 5.27651,0.96329 1.00262,0.22198 2.00885,0.44496 3.03182,0.54781 1.31067,0.0972 2.53011,0.63401 3.78599,0.97879 1.26239,0.45253 2.54153,0.84536 3.86187,1.08343 1.00842,0.0547 1.74331,0.28515 2.74623,0.6148 0.26858,0.24062 0.53715,0.48123 0.80572,0.72184 2.60355,3.09 -1.76637,6.77197 -4.36991,3.68197 l 0,0 c 0.20221,0.16185 0.40442,0.3237 0.60663,0.48555 2.78331,0.73155 -0.14659,0.11748 -0.81926,0.11642 -1.48648,-0.27584 -2.9452,-0.67163 -4.36342,-1.19896 -0.98243,-0.27619 -2.02164,-0.71939 -2.8456,-0.80027 -1.22492,-0.1304 -2.4343,-0.36902 -3.63468,-0.64336 -1.54295,-0.33021 -3.10055,-0.55276 -4.64735,-0.86507 -1.44969,-0.14622 -2.88819,-0.37326 -4.32771,-0.59663 -1.48202,-0.0611 -2.953,-0.23776 -4.39611,-0.59393 -1.48764,-0.3762 -2.96407,-0.78733 -4.45737,-1.13881 -1.29175,-0.22787 -2.55457,-0.58072 -3.87241,-0.62848 -2.00998,-0.24896 -3.99189,-0.66644 -6.00367,-0.8937 -1.88943,-0.24131 -3.77251,-0.47483 -5.67145,-0.62836 -2.26583,-0.30988 -4.51717,-0.71357 -6.79458,-0.9356 -2.14422,-0.34189 -4.27766,-0.75191 -6.44972,-0.88427 -2.08663,-0.0268 -4.17653,-0.0656 -6.25311,-0.29096 -2.10205,-0.23359 -4.19161,-0.57619 -6.3141,-0.54727 -3.29392,-0.15225 -6.5828,-0.37963 -9.87404,-0.57782 -2.42554,-5.3e-4 -4.85153,0.007 -7.27653,-0.052 -3.06028,-0.0872 -6.11774,-0.24154 -9.17127,-0.4648 -3.37231,-0.21471 -6.74251,-0.22469 -10.12125,-0.20642 -3.41918,-0.0311 -6.84145,-0.0751 -10.25252,-0.33319 -2.60643,-0.2402 -5.18792,-0.64777 -7.78946,-0.92757 -2.28842,-0.27803 -4.5864,-0.35416 -6.88122,-0.57402 -2.47932,-0.25438 -4.95416,-0.49118 -7.44113,-0.65634 -2.08924,-0.26324 -4.14889,-0.70205 -6.2472,-0.8953 -1.74872,-0.22337 -3.49615,-0.2047 -5.25847,-0.18108 -2.36045,0 -4.7209,0 -7.08135,0 -4.04061,0 -4.04061,-5.71429 0,-5.71429 z"
       inkscape:connector-curvature="0" />
    <path
       style="fill:#000000"
       id="path3966"
       d="m 188.18077,278.89826 c 2.07579,0.25976 4.16185,0.41609 6.25002,0.53073 1.22622,0.0638 2.45409,0.0771 3.68168,0.0808 1.37628,-0.056 2.74078,-0.3473 4.11355,-0.50293 1.57769,-0.16496 3.16451,-0.19632 4.74934,-0.21463 1.58109,-0.0166 3.14062,-0.34852 4.7135,-0.50799 2.37063,-0.1155 4.72331,-0.42853 7.08792,-0.62703 2.17869,-0.26264 4.3916,-0.11095 6.56764,-0.35927 2.00988,-0.18979 3.99189,-0.53769 5.98272,-0.86046 2.29248,-0.33655 4.56565,-0.75771 6.87319,-0.98908 2.0895,-0.0795 4.1549,-0.27153 6.22777,-0.53466 1.81511,-0.25388 3.63648,-0.54797 5.43005,-0.93135 2.22535,-0.36426 4.42243,-0.85206 6.61344,-1.38249 1.91102,-0.44326 3.77383,-1.03758 5.70852,-1.38011 1.75585,-0.38379 3.47722,-0.89617 5.20143,-1.39956 1.63715,-0.61372 3.30118,-1.14338 5.01208,-1.50542 -0.0453,-0.16322 -0.25002,0.12311 -0.34761,0.22699 -0.26359,0.36403 -0.13244,0.15686 -0.37721,0.63152 1.5275,-3.74076 6.81773,-1.58056 5.29024,2.1602 l 0,0 c -0.28712,0.57399 -0.12922,0.31139 -0.46362,0.79378 -0.78177,0.89171 -1.77863,1.47762 -2.9311,1.78059 -1.56868,0.3234 -3.07531,0.86014 -4.58166,1.39772 -1.92868,0.56282 -3.85584,1.13215 -5.82406,1.54407 -1.81364,0.30707 -3.54624,0.91836 -5.34247,1.30408 -2.2488,0.5444 -4.50458,1.04664 -6.78825,1.42192 -1.94611,0.40036 -3.91221,0.74013 -5.88019,1.00686 -2.12389,0.2696 -4.24343,0.47457 -6.38388,0.55229 -2.19093,0.21409 -4.34604,0.63147 -6.52321,0.94345 -2.10166,0.33992 -4.19632,0.70087 -6.31735,0.90456 -2.21739,0.20886 -4.45112,0.15509 -6.67014,0.36877 -2.33395,0.19449 -4.65651,0.50647 -6.99649,0.61864 -1.73979,0.17043 -3.4626,0.55172 -5.21599,0.53589 -1.3933,0.0157 -2.78853,0.0388 -4.17601,0.17921 -1.59012,0.17711 -3.16691,0.52967 -4.76972,0.53869 -1.32644,-0.004 -2.65316,-0.0197 -3.97807,-0.0894 -2.2201,-0.12242 -4.43791,-0.28987 -6.64483,-0.56623 -4.00941,-0.50118 -3.30064,-6.17134 0.70877,-5.67016 z"
       inkscape:connector-curvature="0" />
    <path
       style="fill:#aa0000"
       id="path4423"
       d="m 72.173616,45.115766 c -2.10983,0 -4.219659,0 -6.329489,0 -1.619869,0 -3.239738,0 -4.859606,0 -1.548848,0 -3.097695,0 -4.646543,0 -1.011296,0 -2.022593,0 -3.03389,0 -0.892796,0.248238 -1.925365,0.527969 -2.863032,0.797281 -1.01755,0.420433 -2.041553,0.82374 -3.106942,1.104861 -0.785113,0.209219 -1.598014,0.239752 -2.405516,0.250304 1.387872,-0.219993 -0.445583,0.334419 -0.758538,0.436909 -0.202265,0.06659 -0.406239,0.127492 -0.611812,0.182871 -1.229237,0.287589 -0.569169,0.155358 2.154551,-2.65208 0.07861,-0.08103 0.0062,0.225714 0.0082,0.338595 0.0039,0.226811 0.0028,0.453658 0.0012,0.68048 0.02589,0.722855 -0.08202,1.459186 0.05659,2.171778 0.331681,1.892869 0.468218,3.8098 0.565696,5.726498 0.07159,1.717823 0.08454,3.437179 0.08877,5.156233 8.52e-4,1.393407 -0.0017,2.786815 -0.0032,4.180221 0.04128,1.3198 0.01331,2.608023 -0.290103,3.897673 -0.197747,0.665536 -0.329248,1.340488 -0.392578,2.03065 -0.03927,0.626915 -0.03768,1.255361 -0.03822,1.883212 1.43e-4,0.296094 0.0012,0.592188 0.0039,0.88827 -1.408144,-1.83853 -4.211738,-2.776829 -2.02518,-2.795771 1.419617,-0.0094 2.833509,-0.02145 4.247741,0.105768 1.620081,0.241576 3.243775,0.439199 4.878654,0.541599 1.403202,0.07341 2.808745,0.07602 4.213464,0.07944 1.315833,9.8e-4 2.631664,-0.0018 3.947495,-0.0032 1.332551,-0.04902 2.638058,0.0042 3.949207,0.254707 1.125072,0.246751 2.273134,0.341003 3.419739,0.418355 0.317362,0.02019 0.635029,0.03696 0.952905,0.04479 -2.555127,0.04232 -2.862182,4.748967 -2.879693,1.929728 0.0036,-1.195395 0.0068,-2.390789 0.0086,-3.586188 -0.02928,-2.082525 0.368648,-4.139595 0.780526,-6.17133 0.51275,-2.394327 0.837653,-4.819461 1.247126,-7.231604 0.401258,-2.023346 0.636048,-4.072356 0.764113,-6.129506 0.162688,-1.440481 0.493349,-2.85486 0.689281,-4.290253 0.041,-0.336463 0.07963,-0.673563 0.100085,-1.012003 0.258354,-4.032342 5.960947,-3.666975 5.702593,0.365367 l 0,0 c -0.03165,0.480817 -0.08124,0.960283 -0.14347,1.438101 -0.183612,1.291262 -0.440778,2.570455 -0.645529,3.858377 -0.144026,2.259225 -0.396892,4.510506 -0.83461,6.733465 -0.426023,2.468111 -0.754256,4.95224 -1.279225,7.403392 -0.336795,1.661307 -0.693784,3.341578 -0.666611,5.044786 -0.0018,1.183573 -0.0048,2.367142 -0.0087,3.55071 0.0039,1.613136 -1.145011,3.868551 -2.872956,3.811115 -0.434342,-0.0045 -0.868069,-0.03271 -1.301569,-0.05779 -1.383832,-0.09448 -2.768165,-0.218884 -4.126758,-0.51095 -0.942257,-0.189596 -1.882139,-0.170789 -2.848768,-0.148988 -1.322623,0.0015 -2.645246,0.0042 -3.96787,0.0032 -1.520822,-0.0038 -3.042537,-0.0081 -4.561571,-0.09091 -1.708776,-0.109789 -3.408817,-0.299367 -5.101422,-0.560126 -1.197891,-0.154911 -2.413295,-0.04006 -3.618794,-0.07592 -1.571425,0.01012 -3.734695,-1.045605 -3.732833,-2.85974 -0.0029,-0.317381 -0.0041,-0.634774 -0.0042,-0.952169 7.97e-4,-0.807931 0.0011,-1.616865 0.06427,-2.42289 0.09563,-0.972079 0.264914,-1.931197 0.536915,-2.870674 0.235738,-0.804843 0.07342,-1.675135 0.119723,-2.518677 0.0015,-1.386758 0.004,-2.773517 0.0032,-4.160277 -0.0039,-1.627639 -0.01546,-3.255555 -0.08152,-4.882091 -0.08898,-1.777358 -0.218123,-3.553678 -0.529156,-5.308381 -0.100105,-0.974286 -0.133033,-1.94143 -0.100239,-2.920669 0.01492,-1.876257 0.06045,-0.690159 2.233515,-3.884083 0.01735,-0.02551 -0.06004,0.01423 -0.09006,0.02134 0.08133,-0.02508 0.16244,-0.05086 0.243712,-0.07612 0.817979,-0.266465 1.588265,-0.659493 2.464157,-0.719095 0.348879,-0.0038 0.705561,0.0094 1.046799,-0.06944 1.019016,-0.251266 1.960556,-0.74131 2.957407,-1.0641 1.460433,-0.419444 2.921647,-0.87191 4.440462,-1.019319 1.011297,0 2.022594,0 3.03389,0 1.548848,0 3.097695,0 4.646543,0 1.619868,0 3.239737,0 4.859606,0 2.10983,0 4.219659,0 6.329489,0 4.04061,0 4.04061,5.714285 0,5.714285 z"
       inkscape:connector-curvature="0"
       transform="translate(136.50022,86.379181)" />
    <path
       style="fill:#aa0000"
       id="path4425"
       d="m 33.962088,181.43683 c -2.15916,-0.1678 -4.285184,-0.48509 -6.408057,-0.90392 -1.033786,-0.20513 -2.077203,-0.34322 -3.128977,-0.40318 -0.680108,-0.0271 -1.360914,-0.0224 -2.041397,-0.0202 -0.72593,-0.0375 -1.389302,-0.003 -2.005528,0.13942 -1.219768,0.54035 -2.528789,0.84343 -3.837024,1.07749 -0.02019,0.10206 -3.163701,0.28447 -1.759756,0.19299 -0.435842,0.16712 -0.974226,0.37799 -1.08459,0.45312 -0.109071,0.0644 -0.319275,0.22918 -0.379411,0.27618 0.408857,-0.40789 -0.692168,0.77641 0.258236,-0.27323 -0.22881,0.45836 -0.591732,0.83436 -0.630667,1.35198 -0.09712,1.06101 -0.08988,2.12854 -0.09455,3.19299 0.08994,1.48582 -0.152721,3.00966 0.0716,4.48442 0.284096,1.28635 0.459053,2.58757 0.560876,3.89985 0.08471,1.1676 -0.0016,2.33064 0.239566,3.47459 0.289807,1.31467 0.433057,2.65413 0.513777,3.99597 0.05573,1.17932 0.05411,2.36018 0.05461,3.54049 -3.93e-4,0.83829 -0.0018,1.67659 -0.0041,2.51488 -8.3e-4,0.26727 -9.17e-4,0.53455 -0.001,0.80182 -0.0039,1.4151 0.220853,0.41439 -2.538354,-2.68278 0.338719,0.003 0.677478,-0.001 1.016213,-0.002 1.318321,-0.003 2.636646,-0.003 3.954968,-0.003 1.686288,-2.1e-4 3.372576,-1.8e-4 5.058864,-1.6e-4 1.183793,-0.0226 2.347567,-0.33763 3.525089,-0.49356 0.866747,-0.0976 1.737045,-0.16116 2.608596,-0.19417 0.553238,-0.0209 0.7071,0.0219 0.408061,-0.0418 0.802738,-0.28765 1.630922,-0.47141 2.473328,-0.59367 0.835413,-0.10011 1.67754,-0.10626 2.517671,-0.11029 -0.565909,-0.0215 -0.984028,0.13802 -1.344076,0.55305 0.467231,-0.45625 0.706615,-0.86439 0.962565,-1.4495 0.774813,-1.76523 1.374469,-3.60354 1.935198,-5.44634 0.546983,-1.88155 1.069965,-3.75827 1.358674,-5.69878 0.21433,-1.89167 0.207153,-3.79905 0.217448,-5.7001 -0.01922,-1.44068 0.04904,-3.00149 -0.04849,-4.37453 -0.257723,-0.88344 -0.200872,-0.61347 -0.594086,-1.36431 -0.126116,-0.1745 -0.119558,-0.20209 -0.07641,-0.0374 -2.788724,-2.92396 1.346382,-6.86781 4.135106,-3.94385 l 0,0 c 0.799035,0.9326 0.478946,0.4787 1.003427,1.33023 0.503964,0.96232 0.957962,1.94049 1.158486,3.01769 0.239154,1.79053 0.104815,3.59998 0.136168,5.40351 -0.01207,2.17697 -0.0106,4.36156 -0.281931,6.52536 -0.34075,2.21502 -0.909966,4.3679 -1.544518,6.51525 -0.645285,2.09632 -1.325137,4.19026 -2.222963,6.19422 -0.420923,0.8732 -0.880965,1.8119 -1.579836,2.47386 -0.816459,1.00528 -1.875032,1.59676 -3.188156,1.71587 -0.582333,0.003 -1.165597,0.003 -1.746177,0.0543 -0.695349,0.0929 -1.352269,0.31169 -2.023876,0.51183 -1.169469,0.19676 -2.344491,0.20749 -3.52463,0.32571 -1.421762,0.18205 -2.823052,0.57714 -4.264726,0.54162 -1.68589,-1e-5 -3.371781,-5e-5 -5.057671,1.6e-4 -1.31243,2.6e-4 -2.624863,1.1e-4 -3.93729,0.003 -0.386645,0.001 -0.773328,0.007 -1.15995,0.001 -2.9133569,-2.73141 -3.0544174,-1.48861 -3.0510062,-3.03243 1.089e-4,-0.27162 2.03e-4,-0.54324 0.00104,-0.81486 0.00223,-0.8324 0.00366,-1.6648 0.00406,-2.49721 -4.237e-4,-1.06974 0.00203,-2.13995 -0.044848,-3.20892 -0.060482,-1.07225 -0.1749589,-2.14263 -0.4091796,-3.19237 -0.2749479,-1.38628 -0.304039,-2.77134 -0.3375962,-4.18037 -0.091316,-1.24441 -0.3018626,-2.46642 -0.5411417,-3.69058 -0.1654103,-1.71271 -0.098237,-3.43142 -0.1076074,-5.15105 0.00646,-1.41238 -0.00828,-2.8333 0.1949945,-4.23437 0.2014534,-0.94995 0.4757563,-1.92999 1.0741276,-2.71825 0.3044849,-0.61322 0.6754074,-1.1996 1.2051831,-1.64228 0.3560121,-0.29931 0.7356175,-0.56947 1.1292805,-0.81708 0.765866,-0.44967 1.582276,-0.74108 2.414022,-1.04102 0.804412,-0.16429 1.593117,-0.25865 2.408389,-0.3452 1.228314,-0.20351 2.395452,-0.59858 3.563597,-1.02305 1.073325,-0.23687 2.141844,-0.32721 3.239349,-0.27831 0.798153,-0.003 1.596743,-0.007 2.394288,0.0299 1.310639,0.0784 2.612396,0.24494 3.900733,0.50147 1.991972,0.393 3.983485,0.68541 6.010754,0.83997 4.009408,0.50118 3.300638,6.17134 -0.70877,5.67016 z"
       inkscape:connector-curvature="0"
       transform="translate(136.50022,86.379181)" />
    <path
       style="fill:#aa0000"
       id="path4429"
       d="m 310.72372,180.91563 c -2.23027,0.44674 -4.41445,1.08243 -6.63951,1.55172 -1.44494,0.31867 -2.91803,0.45402 -4.39392,0.50407 -1.18779,0.0231 -2.37591,0.0128 -3.56383,0.008 -0.77289,-0.003 -1.54579,-0.005 -2.31868,-0.006 -0.0536,-1.4e-4 -0.22321,-4.7e-4 -0.25241,-5.2e-4 2.63103,-2.7748 2.78296,-4.43409 2.89714,-2.51442 0.0466,0.78365 -0.0235,1.5374 -0.11514,2.31671 -0.29019,1.77078 -0.45218,3.55027 -0.79828,5.31215 -0.25327,1.71753 -0.56912,3.42162 -0.86334,5.13291 -0.15737,1.69357 -0.56462,3.34492 -0.84263,5.01941 -0.3812,1.5595 -0.67924,3.13052 -0.86153,4.72508 -0.28504,1.2601 -0.57453,2.50868 -0.72724,3.79252 -0.0752,0.73571 -0.0982,1.47507 -0.10725,2.21411 -0.002,0.51195 0.002,1.02391 0.003,1.53585 0.002,0.46234 0.002,0.92468 0.002,1.38702 0.067,1.604 -0.91763,-2.19793 -2.13371,-2.47132 0.36446,-0.002 0.72885,-0.01 1.09331,-0.013 1.34877,-0.008 2.69758,-0.007 4.04637,-0.008 1.80295,-5.9e-4 3.6059,-4.4e-4 5.40884,-4e-4 1.9819,-0.10722 3.93907,0.17722 5.89359,0.45978 0.9536,0.14983 1.91468,0.21819 2.87854,0.24647 0.42445,0.0103 0.84902,0.0147 1.27358,0.0121 0.32197,-0.004 0.64397,-0.003 0.96595,-0.004 1.05048,0.0913 2.32253,-0.45189 -0.75723,0.63141 0.2873,-0.46252 3.24373,-1.633 1.34115,-0.76826 -0.60574,0.352 -1.23242,2.37193 -0.22771,-0.0456 0.33571,-0.64761 0.8139,-1.23275 1.26091,-1.81196 0.39916,-0.48167 0.56716,-1.11467 0.75303,-1.7498 0.26288,-1.37239 0.57751,-2.73686 0.97032,-4.07842 0.40534,-1.41824 0.79982,-2.84326 1.11034,-4.28616 0.21936,-1.81465 0.57043,-3.60865 0.8609,-5.41266 0.13113,-1.28678 0.61602,-2.49327 0.81408,-3.76784 0.33654,-1.4159 0.60727,-2.84333 0.76838,-4.28982 0.0892,-0.97358 0.10641,-1.95176 0.11438,-2.92879 0.002,-0.73257 -0.002,-1.46515 -0.004,-2.19772 -0.001,-0.58949 -0.002,-1.17899 -0.002,-1.76848 -1.4e-4,-0.30267 -1.1e-4,-0.60534 -9e-5,-0.908 1.3e-4,-1.11457 -0.0132,0.22728 1.67758,2.53592 0.0651,0.0889 0.21187,0.0629 0.31236,0.10812 0.12841,0.0577 -0.28209,0.0189 -0.42231,0.006 -0.32322,-0.0291 -0.64438,-0.0777 -0.96657,-0.11663 -1.28052,-0.23373 -2.5692,-0.41735 -3.86745,-0.51294 -1.04739,-0.0607 -2.09686,-0.0689 -3.14571,-0.0724 -0.44803,-4.3e-4 -0.89607,-3.3e-4 -1.34409,0.003 -1.40095,0.0486 2.73074,-3.96639 2.74091,-2.43049 0.0201,4.04056 -5.69411,4.06899 -5.71421,0.0284 l 0,0 c -0.006,-1.49056 1.41464,-3.33746 2.92888,-3.31206 0.46926,-0.004 0.93854,-0.004 1.40782,-0.003 1.18601,0.004 2.37277,0.0149 3.55688,0.0886 1.42471,0.10977 2.8421,0.29317 4.24737,0.55445 1.7991,0.4057 4.30286,-0.32537 4.30283,3.12332 -2e-5,0.30143 -5e-5,0.60286 9e-5,0.90429 3.3e-4,0.58612 8.8e-4,1.17224 0.002,1.75835 0.002,0.75291 0.006,1.50583 0.004,2.25874 -0.01,1.17655 -0.0349,2.35447 -0.15071,3.52618 -0.17735,1.53782 -0.43179,3.06516 -0.80696,4.56817 -0.21459,1.27063 -0.63049,2.48429 -0.81206,3.75546 -0.3087,1.90658 -0.66533,3.80427 -0.919,5.71907 -0.34959,1.58716 -0.77401,3.15846 -1.22287,4.7198 -0.42923,1.34927 -0.64828,2.75376 -0.98497,4.12619 -0.40062,1.24819 -0.85924,2.53339 -1.6989,3.5599 -0.92372,1.17069 -0.29582,0.16403 -0.88654,1.26875 0.0881,-0.26381 0.27825,-1.06919 0.26423,-0.79142 -0.0487,0.96573 -0.82001,1.7999 -1.46194,2.41975 -3.09668,1.72545 -0.34422,0.18782 -1.01373,0.49954 -1.46097,0.5895 -1.76147,0.87204 -3.02169,0.80314 -0.30686,4e-4 -0.61375,-1.7e-4 -0.9206,0.003 -0.50024,0.004 -1.00052,-0.003 -1.50062,-0.0145 -1.17914,-0.0371 -2.35544,-0.12188 -3.5223,-0.30266 -1.68555,-0.2439 -3.36517,-0.51295 -5.07577,-0.40093 -1.80195,-5e-5 -3.6039,-1.9e-4 -5.40584,4e-4 -1.33316,6.7e-4 -2.66634,3.8e-4 -3.99948,0.008 -0.51055,0.004 -1.02146,0.0236 -1.5318,-1e-5 -1.62564,-0.17121 -3.2693,-1.22801 -3.19184,-3.22618 -2.9e-4,-0.45728 -6.5e-4,-0.91457 -0.002,-1.37185 -0.002,-0.54232 -0.006,-1.08465 -0.003,-1.62697 0.0123,-0.94327 0.0459,-1.88689 0.14783,-2.82533 0.15466,-1.27053 0.36787,-2.53155 0.72378,-3.76322 0.19617,-1.69016 0.48336,-3.36452 0.9025,-5.01497 0.28444,-1.68523 0.68763,-3.34662 0.84809,-5.05147 0.30634,-1.75427 0.62394,-3.50097 0.8873,-5.26221 0.32885,-1.66017 0.46182,-3.34078 0.74692,-5.00896 0.65546,-2.814 -1.84211,0.35535 2.85836,-4.71417 0.0944,1e-4 0.1887,2.4e-4 0.28305,5.1e-4 0.77549,0.002 1.55098,0.004 2.32646,0.007 1.11908,0.004 2.23832,0.0135 3.3573,-0.005 1.14435,-0.035 2.28675,-0.13567 3.40669,-0.38546 2.1546,-0.44861 4.26603,-1.0779 6.42624,-1.50272 3.91997,-0.98 5.30589,4.56367 1.38592,5.54367 z"
       inkscape:connector-curvature="0"
       transform="translate(136.50022,86.379181)" />
  </g>
</svg>
