<?xml version="1.0" encoding="UTF-8" standalone="no"?>
<!-- Created with Inkscape (http://www.inkscape.org/) -->

<svg
   xmlns:dc="http://purl.org/dc/elements/1.1/"
   xmlns:cc="http://creativecommons.org/ns#"
   xmlns:rdf="http://www.w3.org/1999/02/22-rdf-syntax-ns#"
   xmlns:svg="http://www.w3.org/2000/svg"
   xmlns="http://www.w3.org/2000/svg"
   xmlns:sodipodi="http://sodipodi.sourceforge.net/DTD/sodipodi-0.dtd"
   xmlns:inkscape="http://www.inkscape.org/namespaces/inkscape"
   width="255.97346"
   height="101.38736"
   id="svg5421"
   version="1.1"
   inkscape:version="0.48.5 r10040"
   sodipodi:docname="popul_dens.svg">
  <defs
     id="defs5423" />
  <sodipodi:namedview
     id="base"
     pagecolor="#ffffff"
     bordercolor="#666666"
     borderopacity="1.0"
     inkscape:pageopacity="0.0"
     inkscape:pageshadow="2"
     inkscape:zoom="2.8"
     inkscape:cx="130.50018"
     inkscape:cy="44.163045"
     inkscape:document-units="px"
     inkscape:current-layer="layer1"
     showgrid="false"
     inkscape:window-width="1243"
     inkscape:window-height="891"
     inkscape:window-x="47"
     inkscape:window-y="11"
     inkscape:window-maximized="0"
     fit-margin-top="0"
     fit-margin-left="0"
     fit-margin-right="0"
     fit-margin-bottom="0" />
  <metadata
     id="metadata5426">
    <rdf:RDF>
      <cc:Work
         rdf:about="">
        <dc:format>image/svg+xml</dc:format>
        <dc:type
           rdf:resource="http://purl.org/dc/dcmitype/StillImage" />
        <dc:title></dc:title>
      </cc:Work>
    </rdf:RDF>
  </metadata>
  <g
     inkscape:label="Layer 1"
     inkscape:groupmode="layer"
     id="layer1"
     transform="translate(-67.116792,-68.609249)">
    <path
       style="fill:#000000;fill-opacity:1;fill-rule:nonzero;stroke:none"
       id="path5433"
       d="m 75.279851,160.97672 c 1.13956,0.17931 2.286475,0.30345 3.437515,0.37613 0.959376,0.0509 1.920365,0.0553 2.880836,0.0582 0.775128,5.7e-4 1.550255,-10e-4 2.325382,-0.002 1.129597,-0.001 2.259195,-0.001 3.388792,-0.001 1.161396,-6e-5 2.322791,-4e-5 3.484187,-3e-5 1.16278,0.0644 2.30579,-0.16356 3.45573,-0.29746 1.483037,-0.0851 2.953991,-0.23318 4.427231,-0.42147 1.032874,-0.13168 2.068946,-0.23437 3.109406,-0.27643 1.18631,0.0197 2.35777,-0.18849 3.53418,-0.31662 1.2086,-0.13053 2.42357,-0.17461 3.6382,-0.19681 1.06879,-0.0438 2.14426,0.0553 3.20814,-0.0643 1.19056,-0.16785 2.38495,-0.30223 3.58421,-0.38804 0.86994,-0.0624 1.74255,-0.0603 2.61418,-0.0624 1.25898,-0.0326 2.52437,0.0698 3.77884,-0.054 1.45694,-0.2064 2.92159,-0.32529 4.39097,-0.38996 1.56283,-0.0563 3.12692,-0.0584 4.69056,-0.0611 1.27848,-6.2e-4 2.55695,10e-4 3.83543,0.002 1.05895,7.8e-4 2.1179,9.6e-4 3.17685,0.001 1.1398,0.15631 2.27106,0.33458 3.41997,0.41616 1.3341,0.0772 2.671,0.0846 4.00694,0.0911 1.06517,0.003 2.13034,4.3e-4 3.19551,-5.5e-4 1.43384,-0.0742 2.85122,0.15099 4.2713,0.30893 1.20601,0.12036 2.41775,0.16344 3.62893,0.18807 1.23733,0.0146 2.47479,0.0101 3.71218,0.009 1.40497,-0.001 2.80995,-0.002 4.21492,-0.002 1.02804,-0.0232 2.02513,0.26108 3.04263,0.37187 1.35283,0.11745 2.71256,0.12148 4.06952,0.13206 1.18665,0.0958 2.35509,0.32363 3.54184,0.41994 1.47492,0.0969 2.93668,0.32815 4.40969,0.45821 1.29098,0.0857 2.57635,0.10416 3.85837,0.28763 1.04853,0.19139 2.11671,0.22406 3.16685,0.39447 1.40947,0.23628 2.82346,0.4552 4.24047,0.64557 1.57258,0.14082 3.1349,0.31162 4.69609,0.54791 1.32974,0.21011 2.67726,0.24027 4.02037,0.26544 1.54363,0.0205 3.08745,0.0172 4.63117,0.0159 1.40174,-0.002 2.80348,-0.003 4.20522,-0.003 1.32883,-4.1e-4 2.65767,-4.4e-4 3.9865,-4.6e-4 1.29678,0 2.59357,2e-5 3.89035,2e-5 1.40426,1e-5 2.80852,1e-5 4.21277,1e-5 1.07332,0.0763 2.12027,-0.0795 3.17948,-0.21997 1.14399,-0.14646 2.29439,-0.22909 3.44665,-0.26785 1.34624,-0.0274 2.6929,-0.0211 4.03934,-0.0205 1.27229,-0.10623 2.53439,-0.29895 3.8067,-0.40714 1.39275,-0.0931 2.78951,-0.0913 4.18468,-0.0967 1.32044,-0.003 2.64089,-7.6e-4 3.96134,5.2e-4 1.19698,0.001 2.39397,0.001 3.59095,0.001 1.386,1.2e-4 2.77201,1e-4 4.15801,9e-5 1.29127,-1e-5 2.58255,-1e-5 3.87382,-2e-5 1.30295,0 2.6059,0 3.90885,0 1.3513,0.0126 2.70124,-0.0841 4.03573,0.16152 0.95821,0.2107 1.93345,0.31459 2.90222,0.46697 1.30478,0.20049 2.62325,0.29594 3.94124,0.35354 0.87624,0.0358 1.75338,0.0327 2.63016,0.0324 1.24972,-0.002 2.49944,-0.003 3.74916,-0.004 1.04277,-0.0647 2.0579,0.18428 3.07125,0.38462 0.81015,0.12332 1.634,0.11107 2.45131,0.11886 1.10405,0.006 2.20812,0.005 3.31218,0.003 0.6253,-10e-4 1.2506,-0.002 1.8759,-0.002 0.80184,-2.1e-4 1.60367,-1.8e-4 2.40551,-1.8e-4 0.70816,-0.052 1.36371,0.24416 2.04138,0.39043 0.8791,0.0992 1.74198,0.2989 2.61716,0.42912 0.8268,0.11646 1.66013,0.16145 2.49388,0.18651 0.52546,-0.053 0.92773,0.26256 1.35836,0.49658 0.0831,-0.0487 0.60057,0.006 0.82206,0.0123 0.25741,0.006 0.5149,0.004 0.77234,0.002 0.0679,-3.4e-4 0.13582,-0.001 0.20373,-0.002 -0.004,-3e-5 -0.008,1.8e-4 -0.0115,2.7e-4 1.42784,-0.0459 1.4927,1.97341 0.0649,2.01927 l 0,0 c -0.008,1.7e-4 -0.0151,4.5e-4 -0.0226,5.3e-4 -0.0741,9.1e-4 -0.14815,0.002 -0.22223,0.002 -0.27974,0.002 -0.55952,0.004 -0.83922,-0.003 -0.58623,-0.0161 -1.18941,-0.0184 -1.73566,-0.25875 -1.06102,-0.58142 0.20728,-0.0982 -0.45111,-0.25035 -0.91332,-0.0277 -1.82613,-0.0791 -2.73166,-0.20781 -0.92308,-0.13868 -1.83332,-0.34306 -2.75957,-0.45567 -0.53212,-0.12187 -1.05101,-0.35548 -1.60017,-0.34165 -0.80155,0 -1.6031,-3e-5 -2.40466,1.7e-4 -0.6246,2.6e-4 -1.2492,9.1e-4 -1.87379,0.002 -1.11151,0.002 -2.22304,0.004 -3.33454,-0.003 -0.94273,-0.009 -1.89291,7.1e-4 -2.82543,-0.15747 -0.88343,-0.17612 -1.76674,-0.40796 -2.67659,-0.34592 -1.24991,7.1e-4 -2.49983,0.002 -3.74974,0.004 -0.90654,2.5e-4 -1.81345,0.003 -2.71942,-0.0344 -1.39339,-0.0616 -2.78716,-0.16334 -4.16651,-0.37614 -0.98964,-0.15573 -1.98586,-0.26282 -2.96489,-0.47784 -1.20491,-0.23833 -2.43811,-0.0843 -3.65908,-0.12611 -1.30295,0 -2.60589,0 -3.90884,1e-5 -1.29127,0 -2.58255,1e-5 -3.87382,1e-5 -1.3861,1e-5 -2.77219,4e-5 -4.15829,-8e-5 -1.19754,-1.6e-4 -2.39509,-4.4e-4 -3.59264,-0.001 -1.31718,-0.001 -2.63437,-0.003 -3.95155,-5.3e-4 -1.34091,0.005 -2.68331,0.003 -4.02204,0.0896 -1.32924,0.11205 -2.64669,0.32651 -3.97798,0.41435 -1.3237,-5.3e-4 -2.64761,-0.007 -3.97112,0.0194 -1.08608,0.0359 -2.17036,0.11404 -3.2487,0.25147 -1.14599,0.15172 -2.28454,0.31079 -3.44484,0.23748 -1.40426,0 -2.80852,-10e-6 -4.21278,-10e-6 -1.29677,-1e-5 -2.59354,-2e-5 -3.89031,-2e-5 -1.3286,1e-5 -2.65719,5e-5 -3.98579,4.6e-4 -1.4014,5.1e-4 -2.80281,0.001 -4.20421,0.003 -1.557,0.001 -3.1141,0.005 -4.671,-0.0162 -1.43159,-0.0271 -2.86743,-0.0635 -4.28462,-0.28783 -1.55045,-0.23467 -3.10173,-0.40114 -4.66341,-0.54324 -1.43967,-0.19432 -2.8763,-0.41691 -4.30862,-0.65594 -1.02923,-0.1855 -2.08874,-0.17848 -3.11693,-0.38664 -1.24485,-0.18038 -2.49498,-0.18169 -3.74859,-0.27488 -1.4689,-0.13028 -2.92672,-0.35945 -4.39732,-0.45716 -1.13677,-0.0947 -2.25846,-0.29078 -3.3919,-0.41319 -1.42602,-0.0112 -2.85499,-0.0164 -4.27636,-0.1443 -0.94368,-0.10622 -1.86946,-0.35835 -2.8193,-0.35956 -1.40472,4.8e-4 -2.80943,0.001 -4.21415,0.002 -1.25162,9.1e-4 -2.50333,0.006 -3.7549,-0.01 -1.27203,-0.0261 -2.54463,-0.0722 -3.81112,-0.20004 -1.34563,-0.14981 -2.6872,-0.3705 -4.046,-0.29654 -1.06906,9.8e-4 -2.13812,0.004 -3.20717,5.3e-4 -1.38091,-0.007 -2.76281,-0.0149 -4.14175,-0.0962 -1.09982,-0.0797 -2.19,-0.21678 -3.27558,-0.41099 -1.0594,-1.1e-4 -2.11879,-3e-4 -3.17818,-0.001 -1.27679,-9.8e-4 -2.55358,-0.003 -3.83037,-0.002 -1.53535,0.003 -3.07115,0.005 -4.60573,0.0592 -1.43779,0.0626 -2.8702,0.1828 -4.29588,0.38355 -1.3162,0.11252 -2.63732,0.0466 -3.95742,0.0624 -0.82535,0.002 -1.65169,-0.001 -2.47548,0.0573 -1.17911,0.0836 -2.35279,0.21974 -3.52348,0.38279 -1.12268,0.10556 -2.24896,0.0509 -3.37569,0.0744 -1.1539,0.0209 -2.30818,0.0616 -3.45639,0.18529 -1.22189,0.13281 -2.43993,0.34497 -3.67219,0.32687 -0.9818,0.0386 -1.95916,0.1385 -2.933804,0.26173 -1.4806,0.18924 -2.959543,0.34106 -4.450068,0.42426 -1.22688,0.14237 -2.448351,0.37769 -3.689041,0.31098 -1.16134,-1e-5 -2.322681,-3e-5 -3.484021,3e-5 -1.128902,8e-5 -2.257804,5e-5 -3.386706,0.001 -0.777873,8.6e-4 -1.555745,0.003 -2.333619,0.002 -1.001198,-0.003 -2.002935,-0.008 -3.002945,-0.0622 -1.219318,-0.0779 -2.434472,-0.2084 -3.641541,-0.39955 -1.409134,-0.23486 -1.076998,-2.22767 0.332136,-1.99282 z"
       inkscape:connector-curvature="0" />
    <path
       style="fill:#000000;fill-opacity:1;fill-rule:nonzero;stroke:none"
       id="path5439"
       d="m 299.32188,158.70238 c 0.89993,0.50333 1.77419,1.05554 2.653,1.59672 0.61846,0.4575 1.28702,0.82166 1.95939,1.19178 0.75348,0.42648 1.44388,0.94702 2.14982,1.44427 0.53984,0.35237 1.14781,0.57376 1.70312,0.90329 0.5028,0.3328 1.07401,0.51674 1.60536,0.79566 0.45211,0.23824 0.8481,0.5673 1.22909,0.90456 -0.0706,-0.0446 0.25506,0.21268 0.18243,0.17154 -0.13548,-0.0767 -0.26043,-0.17068 -0.39064,-0.25602 0.13776,0.001 0.27556,-0.002 0.41332,-0.003 0.0924,-9.4e-4 0.18489,-0.002 0.27733,-0.003 0.65899,0.59331 0.3768,2.02008 -0.42996,2.02013 -0.38779,-0.0378 -0.72022,0.0149 -1.08295,0.11072 -0.96198,0.391 -1.95199,0.70989 -2.9237,1.07573 -0.80627,0.34993 -1.63853,0.62271 -2.50609,0.7639 -0.3535,0.0461 -0.70955,0.0784 -1.06627,0.0783 -0.83676,0.10882 0.94199,-1.549 0.95645,-0.72487 10e-4,0.0611 0.002,0.12208 0.004,0.18312 -0.94897,1.06194 -0.76512,1.04489 -1.62299,1.0407 -0.1299,-6.5e-4 -0.25979,-0.001 -0.38969,-0.002 -0.142,-1.4e-4 -0.28399,-1.3e-4 -0.42599,-1.2e-4 -0.57556,0.002 -0.12257,-0.0404 -1.09875,-1.10906 0.0223,-0.47629 -0.17454,-0.8837 -0.28212,-1.3906 -0.15197,-0.73074 -0.18888,-1.4778 -0.21336,-2.22168 -0.0133,-0.55741 -0.0111,-1.11502 -0.01,-1.67254 0.001,-0.4314 0.002,-0.8628 0.002,-1.2942 3.2e-4,-0.29911 2.9e-4,-0.59822 3e-4,-0.89733 0,-0.30153 -10e-6,-0.60306 -2e-5,-0.90458 0,-0.17339 0,-0.34677 0,-0.52016 -10e-6,-1.42857 2.02029,-1.42859 2.0203,-2e-5 l 0,0 c 0,0.17338 0,0.34676 1e-5,0.52014 0,0.30155 10e-6,0.60311 2e-5,0.90466 -10e-6,0.29986 1e-5,0.59972 -3e-4,0.89958 -4.9e-4,0.43213 -10e-4,0.86425 -0.002,1.29638 -10e-4,0.53407 -0.003,1.06823 0.009,1.6022 0.0203,0.62761 0.0458,1.25869 0.172,1.87566 0.11863,0.58494 0.36277,1.15249 0.32408,1.75868 -1.10907,-0.95452 -1.4381,-0.86529 -0.92124,-0.86744 0.14625,0 0.29251,-4e-5 0.43876,1.7e-4 0.12899,7.8e-4 0.25797,0.001 0.38696,0.002 0.82939,0.004 0.71413,-0.10331 -0.40648,1.03332 -0.002,-0.0671 -0.003,-0.1343 -0.004,-0.20146 -0.0111,-0.6329 1.65204,-1.31259 1.07147,-1.33082 0.2496,-0.002 0.49866,-0.023 0.74627,-0.0541 0.73439,-0.10742 1.4274,-0.37475 2.1096,-0.65982 1.03709,-0.38663 2.08617,-0.74009 3.1193,-1.13784 0.52862,-0.138 1.0495,-0.21395 1.59578,-0.17694 0.81218,-5e-5 1.03059,1.318 0.44915,2.02039 -0.0919,8.8e-4 -0.18389,0.002 -0.27583,0.003 -0.18438,0.002 -0.36891,0.007 -0.55322,-3.7e-4 -0.37314,-0.0256 -0.75054,-0.13744 -1.01321,-0.42101 -0.25954,-0.23092 -0.52506,-0.46447 -0.8322,-0.62958 -0.569,-0.30336 -1.19232,-0.49224 -1.72609,-0.86489 -0.56378,-0.38591 -1.27142,-0.52968 -1.80574,-0.97132 -0.64318,-0.45708 -1.27514,-0.92995 -1.96026,-1.32528 -0.69835,-0.38763 -1.39869,-0.76685 -2.04345,-1.24094 -0.86975,-0.53918 -1.73756,-1.08551 -2.63072,-1.58316 -1.22499,-0.735 -0.18555,-2.46739 1.03944,-1.7324 z"
       inkscape:connector-curvature="0" />
    <path
       style="fill:#000000;fill-opacity:1;fill-rule:nonzero;stroke:none"
       id="path5523"
       d="m 322.80981,164.40266 c -0.36223,0.34891 -0.68902,0.7317 -1.02758,1.10307 -0.34327,0.36491 -0.66296,0.75105 -0.97219,1.14492 -0.26934,0.3466 -0.55209,0.68119 -0.81089,1.03593 -0.19492,0.27 -0.41336,0.52108 -0.6106,0.78915 -0.12681,0.20743 -0.24599,0.41731 -0.39381,0.6109 -0.19022,0.28751 0.0645,-0.16387 -0.13902,0.2038 -0.0229,0.0361 -0.0443,0.0732 -0.0647,0.11078 -0.002,0.005 0.005,-0.0105 0.007,-0.0157 -0.20947,0.49307 -0.90677,0.19683 -0.6973,-0.29623 l 0,0 c 0.007,-0.0153 0.0139,-0.0305 0.0219,-0.0452 0.0327,-0.061 0.0679,-0.12073 0.10572,-0.17878 0.0149,-0.0212 0.0236,-0.0785 0.0447,-0.0636 0.0214,0.0152 -0.0319,0.097 -0.0345,0.0708 -0.009,-0.0878 0.10949,-0.17804 0.15476,-0.24707 0.14583,-0.18879 0.25228,-0.4007 0.38468,-0.59876 0.19672,-0.26725 0.41335,-0.51838 0.6088,-0.7867 0.26417,-0.36189 0.55196,-0.70375 0.827,-1.0572 0.32074,-0.40846 0.65248,-0.80878 1.00821,-1.18748 0.34644,-0.37994 0.68112,-0.77132 1.05173,-1.12835 0.3788,-0.3788 0.91452,0.15691 0.53571,0.53572 z"
       inkscape:connector-curvature="0" />
    <path
       style="fill:#000000;fill-opacity:1;fill-rule:nonzero;stroke:none"
       id="path5525"
       d="m 322.37361,169.22942 c -0.16299,-0.32272 -0.36565,-0.62279 -0.56064,-0.92653 -0.27835,-0.46267 -0.60712,-0.89319 -0.94604,-1.3127 -0.37043,-0.46096 -0.74132,-0.92151 -1.1135,-1.38108 -0.24539,-0.30414 -0.51201,-0.58987 -0.78296,-0.87111 -0.16995,-0.15955 -0.32146,-0.33635 -0.4808,-0.50541 -0.0723,-0.10222 -0.1795,-0.22374 -0.24909,-0.30244 -0.0659,-0.0404 -0.1178,-0.0984 -0.18101,-0.14314 -0.0881,-0.0916 -0.10593,-0.10459 -0.16602,-0.14994 -0.0169,-0.0129 -0.0281,-0.0181 -0.002,-0.003 0.007,0.004 0.0147,0.007 0.0221,0.0111 -0.4871,-0.22298 -0.17176,-0.91185 0.31534,-0.68887 l 0,0 c 0.008,0.004 0.0163,0.008 0.0245,0.0122 0.0356,0.0201 0.0694,0.0431 0.10185,0.068 0.0504,0.039 0.29141,0.29408 0.11323,0.1126 -0.01,-0.01 0.0224,0.0154 0.0336,0.0231 0.17923,0.12997 0.0892,0.0905 0.25162,0.20068 0.10706,0.10786 0.20584,0.22461 0.29465,0.34806 0.15159,0.16796 0.30507,0.33369 0.46794,0.49174 0.28598,0.29693 0.56707,0.59887 0.82609,0.91993 0.3724,0.45992 0.74357,0.92078 1.11429,1.38203 0.35566,0.44113 0.70106,0.89344 0.99403,1.37926 0.19906,0.31012 0.40629,0.61656 0.57273,0.946 0.27562,0.45937 -0.37403,0.84916 -0.64965,0.38979 z"
       inkscape:connector-curvature="0" />
  </g>
</svg>
