<?xml version="1.0" encoding="UTF-8" standalone="no"?>
<!-- Created with Inkscape (http://www.inkscape.org/) -->

<svg
   xmlns:dc="http://purl.org/dc/elements/1.1/"
   xmlns:cc="http://creativecommons.org/ns#"
   xmlns:rdf="http://www.w3.org/1999/02/22-rdf-syntax-ns#"
   xmlns:svg="http://www.w3.org/2000/svg"
   xmlns="http://www.w3.org/2000/svg"
   xmlns:sodipodi="http://sodipodi.sourceforge.net/DTD/sodipodi-0.dtd"
   xmlns:inkscape="http://www.inkscape.org/namespaces/inkscape"
   width="255.97346"
   height="162.39"
   id="svg5421"
   version="1.1"
   inkscape:version="0.48.5 r10040"
   sodipodi:docname="popul_dens.svg">
  <defs
     id="defs5423" />
  <sodipodi:namedview
     id="base"
     pagecolor="#ffffff"
     bordercolor="#666666"
     borderopacity="1.0"
     inkscape:pageopacity="0.0"
     inkscape:pageshadow="2"
     inkscape:zoom="2.8"
     inkscape:cx="130.50018"
     inkscape:cy="44.163045"
     inkscape:document-units="px"
     inkscape:current-layer="layer1"
     showgrid="false"
     inkscape:window-width="1243"
     inkscape:window-height="891"
     inkscape:window-x="465"
     inkscape:window-y="95"
     inkscape:window-maximized="0"
     fit-margin-top="0"
     fit-margin-left="0"
     fit-margin-right="0"
     fit-margin-bottom="0" />
  <metadata
     id="metadata5426">
    <rdf:RDF>
      <cc:Work
         rdf:about="">
        <dc:format>image/svg+xml</dc:format>
        <dc:type
           rdf:resource="http://purl.org/dc/dcmitype/StillImage" />
        <dc:title></dc:title>
      </cc:Work>
    </rdf:RDF>
  </metadata>
  <g
     inkscape:label="Layer 1"
     inkscape:groupmode="layer"
     id="layer1"
     transform="translate(-67.116792,-7.6065492)">
    <path
       style="fill:#000000;fill-opacity:1;fill-rule:nonzero;stroke:none"
       id="path5429"
       d="m 74.292884,93.923843 c 0.248719,1.696794 0.33462,3.411153 0.400829,5.122973 0.05398,1.665694 0.05822,3.332404 0.06093,4.998794 0.02485,1.50379 -0.05962,3.01072 0.05548,4.51112 0.20391,1.69547 0.319677,3.39811 0.388618,5.10381 0.0547,1.66981 0.05826,3.34067 0.06096,5.01119 5.94e-4,1.46208 -0.0013,2.92417 -0.0022,4.38625 -8.39e-4,1.5702 -9.81e-4,3.14039 -0.0011,4.71058 -5.8e-5,1.24037 -4.3e-5,2.48074 -3.3e-5,3.72111 -0.07516,1.1769 0.06418,2.32837 0.219806,3.4908 0.166343,1.31523 0.231492,2.63972 0.268214,3.96395 0.02013,0.913 0.02116,1.82626 0.02033,2.73943 -0.0017,0.9763 -0.0023,1.95259 -0.0028,2.92889 -3.9e-4,1.06793 -4.61e-4,2.13587 -4.88e-4,3.20381 -9e-6,0.83038 6e-6,1.66076 1.2e-5,2.49114 7e-6,1.18885 8e-6,2.37769 9e-6,3.56654 0,0.89426 0,1.78853 0,2.68279 0,0.55178 0,1.10356 0,1.65534 0,0.64409 0,1.28819 0,1.93228 0,0.40544 0,0.81087 0,1.21631 0,1.42857 -2.020305,1.42857 -2.020305,0 l 0,0 c 0,-0.40544 0,-0.81087 0,-1.21631 0,-0.64409 0,-1.28819 0,-1.93228 0,-0.55178 0,-1.10356 0,-1.65534 0,-0.89426 0,-1.78853 0,-2.68279 -10e-7,-1.18884 -2e-6,-2.37768 -9e-6,-3.56652 -6e-6,-0.83041 -2.1e-5,-1.66081 -1.3e-5,-2.49122 2.8e-5,-1.06822 9.9e-5,-2.13645 4.89e-4,-3.20467 4.45e-4,-0.9766 0.0011,-1.9532 0.0028,-2.9298 8.12e-4,-0.89398 -9.7e-5,-1.78804 -0.01957,-2.68185 -0.03443,-1.25323 -0.09483,-2.50676 -0.251118,-3.75161 -0.167388,-1.25029 -0.310253,-2.49393 -0.237672,-3.75888 -1e-5,-1.24041 -2.5e-5,-2.48083 3.3e-5,-3.72125 1e-4,-1.57056 2.42e-4,-3.14113 0.0011,-4.71169 9.03e-4,-1.46059 0.0028,-2.92117 0.0022,-4.38175 -0.0027,-1.64449 -0.006,-3.28932 -0.05933,-4.93312 -0.06761,-1.68384 -0.184787,-3.36417 -0.384888,-5.03798 -0.108413,-1.54939 -0.04643,-3.1025 -0.06085,-4.65499 -0.0027,-1.64152 -0.0066,-3.28334 -0.05943,-4.924173 -0.06264,-1.626705 -0.142445,-3.255806 -0.374843,-4.868747 -0.234856,-1.409135 1.757961,-1.741271 1.992817,-0.332137 z"
       inkscape:connector-curvature="0" />
    <path
       style="fill:#000000;fill-opacity:1;fill-rule:nonzero;stroke:none"
       id="path5431"
       d="m 72.558314,85.317977 c -0.46269,1.492161 -0.911109,2.990295 -1.438654,4.461084 -0.462197,1.255142 -0.902613,2.520672 -1.442279,3.745096 -0.185244,0.456778 -0.360998,0.918519 -0.501758,1.391203 -0.0099,0.131115 -0.116925,-0.66781 -0.304146,-0.910239 0.431004,0.183179 0.933091,0.171746 1.394238,0.196763 0.954687,0.03662 1.910345,0.03361 2.86557,0.03406 0.844073,-3.74e-4 1.688145,-0.0017 2.532217,-0.0027 1.166832,-0.01583 -0.03511,-0.02588 -0.367695,0.59977 -0.04317,0.178331 -0.0287,-0.238255 -0.0294,-0.263282 -0.02622,-0.291 0.03753,-0.592274 -0.05211,-0.872499 -0.317792,-1.072183 -0.823093,-2.059026 -1.407986,-3.007034 -0.569547,-0.989959 -1.185754,-1.95228 -1.904567,-2.840575 -0.498964,-0.483123 -1.015991,-0.945184 -1.55142,-1.387528 -0.361195,-0.264429 -0.709504,-0.544934 -1.051297,-0.833931 -0.11938,-0.102297 -0.06426,-0.05473 -0.165495,-0.142552 -1.078881,-0.936393 0.245378,-2.462162 1.324259,-1.525769 l 0,0 c 0.08847,0.07682 0.03986,0.03483 0.145961,0.125815 0.340991,0.288546 0.690788,0.564916 1.048882,0.831892 0.625673,0.534392 1.256473,1.063188 1.822243,1.664443 0.76942,0.958225 1.443476,1.985265 2.053647,3.051978 0.706723,1.158209 1.320727,2.367272 1.67048,3.685675 0.06231,0.400291 0.09417,0.789632 0.08692,1.193687 0.0079,0.284711 0.02726,0.571489 -0.04102,0.851358 -0.307638,0.733793 -0.870585,0.942855 -1.578906,0.888855 -0.845224,0.001 -1.690447,0.0024 -2.535671,0.0027 -0.992273,-4.77e-4 -1.985019,0.0025 -2.976682,-0.03717 -0.764647,-0.04335 -1.560437,-0.07433 -2.251694,-0.44149 -0.477982,-0.303062 -0.881421,-0.87059 -0.661687,-1.441874 0.166256,-0.552826 0.368749,-1.094312 0.589016,-1.627724 0.522335,-1.180154 0.941368,-2.403277 1.389405,-3.612961 0.525273,-1.454621 0.961687,-2.940141 1.423006,-4.415929 0.451754,-1.355262 2.368384,-0.716385 1.91663,0.638877 z"
       inkscape:connector-curvature="0" />
    <path
       style="fill:#000000;fill-opacity:1;fill-rule:nonzero;stroke:none"
       id="path5433"
       d="m 75.279851,160.97672 c 1.13956,0.17931 2.286475,0.30345 3.437515,0.37613 0.959376,0.0509 1.920365,0.0553 2.880836,0.0582 0.775128,5.7e-4 1.550255,-10e-4 2.325382,-0.002 1.129597,-0.001 2.259195,-0.001 3.388792,-0.001 1.161396,-6e-5 2.322791,-4e-5 3.484187,-3e-5 1.16278,0.0644 2.30579,-0.16356 3.45573,-0.29746 1.483037,-0.0851 2.953991,-0.23318 4.427231,-0.42147 1.032874,-0.13168 2.068946,-0.23437 3.109406,-0.27643 1.18631,0.0197 2.35777,-0.18849 3.53418,-0.31662 1.2086,-0.13053 2.42357,-0.17461 3.6382,-0.19681 1.06879,-0.0438 2.14426,0.0553 3.20814,-0.0643 1.19056,-0.16785 2.38495,-0.30223 3.58421,-0.38804 0.86994,-0.0624 1.74255,-0.0603 2.61418,-0.0624 1.25898,-0.0326 2.52437,0.0698 3.77884,-0.054 1.45694,-0.2064 2.92159,-0.32529 4.39097,-0.38996 1.56283,-0.0563 3.12692,-0.0584 4.69056,-0.0611 1.27848,-6.2e-4 2.55695,10e-4 3.83543,0.002 1.05895,7.8e-4 2.1179,9.6e-4 3.17685,0.001 1.1398,0.15631 2.27106,0.33458 3.41997,0.41616 1.3341,0.0772 2.671,0.0846 4.00694,0.0911 1.06517,0.003 2.13034,4.3e-4 3.19551,-5.5e-4 1.43384,-0.0742 2.85122,0.15099 4.2713,0.30893 1.20601,0.12036 2.41775,0.16344 3.62893,0.18807 1.23733,0.0146 2.47479,0.0101 3.71218,0.009 1.40497,-0.001 2.80995,-0.002 4.21492,-0.002 1.02804,-0.0232 2.02513,0.26108 3.04263,0.37187 1.35283,0.11745 2.71256,0.12148 4.06952,0.13206 1.18665,0.0958 2.35509,0.32363 3.54184,0.41994 1.47492,0.0969 2.93668,0.32815 4.40969,0.45821 1.29098,0.0857 2.57635,0.10416 3.85837,0.28763 1.04853,0.19139 2.11671,0.22406 3.16685,0.39447 1.40947,0.23628 2.82346,0.4552 4.24047,0.64557 1.57258,0.14082 3.1349,0.31162 4.69609,0.54791 1.32974,0.21011 2.67726,0.24027 4.02037,0.26544 1.54363,0.0205 3.08745,0.0172 4.63117,0.0159 1.40174,-0.002 2.80348,-0.003 4.20522,-0.003 1.32883,-4.1e-4 2.65767,-4.4e-4 3.9865,-4.6e-4 1.29678,0 2.59357,2e-5 3.89035,2e-5 1.40426,1e-5 2.80852,1e-5 4.21277,1e-5 1.07332,0.0763 2.12027,-0.0795 3.17948,-0.21997 1.14399,-0.14646 2.29439,-0.22909 3.44665,-0.26785 1.34624,-0.0274 2.6929,-0.0211 4.03934,-0.0205 1.27229,-0.10623 2.53439,-0.29895 3.8067,-0.40714 1.39275,-0.0931 2.78951,-0.0913 4.18468,-0.0967 1.32044,-0.003 2.64089,-7.6e-4 3.96134,5.2e-4 1.19698,0.001 2.39397,0.001 3.59095,0.001 1.386,1.2e-4 2.77201,1e-4 4.15801,9e-5 1.29127,-1e-5 2.58255,-1e-5 3.87382,-2e-5 1.30295,0 2.6059,0 3.90885,0 1.3513,0.0126 2.70124,-0.0841 4.03573,0.16152 0.95821,0.2107 1.93345,0.31459 2.90222,0.46697 1.30478,0.20049 2.62325,0.29594 3.94124,0.35354 0.87624,0.0358 1.75338,0.0327 2.63016,0.0324 1.24972,-0.002 2.49944,-0.003 3.74916,-0.004 1.04277,-0.0647 2.0579,0.18428 3.07125,0.38462 0.81015,0.12332 1.634,0.11107 2.45131,0.11886 1.10405,0.006 2.20812,0.005 3.31218,0.003 0.6253,-10e-4 1.2506,-0.002 1.8759,-0.002 0.80184,-2.1e-4 1.60367,-1.8e-4 2.40551,-1.8e-4 0.70816,-0.052 1.36371,0.24416 2.04138,0.39043 0.8791,0.0992 1.74198,0.2989 2.61716,0.42912 0.8268,0.11646 1.66013,0.16145 2.49388,0.18651 0.52546,-0.053 0.92773,0.26256 1.35836,0.49658 0.0831,-0.0487 0.60057,0.006 0.82206,0.0123 0.25741,0.006 0.5149,0.004 0.77234,0.002 0.0679,-3.4e-4 0.13582,-0.001 0.20373,-0.002 -0.004,-3e-5 -0.008,1.8e-4 -0.0115,2.7e-4 1.42784,-0.0459 1.4927,1.97341 0.0649,2.01927 l 0,0 c -0.008,1.7e-4 -0.0151,4.5e-4 -0.0226,5.3e-4 -0.0741,9.1e-4 -0.14815,0.002 -0.22223,0.002 -0.27974,0.002 -0.55952,0.004 -0.83922,-0.003 -0.58623,-0.0161 -1.18941,-0.0184 -1.73566,-0.25875 -1.06102,-0.58142 0.20728,-0.0982 -0.45111,-0.25035 -0.91332,-0.0277 -1.82613,-0.0791 -2.73166,-0.20781 -0.92308,-0.13868 -1.83332,-0.34306 -2.75957,-0.45567 -0.53212,-0.12187 -1.05101,-0.35548 -1.60017,-0.34165 -0.80155,0 -1.6031,-3e-5 -2.40466,1.7e-4 -0.6246,2.6e-4 -1.2492,9.1e-4 -1.87379,0.002 -1.11151,0.002 -2.22304,0.004 -3.33454,-0.003 -0.94273,-0.009 -1.89291,7.1e-4 -2.82543,-0.15747 -0.88343,-0.17612 -1.76674,-0.40796 -2.67659,-0.34592 -1.24991,7.1e-4 -2.49983,0.002 -3.74974,0.004 -0.90654,2.5e-4 -1.81345,0.003 -2.71942,-0.0344 -1.39339,-0.0616 -2.78716,-0.16334 -4.16651,-0.37614 -0.98964,-0.15573 -1.98586,-0.26282 -2.96489,-0.47784 -1.20491,-0.23833 -2.43811,-0.0843 -3.65908,-0.12611 -1.30295,0 -2.60589,0 -3.90884,1e-5 -1.29127,0 -2.58255,1e-5 -3.87382,1e-5 -1.3861,1e-5 -2.77219,4e-5 -4.15829,-8e-5 -1.19754,-1.6e-4 -2.39509,-4.4e-4 -3.59264,-0.001 -1.31718,-0.001 -2.63437,-0.003 -3.95155,-5.3e-4 -1.34091,0.005 -2.68331,0.003 -4.02204,0.0896 -1.32924,0.11205 -2.64669,0.32651 -3.97798,0.41435 -1.3237,-5.3e-4 -2.64761,-0.007 -3.97112,0.0194 -1.08608,0.0359 -2.17036,0.11404 -3.2487,0.25147 -1.14599,0.15172 -2.28454,0.31079 -3.44484,0.23748 -1.40426,0 -2.80852,-10e-6 -4.21278,-10e-6 -1.29677,-1e-5 -2.59354,-2e-5 -3.89031,-2e-5 -1.3286,1e-5 -2.65719,5e-5 -3.98579,4.6e-4 -1.4014,5.1e-4 -2.80281,0.001 -4.20421,0.003 -1.557,0.001 -3.1141,0.005 -4.671,-0.0162 -1.43159,-0.0271 -2.86743,-0.0635 -4.28462,-0.28783 -1.55045,-0.23467 -3.10173,-0.40114 -4.66341,-0.54324 -1.43967,-0.19432 -2.8763,-0.41691 -4.30862,-0.65594 -1.02923,-0.1855 -2.08874,-0.17848 -3.11693,-0.38664 -1.24485,-0.18038 -2.49498,-0.18169 -3.74859,-0.27488 -1.4689,-0.13028 -2.92672,-0.35945 -4.39732,-0.45716 -1.13677,-0.0947 -2.25846,-0.29078 -3.3919,-0.41319 -1.42602,-0.0112 -2.85499,-0.0164 -4.27636,-0.1443 -0.94368,-0.10622 -1.86946,-0.35835 -2.8193,-0.35956 -1.40472,4.8e-4 -2.80943,0.001 -4.21415,0.002 -1.25162,9.1e-4 -2.50333,0.006 -3.7549,-0.01 -1.27203,-0.0261 -2.54463,-0.0722 -3.81112,-0.20004 -1.34563,-0.14981 -2.6872,-0.3705 -4.046,-0.29654 -1.06906,9.8e-4 -2.13812,0.004 -3.20717,5.3e-4 -1.38091,-0.007 -2.76281,-0.0149 -4.14175,-0.0962 -1.09982,-0.0797 -2.19,-0.21678 -3.27558,-0.41099 -1.0594,-1.1e-4 -2.11879,-3e-4 -3.17818,-0.001 -1.27679,-9.8e-4 -2.55358,-0.003 -3.83037,-0.002 -1.53535,0.003 -3.07115,0.005 -4.60573,0.0592 -1.43779,0.0626 -2.8702,0.1828 -4.29588,0.38355 -1.3162,0.11252 -2.63732,0.0466 -3.95742,0.0624 -0.82535,0.002 -1.65169,-0.001 -2.47548,0.0573 -1.17911,0.0836 -2.35279,0.21974 -3.52348,0.38279 -1.12268,0.10556 -2.24896,0.0509 -3.37569,0.0744 -1.1539,0.0209 -2.30818,0.0616 -3.45639,0.18529 -1.22189,0.13281 -2.43993,0.34497 -3.67219,0.32687 -0.9818,0.0386 -1.95916,0.1385 -2.933804,0.26173 -1.4806,0.18924 -2.959543,0.34106 -4.450068,0.42426 -1.22688,0.14237 -2.448351,0.37769 -3.689041,0.31098 -1.16134,-1e-5 -2.322681,-3e-5 -3.484021,3e-5 -1.128902,8e-5 -2.257804,5e-5 -3.386706,0.001 -0.777873,8.6e-4 -1.555745,0.003 -2.333619,0.002 -1.001198,-0.003 -2.002935,-0.008 -3.002945,-0.0622 -1.219318,-0.0779 -2.434472,-0.2084 -3.641541,-0.39955 -1.409134,-0.23486 -1.076998,-2.22767 0.332136,-1.99282 z"
       inkscape:connector-curvature="0" />
    <path
       style="fill:#000000;fill-opacity:1;fill-rule:nonzero;stroke:none"
       id="path5439"
       d="m 299.32188,158.70238 c 0.89993,0.50333 1.77419,1.05554 2.653,1.59672 0.61846,0.4575 1.28702,0.82166 1.95939,1.19178 0.75348,0.42648 1.44388,0.94702 2.14982,1.44427 0.53984,0.35237 1.14781,0.57376 1.70312,0.90329 0.5028,0.3328 1.07401,0.51674 1.60536,0.79566 0.45211,0.23824 0.8481,0.5673 1.22909,0.90456 -0.0706,-0.0446 0.25506,0.21268 0.18243,0.17154 -0.13548,-0.0767 -0.26043,-0.17068 -0.39064,-0.25602 0.13776,0.001 0.27556,-0.002 0.41332,-0.003 0.0924,-9.4e-4 0.18489,-0.002 0.27733,-0.003 0.65899,0.59331 0.3768,2.02008 -0.42996,2.02013 -0.38779,-0.0378 -0.72022,0.0149 -1.08295,0.11072 -0.96198,0.391 -1.95199,0.70989 -2.9237,1.07573 -0.80627,0.34993 -1.63853,0.62271 -2.50609,0.7639 -0.3535,0.0461 -0.70955,0.0784 -1.06627,0.0783 -0.83676,0.10882 0.94199,-1.549 0.95645,-0.72487 10e-4,0.0611 0.002,0.12208 0.004,0.18312 -0.94897,1.06194 -0.76512,1.04489 -1.62299,1.0407 -0.1299,-6.5e-4 -0.25979,-0.001 -0.38969,-0.002 -0.142,-1.4e-4 -0.28399,-1.3e-4 -0.42599,-1.2e-4 -0.57556,0.002 -0.12257,-0.0404 -1.09875,-1.10906 0.0223,-0.47629 -0.17454,-0.8837 -0.28212,-1.3906 -0.15197,-0.73074 -0.18888,-1.4778 -0.21336,-2.22168 -0.0133,-0.55741 -0.0111,-1.11502 -0.01,-1.67254 0.001,-0.4314 0.002,-0.8628 0.002,-1.2942 3.2e-4,-0.29911 2.9e-4,-0.59822 3e-4,-0.89733 0,-0.30153 -10e-6,-0.60306 -2e-5,-0.90458 0,-0.17339 0,-0.34677 0,-0.52016 -10e-6,-1.42857 2.02029,-1.42859 2.0203,-2e-5 l 0,0 c 0,0.17338 0,0.34676 1e-5,0.52014 0,0.30155 10e-6,0.60311 2e-5,0.90466 -10e-6,0.29986 1e-5,0.59972 -3e-4,0.89958 -4.9e-4,0.43213 -10e-4,0.86425 -0.002,1.29638 -10e-4,0.53407 -0.003,1.06823 0.009,1.6022 0.0203,0.62761 0.0458,1.25869 0.172,1.87566 0.11863,0.58494 0.36277,1.15249 0.32408,1.75868 -1.10907,-0.95452 -1.4381,-0.86529 -0.92124,-0.86744 0.14625,0 0.29251,-4e-5 0.43876,1.7e-4 0.12899,7.8e-4 0.25797,0.001 0.38696,0.002 0.82939,0.004 0.71413,-0.10331 -0.40648,1.03332 -0.002,-0.0671 -0.003,-0.1343 -0.004,-0.20146 -0.0111,-0.6329 1.65204,-1.31259 1.07147,-1.33082 0.2496,-0.002 0.49866,-0.023 0.74627,-0.0541 0.73439,-0.10742 1.4274,-0.37475 2.1096,-0.65982 1.03709,-0.38663 2.08617,-0.74009 3.1193,-1.13784 0.52862,-0.138 1.0495,-0.21395 1.59578,-0.17694 0.81218,-5e-5 1.03059,1.318 0.44915,2.02039 -0.0919,8.8e-4 -0.18389,0.002 -0.27583,0.003 -0.18438,0.002 -0.36891,0.007 -0.55322,-3.7e-4 -0.37314,-0.0256 -0.75054,-0.13744 -1.01321,-0.42101 -0.25954,-0.23092 -0.52506,-0.46447 -0.8322,-0.62958 -0.569,-0.30336 -1.19232,-0.49224 -1.72609,-0.86489 -0.56378,-0.38591 -1.27142,-0.52968 -1.80574,-0.97132 -0.64318,-0.45708 -1.27514,-0.92995 -1.96026,-1.32528 -0.69835,-0.38763 -1.39869,-0.76685 -2.04345,-1.24094 -0.86975,-0.53918 -1.73756,-1.08551 -2.63072,-1.58316 -1.22499,-0.735 -0.18555,-2.46739 1.03944,-1.7324 z"
       inkscape:connector-curvature="0" />
    <path
       style="fill:#000000;fill-opacity:1;fill-rule:nonzero;stroke:none"
       id="path5491"
       d="m 67.580581,79.352997 c 0.23919,0.0113 0.47445,4.4e-4 0.70422,-0.0696 0.30322,-0.10711 0.50379,-0.37982 0.68794,-0.62976 0.25552,-0.42201 0.3883,-0.90206 0.48291,-1.38218 0.096,-0.65042 0.12491,-1.31077 0.10449,-1.96745 -0.007,-0.60962 -0.1194,-1.20388 -0.26889,-1.79176 -0.16253,-0.54161 -0.3434,-1.07694 -0.50196,-1.61992 -0.11208,-0.39953 -0.18613,-0.80689 -0.21716,-1.22036 -0.0309,-0.30649 -0.006,-0.60442 0.077,-0.90024 0.14213,-0.38868 0.45883,-0.59536 0.81325,-0.76961 0.41491,-0.18573 0.8508,-0.28814 1.29905,-0.35012 0.49269,-0.0697 0.97554,-0.0587 1.45667,0.0667 0.45725,0.10883 0.87387,0.32157 1.28836,0.53543 0.31264,0.15996 0.55301,0.38307 0.75303,0.66654 0.16017,0.22835 0.20495,0.49736 0.23009,0.76846 0.0364,0.28604 -0.005,0.48037 -0.1903,0.71206 -0.24506,0.26598 -0.54188,0.46576 -0.85716,0.63795 -0.44268,0.21702 -0.91313,0.34384 -1.39806,0.41885 -0.31002,0.0418 -0.62287,0.0556 -0.93539,0.0597 -0.20414,0.006 -0.1499,-0.0272 -0.43406,-0.19723 -0.27927,-0.45716 0.36725,-0.85211 0.64652,-0.39495 l 0,0 c -0.41849,-0.22355 -0.39961,-0.16004 -0.22207,-0.16538 0.27747,-0.003 0.55525,-0.015 0.83063,-0.0511 0.39908,-0.06 0.78512,-0.16195 1.1514,-0.33597 0.2373,-0.12741 0.46034,-0.27341 0.64733,-0.46998 0.0184,-0.008 0.0126,0.079 0.0149,0.0589 0.008,-0.0672 -0.01,-0.13749 -0.008,-0.20466 -0.012,-0.13734 -0.0178,-0.28099 -0.0948,-0.40016 -0.13239,-0.18796 -0.26638,-0.32278 -0.48121,-0.42979 -0.36688,-0.1893 -0.73338,-0.38245 -1.13889,-0.47739 -0.38036,-0.10868 -0.76539,-0.0971 -1.15617,-0.0473 -0.36915,0.0498 -0.72703,0.13044 -1.06994,0.28063 -0.15859,0.0763 -0.32842,0.14281 -0.41855,0.30373 -0.068,0.20525 -0.0641,0.4154 -0.0478,0.6294 0.0259,0.36053 0.0923,0.71518 0.18886,1.06368 0.16088,0.55154 0.34621,1.09471 0.50895,1.64552 0.16307,0.64166 0.28301,1.29121 0.29192,1.95614 0.0199,0.714 -0.009,1.43188 -0.11891,2.13846 -0.11958,0.58937 -0.28774,1.17646 -0.61816,1.68598 -0.28908,0.38489 -0.6132,0.75971 -1.08968,0.90634 -0.33891,0.0914 -0.68415,0.12345 -1.03465,0.0878 -0.52843,-0.0881 -0.40387,-0.83538 0.12455,-0.74731 z"
       inkscape:connector-curvature="0" />
    <path
       style="fill:#000000;fill-opacity:1;fill-rule:nonzero;stroke:none"
       id="path5493"
       d="m 72.867201,75.825557 c 0.0444,0.40929 0.10103,0.81649 0.15592,1.22449 0.0349,0.33165 0.10911,0.65756 0.16873,0.98541 0.0249,0.12675 0.0399,0.25531 0.0449,0.38434 0.001,0.0514 9.5e-4,0.10284 -1.4e-4,0.15425 -1.3e-4,0.0116 -10e-4,0.0232 -0.002,0.0348 -0.0459,0.53375 -0.80071,0.46886 -0.75483,-0.0649 l 0,0 c -2.3e-4,0.004 -9.2e-4,0.0142 -7.3e-4,0.0106 8.2e-4,-0.0367 9.9e-4,-0.0733 2.9e-4,-0.11003 -0.002,-0.0919 -0.0164,-0.18337 -0.0331,-0.27355 -0.0617,-0.33934 -0.13791,-0.67677 -0.1742,-1.02004 -0.0537,-0.4001 -0.11037,-0.79934 -0.15236,-1.20085 -0.0881,-0.52843 0.65923,-0.65298 0.7473,-0.12455 z"
       inkscape:connector-curvature="0" />
    <path
       style="fill:#000000;fill-opacity:1;fill-rule:nonzero;stroke:none"
       id="path5495"
       d="m 71.853991,74.669457 c 0.39141,-0.21128 0.82872,-0.28816 1.26484,-0.34208 0.39758,-0.0466 0.75372,-0.0741 1.13282,0.0726 0.2217,0.0937 0.40454,0.24726 0.55899,0.42858 0.13195,0.17025 0.17507,0.37445 0.19148,0.5838 -0.0138,0.31599 -0.22858,0.54025 -0.45417,0.73636 -0.21495,0.19605 -0.49101,0.28077 -0.75535,0.38521 -0.086,0.0344 -0.17187,0.0693 -0.25715,0.10555 -0.49309,0.20942 -0.78925,-0.48791 -0.29616,-0.69733 l 0,0 c 0.0912,-0.0387 0.183,-0.0761 0.27502,-0.11287 0.1888,-0.0745 0.39138,-0.12459 0.54715,-0.26134 0.0582,-0.0444 0.17484,-0.18169 0.18045,-0.17969 0.0243,0.009 -0.0361,0.0742 0.004,0.0774 -0.003,-0.0559 -0.001,-0.11887 -0.0294,-0.16632 -0.039,-0.0895 -0.16969,-0.14813 -0.24827,-0.19651 -0.24394,-0.10622 -0.49854,-0.0375 -0.75838,-0.0234 -0.33099,0.0395 -0.66447,0.0902 -0.96659,0.23967 -0.45937,0.27562 -0.84916,-0.37403 -0.38979,-0.64965 z"
       inkscape:connector-curvature="0" />
    <path
       style="fill:#000000;fill-opacity:1;fill-rule:nonzero;stroke:none"
       id="path5497"
       d="m 76.007081,77.051227 c -0.2849,0.17997 -0.55819,0.36884 -0.77553,0.62829 -0.10806,0.19791 -0.23041,0.44315 -0.2056,0.67638 0.0181,0.008 0.0254,0.0171 0.0183,-0.0235 -0.003,-0.0166 -0.0232,-0.0319 -0.0172,-0.0477 0.007,-0.0184 0.17655,0.0174 0.27259,0.0265 0.21222,0.0133 0.45651,0.0242 0.62312,-0.12823 0.14961,-0.15595 0.17479,-0.37285 0.20152,-0.57825 0.0401,-0.0114 -0.003,-0.33998 -0.002,-0.20525 0.009,0.0117 0.0174,0.0233 0.026,0.035 -10e-4,0.001 -0.002,0.002 -0.003,0.003 -0.48475,-0.22804 -0.16226,-0.91359 0.3225,-0.68555 l 0,0 c 0.15137,0.0781 0.0718,0.0286 0.23284,0.15765 0.18712,0.24057 0.2251,0.50078 0.17427,0.79805 -0.0592,0.41683 -0.17106,0.81306 -0.51109,1.09137 -0.38131,0.25213 -0.68875,0.30523 -1.14335,0.26567 -0.47902,-0.0536 -0.87809,-0.1555 -0.95213,-0.70701 0.0122,-0.42292 0.13901,-0.82697 0.38897,-1.17243 0.27634,-0.31541 0.60193,-0.56594 0.95998,-0.78375 0.45938,-0.27562 0.84917,0.37403 0.38979,0.64965 z"
       inkscape:connector-curvature="0" />
    <path
       style="fill:#000000;fill-opacity:1;fill-rule:nonzero;stroke:none"
       id="path5499"
       d="m 77.417621,77.142677 c 0.18435,0.53517 0.36768,1.07041 0.57185,1.59846 0.19516,0.51278 0.4515,0.99834 0.67251,1.49978 0.0815,0.19355 0.16248,0.38766 0.23079,0.58635 0.10829,0.22303 -0.67397,0.34718 -0.73602,0.10714 -0.0291,-0.15635 -0.0112,-0.0811 -0.0525,-0.22596 -0.14667,-0.39705 -0.29678,-0.79299 -0.44252,-1.19049 -0.20678,-0.47639 -0.35397,-0.96621 -0.4384,-1.47807 -0.1015,-0.55663 0.007,-1.08556 0.23349,-1.59426 0.16759,-0.32802 0.39965,-0.6172 0.71769,-0.80619 0.30258,-0.151 0.60519,-0.0892 0.91272,0.009 0.31245,0.11378 0.60612,0.26868 0.88266,0.45223 0.26993,0.1941 0.42915,0.39139 0.41615,0.73718 -0.0742,0.29797 -0.32149,0.47572 -0.54215,0.66637 -0.20954,0.1859 -0.46244,0.31519 -0.71578,0.43081 -0.19622,0.0807 -0.40447,0.11809 -0.61492,0.13363 -0.063,0.004 -0.12609,0.004 -0.18917,0.004 -0.53569,-0.005 -0.52926,-0.76213 0.006,-0.75758 l 0,0 c 0.0437,4.5e-4 0.0874,-1.2e-4 0.1311,-0.002 0.1214,-0.007 0.24165,-0.0274 0.35635,-0.069 0.18869,-0.0824 0.37743,-0.1787 0.53294,-0.31484 0.0846,-0.0717 0.16116,-0.15281 0.24999,-0.2194 0.0126,-0.009 0.0372,-0.0403 0.04,-0.0248 0.004,0.0196 -0.004,0.0397 -0.007,0.0596 0.0377,0.24466 0.11078,0.119 -0.0886,-0.0159 -0.21356,-0.14862 -0.44814,-0.26277 -0.68966,-0.35846 -0.10336,-0.0334 -0.19772,-0.08 -0.30711,-0.0715 -0.18503,0.0907 -0.30064,0.29119 -0.40229,0.46091 -0.17296,0.36949 -0.25131,0.75163 -0.17546,1.15936 0.0743,0.46518 0.21492,0.90629 0.40195,1.33891 0.15301,0.41775 0.31319,0.83295 0.46215,1.25203 0.15348,0.58033 0.20303,0.4481 -0.65918,0.56346 -0.0609,-0.17866 -0.13509,-0.35254 -0.2075,-0.52671 -0.225,-0.51228 -0.48824,-1.00749 -0.68576,-1.53185 -0.20064,-0.51957 -0.38436,-1.04508 -0.56151,-1.57308 -0.21102,-0.4924 0.48533,-0.79084 0.69636,-0.29844 z"
       inkscape:connector-curvature="0" />
    <path
       style="fill:#000000;fill-opacity:1;fill-rule:nonzero;stroke:none"
       id="path5501"
       d="m 80.949241,75.894307 c 0.0758,0.27522 0.17696,0.54031 0.31518,0.79 0.11501,0.19037 0.0516,0.0455 -0.0499,0.005 0.12382,-0.003 0.24815,-0.004 0.37214,-0.005 0.24157,-0.0391 0.463,-0.16204 0.65527,-0.30886 0.14091,-0.12044 0.27423,-0.25048 0.39326,-0.39273 -0.0123,-0.0614 0.63426,-0.0978 0.72262,0.18565 0.0829,0.11615 0.17405,0.29185 0.26504,0.4279 0.12228,0.14991 0.24023,0.32843 0.42319,0.40782 0.47477,0.24818 0.1238,0.91959 -0.35097,0.67142 l 0,0 c -0.28834,-0.15994 -0.51549,-0.39055 -0.70389,-0.66094 -0.13119,-0.19957 -0.2534,-0.40626 -0.35692,-0.62158 -0.11799,-0.38139 0.91798,-0.20114 0.58045,0.0777 -0.15849,0.18743 -0.33398,0.36045 -0.52441,0.51543 -0.32584,0.23358 -0.68768,0.42606 -1.09505,0.45572 -0.16773,0.002 -0.33613,0.0102 -0.50345,-0.005 -0.22456,-0.0538 -0.38966,-0.17498 -0.49129,-0.38805 -0.15876,-0.29028 -0.28202,-0.59614 -0.37003,-0.91542 -0.1694,-0.50822 0.54933,-0.7478 0.71874,-0.23958 z"
       inkscape:connector-curvature="0" />
    <path
       style="fill:#000000;fill-opacity:1;fill-rule:nonzero;stroke:none"
       id="path5503"
       d="m 83.601421,73.071447 c 0.0338,0.42031 0.11138,0.83317 0.20359,1.24394 0.079,0.39632 0.28932,0.73839 0.47524,1.08984 0.19235,0.33714 0.3571,0.68861 0.53384,1.03385 0.0692,0.12084 0.15341,0.2108 0.291,0.23175 0.15146,0.0201 0.29877,0.0311 0.44057,-0.031 0.50977,-0.16471 0.74269,0.55621 0.23292,0.72092 l 0,0 c -0.28502,0.0812 -0.5604,0.1105 -0.85335,0.046 -0.35062,-0.0954 -0.61036,-0.29966 -0.78576,-0.62294 -0.17481,-0.34257 -0.33882,-0.69071 -0.52932,-1.02515 -0.2162,-0.41121 -0.45392,-0.81426 -0.54438,-1.27745 -0.0965,-0.43012 -0.17838,-0.86266 -0.21435,-1.30266 -0.0758,-0.53033 0.67424,-0.63747 0.75,-0.10714 z"
       inkscape:connector-curvature="0" />
    <path
       style="fill:#000000;fill-opacity:1;fill-rule:nonzero;stroke:none"
       id="path5505"
       d="m 87.666381,75.165867 c -0.33926,0.0315 -0.6278,0.24404 -0.88081,0.45667 -0.24213,0.22462 -0.41731,0.50036 -0.51216,0.81572 -0.0405,0.16533 0.007,0.0588 -0.015,-0.0124 -0.0209,-0.0679 -0.11534,-0.12937 -0.054,-0.12938 0.26339,0.0263 0.37978,0.0288 0.61064,-0.0943 0.30492,-0.18843 0.54925,-0.45058 0.80612,-0.69625 0.0859,-0.0809 0.17091,-0.16267 0.25862,-0.24155 0.095,-0.0938 0.23285,-0.10842 0.35726,-0.1015 0.27078,0.0632 0.41523,0.26625 0.576,0.47504 0.12374,0.14282 0.21397,0.30789 0.35413,0.43576 0.0206,0.0206 0.10635,0.0768 -0.0188,-0.008 0.49783,0.19786 0.21802,0.90191 -0.27982,0.70404 l 0,0 c -0.0838,-0.044 -0.15263,-0.076 -0.21811,-0.14226 -0.16871,-0.15922 -0.29575,-0.34771 -0.4387,-0.52892 -0.0663,-0.0868 -0.0794,-0.11886 -0.15294,-0.18935 -0.0229,-0.022 -0.0769,-0.0368 -0.0677,-0.0672 0.0211,-0.0692 0.18048,0.2551 0.20304,0.077 -0.12949,-0.008 0.18168,-0.0684 0.19184,-0.0913 -0.0816,0.0739 -0.16138,0.14975 -0.24127,0.22547 -0.31212,0.29845 -0.6129,0.61378 -0.99356,0.82766 -0.38319,0.18206 -0.67749,0.22026 -1.09316,0.15872 -0.4602,-0.10766 -0.63997,-0.36485 -0.50671,-0.83098 0.14825,-0.45219 0.39392,-0.853 0.75281,-1.17136 0.39593,-0.32088 0.83649,-0.6076 1.36221,-0.62928 0.53571,0 0.53571,0.75762 0,0.75762 z"
       inkscape:connector-curvature="0" />
    <path
       style="fill:#000000;fill-opacity:1;fill-rule:nonzero;stroke:none"
       id="path5507"
       d="m 89.283531,72.440097 c 0.0843,0.48898 0.20781,0.96714 0.38028,1.43222 0.21856,0.51832 0.41164,1.04638 0.63538,1.56243 0.0842,0.19018 0.17477,0.37684 0.222,0.58021 0.0744,0.41582 -0.0651,0.19598 -0.74231,0.1431 -0.0705,-0.17987 -0.15002,-0.35591 -0.22499,-0.53411 -0.0679,-0.14607 -0.11693,-0.29849 -0.14578,-0.45679 0.0139,-0.0839 0.01,-0.17285 0.0417,-0.25181 0.0657,-0.16366 0.2986,-0.27225 0.44529,-0.35614 0.12817,-0.0925 0.2686,-0.16355 0.41453,-0.22325 0.12874,-0.0472 0.26525,-0.0538 0.40081,-0.0558 0.0324,-7.3e-4 0.0651,7.2e-4 0.0973,10e-4 0.0773,0.0273 0.15862,0.0453 0.23198,0.082 0.18102,0.0905 0.28528,0.38121 0.36571,0.54749 0.11955,0.25671 0.19389,0.53209 0.30832,0.79069 0.0231,0.0153 0.053,0.17355 0.083,0.13139 -0.0426,-0.0274 -0.0929,-0.0285 -0.14195,-0.0308 0.53533,-0.0203 0.56405,0.73677 0.0287,0.75707 l 0,0 c -0.0943,-0.003 -0.18239,-0.0211 -0.2649,-0.0698 -0.189,-0.11538 -0.32005,-0.28064 -0.4004,-0.48757 -0.10641,-0.25048 -0.18763,-0.51094 -0.29479,-0.76111 -0.0293,-0.0606 -0.0514,-0.12467 -0.0841,-0.18351 -0.073,-0.13166 -0.0568,-0.0701 0.15845,-0.0183 -0.0272,-6.5e-4 -0.047,-0.001 -0.0768,-0.001 -0.0367,4.4e-4 -0.10747,0.007 -0.1264,2.8e-4 -0.1162,0.0466 -0.22265,0.10672 -0.32474,0.17971 -0.0683,0.0386 -0.13321,0.0888 -0.20149,0.12582 -0.008,0.004 0.0118,-0.0141 0.0167,-0.0218 0.0844,-0.13326 0.0492,-0.0706 0.069,-0.28674 0.0172,0.10358 0.0539,0.20005 0.0981,0.29528 0.10678,0.25393 0.23815,0.50374 0.28261,0.77797 -0.252,0.009 -0.81102,-0.15806 -0.75148,0.087 0.001,0.005 -0.003,-0.0641 -0.002,-0.0148 -0.0317,-0.15738 -0.12367,-0.29454 -0.17777,-0.44428 -0.22943,-0.5292 -0.428,-1.07049 -0.65135,-1.60234 -0.18829,-0.51584 -0.3287,-1.04445 -0.41921,-1.58652 -0.0758,-0.53033 0.67424,-0.63748 0.75,-0.10715 z"
       inkscape:connector-curvature="0" />
    <path
       style="fill:#000000;fill-opacity:1;fill-rule:nonzero;stroke:none"
       id="path5509"
       d="m 90.544871,71.658677 c 0.0864,0.23849 0.10922,0.50022 0.2,0.73621 0.0498,0.10726 0.0922,0.21786 0.13292,0.32885 0.009,0.0248 0.0176,0.0498 0.0248,0.0753 0.137,0.5179 -0.59542,0.71165 -0.73242,0.19375 l 0,0 c 0.01,0.0335 9.5e-4,0.002 -0.004,-0.009 -0.0423,-0.11573 -0.0889,-0.22984 -0.1379,-0.34288 -0.0918,-0.28128 -0.14875,-0.57373 -0.2309,-0.8581 -0.0881,-0.52842 0.65924,-0.65298 0.74731,-0.12455 z"
       inkscape:connector-curvature="0" />
    <path
       style="fill:#000000;fill-opacity:1;fill-rule:nonzero;stroke:none"
       id="path5511"
       d="m 93.979831,74.660787 c -0.25975,0.0126 -0.44611,0.13182 -0.61483,0.31931 -0.10456,0.15062 -0.17983,0.33961 -0.15888,0.52565 0.0194,0.1318 0.0803,0.26567 0.17132,0.36439 0.0865,0.14426 0.1654,0.13573 0.32135,0.15577 0.29368,0.0342 0.58388,-0.0344 0.86284,-0.12054 0.26147,-0.1347 0.47626,-0.34775 0.61833,-0.60415 0.17083,-0.27924 0.2247,-0.59748 0.25991,-0.91716 0.002,-0.24506 -0.0658,-0.22365 -0.27878,-0.24947 -0.18291,-0.006 -0.36166,0.017 -0.54077,0.0502 -0.52797,0.0908 -0.65636,-0.65587 -0.12839,-0.74665 l 0,0 c 0.27665,-0.0451 0.55112,-0.081 0.83218,-0.0434 0.0956,0.0249 0.19532,0.0375 0.28691,0.0745 0.42699,0.17284 0.6103,0.5588 0.58168,0.99976 -0.0491,0.42667 -0.1347,0.84832 -0.36207,1.22029 -0.25524,0.41162 -0.59297,0.75794 -1.05041,0.94145 -0.38751,0.1147 -0.7873,0.19963 -1.19335,0.14446 -0.32149,-0.0518 -0.62054,-0.148 -0.80536,-0.43728 -0.18028,-0.24154 -0.31687,-0.51067 -0.33287,-0.81777 0.004,-0.39264 0.1098,-0.75865 0.36871,-1.06357 0.32158,-0.32574 0.69327,-0.5417 1.16248,-0.55343 0.53572,0 0.53572,0.75762 0,0.75762 z"
       inkscape:connector-curvature="0" />
    <path
       style="fill:#000000;fill-opacity:1;fill-rule:nonzero;stroke:none"
       id="path5513"
       d="m 96.480341,74.000277 c 0.0998,0.34894 0.22228,0.69031 0.34113,1.03301 0.0803,0.18243 0.1616,0.36405 0.23056,0.55118 0.13157,0.35227 -0.1469,-0.26835 -0.49389,-0.12824 0.17841,-0.23103 0.3537,-0.46252 0.54743,-0.68176 0.40467,-0.44092 0.9346,-0.72046 1.46901,-0.97141 0.42363,-0.17866 0.86084,-0.28387 1.3182,-0.21948 0.402179,0.10102 0.684969,0.36106 0.878039,0.71725 0.11462,0.26161 0.12029,0.5468 0.12392,0.82733 1.4e-4,0.0996 9e-5,0.19925 -0.005,0.29875 -2.9e-4,0.005 -5.8e-4,0.009 -8.7e-4,0.0142 -0.0344,0.53462 -0.79041,0.48602 -0.75605,-0.0486 l 0,0 c 7e-5,-8.4e-4 1.4e-4,-0.002 2.1e-4,-0.003 0.004,-0.0841 0.004,-0.16828 0.004,-0.25243 -0.002,-0.1644 4.2e-4,-0.33225 -0.0413,-0.49247 -0.0628,-0.15074 -0.178009,-0.25677 -0.330959,-0.31473 -0.29063,-0.0743 -0.59762,0.0706 -0.86933,0.15894 -0.44121,0.20557 -0.88502,0.42835 -1.2231,0.78771 -0.2221,0.24969 -0.40386,0.53063 -0.63816,0.76845 -0.0535,0.0329 -0.0991,0.11199 -0.1605,0.0987 -0.5029,-0.10852 -0.4573,-0.0821 -0.53291,-0.29823 -0.0703,-0.1917 -0.15786,-0.37564 -0.23529,-0.56442 -0.11984,-0.34557 -0.24347,-0.68983 -0.34408,-1.04167 -0.16941,-0.50823 0.54933,-0.7478 0.71874,-0.23958 z"
       inkscape:connector-curvature="0" />
    <path
       style="fill:#000000;fill-opacity:1;fill-rule:nonzero;stroke:none"
       id="path5523"
       d="m 322.80981,164.40266 c -0.36223,0.34891 -0.68902,0.7317 -1.02758,1.10307 -0.34327,0.36491 -0.66296,0.75105 -0.97219,1.14492 -0.26934,0.3466 -0.55209,0.68119 -0.81089,1.03593 -0.19492,0.27 -0.41336,0.52108 -0.6106,0.78915 -0.12681,0.20743 -0.24599,0.41731 -0.39381,0.6109 -0.19022,0.28751 0.0645,-0.16387 -0.13902,0.2038 -0.0229,0.0361 -0.0443,0.0732 -0.0647,0.11078 -0.002,0.005 0.005,-0.0105 0.007,-0.0157 -0.20947,0.49307 -0.90677,0.19683 -0.6973,-0.29623 l 0,0 c 0.007,-0.0153 0.0139,-0.0305 0.0219,-0.0452 0.0327,-0.061 0.0679,-0.12073 0.10572,-0.17878 0.0149,-0.0212 0.0236,-0.0785 0.0447,-0.0636 0.0214,0.0152 -0.0319,0.097 -0.0345,0.0708 -0.009,-0.0878 0.10949,-0.17804 0.15476,-0.24707 0.14583,-0.18879 0.25228,-0.4007 0.38468,-0.59876 0.19672,-0.26725 0.41335,-0.51838 0.6088,-0.7867 0.26417,-0.36189 0.55196,-0.70375 0.827,-1.0572 0.32074,-0.40846 0.65248,-0.80878 1.00821,-1.18748 0.34644,-0.37994 0.68112,-0.77132 1.05173,-1.12835 0.3788,-0.3788 0.91452,0.15691 0.53571,0.53572 z"
       inkscape:connector-curvature="0" />
    <path
       style="fill:#000000;fill-opacity:1;fill-rule:nonzero;stroke:none"
       id="path5525"
       d="m 322.37361,169.22942 c -0.16299,-0.32272 -0.36565,-0.62279 -0.56064,-0.92653 -0.27835,-0.46267 -0.60712,-0.89319 -0.94604,-1.3127 -0.37043,-0.46096 -0.74132,-0.92151 -1.1135,-1.38108 -0.24539,-0.30414 -0.51201,-0.58987 -0.78296,-0.87111 -0.16995,-0.15955 -0.32146,-0.33635 -0.4808,-0.50541 -0.0723,-0.10222 -0.1795,-0.22374 -0.24909,-0.30244 -0.0659,-0.0404 -0.1178,-0.0984 -0.18101,-0.14314 -0.0881,-0.0916 -0.10593,-0.10459 -0.16602,-0.14994 -0.0169,-0.0129 -0.0281,-0.0181 -0.002,-0.003 0.007,0.004 0.0147,0.007 0.0221,0.0111 -0.4871,-0.22298 -0.17176,-0.91185 0.31534,-0.68887 l 0,0 c 0.008,0.004 0.0163,0.008 0.0245,0.0122 0.0356,0.0201 0.0694,0.0431 0.10185,0.068 0.0504,0.039 0.29141,0.29408 0.11323,0.1126 -0.01,-0.01 0.0224,0.0154 0.0336,0.0231 0.17923,0.12997 0.0892,0.0905 0.25162,0.20068 0.10706,0.10786 0.20584,0.22461 0.29465,0.34806 0.15159,0.16796 0.30507,0.33369 0.46794,0.49174 0.28598,0.29693 0.56707,0.59887 0.82609,0.91993 0.3724,0.45992 0.74357,0.92078 1.11429,1.38203 0.35566,0.44113 0.70106,0.89344 0.99403,1.37926 0.19906,0.31012 0.40629,0.61656 0.57273,0.946 0.27562,0.45937 -0.37403,0.84916 -0.64965,0.38979 z"
       inkscape:connector-curvature="0" />
    <path
       style="fill:#008000;fill-opacity:1"
       id="path4322"
       d="m 79.158829,151.06798 c 1.113388,-0.0583 2.150617,-0.32527 3.18977,-0.71631 1.949941,-0.79039 3.642607,-2.06504 5.409916,-3.18382 1.538459,-0.8676 3.009375,-1.85461 4.590733,-2.64363 1.403661,-0.79981 2.939807,-1.256 4.508637,-1.5924 1.843978,-0.48885 3.721875,-0.84825 5.605325,-1.14683 1.8311,-0.38207 3.66326,-0.76937 5.50899,-1.07479 1.66692,-0.40071 3.34871,-0.7241 5.05147,-0.92337 1.2891,-0.13857 2.58646,-0.14931 3.88144,-0.15526 0.98526,0.0724 1.99557,-0.0968 2.9784,0.003 1.0879,0.11033 1.46555,0.25173 2.50417,0.52521 2.69513,0.57261 5.34945,1.26379 7.96872,2.11993 2.44691,0.94607 4.92792,1.80083 7.37634,2.742 1.59369,0.6064 3.0955,1.42271 4.65609,2.10224 0.7158,0.31169 1.45133,0.57597 2.17707,0.86375 2.26495,0.69669 4.41812,1.69306 6.68857,2.36952 2.09674,0.43368 4.14081,1.06509 6.20692,1.61556 1.53614,0.4221 3.13265,0.4671 4.71449,0.51184 2.02045,0.0347 4.04135,0.0251 6.062,0.0206 1.82561,-0.005 3.65123,-0.007 5.47685,-0.008 1.90249,0.0198 3.78951,-0.3028 5.67748,-0.50615 1.4732,-0.19766 3.00489,-0.11344 4.45412,-0.4628 1.81722,-0.39523 3.44139,-1.32223 5.04985,-2.2166 1.99713,-1.10224 3.97435,-2.22675 5.91067,-3.4327 1.49996,-0.85555 2.82305,-1.97378 4.16598,-3.04966 1.59519,-1.31167 3.42301,-2.28038 5.20208,-3.3104 2.35573,-1.33839 4.86923,-2.34743 7.46761,-3.09777 1.96982,-0.55317 4.01951,-0.62258 6.04378,-0.81509 1.44567,-0.15477 2.89869,-0.20847 4.35139,-0.23945 1.33623,0.12663 2.73071,0.32818 3.96498,0.89373 0.29426,0.13483 0.56986,0.30712 0.8548,0.46068 1.15129,0.88065 2.36146,1.66581 3.56693,2.46808 0.97793,0.69096 2.12093,1.04779 3.20098,1.54251 1.34668,0.56254 2.79273,0.81981 4.21825,1.09933 1.81573,0.29465 3.63671,0.57674 5.46252,0.80352 1.30676,0.14839 2.62144,0.19346 3.93536,0.21617 1.31624,0.0137 2.6326,0.008 3.94888,0.006 0.95365,-0.001 1.9073,-0.002 2.86095,-0.003 0.69141,-4.1e-4 0.42163,0.0738 0.8342,-0.0871 1.45366,-0.60153 2.78111,-1.45281 4.02055,-2.41297 1.30341,-1.21113 2.81993,-2.16843 4.058,-3.44654 1.40854,-1.4886 2.62714,-3.14196 3.86587,-4.77073 1.18248,-1.58384 2.25133,-3.23698 3.12438,-5.01062 0.79885,-1.53281 1.69787,-3.0028 2.60585,-4.47186 0.96336,-1.27684 1.86632,-2.58868 2.95971,-3.75877 1.05311,-1.30384 2.3474,-2.35807 3.58223,-3.47443 0.7673,-0.74859 1.62957,-1.36913 2.53082,-1.94099 1.2506,-0.67406 2.64721,-0.85172 4.04146,-0.94852 0.9674,-0.008 1.95494,-0.14007 2.91377,0.0583 0.82252,0.17014 1.09544,0.33883 1.83045,0.67168 1.61665,0.87679 2.75094,2.28436 3.80241,3.75044 0.59699,0.93306 1.2503,1.83302 1.77485,2.81101 0.71277,1.32893 0.13213,0.42496 0.70988,1.28395 0.99081,1.51698 1.92334,3.11018 3.09954,4.49366 0.58074,0.66655 0.3013,0.37329 0.82624,0.89113 2.13694,2.14876 -0.90186,5.17085 -3.0388,3.02209 l 0,0 c -0.74053,-0.75375 -0.37801,-0.36189 -1.08601,-1.17702 -1.26458,-1.54912 -2.34895,-3.2473 -3.41961,-4.9336 -0.79466,-1.2911 -1.4432,-2.66966 -2.35001,-3.8953 -0.62381,-0.87181 -1.24269,-1.75952 -2.14542,-2.36955 -0.19041,-0.0974 -0.36426,-0.23254 -0.56724,-0.30001 -0.65182,-0.21666 -1.3939,0.0235 -2.06242,-0.0307 -0.714,0.046 -1.4364,0.0954 -2.11491,0.3419 -0.7211,0.35616 -1.2815,0.9535 -1.88794,1.46602 -1.16172,1.03113 -2.35709,2.02309 -3.3397,3.23969 -0.91824,0.92647 -1.5805,2.05574 -2.41492,3.05422 -0.83878,1.35405 -1.66988,2.70706 -2.40989,4.11908 -1.00213,2.01257 -2.20225,3.9049 -3.55347,5.70259 -1.35008,1.77518 -2.68301,3.57334 -4.22739,5.18744 -1.39989,1.39966 -3.02143,2.53008 -4.50441,3.83989 -1.76381,1.33575 -3.64762,2.56303 -5.78319,3.211 -0.35366,0.0567 -0.70465,0.13372 -1.06097,0.17002 -1.14483,0.11663 -2.32264,-0.0896 -3.47,0.003 -1.34286,0.002 -2.68579,0.007 -4.0286,-0.007 -1.46723,-0.0259 -2.93519,-0.0797 -4.39403,-0.24885 -1.92469,-0.24356 -3.84566,-0.53252 -5.75903,-0.85134 -1.75355,-0.34822 -3.52772,-0.68378 -5.17338,-1.40767 -1.28323,-0.58813 -2.63769,-1.03079 -3.79087,-1.87131 -1.1223,-0.74744 -2.26987,-1.4577 -3.31562,-2.313 -0.76789,-0.5115 -1.7144,-0.62728 -2.60525,-0.79216 -1.34756,0.0284 -2.69551,0.0763 -4.03646,0.22116 -1.76188,0.16753 -3.54805,0.21491 -5.26794,0.66826 -2.26412,0.64411 -4.44898,1.5285 -6.502,2.68718 -1.59274,0.92193 -3.23739,1.77746 -4.66968,2.9461 -1.47492,1.18158 -2.93554,2.39875 -4.57986,3.34278 -1.99684,1.24364 -4.03595,2.40371 -6.09491,3.54116 -1.98613,1.10267 -4.00789,2.1962 -6.2539,2.66522 -1.60697,0.31133 -3.24389,0.3871 -4.87295,0.52897 -2.03939,0.21926 -4.0775,0.56037 -6.13349,0.53075 -1.82324,0.001 -3.64649,0.003 -5.46973,0.008 -2.06498,0.005 -4.13024,0.0146 -6.19499,-0.0223 -1.91462,-0.056 -3.84187,-0.1405 -5.69912,-0.65576 -2.10789,-0.5663 -4.19712,-1.19669 -6.33445,-1.65181 -2.38373,-0.72379 -4.65792,-1.73718 -7.03287,-2.48937 -0.36224,-0.14365 -2.1056,-0.83209 -2.42338,-0.97046 -1.46535,-0.63806 -2.87485,-1.40569 -4.36932,-1.97972 -2.37954,-0.91696 -4.79392,-1.74164 -7.17006,-2.6686 -0.87695,-0.28739 -1.71249,-0.57242 -2.59985,-0.82195 -1.29481,-0.3641 -2.60849,-0.62146 -3.91767,-0.92319 -0.41189,-0.0949 -0.81992,-0.20594 -1.22988,-0.30891 -0.4661,-0.12853 -0.9194,-0.32773 -1.40023,-0.37851 -0.97305,-0.10277 -1.97559,0.0715 -2.95129,-0.003 -1.13714,0.005 -2.27657,0.01 -3.40898,0.127 -1.63611,0.18596 -3.24457,0.52676 -4.84854,0.89499 -1.85581,0.30225 -3.6941,0.70745 -5.53684,1.07927 -1.81248,0.28341 -3.616406,0.63949 -5.390679,1.1074 -1.225358,0.25033 -2.411835,0.60947 -3.500096,1.24475 -1.453885,0.69782 -2.772565,1.65129 -4.189564,2.41902 -2.027089,1.28144 -3.974797,2.73018 -6.234229,3.58885 -1.511809,0.53848 -3.043835,0.92728 -4.656683,0.97517 -3.030458,0 -3.030458,-4.28571 0,-4.28571 z"
       inkscape:connector-curvature="0" />
    <g
       transform="matrix(1.267662,0,0,1.6969954,-37.003592,-80.307975)"
       id="layer1-0"
       inkscape:label="Layer 1">
      <path
         transform="translate(67.116792,29.60657)"
         inkscape:connector-curvature="0"
         d="m 179.56005,27.252914 c -0.32521,-0.0036 -0.65003,-0.0139 -0.96805,0.06299 -0.2428,0.08654 -0.44844,0.251191 -0.62406,0.436341 -0.13316,0.192952 -0.22898,0.413844 -0.30966,0.633568 -0.0844,0.260048 -0.17006,0.517495 -0.21506,0.787702 0.0202,0.134839 0.0948,0.275371 0.17224,0.389214 0.085,0.121657 0.19177,0.200853 0.32887,0.255888 0.23308,0.06728 0.4695,0.123112 0.70886,0.163311 0.27317,0.03622 0.549,0.04406 0.82419,0.04895 0.17279,0.019 0.16538,-1.1e-4 0.26849,-0.06 0.13571,-0.131418 0.25377,-0.27818 0.37852,-0.419526 0.10057,-0.140104 0.21662,-0.276876 0.26842,-0.443935 0.0472,-0.213192 0.0441,-0.434116 0.0474,-0.6514 -9.6e-4,-0.1945 0.008,-0.414942 -0.008,-0.594293 -0.009,0.07045 0.0374,0.08887 -0.0751,0.02409 -0.19579,-0.112741 -0.0317,-0.02434 -0.20908,-0.117612 -0.20739,-0.08032 -0.42411,-0.137218 -0.63791,-0.199678 -0.0697,-0.02307 -0.14191,-0.03538 -0.21393,-0.04812 -0.52718,-0.09521 -0.39254,-0.840763 0.13465,-0.745554 l 0,0 c 0.0985,0.01804 0.19711,0.03645 0.29277,0.06677 0.26246,0.07742 0.53045,0.143768 0.77978,0.257485 0.27609,0.147727 0.57111,0.283668 0.67037,0.607525 0.0395,0.251832 0.0219,0.506591 0.0236,0.761063 -0.005,0.299739 -0.004,0.604749 -0.0914,0.894425 -0.0959,0.254766 -0.24359,0.481709 -0.41552,0.692375 -0.1786,0.199352 -0.3411,0.418354 -0.56457,0.571593 -0.20931,0.121434 -0.41705,0.188845 -0.66246,0.16229 -0.31314,-0.0057 -0.62702,-0.0155 -0.93752,-0.05954 -0.30655,-0.0526 -0.61299,-0.120155 -0.90595,-0.22539 -0.25813,-0.129036 -0.48991,-0.287594 -0.6464,-0.537728 -0.16973,-0.280315 -0.3126,-0.582773 -0.2775,-0.919737 0.0552,-0.317394 0.15032,-0.622236 0.25288,-0.927214 0.12114,-0.316117 0.25713,-0.634746 0.47686,-0.896091 0.28405,-0.285217 0.60574,-0.53353 0.99901,-0.645784 0.37452,-0.08084 0.75244,-0.09428 1.13489,-0.08159 0.53572,0 0.53572,0.757614 0,0.757614 z"
         id="path5810-1"
         style="fill:#008000;fill-opacity:1;fill-rule:nonzero;stroke:none" />
      <path
         inkscape:connector-curvature="0"
         d="m 251.72761,63.551745 c -0.30997,2.67e-4 -0.58069,0.08378 -0.84909,0.227984 -0.162,0.09319 -0.29751,0.229807 -0.37493,0.401016 -0.0525,0.123832 -0.0454,0.263338 -0.048,0.395399 0.0296,0.16462 -0.0476,0.367843 0.0116,0.525799 0.0167,0.103451 0.10073,0.175841 0.17059,0.250254 -0.004,-0.0065 -0.0191,-0.02369 -0.0127,-0.01939 0.095,0.06371 0.089,0.06747 0.19327,0.09066 0.13419,0.02021 0.27031,0.0221 0.40575,0.02363 0.15067,0.0073 0.29495,0.0018 0.44157,-0.02891 0.15014,-0.06398 0.29612,-0.129276 0.43652,-0.213575 0.12759,-0.08953 0.26387,-0.170371 0.3783,-0.276725 -0.0105,-0.06428 0.0772,-0.213599 0.11847,-0.290691 0.0799,-0.150725 0.10202,-0.324116 0.11884,-0.491813 0.025,-0.208539 0.0285,-0.170801 -0.082,-0.295764 -0.13892,-0.141157 -0.2626,-0.308687 -0.45415,-0.377552 -0.49206,-0.211813 -0.19251,-0.907694 0.29955,-0.69588 l 0,0 c 0.29695,0.13582 0.52981,0.343763 0.74006,0.59258 0.21531,0.271125 0.3031,0.508588 0.25002,0.855765 -0.0292,0.26944 -0.0775,0.540882 -0.21031,0.781077 -0.0973,0.158865 -0.12197,0.357569 -0.27264,0.484501 -0.15468,0.137649 -0.32827,0.253268 -0.50102,0.366934 -0.21238,0.123954 -0.43392,0.228988 -0.66892,0.303208 -0.20019,0.04063 -0.39917,0.05391 -0.60323,0.04441 -0.19115,-0.0023 -0.38353,-0.0066 -0.57166,-0.04403 -0.21415,-0.05248 -0.40044,-0.139825 -0.56093,-0.29293 -0.168,-0.182196 -0.3229,-0.381827 -0.36153,-0.634392 -0.0315,-0.223246 -0.0242,-0.447803 -0.023,-0.673079 0.006,-0.248253 0.0166,-0.499122 0.13141,-0.725459 0.16259,-0.30228 0.38658,-0.557953 0.69231,-0.723469 0.37898,-0.20108 0.77315,-0.314296 1.20572,-0.317174 0.53571,0 0.53571,0.757614 0,0.757614 z"
         id="path5812-7"
         style="fill:#008000;fill-opacity:1;fill-rule:nonzero;stroke:none" />
      <path
         transform="translate(67.116792,29.60657)"
         inkscape:connector-curvature="0"
         d="m 175.89151,34.507089 c -0.32034,-0.101493 -0.54348,-0.0677 -0.82569,0.100539 -0.19922,0.148598 -0.34525,0.35019 -0.46441,0.565755 -0.0692,0.188515 -0.13554,0.37982 -0.1828,0.575439 0.0687,0.09185 -0.0503,-0.05803 0.0773,0.05494 0.2715,0.240324 -0.0361,0.02941 0.28743,0.277316 0.12887,0.09876 0.21072,0.133229 0.35333,0.206958 0.2724,0.129844 0.5671,0.171231 0.86478,0.186904 0.22381,0.0056 0.44676,0.01699 0.66659,-0.02921 0.0366,0.03093 0.4033,-0.140233 0.27882,-0.08701 -0.0346,0.0091 -0.0395,0.07793 -0.0405,0.01554 0.0107,-0.163538 0.0671,-0.319337 0.0954,-0.480729 0.0227,-0.164375 0.025,-0.330762 0.0274,-0.496427 0.0157,-0.177299 -0.0156,-0.331423 -0.10549,-0.485183 -0.0811,-0.09929 -0.14484,-0.151805 -0.26739,-0.179325 -0.149,-0.02829 -0.30073,-0.03215 -0.4519,-0.03346 -0.0184,3.6e-5 -0.0369,7.2e-5 -0.0553,1.08e-4 -0.53571,8.3e-4 -0.53689,-0.756784 -0.001,-0.757613 l 0,0 c 0.0212,-2.6e-5 0.0423,-5.1e-5 0.0635,-7.6e-5 0.21994,0.0022 0.44087,0.01129 0.65567,0.06336 0.31612,0.0991 0.55389,0.275125 0.72975,0.55946 0.13058,0.266432 0.21655,0.543111 0.18983,0.843663 -0.003,0.206271 -0.007,0.413414 -0.0389,0.617666 -0.0269,0.150454 -0.0844,0.325367 -0.0849,0.388708 -0.0131,0.191483 -0.0651,0.371022 -0.2092,0.507437 -0.18967,0.144748 -0.39901,0.232837 -0.6372,0.266819 -0.28352,0.05481 -0.56892,0.05595 -0.85692,0.04273 -0.40739,-0.02344 -0.80874,-0.09106 -1.17842,-0.274348 -0.45334,-0.2456 -0.96179,-0.585067 -1.0966,-1.122037 -0.0218,-0.0867 -8.9e-4,-0.178771 -10e-4,-0.268156 0.0658,-0.261755 0.14893,-0.521774 0.25959,-0.76785 0.19293,-0.333646 0.42562,-0.641437 0.75449,-0.8533 0.4977,-0.266411 0.91602,-0.327225 1.46027,-0.147987 0.5016,0.188102 0.23559,0.897478 -0.26602,0.709376 z"
         id="path5814-0"
         style="fill:#008000;fill-opacity:1;fill-rule:nonzero;stroke:none" />
      <path
         transform="translate(67.116792,29.60657)"
         inkscape:connector-curvature="0"
         d="m 178.16435,41.578157 c -0.34888,-0.129744 -0.71067,-0.216292 -1.07828,-0.270985 -0.23761,-0.01555 -0.45306,0.05654 -0.65908,0.168162 -0.16623,0.110326 -0.31338,0.252857 -0.42398,0.419458 -0.0809,0.149889 -0.16939,0.292239 -0.21033,0.459206 0.004,-0.0048 0.006,-0.01696 0.0116,-0.01454 0.0138,0.0058 0.15315,0.201627 0.16288,0.213418 0.15708,0.184455 0.32846,0.355669 0.51654,0.508282 0.11827,0.105965 0.24901,0.180574 0.40479,0.207882 0.17196,0.0269 0.34698,0.02296 0.52051,0.0232 0.2092,-0.0013 0.41646,0.01206 0.62164,-0.03099 0.10006,-0.02022 0.0839,-0.05472 0.15428,-0.13964 0.0857,-0.147278 0.17213,-0.295318 0.26435,-0.43946 0.057,-0.110743 0.0949,-0.247847 0.073,-0.372222 -0.0316,-0.149376 -0.12441,-0.294104 -0.22387,-0.409292 -0.0861,-0.07555 -0.18358,-0.130946 -0.28422,-0.184067 -0.47186,-0.253642 -0.11316,-0.920959 0.3587,-0.667317 l 0,0 c 0.18968,0.103192 0.37157,0.216645 0.51774,0.378882 0.18954,0.246281 0.35825,0.522084 0.38802,0.83828 0.007,0.289638 -0.0357,0.573379 -0.19138,0.824345 -0.10991,0.171384 -0.20572,0.351227 -0.32204,0.517922 -0.16322,0.190091 -0.3211,0.357438 -0.58476,0.395224 -0.256,0.05029 -0.51234,0.0507 -0.77258,0.04594 -0.22493,-3.62e-4 -0.45161,0.0022 -0.67368,-0.03908 -0.27463,-0.06121 -0.52105,-0.177086 -0.73322,-0.365704 -0.22399,-0.18741 -0.43514,-0.389292 -0.62187,-0.61453 -0.20818,-0.259076 -0.38098,-0.527814 -0.3175,-0.875356 0.0708,-0.248656 0.18578,-0.474165 0.32036,-0.694321 0.18785,-0.261892 0.41551,-0.493977 0.69572,-0.657818 0.35206,-0.178378 0.7219,-0.288334 1.12123,-0.245031 0.41966,0.06388 0.83314,0.161851 1.23144,0.31077 0.5016,0.188102 0.23559,0.897478 -0.26602,0.709376 z"
         id="path5816-1"
         style="fill:#008000;fill-opacity:1;fill-rule:nonzero;stroke:none" />
      <path
         inkscape:connector-curvature="0"
         d="m 252.62638,71.810199 c -0.21465,-0.278281 -0.47762,-0.477051 -0.80451,-0.600517 -0.22604,-0.08992 -0.39203,-0.04774 -0.59842,0.05908 -0.2966,0.152549 -0.55607,0.357543 -0.78568,0.597317 -0.14312,0.127696 -0.19746,0.27061 -0.22161,0.453461 0.006,0.135542 -0.0715,0.433968 0.0239,0.534585 0.13761,0.192561 0.33712,0.330617 0.52812,0.465833 0.25804,0.130518 0.51396,0.271557 0.78982,0.360858 0.25583,0.07877 0.51472,0.09162 0.77839,0.06368 0.25674,-0.03527 0.46286,-0.167404 0.67849,-0.298635 0.14089,-0.09813 0.24611,-0.240134 0.30779,-0.399838 0.0124,-0.04092 0.0166,-0.0927 -0.017,-0.126819 -0.15875,-0.511653 0.56483,-0.736157 0.72358,-0.224504 l 0,0 c 0.057,0.220937 0.0816,0.434124 -0.0113,0.65226 -0.13578,0.299907 -0.32781,0.565823 -0.60921,0.746093 -0.31219,0.189972 -0.62602,0.361037 -0.99631,0.405232 -0.37151,0.03606 -0.73813,0.01388 -1.09651,-0.09957 -0.34325,-0.118786 -0.67064,-0.280668 -0.9859,-0.460694 -0.30747,-0.218236 -0.61407,-0.451817 -0.79024,-0.794785 -0.0259,-0.07456 -0.0591,-0.146966 -0.0777,-0.223685 -0.0557,-0.230354 -10e-4,-0.481342 0.005,-0.713412 0.054,-0.333352 0.1753,-0.629 0.42543,-0.866049 0.29327,-0.302268 0.62318,-0.562321 1.00075,-0.753204 0.41757,-0.194707 0.76575,-0.247358 1.20612,-0.08216 0.41695,0.168451 0.78342,0.410772 1.06271,0.769762 0.37881,0.378808 -0.1569,0.914522 -0.53571,0.535715 z"
         id="path5818-8"
         style="fill:#008000;fill-opacity:1;fill-rule:nonzero;stroke:none" />
      <path
         transform="translate(67.116792,29.60657)"
         inkscape:connector-curvature="0"
         d="m 170.16957,41.663531 c -0.28945,-0.150435 -0.56187,-0.329853 -0.86058,-0.462333 -0.13937,-0.04497 -0.29786,-0.07697 -0.44351,-0.0489 -0.23111,0.02468 -0.42898,0.126739 -0.62773,0.237433 -0.18824,0.110126 -0.33896,0.270188 -0.50495,0.409643 -0.0721,0.07798 -0.12579,0.164881 -0.14767,0.269079 -0.0257,0.14672 -0.027,0.295911 -0.0284,0.44439 -10e-6,0.0058 -3.9e-4,0.143294 8e-5,0.147795 10e-4,0.01148 -0.001,-0.03669 0.01,-0.03316 0.0249,0.008 0.0379,0.03648 0.0592,0.05174 0.20028,0.160741 0.39776,0.324321 0.58832,0.496494 0.10522,0.104513 0.21144,0.201326 0.35996,0.224823 0.23488,0.02166 0.47119,0.01896 0.70683,0.0186 0.19344,0.0038 0.38782,-0.02854 0.5663,-0.103242 0.0952,-0.12082 0.18788,-0.252818 0.28739,-0.37355 0.0794,-0.101161 0.1719,-0.200116 0.18993,-0.331617 0.0124,-0.203566 0.0309,-0.411463 0.003,-0.614139 -0.0254,-0.11487 -0.085,-0.196976 -0.17204,-0.271499 -0.37477,-0.382808 0.16661,-0.912803 0.54137,-0.529995 l 0,0 c 0.19324,0.210159 0.34128,0.426813 0.38359,0.717319 0.0279,0.285751 0.0245,0.576309 -0.0157,0.860967 -0.0606,0.249097 -0.17862,0.463893 -0.34964,0.656096 -0.183,0.21123 -0.31652,0.468002 -0.58477,0.589246 -0.26988,0.106185 -0.55698,0.163354 -0.84804,0.158027 -0.29002,4.16e-4 -0.58195,0.0058 -0.86968,-0.03606 -0.27566,-0.06609 -0.5082,-0.197625 -0.70642,-0.403081 -0.19589,-0.177375 -0.4017,-0.342373 -0.60456,-0.511619 -0.19898,-0.204114 -0.33106,-0.425899 -0.30243,-0.720844 0.002,-0.213407 0.007,-0.42808 0.0554,-0.637082 0.074,-0.249883 0.19596,-0.472397 0.3916,-0.649297 0.2029,-0.169617 0.38825,-0.363382 0.62306,-0.490943 0.28732,-0.159964 0.5837,-0.292312 0.91498,-0.32876 0.2839,-0.02301 0.56766,-5.2e-4 0.83368,0.110326 0.32111,0.144092 0.61738,0.331474 0.92764,0.496348 0.46513,0.265789 0.0892,0.923583 -0.37589,0.657794 z"
         id="path5820-1"
         style="fill:#008000;fill-opacity:1;fill-rule:nonzero;stroke:none" />
      <path
         transform="translate(67.116792,29.60657)"
         inkscape:connector-curvature="0"
         d="m 156.93203,41.822433 c -0.15444,-0.308061 -0.37384,-0.54661 -0.65034,-0.744845 -0.15412,-0.09327 -0.32364,-0.18937 -0.51042,-0.164868 -0.1865,0.01443 -0.35773,0.08278 -0.52503,0.16199 -0.1112,0.04534 -0.18064,0.123544 -0.23832,0.227095 -0.0673,0.149528 -0.13929,0.291968 -0.17115,0.453719 -0.0251,0.155081 -0.0302,0.312166 -0.0325,0.468925 -1e-4,0.02325 -0.003,0.04664 -3.2e-4,0.06976 0.002,0.01502 -0.007,-0.04712 0.008,-0.04467 0.0329,0.0054 0.15,0.161064 0.16574,0.177603 0.15764,0.137465 0.30998,0.282796 0.48861,0.393452 0.15885,0.101817 0.32025,0.203933 0.49226,0.282409 0.18053,0.05554 0.37427,0.05269 0.5615,0.05841 0.19976,-0.02308 0.40865,-0.06149 0.57831,-0.175266 0.1706,-0.101083 0.26415,-0.22432 0.35333,-0.392139 0.0882,-0.179041 0.10889,-0.377089 0.1239,-0.573212 -0.004,-0.107858 -0.064,-0.193701 -0.12,-0.281761 -0.27403,-0.460323 0.37696,-0.84786 0.65099,-0.387538 l 0,0 c 0.13128,0.228276 0.23806,0.458284 0.22423,0.729487 -0.0246,0.300128 -0.0702,0.599214 -0.21088,0.870006 -0.15508,0.289078 -0.35509,0.514841 -0.63701,0.687917 -0.30449,0.170058 -0.63559,0.27028 -0.98653,0.279751 -0.2916,-0.0093 -0.59045,-0.01504 -0.86311,-0.131422 -0.19951,-0.09694 -0.39282,-0.207588 -0.57777,-0.330058 -0.22589,-0.148943 -0.43119,-0.323696 -0.62797,-0.509147 -0.19593,-0.207723 -0.40129,-0.426841 -0.38037,-0.734978 0.003,-0.206477 0.0119,-0.41342 0.0494,-0.617009 0.0557,-0.247165 0.15322,-0.475594 0.27159,-0.699364 0.1424,-0.21558 0.31262,-0.40626 0.55714,-0.508044 0.26355,-0.122477 0.53741,-0.219102 0.83062,-0.233369 0.35636,0.0038 0.6769,0.101634 0.97047,0.308632 0.37326,0.272218 0.67402,0.603713 0.88371,1.019716 0.23958,0.479157 -0.43805,0.817973 -0.67763,0.338815 z"
         id="path5822-6"
         style="fill:#008000;fill-opacity:1;fill-rule:nonzero;stroke:none" />
      <path
         transform="translate(67.116792,29.60657)"
         inkscape:connector-curvature="0"
         d="m 153.28935,36.022318 c -0.37608,-0.146875 -0.76579,-0.218484 -1.16829,-0.19487 -0.33389,0.04391 -0.62392,0.19252 -0.87673,0.408415 -0.18724,0.168514 -0.3572,0.352635 -0.4874,0.568737 -0.0794,0.19041 -0.15099,0.386169 -0.20184,0.586553 -0.043,0.0188 -0.0106,0.255067 0.005,0.184487 0.11561,0.104227 0.25995,0.160226 0.39928,0.225141 0.28179,0.123123 0.57689,0.202981 0.87002,0.292048 0.19399,0.07758 0.35736,0.118253 0.56214,0.09882 0.28152,-0.05548 0.51391,-0.225245 0.75132,-0.375211 0.23301,-0.153264 0.47456,-0.312199 0.62469,-0.55281 0.11685,-0.229428 0.13498,-0.492305 0.15118,-0.745113 0.002,-0.09247 -0.0319,-0.166867 -0.071,-0.247492 -0.20646,-0.494335 0.49264,-0.786306 0.69909,-0.291972 l 0,0 c 0.075,0.19206 0.14065,0.378817 0.12788,0.589561 -0.0265,0.389683 -0.0753,0.783949 -0.28299,1.124444 -0.22622,0.314527 -0.51147,0.564041 -0.84428,0.763939 -0.34108,0.215381 -0.68292,0.438024 -1.09338,0.489686 -0.29474,0.02217 -0.5712,-0.01768 -0.84638,-0.129418 -0.32613,-0.100734 -0.65517,-0.19031 -0.96825,-0.329755 -0.24903,-0.116033 -0.49853,-0.234208 -0.67928,-0.449251 -0.18601,-0.279032 -0.22255,-0.512463 -0.13835,-0.838018 0.0722,-0.27262 0.16448,-0.543039 0.29125,-0.795085 0.17792,-0.281677 0.39349,-0.532532 0.64588,-0.751087 0.38564,-0.316621 0.82419,-0.532944 1.3273,-0.583442 0.50497,-0.01873 0.99696,0.05452 1.46901,0.242314 0.50161,0.188102 0.23559,0.897478 -0.26601,0.709376 z"
         id="path5824-5"
         style="fill:#008000;fill-opacity:1;fill-rule:nonzero;stroke:none" />
      <path
         transform="translate(67.116792,29.60657)"
         inkscape:connector-curvature="0"
         d="m 145.48229,42.834974 c -0.19335,-0.184248 -0.40549,-0.425262 -0.68414,-0.467663 -0.18817,-0.01964 -0.35223,0.109646 -0.5059,0.203732 -0.1973,0.109689 -0.35007,0.245329 -0.48524,0.421986 -0.0895,0.122847 -0.0937,0.256825 -0.10504,0.403125 -0.007,0.20562 -0.0347,0.421551 0.0439,0.617321 0.0424,0.162318 0.14992,0.255235 0.28247,0.345726 0.10214,0.05757 0.21385,0.06066 0.32787,0.06721 0.2249,0.01021 0.41371,0.130758 0.61776,0.207032 0.13676,0.04557 0.26169,0.01971 0.39675,-0.01738 0.2356,-0.04888 0.45779,-0.128727 0.67031,-0.240349 0.10184,-0.07399 0.13708,-0.168087 0.18666,-0.276429 0.0542,-0.185415 0.14411,-0.358217 0.20298,-0.54189 0.0392,-0.173065 0.0385,-0.352315 0.0416,-0.528845 -0.0106,-0.21695 -0.16757,-0.313383 -0.35236,-0.382596 -0.34593,-0.106352 -0.71024,-0.09515 -1.06598,-0.136371 -0.53182,-0.06449 -0.44062,-0.816593 0.0912,-0.752105 l 0,0 c 0.42849,0.05521 0.87105,0.03225 1.281,0.195504 0.50601,0.239673 0.76557,0.510401 0.80363,1.089322 -0.005,0.253372 -0.008,0.510239 -0.0806,0.755369 -0.0713,0.20817 -0.1645,0.407634 -0.23258,0.616895 -0.11971,0.261543 -0.27168,0.483677 -0.52577,0.633181 -0.26559,0.137301 -0.54332,0.240777 -0.83633,0.303302 -0.28828,0.06828 -0.57452,0.09513 -0.85819,-0.01271 -0.12995,-0.05252 -0.24968,-0.125851 -0.38637,-0.155731 -0.25517,-0.01631 -0.50067,-0.05976 -0.71825,-0.20429 -0.26168,-0.187964 -0.47443,-0.415765 -0.56693,-0.732537 -0.0882,-0.298774 -0.10835,-0.60163 -0.0778,-0.911943 0.025,-0.290088 0.0782,-0.565506 0.25951,-0.802645 0.19276,-0.24968 0.41936,-0.449605 0.69341,-0.608222 0.33645,-0.202036 0.68174,-0.380479 1.0872,-0.289349 0.40653,0.119266 0.74503,0.352124 1.03097,0.665638 0.3788,0.378807 -0.15691,0.914521 -0.53572,0.535714 z"
         id="path5826-2"
         style="fill:#008000;fill-opacity:1;fill-rule:nonzero;stroke:none" />
      <path
         transform="translate(67.116792,29.60657)"
         inkscape:connector-curvature="0"
         d="m 186.58413,25.845925 c -0.35789,-0.06864 -0.70459,-0.04367 -1.05532,0.04383 -0.2641,0.07036 -0.4385,0.264452 -0.62001,0.4535 -0.0953,0.0984 -0.15241,0.199872 -0.17098,0.333623 -0.0317,0.127709 0.0104,0.202578 0.0563,0.316652 0.0842,0.208898 0.22176,0.395259 0.40661,0.524791 0.23784,0.131904 0.49983,0.207769 0.75484,0.298702 0.21518,0.07779 0.43294,0.147323 0.65932,0.182561 0.0641,0.0021 0.13071,0.01776 0.19503,0.01195 0.007,-6.11e-4 -0.003,-0.01684 0.003,-0.02019 0.0265,-0.01506 0.0556,-0.02526 0.0833,-0.03788 0.1523,-0.08495 0.23919,-0.210097 0.33104,-0.355353 0.10211,-0.220408 0.13006,-0.462238 0.14859,-0.701571 0.0254,-0.25905 -0.0616,-0.506839 -0.12597,-0.753824 0.009,-0.0037 -0.0923,-0.222182 -0.084,-0.150859 -0.4191,-0.333692 0.0528,-0.92638 0.47191,-0.592688 l 0,0 c 0.17113,0.157744 0.28562,0.323844 0.34524,0.552652 0.0857,0.329259 0.18484,0.660259 0.148,1.005162 -0.03,0.365079 -0.0868,0.729818 -0.26873,1.054255 -0.17282,0.261032 -0.36706,0.49224 -0.65378,0.632469 -0.23292,0.105017 -0.45875,0.154232 -0.7127,0.104057 -0.27236,-0.04412 -0.53622,-0.12222 -0.79512,-0.21733 -0.32696,-0.117184 -0.66465,-0.215216 -0.95759,-0.408425 -0.28625,-0.225189 -0.51957,-0.503754 -0.65233,-0.847235 -0.0955,-0.239781 -0.15308,-0.475879 -0.0982,-0.733436 0.0548,-0.27681 0.17071,-0.518709 0.36991,-0.722829 0.28318,-0.29486 0.57991,-0.562917 0.98947,-0.665398 0.43902,-0.102617 0.87912,-0.142064 1.3263,-0.05894 0.53157,0.06645 0.4376,0.818212 -0.094,0.751764 z"
         id="path5828-0"
         style="fill:#008000;fill-opacity:1;fill-rule:nonzero;stroke:none" />
      <path
         inkscape:connector-curvature="0"
         d="m 256.27752,65.824588 c 0.43085,-0.0039 0.85958,0.0526 1.2879,0.09319 0.33226,0.03479 0.6249,0.166354 0.89802,0.3519 0.28465,0.204869 0.36104,0.511811 0.44487,0.829951 0.0768,0.232282 0.10835,0.473724 0.12599,0.7166 0.009,0.370119 -0.13842,0.682291 -0.34333,0.979974 -0.16463,0.278249 -0.40537,0.486095 -0.65932,0.678939 -0.27105,0.201659 -0.59392,0.239127 -0.92036,0.25865 -0.36451,0.02598 -0.7284,-0.0167 -1.0846,-0.09219 -0.30823,-0.08051 -0.5761,-0.241253 -0.8213,-0.439503 -0.20752,-0.195319 -0.30912,-0.459519 -0.38513,-0.727631 -0.0562,-0.221676 -0.0648,-0.450409 -0.0686,-0.677809 -0.028,-0.370601 0.1269,-0.689572 0.32259,-0.991442 0.16658,-0.264665 0.38918,-0.445633 0.68143,-0.550992 0.19202,-0.05164 0.38925,-0.04502 0.58273,-0.08414 0.0296,-0.0064 0.0592,-0.01288 0.0888,-0.01932 0.52352,-0.113635 0.68422,0.626739 0.1607,0.740374 l 0,0 c -0.0336,0.0073 -0.0673,0.01457 -0.10095,0.02186 -0.16439,0.03258 -0.32821,0.04714 -0.49469,0.06096 -0.13624,0.0259 -0.20676,0.139592 -0.28403,0.246047 -0.11698,0.176539 -0.22316,0.343178 -0.19906,0.564541 0.002,0.162581 0.005,0.326426 0.0407,0.485924 0.0326,0.119023 0.0709,0.23965 0.13375,0.344043 0.15198,0.124861 0.31433,0.231033 0.50539,0.287075 0.28764,0.06632 0.58419,0.09479 0.87906,0.07583 0.17338,-0.0093 0.35612,-0.0066 0.50599,-0.106094 0.1924,-0.145442 0.37594,-0.29458 0.49611,-0.509409 0.10946,-0.15263 0.19966,-0.298971 0.20839,-0.492151 -0.0135,-0.196978 -0.0391,-0.391703 -0.10352,-0.579534 -0.0347,-0.134907 -0.041,-0.293335 -0.14277,-0.397572 -0.16402,-0.117139 -0.33528,-0.197328 -0.53835,-0.220638 -0.40457,-0.03835 -0.80954,-0.09273 -1.21642,-0.08981 -0.53571,0 -0.53571,-0.757614 0,-0.757614 z"
         id="path5832-6"
         style="fill:#008000;fill-opacity:1;fill-rule:nonzero;stroke:none" />
      <path
         transform="translate(67.116792,29.60657)"
         inkscape:connector-curvature="0"
         d="m 145.64114,35.693132 c -0.28896,-0.207668 -0.60734,-0.342279 -0.96009,-0.381124 -0.23057,0.0044 -0.44255,0.07966 -0.62875,0.214069 -0.26316,0.182299 -0.40182,0.458449 -0.53651,0.739756 -0.15159,0.303411 -0.25078,0.625184 -0.30116,0.959642 0.004,0.1511 -0.011,0.224973 0.11895,0.298673 0.20102,0.112944 0.41857,0.149746 0.64494,0.17461 0.4249,0.04122 0.8496,-0.0084 1.25311,-0.144313 0.28339,-0.08292 0.52483,-0.227465 0.71747,-0.450284 0.0955,-0.176967 0.13745,-0.366071 0.0938,-0.562532 -0.09,-0.182679 -0.24731,-0.292997 -0.40787,-0.408658 -0.42811,-0.322046 0.0273,-0.927482 0.45544,-0.605435 l 0,0 c 0.31577,0.244247 0.59581,0.493451 0.70075,0.895808 0.0568,0.431106 -0.0175,0.833481 -0.28099,1.189833 -0.28975,0.311138 -0.63088,0.542128 -1.04361,0.661514 -0.51,0.16257 -1.04062,0.233519 -1.57582,0.176587 -0.36858,-0.0448 -0.72616,-0.122978 -1.03599,-0.339963 -0.32489,-0.285845 -0.42355,-0.570995 -0.38886,-1.001878 0.0646,-0.408134 0.18244,-0.802767 0.36786,-1.173591 0.19658,-0.402889 0.41972,-0.78708 0.80151,-1.042322 0.34771,-0.219368 0.71945,-0.359532 1.13833,-0.333448 0.47724,0.0629 0.91605,0.232201 1.30783,0.51656 0.43593,0.311377 -0.004,0.927874 -0.44035,0.616496 z"
         id="path5834-3"
         style="fill:#008000;fill-opacity:1;fill-rule:nonzero;stroke:none" />
      <path
         transform="translate(67.116792,29.60657)"
         inkscape:connector-curvature="0"
         d="m 137.81791,39.638041 c -0.40151,-0.180767 -0.72104,-0.263746 -1.14172,-0.117407 -0.23229,0.113137 -0.46425,0.270441 -0.60904,0.489315 -0.0737,0.158403 -0.0738,0.337739 -0.0793,0.509048 0.0261,0.185027 0.0374,0.403981 0.16561,0.552059 0.15614,0.117935 0.3445,0.138501 0.53452,0.162424 0.40938,0.03935 0.82135,0.03746 1.23221,0.03852 0.35143,-0.0232 0.70285,-0.05637 1.0401,-0.161906 0.17266,-0.06869 0.23414,-0.17459 0.27478,-0.343079 0.0318,-0.249158 0.0972,-0.518823 -0.063,-0.732515 -0.27656,-0.223294 -0.66528,-0.230491 -1.00414,-0.260308 -0.0967,-0.01035 -0.1934,-0.0207 -0.29011,-0.03104 -0.53266,-0.05709 -0.45192,-0.810393 0.0807,-0.7533 l 0,0 c 0.0925,0.0099 0.185,0.01986 0.2775,0.0298 0.59406,0.05481 1.20292,0.12886 1.59184,0.635566 0.0429,0.08167 0.0956,0.158918 0.12876,0.245019 0.13183,0.342355 0.0645,0.726489 0.007,1.075749 -0.13441,0.436246 -0.35109,0.693498 -0.784,0.859387 -0.4106,0.120932 -0.83364,0.175574 -1.26108,0.194245 -0.44421,-0.0012 -0.88971,4.48e-4 -1.33208,-0.04539 -0.4034,-0.0575 -0.78864,-0.154425 -1.05774,-0.48506 -0.19474,-0.30482 -0.28973,-0.643256 -0.29771,-1.006233 0.0119,-0.324648 0.0419,-0.648662 0.22402,-0.92895 0.25793,-0.340052 0.59482,-0.607918 0.99407,-0.766019 0.6605,-0.195512 1.08624,-0.115527 1.70795,0.162456 0.47916,0.239578 0.14034,0.917209 -0.33882,0.677631 z"
         id="path5836-9"
         style="fill:#008000;fill-opacity:1;fill-rule:nonzero;stroke:none" />
      <path
         transform="translate(67.116792,29.60657)"
         inkscape:connector-curvature="0"
         d="m 136.07692,33.077234 c -0.3308,-0.192104 -0.677,-0.343313 -1.04614,-0.442902 -0.27536,-0.06663 -0.53624,-0.08998 -0.80347,0.0077 -0.31536,0.136935 -0.56932,0.367812 -0.80108,0.616397 -0.19963,0.224222 -0.27796,0.506174 -0.3213,0.79603 -0.0373,0.223325 -0.0272,0.421085 0.10361,0.607445 0.19413,0.262487 0.46128,0.444099 0.7436,0.599233 0.24529,0.128883 0.51312,0.17582 0.78606,0.195022 0.32564,-0.06515 0.60452,-0.238351 0.86529,-0.435438 0.20551,-0.161424 0.32188,-0.364056 0.37119,-0.615804 -0.0239,-0.243637 -0.14815,-0.476943 -0.29712,-0.666619 -0.14373,-0.166933 -0.31567,-0.232295 -0.53013,-0.23159 -0.53326,-0.05121 -0.46084,-0.805353 0.0724,-0.754145 l 0,0 c 0.11252,0.0154 0.22783,0.01695 0.33758,0.04622 0.29481,0.07861 0.5357,0.265064 0.73123,0.49171 0.26624,0.377489 0.47876,0.800406 0.4262,1.27603 -0.0988,0.428048 -0.30533,0.787822 -0.65793,1.061144 -0.4086,0.302519 -0.8551,0.558021 -1.37541,0.583988 -0.38248,-0.03003 -0.75669,-0.104879 -1.09834,-0.288811 -0.39163,-0.220767 -0.75807,-0.483032 -1.01658,-0.858579 -0.2188,-0.366957 -0.27913,-0.704576 -0.21012,-1.12726 0.0715,-0.441034 0.21155,-0.861672 0.51888,-1.198693 0.321,-0.336739 0.67356,-0.644668 1.11338,-0.815348 0.4287,-0.134584 0.8068,-0.13022 1.24229,-0.01932 0.42953,0.11917 0.83618,0.291114 1.22178,0.515779 0.46513,0.265788 0.0892,0.923582 -0.37589,0.657793 z"
         id="path5838-0"
         style="fill:#008000;fill-opacity:1;fill-rule:nonzero;stroke:none" />
      <path
         transform="translate(67.116792,29.60657)"
         inkscape:connector-curvature="0"
         d="m 130.77362,42.926222 c -0.36198,-0.18782 -0.75621,-0.28312 -1.15678,-0.342137 -0.37138,-0.07791 -0.69744,0.03793 -1.03494,0.176507 -0.26986,0.0971 -0.44833,0.291722 -0.63242,0.498095 -0.11512,0.126027 -0.13902,0.279675 -0.15643,0.442751 0.007,0.161524 -0.0577,0.35159 0.0187,0.502091 0.0954,0.182887 0.20716,0.352748 0.35163,0.500695 0.096,0.107879 0.11621,0.0876 0.24777,0.09591 0.32934,0.05271 0.66008,0.09039 0.99287,0.111425 0.31405,0.04004 0.61111,-0.01261 0.90861,-0.110565 0.27098,-0.08858 0.42379,-0.282781 0.57112,-0.511639 0.11608,-0.216082 0.15724,-0.422278 0.0797,-0.654664 -0.11966,-0.194007 -0.3604,-0.248854 -0.56519,-0.310898 -0.51021,-0.163322 -0.27924,-0.88487 0.23098,-0.721548 l 0,0 c 0.46161,0.153173 0.88001,0.345643 1.06469,0.831504 0.12136,0.486399 0.0673,0.830325 -0.17487,1.268397 -0.24453,0.373657 -0.54003,0.677364 -0.97596,0.820565 -0.38717,0.120938 -0.78012,0.193377 -1.18721,0.144931 -0.33692,-0.02161 -0.67257,-0.05618 -1.00567,-0.112349 -0.29346,-0.02663 -0.54133,-0.103245 -0.73962,-0.333009 -0.21167,-0.230925 -0.39241,-0.484831 -0.516,-0.774535 -0.0832,-0.275233 -0.085,-0.548962 -0.054,-0.834269 0.0391,-0.317001 0.12345,-0.616448 0.34363,-0.8592 0.26049,-0.291834 0.53627,-0.55339 0.91075,-0.694855 0.4629,-0.188904 0.92977,-0.32189 1.43455,-0.224532 0.49271,0.07533 0.97723,0.196811 1.42002,0.433535 0.46513,0.265789 0.0892,0.923582 -0.37589,0.657794 z"
         id="path5840-6"
         style="fill:#008000;fill-opacity:1;fill-rule:nonzero;stroke:none" />
      <path
         transform="translate(67.116792,29.60657)"
         inkscape:connector-curvature="0"
         d="m 117.42893,43.97727 c -0.41051,-0.147799 -0.84281,-0.236323 -1.27869,-0.252036 -0.33912,0.008 -0.62444,0.165943 -0.88534,0.369731 -0.26533,0.218044 -0.47469,0.497234 -0.62622,0.804215 -0.0267,-0.0814 -0.12132,0.396254 -0.0846,0.2776 0.0236,-0.07634 -0.0178,-0.06292 0.0317,-0.07011 0.28606,0.209612 0.61664,0.348547 0.95433,0.450565 0.48225,0.152425 0.89236,-0.05543 1.31471,-0.272686 0.45498,-0.257161 0.85459,-0.598801 1.14952,-1.030789 0.0603,-0.0041 0.14908,-0.419617 0.0623,-0.241096 -0.22646,-0.485497 0.46014,-0.805755 0.6866,-0.320258 l 0,0 c 0.0316,0.102845 0.0815,0.201775 0.0949,0.308537 0.0309,0.245152 -0.10764,0.484597 -0.22234,0.686011 -0.37417,0.52898 -0.85642,0.960055 -1.42657,1.272353 -0.62245,0.315769 -1.18207,0.534406 -1.88287,0.321776 -0.46522,-0.146202 -0.926,-0.339417 -1.29401,-0.66783 -0.051,-0.06615 -0.11554,-0.123761 -0.15287,-0.198456 -0.14659,-0.293337 -0.0322,-0.585318 0.0934,-0.858348 0.21,-0.406588 0.48371,-0.779176 0.84464,-1.065568 0.40953,-0.303616 0.85319,-0.526467 1.37656,-0.522503 0.51503,0.02647 1.02583,0.119594 1.51073,0.299511 0.5016,0.188102 0.23559,0.897478 -0.26602,0.709377 z"
         id="path5842-9"
         style="fill:#008000;fill-opacity:1;fill-rule:nonzero;stroke:none" />
      <path
         transform="translate(67.116792,29.60657)"
         inkscape:connector-curvature="0"
         d="m 93.478943,43.878913 c -0.299806,-0.06167 -0.606989,-0.186187 -0.916112,-0.134055 -0.233398,0.02886 -0.408377,0.157705 -0.568971,0.319001 -0.182513,0.186638 -0.321177,0.410802 -0.442977,0.640348 -0.125637,0.221696 -0.227972,0.457993 -0.306351,0.700483 -0.02338,0.0013 -0.06897,0.319194 -0.07031,0.319051 -0.02039,-0.0022 0.0089,-0.04043 0.0085,-0.06093 -3.32e-4,-0.01926 -0.007,-0.03788 -0.01054,-0.05682 0.06107,0.01337 -0.07231,-0.08614 -0.04238,-0.08077 0.06274,0.01127 0.249033,0.147179 0.310137,0.183053 0.18413,0.107454 0.37768,0.160701 0.586079,0.194945 0.265021,0.03829 0.529751,0.04339 0.794387,0.0067 0.181988,-0.03131 0.365465,-0.04204 0.53265,-0.1253 0.136477,-0.07441 0.267124,-0.174032 0.36521,-0.295277 0.132177,-0.160475 0.256965,-0.325985 0.358852,-0.507462 0.07032,-0.138988 0.102511,-0.257367 0.03016,-0.395768 -0.196815,-0.279832 -0.433451,-0.528718 -0.653859,-0.789888 -0.345502,-0.409412 0.233494,-0.898025 0.578996,-0.488613 l 0,0 c 0.273539,0.324149 0.581107,0.627778 0.781489,1.005262 0.134105,0.385051 0.111224,0.685246 -0.07966,1.046055 -0.130103,0.223592 -0.279796,0.433619 -0.447279,0.630974 -0.178228,0.195513 -0.381687,0.37079 -0.622463,0.485356 -0.238349,0.102875 -0.485425,0.15498 -0.742918,0.185489 -0.340729,0.0449 -0.682246,0.04118 -1.022683,-0.01065 -0.298021,-0.052 -0.581038,-0.136543 -0.844167,-0.289442 -0.212468,-0.126012 -0.451045,-0.229119 -0.577689,-0.453397 -0.08308,-0.253389 -0.0346,-0.490837 0.04797,-0.73983 0.0948,-0.283449 0.210613,-0.561767 0.358498,-0.821845 0.160351,-0.295643 0.340528,-0.583703 0.579925,-0.822688 0.285365,-0.275495 0.609897,-0.481437 1.012404,-0.530638 0.406043,-0.03745 0.795618,0.04285 1.186836,0.151666 0.519719,0.12993 0.335971,0.864924 -0.183748,0.734994 z"
         id="path5844-9"
         style="fill:#008000;fill-opacity:1;fill-rule:nonzero;stroke:none" />
      <path
         transform="translate(67.116792,29.60657)"
         inkscape:connector-curvature="0"
         d="m 89.943409,37.691729 c -0.327625,-0.07308 -0.621152,0.03014 -0.919154,0.153107 -0.216174,0.09846 -0.355066,0.26246 -0.478482,0.456683 -0.10531,0.206682 -0.16446,0.435639 -0.213883,0.661564 -0.04525,0.230975 -0.06011,0.46627 -0.06868,0.701017 0.02989,0.170395 -0.105619,-0.03765 0.0672,0.02333 0.207114,0.05563 0.425417,0.05851 0.638639,0.06527 0.266961,0.0087 0.532768,0.0168 0.791487,-0.05741 0.27004,-0.05857 0.517095,-0.16652 0.752485,-0.307004 0.128591,-0.06028 0.127994,-0.08691 0.13952,-0.19422 0.03985,-0.205938 -0.03429,-0.358003 -0.129031,-0.535787 -0.165496,-0.250657 -0.421813,-0.370996 -0.697617,-0.461374 -0.507205,-0.172431 -0.263351,-0.889728 0.243854,-0.717297 l 0,0 c 0.461505,0.160771 0.870876,0.397713 1.126782,0.830785 0.163079,0.321901 0.272115,0.645272 0.202985,1.010206 -0.06047,0.315707 -0.204275,0.565642 -0.498601,0.718471 -0.296663,0.176617 -0.609888,0.311935 -0.948063,0.389019 -0.331881,0.08268 -0.666948,0.101786 -1.008366,0.08183 -0.323693,-0.0107 -0.656491,-0.01962 -0.959037,-0.147969 -0.280573,-0.155028 -0.50955,-0.376945 -0.479333,-0.725808 0.01048,-0.280648 0.03005,-0.561795 0.08623,-0.837544 0.07028,-0.311986 0.155522,-0.626912 0.315666,-0.90603 0.209679,-0.324762 0.469345,-0.588877 0.828578,-0.748608 0.44871,-0.183335 0.904842,-0.300334 1.390565,-0.187223 0.519719,0.12993 0.335971,0.864924 -0.183748,0.734994 z"
         id="path5846-2"
         style="fill:#008000;fill-opacity:1;fill-rule:nonzero;stroke:none" />
      <path
         transform="translate(67.116792,29.60657)"
         inkscape:connector-curvature="0"
         d="M 83.643025,42.890469 C 83.328343,42.67409 83.087884,42.545056 82.702,42.583722 c -0.351806,0.106812 -0.641602,0.330175 -0.908494,0.575241 -0.149169,0.142545 -0.290878,0.298214 -0.333311,0.504423 0.03939,0.09156 0.0823,0.190578 0.130578,0.281642 0.03669,0.06141 0.153926,0.26713 0.230286,0.275756 0.197837,0.123556 0.429639,0.186546 0.65339,0.247996 0.254642,0.06568 0.517814,0.07405 0.779163,0.08147 0.260907,0.02352 0.498824,-0.06543 0.737317,-0.156733 0.267659,-0.104832 0.492575,-0.259335 0.669828,-0.48469 0.05955,-0.09346 0.232372,-0.439677 0.158467,-0.537584 -0.11132,-0.174783 -0.331552,-0.25298 -0.512863,-0.330344 -0.48881,-0.219212 -0.178797,-0.910495 0.310014,-0.691282 l 0,0 c 0.42946,0.198906 0.837147,0.428758 0.954175,0.924222 0.0052,0.08018 0.01796,0.160221 0.01569,0.24054 -0.0089,0.315014 -0.172109,0.620642 -0.340134,0.875429 -0.269552,0.319791 -0.590556,0.561913 -0.984656,0.711379 -0.331615,0.126602 -0.669211,0.232449 -1.029707,0.206362 -0.322561,-0.0095 -0.646707,-0.02479 -0.960181,-0.108825 -0.304039,-0.0853 -0.615025,-0.177465 -0.880046,-0.353861 -0.197792,-0.150804 -0.365471,-0.327011 -0.47495,-0.554252 -0.128922,-0.256487 -0.242825,-0.519326 -0.190598,-0.81402 0.09573,-0.348949 0.288795,-0.636441 0.5588,-0.879025 0.397588,-0.356769 0.832089,-0.671369 1.369602,-0.76996 0.09487,-0.0041 0.189754,-0.01646 0.284619,-0.01222 0.424957,0.01899 0.800508,0.225398 1.144389,0.45859 0.435929,0.311377 -0.0044,0.927874 -0.440355,0.616496 z"
         id="path5848-0"
         style="fill:#008000;fill-opacity:1;fill-rule:nonzero;stroke:none" />
      <path
         transform="translate(67.116792,29.60657)"
         inkscape:connector-curvature="0"
         d="m 76.477925,38.380535 c -0.326235,-0.184363 -0.651209,-0.239309 -1.014053,-0.160399 -0.286734,0.08003 -0.496229,0.257531 -0.6623,0.497483 -0.169323,0.267439 -0.260536,0.573509 -0.348271,0.875084 -0.05965,0.199732 -0.07886,0.397927 -0.04846,0.602456 0.01629,0.135027 0.04343,0.266943 0.139831,0.365927 0.02041,-0.0095 -0.04309,-0.04391 -0.03914,-0.04746 0.02144,-0.01933 0.178274,0.002 0.228256,0.0025 0.357101,3.75e-4 0.714199,-0.0022 1.071297,-0.0034 0.24385,0.01941 0.460017,-0.03712 0.664247,-0.166261 0.212393,-0.136938 0.362297,-0.324999 0.463824,-0.553709 0.1205,-0.307704 -0.0032,-0.212813 0.09546,-0.0026 -0.442104,-0.302546 -0.01424,-0.927775 0.427865,-0.625228 l 0,0 c 0.07101,0.06922 0.161926,0.122683 0.213044,0.207662 0.146153,0.242967 0.04424,0.50924 -0.05072,0.742396 -0.174837,0.360419 -0.415246,0.667343 -0.759939,0.881235 -0.324011,0.188666 -0.670957,0.298575 -1.051113,0.274072 -0.361282,0.0013 -0.722563,0.0039 -1.083848,0.0034 -0.275408,-0.0039 -0.542281,-0.0077 -0.750662,-0.215189 -0.183783,-0.218327 -0.288838,-0.474026 -0.318803,-0.759056 -0.04137,-0.31157 -0.01874,-0.616428 0.07155,-0.918926 0.112469,-0.384648 0.236192,-0.771264 0.461696,-1.106927 0.290228,-0.391053 0.650637,-0.679884 1.13357,-0.797558 0.580326,-0.102345 1.012196,-0.03611 1.532543,0.246678 0.46513,0.265788 0.08925,0.923582 -0.375882,0.657793 z"
         id="path5850-9"
         style="fill:#008000;fill-opacity:1;fill-rule:nonzero;stroke:none" />
      <path
         transform="translate(67.116792,29.60657)"
         inkscape:connector-curvature="0"
         d="m 70.29417,44.956445 c -0.362507,-0.168047 -0.748072,-0.303381 -1.148274,-0.334395 -0.356311,0.0045 -0.644461,0.19754 -0.912954,0.412344 -0.200441,0.164671 -0.381114,0.341066 -0.473191,0.586161 -0.06133,0.197593 -0.07455,0.405202 -0.0821,0.610672 0.0032,0.0063 0.0034,0.02218 0.0096,0.01886 0.01337,-0.0071 -0.0036,-0.04472 0.0076,-0.0524 0.03215,-0.02212 0.219739,0.05781 0.281116,0.07684 0.369941,0.110367 0.741754,0.204052 1.12476,0.254039 0.319755,0.05533 0.629791,0.02171 0.940898,-0.05558 0.212735,-0.07686 0.439243,-0.150543 0.608541,-0.307182 0.04251,-0.07723 0.05943,-0.16626 0.01982,-0.24664 -0.142563,-0.25323 -0.344694,-0.460052 -0.542992,-0.669806 -0.367641,-0.389654 0.183412,-0.909576 0.551053,-0.519922 l 0,0 c 0.287981,0.305772 0.582434,0.612984 0.729255,1.01553 0.075,0.395365 0.01454,0.707821 -0.273347,1.003868 -0.270867,0.215288 -0.57854,0.364187 -0.911416,0.459848 -0.402787,0.09822 -0.80883,0.137818 -1.221564,0.07091 -0.42545,-0.05733 -0.839935,-0.157812 -1.250823,-0.281879 -0.431513,-0.135576 -0.803108,-0.278611 -0.829579,-0.795218 0.01146,-0.294128 0.03771,-0.590097 0.138145,-0.869244 0.15496,-0.362314 0.394161,-0.650454 0.705142,-0.893791 0.426931,-0.332969 0.893531,-0.591872 1.452756,-0.571711 0.492975,0.05144 0.970039,0.193917 1.416359,0.411069 0.479158,0.239579 0.140342,0.91721 -0.338815,0.677631 z"
         id="path5852-4"
         style="fill:#008000;fill-opacity:1;fill-rule:nonzero;stroke:none" />
      <path
         transform="translate(67.116792,29.60657)"
         inkscape:connector-curvature="0"
         d="m 62.734534,36.609002 c -0.101991,-0.245609 -0.251414,-0.458785 -0.494439,-0.574867 -0.236614,0.01907 -0.455407,0.144486 -0.653716,0.265613 -0.419882,0.270891 -0.707535,0.675937 -0.972391,1.089669 -0.205975,0.373223 -0.354151,0.775722 -0.449871,1.1905 -0.04844,0.240495 -0.04921,0.267495 0.16913,0.358892 0.436447,0.164312 0.896774,0.239272 1.360971,0.254645 0.474401,-0.01295 0.852754,-0.109457 1.147163,-0.497643 0.222385,-0.388011 0.260925,-0.844702 0.291948,-1.282387 0.01332,0.152956 0.01645,-0.19536 -0.03518,-0.16955 -0.01519,0.0076 -0.0067,0.0333 -0.01002,0.04994 -0.388608,-0.368745 0.132876,-0.91832 0.521485,-0.549575 l 0,0 c 0.225919,0.279788 0.293469,0.356548 0.279353,0.723831 -0.04403,0.598305 -0.11984,1.208185 -0.467993,1.715639 -0.07705,0.08675 -0.145679,0.181779 -0.231151,0.260241 -0.415948,0.381834 -0.979199,0.495026 -1.525096,0.50654 -0.588738,-0.02566 -1.177817,-0.117092 -1.719406,-0.36092 -0.07892,-0.05195 -0.164441,-0.09506 -0.236762,-0.15586 -0.309964,-0.260609 -0.374759,-0.650659 -0.282093,-1.026578 0.118056,-0.498099 0.294828,-0.982197 0.550194,-1.427346 0.330108,-0.511816 0.69758,-1.002339 1.222161,-1.331026 0.432187,-0.252673 0.897836,-0.468055 1.399398,-0.282256 0.39625,0.22329 0.679898,0.548825 0.845689,0.976478 0.188102,0.501605 -0.521274,0.767621 -0.709376,0.266016 z"
         id="path5854-8"
         style="fill:#008000;fill-opacity:1;fill-rule:nonzero;stroke:none" />
      <path
         transform="translate(67.116792,29.60657)"
         inkscape:connector-curvature="0"
         d="m 61.659138,43.626375 c -0.434669,-0.118612 -0.867832,-0.137947 -1.312546,-0.09143 -0.422506,0.07545 -0.72963,0.324069 -1.012227,0.6303 -0.226989,0.258953 -0.372143,0.553141 -0.450473,0.885721 -0.04676,0.187172 -0.0086,0.336288 0.152382,0.444202 0.276363,0.19767 0.606061,0.252226 0.935434,0.291551 0.368988,0.05701 0.709171,0.01289 1.052034,-0.125932 0.362871,-0.138663 0.638157,-0.403196 0.910428,-0.669755 0.004,0.04694 0.386256,-0.519694 0.23871,-0.459709 -0.06766,-0.07193 -0.151283,-0.126599 -0.230564,-0.184375 -0.423165,-0.328513 0.04142,-0.926959 0.464588,-0.598446 l 0,0 c 0.219929,0.17682 0.417482,0.342156 0.506568,0.623123 0.01058,0.08958 0.03383,0.178556 0.03174,0.268733 -0.008,0.346564 -0.267882,0.648348 -0.481502,0.892491 -0.345254,0.336912 -0.705106,0.659401 -1.163863,0.833449 -0.461828,0.176479 -0.92743,0.24725 -1.420858,0.172341 -0.483941,-0.06119 -0.957493,-0.167551 -1.348245,-0.479184 -0.06256,-0.06105 -0.132594,-0.115279 -0.187685,-0.183146 -0.232023,-0.285831 -0.272522,-0.657313 -0.194977,-1.005802 0.115252,-0.457391 0.316658,-0.869563 0.633905,-1.223778 0.413345,-0.434812 0.878441,-0.773888 1.487677,-0.865483 0.53193,-0.05316 1.053938,-0.02938 1.573221,0.110136 0.519719,0.12993 0.335971,0.864924 -0.183748,0.734994 z"
         id="path5856-7"
         style="fill:#008000;fill-opacity:1;fill-rule:nonzero;stroke:none" />
      <path
         transform="translate(67.116792,29.60657)"
         inkscape:connector-curvature="0"
         d="m 51.759813,34.027388 c -0.14338,-0.21706 -0.301326,-0.424583 -0.548739,-0.519121 -0.213332,-0.005 -0.401329,0.152488 -0.564987,0.270818 -0.309076,0.265757 -0.564271,0.586374 -0.783515,0.928391 -0.163454,0.256499 -0.209712,0.546491 -0.232951,0.843432 -6.42e-4,0.265473 -0.0022,0.55693 0.08249,0.812275 0.0074,0.01753 0.01134,0.03698 0.02223,0.05259 0.0038,0.0055 -0.0053,-0.01658 4.48e-4,-0.02006 0.0057,-0.0035 0.01201,0.0057 0.01776,0.009 0.0162,0.0093 0.03118,0.02081 0.04804,0.02884 0.06871,0.03273 0.141223,0.05678 0.211593,0.08576 0.360984,0.122519 0.742182,0.177832 1.122523,0.172542 0.364883,-0.0068 0.723256,-0.08561 1.062546,-0.21733 0.242977,-0.08458 0.322715,-0.185957 0.433497,-0.405791 0.05994,-0.196372 0.172647,-0.433517 0.06188,-0.629698 -0.04491,5.04e-4 -0.09018,-0.02589 -0.131664,-0.04132 -0.481587,-0.234658 -0.14973,-0.915724 0.331856,-0.681066 l 0,0 c 0.215908,0.113775 0.393161,0.225643 0.508163,0.453665 0.157379,0.470066 0.08466,0.803282 -0.100813,1.253174 -0.202898,0.371999 -0.427411,0.615353 -0.834195,0.759393 -0.425988,0.158942 -0.871091,0.261811 -1.327971,0.266584 -0.481409,-0.0012 -0.962493,-0.06388 -1.416788,-0.230634 -0.322957,-0.135382 -0.632828,-0.289454 -0.738701,-0.651461 -0.09064,-0.349884 -0.127509,-0.717962 -0.107943,-1.078797 0.03619,-0.420993 0.119011,-0.831015 0.351848,-1.192517 0.273803,-0.420308 0.588638,-0.816253 0.980076,-1.133977 0.394338,-0.277834 0.812752,-0.505796 1.306007,-0.348838 0.403997,0.185042 0.672698,0.460761 0.905096,0.838305 0.265789,0.46513 -0.392005,0.841012 -0.657793,0.375882 z"
         id="path5858-6"
         style="fill:#008000;fill-opacity:1;fill-rule:nonzero;stroke:none" />
      <path
         transform="translate(67.116792,29.60657)"
         inkscape:connector-curvature="0"
         d="m 51.052536,42.111146 c -0.382814,-0.09062 -0.762674,-0.165497 -1.151621,-0.08126 -0.314559,0.09658 -0.543116,0.318097 -0.712375,0.592143 -0.132631,0.250555 -0.173692,0.534613 -0.195145,0.813861 -0.02245,0.209924 -0.01811,0.172186 0.09241,0.299393 0.153713,0.183516 0.36199,0.294666 0.588674,0.360364 0.283107,0.07017 0.570156,0.08817 0.85637,0.03418 0.404625,-0.119321 0.804039,-0.260865 1.193446,-0.423525 0.222323,-0.07569 0.41858,-0.189681 0.537366,-0.397313 0.116337,-0.272162 0.109876,-0.551201 0.03704,-0.831821 -0.07661,-0.16306 -0.20931,-0.235992 -0.368931,-0.299972 -0.482845,-0.232057 -0.154667,-0.914903 0.328178,-0.682846 l 0,0 c 0.397295,0.206103 0.617911,0.373119 0.778064,0.808599 0.108862,0.489686 0.101077,0.976076 -0.144717,1.427399 -0.223446,0.315223 -0.501947,0.554147 -0.876143,0.675513 -0.442081,0.183065 -0.894331,0.34786 -1.356818,0.470777 -0.40691,0.06489 -0.812322,0.05249 -1.211782,-0.05847 -0.363158,-0.119894 -0.697384,-0.299117 -0.944357,-0.599788 -0.2159,-0.267474 -0.309307,-0.496451 -0.263977,-0.843197 0.03372,-0.405593 0.107536,-0.811235 0.316021,-1.167445 0.296248,-0.439195 0.675864,-0.787537 1.202815,-0.921677 0.51108,-0.09172 0.978405,-0.03848 1.47923,0.0901 0.519719,0.12993 0.335971,0.864924 -0.183748,0.734994 z"
         id="path5860-0"
         style="fill:#008000;fill-opacity:1;fill-rule:nonzero;stroke:none" />
      <path
         transform="translate(67.116792,29.60657)"
         inkscape:connector-curvature="0"
         d="m 44.247076,32.031329 c -0.319081,-0.188851 -0.659257,-0.359023 -1.030935,-0.402983 -0.305947,0.01133 -0.567105,0.168034 -0.790165,0.365758 -0.317262,0.316689 -0.508592,0.716202 -0.642831,1.137721 -0.09295,0.384396 -0.140777,0.526736 0.05555,0.866702 0.180877,0.265769 0.450289,0.35161 0.751054,0.409539 0.38152,0.03578 0.691939,-0.163544 0.991767,-0.371926 0.395562,-0.340551 0.709167,-0.760724 0.952531,-1.220288 0.09356,-0.294238 0.05671,-0.158088 -0.09654,-0.19101 -0.498225,-0.196879 -0.219796,-0.901476 0.278429,-0.704597 l 0,0 c 0.07786,0.03492 0.16169,0.05881 0.233592,0.104773 0.417777,0.267062 0.443113,0.732281 0.25226,1.148743 -0.305061,0.563795 -0.690719,1.081701 -1.192088,1.487388 -0.477162,0.323247 -0.9779,0.57642 -1.572528,0.489009 -0.521551,-0.111829 -0.975013,-0.320572 -1.265495,-0.79237 -0.280711,-0.542422 -0.268575,-0.878605 -0.109218,-1.459625 0.182184,-0.554157 0.443664,-1.075 0.873093,-1.481527 0.400868,-0.331438 0.852753,-0.567636 1.388332,-0.538203 0.490139,0.07772 0.946069,0.267087 1.363542,0.5364 0.435928,0.311377 -0.0044,0.927874 -0.440355,0.616496 z"
         id="path5862-8"
         style="fill:#008000;fill-opacity:1;fill-rule:nonzero;stroke:none" />
      <path
         inkscape:connector-curvature="0"
         d="m 120.39915,77.124053 c -0.35636,-0.10864 -0.69512,-0.0513 -1.03271,0.08277 -0.23391,0.120361 -0.42642,0.278234 -0.52595,0.523242 -0.0716,0.22463 -0.0885,0.459768 -0.053,0.691625 0.0199,0.146967 0.12526,0.139493 0.25531,0.20717 0.26389,0.13981 0.52225,0.293101 0.80772,0.384679 0.2183,0.01556 0.37188,-0.163466 0.5119,-0.308125 0.26325,-0.307459 0.4537,-0.66187 0.61209,-1.031892 0.0217,-0.05933 0.17367,-0.448392 0.10473,-0.501488 -0.0107,-0.0083 -0.011,0.02687 -0.0226,0.03381 -0.0104,0.0062 -0.0241,8.29e-4 -0.0362,0.0012 -0.41713,-0.160869 -0.84648,-0.292704 -1.27077,-0.435005 -0.5079,-0.170376 -0.26695,-0.888654 0.24095,-0.718278 l 0,0 c 0.51063,0.171323 1.04488,0.306211 1.51514,0.571528 0.0699,0.06879 0.15502,0.124946 0.20967,0.206366 0.24177,0.360166 0.0939,0.777844 -0.0452,1.14185 -0.19778,0.455785 -0.43662,0.892566 -0.76981,1.265331 -0.3731,0.370133 -0.7408,0.613878 -1.28796,0.493891 -0.32317,-0.109217 -0.6232,-0.268065 -0.92126,-0.432844 -0.34442,-0.181474 -0.60072,-0.359542 -0.65384,-0.772302 -0.0502,-0.375307 -0.0215,-0.75387 0.11333,-1.110677 0.2085,-0.436685 0.5062,-0.711821 0.94529,-0.917785 0.5049,-0.18797 1.01753,-0.259372 1.54283,-0.09385 0.50822,0.169408 0.26864,0.888144 -0.23958,0.718736 z"
         id="path5864-6"
         style="fill:#008000;fill-opacity:1;fill-rule:nonzero;stroke:none" />
      <path
         inkscape:connector-curvature="0"
         d="m 110.34065,69.697411 c -0.4116,-0.07918 -0.78484,0.03487 -1.14988,0.215851 -0.27508,0.152597 -0.5242,0.354288 -0.70617,0.612584 -0.0676,0.124275 -0.0768,0.264183 -0.0824,0.402462 -0.0141,0.180754 0.055,0.339333 0.14847,0.489174 0.1205,0.181282 0.28391,0.322367 0.48598,0.402475 0.21898,0.06075 0.43987,0.06692 0.66292,0.03636 0.27297,-0.05858 0.46835,-0.239804 0.66642,-0.423338 0.22697,-0.242012 0.43634,-0.503843 0.58409,-0.80207 0.0873,-0.219554 0.0947,-0.422795 -0.061,-0.606867 -0.15805,-0.14238 -0.35589,-0.145907 -0.55715,-0.154104 -0.53428,-0.03919 -0.47886,-0.794776 0.0554,-0.755584 l 0,0 c 0.46336,0.04288 0.81411,0.114935 1.13039,0.486886 0.0493,0.07998 0.10867,0.154602 0.14804,0.239935 0.16989,0.368213 0.11001,0.772814 -0.0406,1.133595 -0.19462,0.375264 -0.44865,0.714406 -0.74585,1.015423 -0.31495,0.288762 -0.64822,0.545133 -1.08194,0.617398 -0.35938,0.04507 -0.7181,0.02734 -1.06321,-0.09302 -0.34347,-0.156195 -0.63214,-0.386373 -0.83459,-0.709731 -0.16285,-0.281195 -0.27601,-0.580795 -0.25416,-0.911942 0.0147,-0.289464 0.0648,-0.570637 0.22962,-0.816875 0.26498,-0.350244 0.59363,-0.641207 0.98543,-0.844551 0.52846,-0.251731 1.07756,-0.39397 1.66398,-0.26905 0.51972,0.12993 0.33597,0.864924 -0.18375,0.734994 z"
         id="path5866-5"
         style="fill:#008000;fill-opacity:1;fill-rule:nonzero;stroke:none" />
      <path
         inkscape:connector-curvature="0"
         d="m 104.32462,67.321787 c -0.28861,-0.03812 -0.5886,-0.04507 -0.86637,0.05218 -0.17937,0.09336 -0.34271,0.221672 -0.47375,0.375629 -0.11896,0.132205 -0.20569,0.280664 -0.23861,0.455181 -0.0279,0.208171 -0.0247,0.418991 -0.0249,0.628574 0.006,0.07755 -0.005,0.155853 9.7e-4,0.233426 0.001,0.0177 0.0217,0.06699 0.0202,0.0493 -0.008,-0.09077 -0.0192,-0.0316 -0.01,-0.07211 0.27107,0.08624 0.56242,0.12097 0.84329,0.174012 0.232,0.01436 0.56296,0.174432 0.78855,0.08702 0.20334,-0.04187 0.35239,-0.169032 0.48374,-0.323323 0.15527,-0.154582 0.2207,-0.309361 0.25062,-0.520028 -0.048,-0.298871 -0.21482,-0.507682 -0.47499,-0.650564 -0.19257,-0.09217 -0.40129,-0.127343 -0.60916,-0.164697 -0.52662,-0.09829 -0.38762,-0.843041 0.139,-0.744754 l 0,0 c 0.30108,0.0578 0.59991,0.116874 0.87212,0.267266 0.0906,0.06032 0.18789,0.111623 0.27179,0.18095 0.36887,0.304781 0.5525,0.762814 0.54915,1.232663 -0.0602,0.347992 -0.1847,0.647926 -0.43434,0.904805 -0.24526,0.266315 -0.52525,0.4853 -0.88916,0.558474 -0.36925,0.06431 -0.72576,-0.0032 -1.08894,-0.08355 -0.3902,-0.07489 -0.79534,-0.111964 -1.1499,-0.307481 -0.3138,-0.265521 -0.32745,-0.436843 -0.32073,-0.82197 2.2e-4,-0.263738 -0.003,-0.529418 0.0425,-0.790205 0.0702,-0.300344 0.20408,-0.568157 0.41367,-0.797718 0.22877,-0.24965 0.49291,-0.466597 0.81065,-0.593365 0.38696,-0.115568 0.78786,-0.1426 1.18844,-0.08148 0.53157,0.06645 0.4376,0.818212 -0.094,0.751764 z"
         id="path5868-3"
         style="fill:#008000;fill-opacity:1;fill-rule:nonzero;stroke:none" />
      <path
         transform="translate(67.116792,29.60657)"
         inkscape:connector-curvature="0"
         d="m 31.601695,44.638817 c -0.441385,-0.08757 -0.889988,-0.168807 -1.341159,-0.169814 -0.302956,0.02815 -0.566572,0.172055 -0.790511,0.371107 -0.238412,0.228807 -0.439199,0.50445 -0.564679,0.810912 -0.06643,0.217874 -0.15436,0.475157 -0.02504,0.684666 0.149227,0.239835 0.369246,0.413544 0.607419,0.558501 0.371792,0.176843 0.715272,0.147933 1.097937,0.03177 0.549939,-0.212647 0.962435,-0.633187 1.286052,-1.113378 0.09791,-0.191708 0.265873,-0.472329 0.129721,-0.691727 -0.03655,-0.0589 -0.114753,-0.07709 -0.171858,-0.09994 -0.436583,-0.310459 0.0025,-0.927881 0.439055,-0.617422 l 0,0 c 0.100125,0.08202 0.216603,0.147387 0.300374,0.246048 0.403369,0.475067 0.204763,1.118384 -0.07276,1.591924 -0.43325,0.621993 -0.974891,1.155442 -1.704247,1.413474 -0.115453,0.0311 -0.228853,0.07118 -0.346358,0.0933 -0.463228,0.08718 -0.941213,5.44e-4 -1.35817,-0.210787 -0.367431,-0.232105 -0.698506,-0.51081 -0.903317,-0.902832 -0.03096,-0.08179 -0.07067,-0.160793 -0.09289,-0.245382 -0.09098,-0.346352 0.0074,-0.711001 0.118574,-1.038634 0.182495,-0.409384 0.435866,-0.785463 0.769763,-1.087954 0.37344,-0.30863 0.794461,-0.529331 1.288835,-0.551214 0.503949,0.0083 1.004794,0.084 1.497604,0.187814 0.522958,0.116213 0.358608,0.855786 -0.164349,0.739573 z"
         id="path5870-0"
         style="fill:#008000;fill-opacity:1;fill-rule:nonzero;stroke:none" />
      <path
         transform="translate(67.116792,29.60657)"
         inkscape:connector-curvature="0"
         d="m 20.886819,44.311417 c -0.321847,0.05789 -0.64558,0.115971 -0.910681,0.317932 -0.192789,0.142841 -0.224919,0.346361 -0.256739,0.569922 -0.05013,0.294204 0.03237,0.395899 0.214813,0.602778 0.252813,0.212523 0.570056,0.284665 0.886583,0.342908 0.312493,0.0646 0.435419,-0.01317 0.665982,-0.210172 0.275966,-0.248559 0.456163,-0.58555 0.594413,-0.926024 0.0295,-0.128835 0.11355,-0.268943 0.09159,-0.40697 -0.0038,-0.02414 -0.08818,-0.01518 -0.09705,-0.01556 -0.37643,-0.11486 -0.765402,-0.181344 -1.145619,-0.283581 -0.517268,-0.139369 -0.32017,-0.870896 0.197098,-0.731527 l 0,0 c 0.464432,0.125411 0.954206,0.178889 1.38738,0.397547 0.0792,0.06651 0.171242,0.12019 0.237592,0.199518 0.280228,0.335039 0.161147,0.765158 0.02916,1.129995 -0.190869,0.455609 -0.437917,0.897622 -0.816615,1.224428 -0.405271,0.319978 -0.759752,0.476089 -1.284026,0.366892 -0.48651,-0.09314 -0.959744,-0.234478 -1.32105,-0.593635 -0.315956,-0.373866 -0.471448,-0.710634 -0.389278,-1.210364 0.0676,-0.426621 0.203151,-0.810821 0.568007,-1.074502 0.379293,-0.258518 0.800815,-0.388274 1.254467,-0.451352 0.531578,-0.06645 0.625548,0.685317 0.09397,0.751764 z"
         id="path5872-8"
         style="fill:#008000;fill-opacity:1;fill-rule:nonzero;stroke:none" />
      <path
         inkscape:connector-curvature="0"
         d="m 266.1114,60.318599 c -0.2998,-0.06167 -0.60698,-0.186187 -0.91611,-0.134055 -0.2334,0.02886 -0.40837,0.157705 -0.56897,0.319001 -0.18251,0.186638 -0.32118,0.410802 -0.44298,0.640348 -0.12563,0.221696 -0.22797,0.457993 -0.30635,0.700483 -0.0234,0.0013 -0.069,0.319194 -0.0703,0.319051 -0.0204,-0.0022 0.009,-0.04043 0.008,-0.06093 -3.3e-4,-0.01926 -0.007,-0.03788 -0.0105,-0.05682 0.0611,0.01337 -0.0723,-0.08614 -0.0424,-0.08077 0.0627,0.01127 0.24904,0.147179 0.31014,0.183053 0.18413,0.107454 0.37768,0.160701 0.58608,0.194945 0.26502,0.03829 0.52975,0.04339 0.79439,0.0067 0.18198,-0.03131 0.36546,-0.04204 0.53265,-0.1253 0.13647,-0.07441 0.26712,-0.174032 0.36521,-0.295277 0.13217,-0.160475 0.25696,-0.325985 0.35885,-0.507462 0.0703,-0.138988 0.10251,-0.257367 0.0302,-0.395768 -0.19682,-0.279832 -0.43345,-0.528718 -0.65386,-0.789888 -0.3455,-0.409412 0.23349,-0.898025 0.579,-0.488613 l 0,0 c 0.27353,0.324149 0.5811,0.627778 0.78148,1.005262 0.13411,0.385051 0.11123,0.685246 -0.0797,1.046055 -0.1301,0.223592 -0.27979,0.433619 -0.44727,0.630974 -0.17823,0.195513 -0.38169,0.37079 -0.62247,0.485356 -0.23835,0.102875 -0.48542,0.15498 -0.74292,0.185489 -0.34072,0.0449 -0.68224,0.04118 -1.02268,-0.01065 -0.29802,-0.052 -0.58104,-0.136543 -0.84417,-0.289442 -0.21246,-0.126012 -0.45104,-0.229119 -0.57768,-0.453397 -0.0831,-0.253389 -0.0346,-0.490837 0.048,-0.73983 0.0948,-0.283449 0.21061,-0.561767 0.35849,-0.821845 0.16035,-0.295643 0.34053,-0.583703 0.57993,-0.822688 0.28536,-0.275495 0.6099,-0.481437 1.0124,-0.530638 0.40605,-0.03745 0.79562,0.04285 1.18684,0.151666 0.51972,0.12993 0.33597,0.864924 -0.18375,0.734994 z"
         id="path5844-0-0"
         style="fill:#008000;fill-opacity:1;fill-rule:nonzero;stroke:none" />
    </g>
  </g>
</svg>
