<?xml version="1.0" encoding="UTF-8" standalone="no"?>
<!-- Created with Inkscape (http://www.inkscape.org/) -->

<svg
   xmlns:dc="http://purl.org/dc/elements/1.1/"
   xmlns:cc="http://creativecommons.org/ns#"
   xmlns:rdf="http://www.w3.org/1999/02/22-rdf-syntax-ns#"
   xmlns:svg="http://www.w3.org/2000/svg"
   xmlns="http://www.w3.org/2000/svg"
   xmlns:sodipodi="http://sodipodi.sourceforge.net/DTD/sodipodi-0.dtd"
   xmlns:inkscape="http://www.inkscape.org/namespaces/inkscape"
   width="255.97346"
   height="162.39"
   id="svg5421"
   version="1.1"
   inkscape:version="0.48.5 r10040"
   sodipodi:docname="popul_dens_nw.svg">
  <defs
     id="defs5423" />
  <sodipodi:namedview
     id="base"
     pagecolor="#ffffff"
     bordercolor="#666666"
     borderopacity="1.0"
     inkscape:pageopacity="0.0"
     inkscape:pageshadow="2"
     inkscape:zoom="2.8"
     inkscape:cx="130.50018"
     inkscape:cy="44.163045"
     inkscape:document-units="px"
     inkscape:current-layer="layer1"
     showgrid="false"
     inkscape:window-width="1243"
     inkscape:window-height="891"
     inkscape:window-x="465"
     inkscape:window-y="95"
     inkscape:window-maximized="0"
     fit-margin-top="0"
     fit-margin-left="0"
     fit-margin-right="0"
     fit-margin-bottom="0" />
  <metadata
     id="metadata5426">
    <rdf:RDF>
      <cc:Work
         rdf:about="">
        <dc:format>image/svg+xml</dc:format>
        <dc:type
           rdf:resource="http://purl.org/dc/dcmitype/StillImage" />
        <dc:title></dc:title>
      </cc:Work>
    </rdf:RDF>
  </metadata>
  <g
     inkscape:label="Layer 1"
     inkscape:groupmode="layer"
     id="layer1"
     transform="translate(-67.116792,-7.6065492)">
    <path
       style="fill:#000000;fill-opacity:1;fill-rule:nonzero;stroke:none"
       id="path5429"
       d="m 74.292884,93.923843 c 0.248719,1.696794 0.33462,3.411153 0.400829,5.122973 0.05398,1.665694 0.05822,3.332404 0.06093,4.998794 0.02485,1.50379 -0.05962,3.01072 0.05548,4.51112 0.20391,1.69547 0.319677,3.39811 0.388618,5.10381 0.0547,1.66981 0.05826,3.34067 0.06096,5.01119 5.94e-4,1.46208 -0.0013,2.92417 -0.0022,4.38625 -8.39e-4,1.5702 -9.81e-4,3.14039 -0.0011,4.71058 -5.8e-5,1.24037 -4.3e-5,2.48074 -3.3e-5,3.72111 -0.07516,1.1769 0.06418,2.32837 0.219806,3.4908 0.166343,1.31523 0.231492,2.63972 0.268214,3.96395 0.02013,0.913 0.02116,1.82626 0.02033,2.73943 -0.0017,0.9763 -0.0023,1.95259 -0.0028,2.92889 -3.9e-4,1.06793 -4.61e-4,2.13587 -4.88e-4,3.20381 -9e-6,0.83038 6e-6,1.66076 1.2e-5,2.49114 7e-6,1.18885 8e-6,2.37769 9e-6,3.56654 0,0.89426 0,1.78853 0,2.68279 0,0.55178 0,1.10356 0,1.65534 0,0.64409 0,1.28819 0,1.93228 0,0.40544 0,0.81087 0,1.21631 0,1.42857 -2.020305,1.42857 -2.020305,0 l 0,0 c 0,-0.40544 0,-0.81087 0,-1.21631 0,-0.64409 0,-1.28819 0,-1.93228 0,-0.55178 0,-1.10356 0,-1.65534 0,-0.89426 0,-1.78853 0,-2.68279 -10e-7,-1.18884 -2e-6,-2.37768 -9e-6,-3.56652 -6e-6,-0.83041 -2.1e-5,-1.66081 -1.3e-5,-2.49122 2.8e-5,-1.06822 9.9e-5,-2.13645 4.89e-4,-3.20467 4.45e-4,-0.9766 0.0011,-1.9532 0.0028,-2.9298 8.12e-4,-0.89398 -9.7e-5,-1.78804 -0.01957,-2.68185 -0.03443,-1.25323 -0.09483,-2.50676 -0.251118,-3.75161 -0.167388,-1.25029 -0.310253,-2.49393 -0.237672,-3.75888 -1e-5,-1.24041 -2.5e-5,-2.48083 3.3e-5,-3.72125 1e-4,-1.57056 2.42e-4,-3.14113 0.0011,-4.71169 9.03e-4,-1.46059 0.0028,-2.92117 0.0022,-4.38175 -0.0027,-1.64449 -0.006,-3.28932 -0.05933,-4.93312 -0.06761,-1.68384 -0.184787,-3.36417 -0.384888,-5.03798 -0.108413,-1.54939 -0.04643,-3.1025 -0.06085,-4.65499 -0.0027,-1.64152 -0.0066,-3.28334 -0.05943,-4.924173 -0.06264,-1.626705 -0.142445,-3.255806 -0.374843,-4.868747 -0.234856,-1.409135 1.757961,-1.741271 1.992817,-0.332137 z"
       inkscape:connector-curvature="0" />
    <path
       style="fill:#000000;fill-opacity:1;fill-rule:nonzero;stroke:none"
       id="path5431"
       d="m 72.558314,85.317977 c -0.46269,1.492161 -0.911109,2.990295 -1.438654,4.461084 -0.462197,1.255142 -0.902613,2.520672 -1.442279,3.745096 -0.185244,0.456778 -0.360998,0.918519 -0.501758,1.391203 -0.0099,0.131115 -0.116925,-0.66781 -0.304146,-0.910239 0.431004,0.183179 0.933091,0.171746 1.394238,0.196763 0.954687,0.03662 1.910345,0.03361 2.86557,0.03406 0.844073,-3.74e-4 1.688145,-0.0017 2.532217,-0.0027 1.166832,-0.01583 -0.03511,-0.02588 -0.367695,0.59977 -0.04317,0.178331 -0.0287,-0.238255 -0.0294,-0.263282 -0.02622,-0.291 0.03753,-0.592274 -0.05211,-0.872499 -0.317792,-1.072183 -0.823093,-2.059026 -1.407986,-3.007034 -0.569547,-0.989959 -1.185754,-1.95228 -1.904567,-2.840575 -0.498964,-0.483123 -1.015991,-0.945184 -1.55142,-1.387528 -0.361195,-0.264429 -0.709504,-0.544934 -1.051297,-0.833931 -0.11938,-0.102297 -0.06426,-0.05473 -0.165495,-0.142552 -1.078881,-0.936393 0.245378,-2.462162 1.324259,-1.525769 l 0,0 c 0.08847,0.07682 0.03986,0.03483 0.145961,0.125815 0.340991,0.288546 0.690788,0.564916 1.048882,0.831892 0.625673,0.534392 1.256473,1.063188 1.822243,1.664443 0.76942,0.958225 1.443476,1.985265 2.053647,3.051978 0.706723,1.158209 1.320727,2.367272 1.67048,3.685675 0.06231,0.400291 0.09417,0.789632 0.08692,1.193687 0.0079,0.284711 0.02726,0.571489 -0.04102,0.851358 -0.307638,0.733793 -0.870585,0.942855 -1.578906,0.888855 -0.845224,0.001 -1.690447,0.0024 -2.535671,0.0027 -0.992273,-4.77e-4 -1.985019,0.0025 -2.976682,-0.03717 -0.764647,-0.04335 -1.560437,-0.07433 -2.251694,-0.44149 -0.477982,-0.303062 -0.881421,-0.87059 -0.661687,-1.441874 0.166256,-0.552826 0.368749,-1.094312 0.589016,-1.627724 0.522335,-1.180154 0.941368,-2.403277 1.389405,-3.612961 0.525273,-1.454621 0.961687,-2.940141 1.423006,-4.415929 0.451754,-1.355262 2.368384,-0.716385 1.91663,0.638877 z"
       inkscape:connector-curvature="0" />
    <path
       style="fill:#000000;fill-opacity:1;fill-rule:nonzero;stroke:none"
       id="path5433"
       d="m 75.279851,160.97672 c 1.13956,0.17931 2.286475,0.30345 3.437515,0.37613 0.959376,0.0509 1.920365,0.0553 2.880836,0.0582 0.775128,5.7e-4 1.550255,-10e-4 2.325382,-0.002 1.129597,-0.001 2.259195,-0.001 3.388792,-0.001 1.161396,-6e-5 2.322791,-4e-5 3.484187,-3e-5 1.16278,0.0644 2.30579,-0.16356 3.45573,-0.29746 1.483037,-0.0851 2.953991,-0.23318 4.427231,-0.42147 1.032874,-0.13168 2.068946,-0.23437 3.109406,-0.27643 1.18631,0.0197 2.35777,-0.18849 3.53418,-0.31662 1.2086,-0.13053 2.42357,-0.17461 3.6382,-0.19681 1.06879,-0.0438 2.14426,0.0553 3.20814,-0.0643 1.19056,-0.16785 2.38495,-0.30223 3.58421,-0.38804 0.86994,-0.0624 1.74255,-0.0603 2.61418,-0.0624 1.25898,-0.0326 2.52437,0.0698 3.77884,-0.054 1.45694,-0.2064 2.92159,-0.32529 4.39097,-0.38996 1.56283,-0.0563 3.12692,-0.0584 4.69056,-0.0611 1.27848,-6.2e-4 2.55695,10e-4 3.83543,0.002 1.05895,7.8e-4 2.1179,9.6e-4 3.17685,0.001 1.1398,0.15631 2.27106,0.33458 3.41997,0.41616 1.3341,0.0772 2.671,0.0846 4.00694,0.0911 1.06517,0.003 2.13034,4.3e-4 3.19551,-5.5e-4 1.43384,-0.0742 2.85122,0.15099 4.2713,0.30893 1.20601,0.12036 2.41775,0.16344 3.62893,0.18807 1.23733,0.0146 2.47479,0.0101 3.71218,0.009 1.40497,-0.001 2.80995,-0.002 4.21492,-0.002 1.02804,-0.0232 2.02513,0.26108 3.04263,0.37187 1.35283,0.11745 2.71256,0.12148 4.06952,0.13206 1.18665,0.0958 2.35509,0.32363 3.54184,0.41994 1.47492,0.0969 2.93668,0.32815 4.40969,0.45821 1.29098,0.0857 2.57635,0.10416 3.85837,0.28763 1.04853,0.19139 2.11671,0.22406 3.16685,0.39447 1.40947,0.23628 2.82346,0.4552 4.24047,0.64557 1.57258,0.14082 3.1349,0.31162 4.69609,0.54791 1.32974,0.21011 2.67726,0.24027 4.02037,0.26544 1.54363,0.0205 3.08745,0.0172 4.63117,0.0159 1.40174,-0.002 2.80348,-0.003 4.20522,-0.003 1.32883,-4.1e-4 2.65767,-4.4e-4 3.9865,-4.6e-4 1.29678,0 2.59357,2e-5 3.89035,2e-5 1.40426,1e-5 2.80852,1e-5 4.21277,1e-5 1.07332,0.0763 2.12027,-0.0795 3.17948,-0.21997 1.14399,-0.14646 2.29439,-0.22909 3.44665,-0.26785 1.34624,-0.0274 2.6929,-0.0211 4.03934,-0.0205 1.27229,-0.10623 2.53439,-0.29895 3.8067,-0.40714 1.39275,-0.0931 2.78951,-0.0913 4.18468,-0.0967 1.32044,-0.003 2.64089,-7.6e-4 3.96134,5.2e-4 1.19698,0.001 2.39397,0.001 3.59095,0.001 1.386,1.2e-4 2.77201,1e-4 4.15801,9e-5 1.29127,-1e-5 2.58255,-1e-5 3.87382,-2e-5 1.30295,0 2.6059,0 3.90885,0 1.3513,0.0126 2.70124,-0.0841 4.03573,0.16152 0.95821,0.2107 1.93345,0.31459 2.90222,0.46697 1.30478,0.20049 2.62325,0.29594 3.94124,0.35354 0.87624,0.0358 1.75338,0.0327 2.63016,0.0324 1.24972,-0.002 2.49944,-0.003 3.74916,-0.004 1.04277,-0.0647 2.0579,0.18428 3.07125,0.38462 0.81015,0.12332 1.634,0.11107 2.45131,0.11886 1.10405,0.006 2.20812,0.005 3.31218,0.003 0.6253,-10e-4 1.2506,-0.002 1.8759,-0.002 0.80184,-2.1e-4 1.60367,-1.8e-4 2.40551,-1.8e-4 0.70816,-0.052 1.36371,0.24416 2.04138,0.39043 0.8791,0.0992 1.74198,0.2989 2.61716,0.42912 0.8268,0.11646 1.66013,0.16145 2.49388,0.18651 0.52546,-0.053 0.92773,0.26256 1.35836,0.49658 0.0831,-0.0487 0.60057,0.006 0.82206,0.0123 0.25741,0.006 0.5149,0.004 0.77234,0.002 0.0679,-3.4e-4 0.13582,-0.001 0.20373,-0.002 -0.004,-3e-5 -0.008,1.8e-4 -0.0115,2.7e-4 1.42784,-0.0459 1.4927,1.97341 0.0649,2.01927 l 0,0 c -0.008,1.7e-4 -0.0151,4.5e-4 -0.0226,5.3e-4 -0.0741,9.1e-4 -0.14815,0.002 -0.22223,0.002 -0.27974,0.002 -0.55952,0.004 -0.83922,-0.003 -0.58623,-0.0161 -1.18941,-0.0184 -1.73566,-0.25875 -1.06102,-0.58142 0.20728,-0.0982 -0.45111,-0.25035 -0.91332,-0.0277 -1.82613,-0.0791 -2.73166,-0.20781 -0.92308,-0.13868 -1.83332,-0.34306 -2.75957,-0.45567 -0.53212,-0.12187 -1.05101,-0.35548 -1.60017,-0.34165 -0.80155,0 -1.6031,-3e-5 -2.40466,1.7e-4 -0.6246,2.6e-4 -1.2492,9.1e-4 -1.87379,0.002 -1.11151,0.002 -2.22304,0.004 -3.33454,-0.003 -0.94273,-0.009 -1.89291,7.1e-4 -2.82543,-0.15747 -0.88343,-0.17612 -1.76674,-0.40796 -2.67659,-0.34592 -1.24991,7.1e-4 -2.49983,0.002 -3.74974,0.004 -0.90654,2.5e-4 -1.81345,0.003 -2.71942,-0.0344 -1.39339,-0.0616 -2.78716,-0.16334 -4.16651,-0.37614 -0.98964,-0.15573 -1.98586,-0.26282 -2.96489,-0.47784 -1.20491,-0.23833 -2.43811,-0.0843 -3.65908,-0.12611 -1.30295,0 -2.60589,0 -3.90884,1e-5 -1.29127,0 -2.58255,1e-5 -3.87382,1e-5 -1.3861,1e-5 -2.77219,4e-5 -4.15829,-8e-5 -1.19754,-1.6e-4 -2.39509,-4.4e-4 -3.59264,-0.001 -1.31718,-0.001 -2.63437,-0.003 -3.95155,-5.3e-4 -1.34091,0.005 -2.68331,0.003 -4.02204,0.0896 -1.32924,0.11205 -2.64669,0.32651 -3.97798,0.41435 -1.3237,-5.3e-4 -2.64761,-0.007 -3.97112,0.0194 -1.08608,0.0359 -2.17036,0.11404 -3.2487,0.25147 -1.14599,0.15172 -2.28454,0.31079 -3.44484,0.23748 -1.40426,0 -2.80852,-10e-6 -4.21278,-10e-6 -1.29677,-1e-5 -2.59354,-2e-5 -3.89031,-2e-5 -1.3286,1e-5 -2.65719,5e-5 -3.98579,4.6e-4 -1.4014,5.1e-4 -2.80281,0.001 -4.20421,0.003 -1.557,0.001 -3.1141,0.005 -4.671,-0.0162 -1.43159,-0.0271 -2.86743,-0.0635 -4.28462,-0.28783 -1.55045,-0.23467 -3.10173,-0.40114 -4.66341,-0.54324 -1.43967,-0.19432 -2.8763,-0.41691 -4.30862,-0.65594 -1.02923,-0.1855 -2.08874,-0.17848 -3.11693,-0.38664 -1.24485,-0.18038 -2.49498,-0.18169 -3.74859,-0.27488 -1.4689,-0.13028 -2.92672,-0.35945 -4.39732,-0.45716 -1.13677,-0.0947 -2.25846,-0.29078 -3.3919,-0.41319 -1.42602,-0.0112 -2.85499,-0.0164 -4.27636,-0.1443 -0.94368,-0.10622 -1.86946,-0.35835 -2.8193,-0.35956 -1.40472,4.8e-4 -2.80943,0.001 -4.21415,0.002 -1.25162,9.1e-4 -2.50333,0.006 -3.7549,-0.01 -1.27203,-0.0261 -2.54463,-0.0722 -3.81112,-0.20004 -1.34563,-0.14981 -2.6872,-0.3705 -4.046,-0.29654 -1.06906,9.8e-4 -2.13812,0.004 -3.20717,5.3e-4 -1.38091,-0.007 -2.76281,-0.0149 -4.14175,-0.0962 -1.09982,-0.0797 -2.19,-0.21678 -3.27558,-0.41099 -1.0594,-1.1e-4 -2.11879,-3e-4 -3.17818,-0.001 -1.27679,-9.8e-4 -2.55358,-0.003 -3.83037,-0.002 -1.53535,0.003 -3.07115,0.005 -4.60573,0.0592 -1.43779,0.0626 -2.8702,0.1828 -4.29588,0.38355 -1.3162,0.11252 -2.63732,0.0466 -3.95742,0.0624 -0.82535,0.002 -1.65169,-0.001 -2.47548,0.0573 -1.17911,0.0836 -2.35279,0.21974 -3.52348,0.38279 -1.12268,0.10556 -2.24896,0.0509 -3.37569,0.0744 -1.1539,0.0209 -2.30818,0.0616 -3.45639,0.18529 -1.22189,0.13281 -2.43993,0.34497 -3.67219,0.32687 -0.9818,0.0386 -1.95916,0.1385 -2.933804,0.26173 -1.4806,0.18924 -2.959543,0.34106 -4.450068,0.42426 -1.22688,0.14237 -2.448351,0.37769 -3.689041,0.31098 -1.16134,-1e-5 -2.322681,-3e-5 -3.484021,3e-5 -1.128902,8e-5 -2.257804,5e-5 -3.386706,0.001 -0.777873,8.6e-4 -1.555745,0.003 -2.333619,0.002 -1.001198,-0.003 -2.002935,-0.008 -3.002945,-0.0622 -1.219318,-0.0779 -2.434472,-0.2084 -3.641541,-0.39955 -1.409134,-0.23486 -1.076998,-2.22767 0.332136,-1.99282 z"
       inkscape:connector-curvature="0" />
    <path
       style="fill:#000000;fill-opacity:1;fill-rule:nonzero;stroke:none"
       id="path5439"
       d="m 299.32188,158.70238 c 0.89993,0.50333 1.77419,1.05554 2.653,1.59672 0.61846,0.4575 1.28702,0.82166 1.95939,1.19178 0.75348,0.42648 1.44388,0.94702 2.14982,1.44427 0.53984,0.35237 1.14781,0.57376 1.70312,0.90329 0.5028,0.3328 1.07401,0.51674 1.60536,0.79566 0.45211,0.23824 0.8481,0.5673 1.22909,0.90456 -0.0706,-0.0446 0.25506,0.21268 0.18243,0.17154 -0.13548,-0.0767 -0.26043,-0.17068 -0.39064,-0.25602 0.13776,0.001 0.27556,-0.002 0.41332,-0.003 0.0924,-9.4e-4 0.18489,-0.002 0.27733,-0.003 0.65899,0.59331 0.3768,2.02008 -0.42996,2.02013 -0.38779,-0.0378 -0.72022,0.0149 -1.08295,0.11072 -0.96198,0.391 -1.95199,0.70989 -2.9237,1.07573 -0.80627,0.34993 -1.63853,0.62271 -2.50609,0.7639 -0.3535,0.0461 -0.70955,0.0784 -1.06627,0.0783 -0.83676,0.10882 0.94199,-1.549 0.95645,-0.72487 10e-4,0.0611 0.002,0.12208 0.004,0.18312 -0.94897,1.06194 -0.76512,1.04489 -1.62299,1.0407 -0.1299,-6.5e-4 -0.25979,-0.001 -0.38969,-0.002 -0.142,-1.4e-4 -0.28399,-1.3e-4 -0.42599,-1.2e-4 -0.57556,0.002 -0.12257,-0.0404 -1.09875,-1.10906 0.0223,-0.47629 -0.17454,-0.8837 -0.28212,-1.3906 -0.15197,-0.73074 -0.18888,-1.4778 -0.21336,-2.22168 -0.0133,-0.55741 -0.0111,-1.11502 -0.01,-1.67254 0.001,-0.4314 0.002,-0.8628 0.002,-1.2942 3.2e-4,-0.29911 2.9e-4,-0.59822 3e-4,-0.89733 0,-0.30153 -10e-6,-0.60306 -2e-5,-0.90458 0,-0.17339 0,-0.34677 0,-0.52016 -10e-6,-1.42857 2.02029,-1.42859 2.0203,-2e-5 l 0,0 c 0,0.17338 0,0.34676 1e-5,0.52014 0,0.30155 10e-6,0.60311 2e-5,0.90466 -10e-6,0.29986 1e-5,0.59972 -3e-4,0.89958 -4.9e-4,0.43213 -10e-4,0.86425 -0.002,1.29638 -10e-4,0.53407 -0.003,1.06823 0.009,1.6022 0.0203,0.62761 0.0458,1.25869 0.172,1.87566 0.11863,0.58494 0.36277,1.15249 0.32408,1.75868 -1.10907,-0.95452 -1.4381,-0.86529 -0.92124,-0.86744 0.14625,0 0.29251,-4e-5 0.43876,1.7e-4 0.12899,7.8e-4 0.25797,0.001 0.38696,0.002 0.82939,0.004 0.71413,-0.10331 -0.40648,1.03332 -0.002,-0.0671 -0.003,-0.1343 -0.004,-0.20146 -0.0111,-0.6329 1.65204,-1.31259 1.07147,-1.33082 0.2496,-0.002 0.49866,-0.023 0.74627,-0.0541 0.73439,-0.10742 1.4274,-0.37475 2.1096,-0.65982 1.03709,-0.38663 2.08617,-0.74009 3.1193,-1.13784 0.52862,-0.138 1.0495,-0.21395 1.59578,-0.17694 0.81218,-5e-5 1.03059,1.318 0.44915,2.02039 -0.0919,8.8e-4 -0.18389,0.002 -0.27583,0.003 -0.18438,0.002 -0.36891,0.007 -0.55322,-3.7e-4 -0.37314,-0.0256 -0.75054,-0.13744 -1.01321,-0.42101 -0.25954,-0.23092 -0.52506,-0.46447 -0.8322,-0.62958 -0.569,-0.30336 -1.19232,-0.49224 -1.72609,-0.86489 -0.56378,-0.38591 -1.27142,-0.52968 -1.80574,-0.97132 -0.64318,-0.45708 -1.27514,-0.92995 -1.96026,-1.32528 -0.69835,-0.38763 -1.39869,-0.76685 -2.04345,-1.24094 -0.86975,-0.53918 -1.73756,-1.08551 -2.63072,-1.58316 -1.22499,-0.735 -0.18555,-2.46739 1.03944,-1.7324 z"
       inkscape:connector-curvature="0" />
    <path
       style="fill:#000000;fill-opacity:1;fill-rule:nonzero;stroke:none"
       id="path5491"
       d="m 67.580581,79.352997 c 0.23919,0.0113 0.47445,4.4e-4 0.70422,-0.0696 0.30322,-0.10711 0.50379,-0.37982 0.68794,-0.62976 0.25552,-0.42201 0.3883,-0.90206 0.48291,-1.38218 0.096,-0.65042 0.12491,-1.31077 0.10449,-1.96745 -0.007,-0.60962 -0.1194,-1.20388 -0.26889,-1.79176 -0.16253,-0.54161 -0.3434,-1.07694 -0.50196,-1.61992 -0.11208,-0.39953 -0.18613,-0.80689 -0.21716,-1.22036 -0.0309,-0.30649 -0.006,-0.60442 0.077,-0.90024 0.14213,-0.38868 0.45883,-0.59536 0.81325,-0.76961 0.41491,-0.18573 0.8508,-0.28814 1.29905,-0.35012 0.49269,-0.0697 0.97554,-0.0587 1.45667,0.0667 0.45725,0.10883 0.87387,0.32157 1.28836,0.53543 0.31264,0.15996 0.55301,0.38307 0.75303,0.66654 0.16017,0.22835 0.20495,0.49736 0.23009,0.76846 0.0364,0.28604 -0.005,0.48037 -0.1903,0.71206 -0.24506,0.26598 -0.54188,0.46576 -0.85716,0.63795 -0.44268,0.21702 -0.91313,0.34384 -1.39806,0.41885 -0.31002,0.0418 -0.62287,0.0556 -0.93539,0.0597 -0.20414,0.006 -0.1499,-0.0272 -0.43406,-0.19723 -0.27927,-0.45716 0.36725,-0.85211 0.64652,-0.39495 l 0,0 c -0.41849,-0.22355 -0.39961,-0.16004 -0.22207,-0.16538 0.27747,-0.003 0.55525,-0.015 0.83063,-0.0511 0.39908,-0.06 0.78512,-0.16195 1.1514,-0.33597 0.2373,-0.12741 0.46034,-0.27341 0.64733,-0.46998 0.0184,-0.008 0.0126,0.079 0.0149,0.0589 0.008,-0.0672 -0.01,-0.13749 -0.008,-0.20466 -0.012,-0.13734 -0.0178,-0.28099 -0.0948,-0.40016 -0.13239,-0.18796 -0.26638,-0.32278 -0.48121,-0.42979 -0.36688,-0.1893 -0.73338,-0.38245 -1.13889,-0.47739 -0.38036,-0.10868 -0.76539,-0.0971 -1.15617,-0.0473 -0.36915,0.0498 -0.72703,0.13044 -1.06994,0.28063 -0.15859,0.0763 -0.32842,0.14281 -0.41855,0.30373 -0.068,0.20525 -0.0641,0.4154 -0.0478,0.6294 0.0259,0.36053 0.0923,0.71518 0.18886,1.06368 0.16088,0.55154 0.34621,1.09471 0.50895,1.64552 0.16307,0.64166 0.28301,1.29121 0.29192,1.95614 0.0199,0.714 -0.009,1.43188 -0.11891,2.13846 -0.11958,0.58937 -0.28774,1.17646 -0.61816,1.68598 -0.28908,0.38489 -0.6132,0.75971 -1.08968,0.90634 -0.33891,0.0914 -0.68415,0.12345 -1.03465,0.0878 -0.52843,-0.0881 -0.40387,-0.83538 0.12455,-0.74731 z"
       inkscape:connector-curvature="0" />
    <path
       style="fill:#000000;fill-opacity:1;fill-rule:nonzero;stroke:none"
       id="path5493"
       d="m 72.867201,75.825557 c 0.0444,0.40929 0.10103,0.81649 0.15592,1.22449 0.0349,0.33165 0.10911,0.65756 0.16873,0.98541 0.0249,0.12675 0.0399,0.25531 0.0449,0.38434 0.001,0.0514 9.5e-4,0.10284 -1.4e-4,0.15425 -1.3e-4,0.0116 -10e-4,0.0232 -0.002,0.0348 -0.0459,0.53375 -0.80071,0.46886 -0.75483,-0.0649 l 0,0 c -2.3e-4,0.004 -9.2e-4,0.0142 -7.3e-4,0.0106 8.2e-4,-0.0367 9.9e-4,-0.0733 2.9e-4,-0.11003 -0.002,-0.0919 -0.0164,-0.18337 -0.0331,-0.27355 -0.0617,-0.33934 -0.13791,-0.67677 -0.1742,-1.02004 -0.0537,-0.4001 -0.11037,-0.79934 -0.15236,-1.20085 -0.0881,-0.52843 0.65923,-0.65298 0.7473,-0.12455 z"
       inkscape:connector-curvature="0" />
    <path
       style="fill:#000000;fill-opacity:1;fill-rule:nonzero;stroke:none"
       id="path5495"
       d="m 71.853991,74.669457 c 0.39141,-0.21128 0.82872,-0.28816 1.26484,-0.34208 0.39758,-0.0466 0.75372,-0.0741 1.13282,0.0726 0.2217,0.0937 0.40454,0.24726 0.55899,0.42858 0.13195,0.17025 0.17507,0.37445 0.19148,0.5838 -0.0138,0.31599 -0.22858,0.54025 -0.45417,0.73636 -0.21495,0.19605 -0.49101,0.28077 -0.75535,0.38521 -0.086,0.0344 -0.17187,0.0693 -0.25715,0.10555 -0.49309,0.20942 -0.78925,-0.48791 -0.29616,-0.69733 l 0,0 c 0.0912,-0.0387 0.183,-0.0761 0.27502,-0.11287 0.1888,-0.0745 0.39138,-0.12459 0.54715,-0.26134 0.0582,-0.0444 0.17484,-0.18169 0.18045,-0.17969 0.0243,0.009 -0.0361,0.0742 0.004,0.0774 -0.003,-0.0559 -0.001,-0.11887 -0.0294,-0.16632 -0.039,-0.0895 -0.16969,-0.14813 -0.24827,-0.19651 -0.24394,-0.10622 -0.49854,-0.0375 -0.75838,-0.0234 -0.33099,0.0395 -0.66447,0.0902 -0.96659,0.23967 -0.45937,0.27562 -0.84916,-0.37403 -0.38979,-0.64965 z"
       inkscape:connector-curvature="0" />
    <path
       style="fill:#000000;fill-opacity:1;fill-rule:nonzero;stroke:none"
       id="path5497"
       d="m 76.007081,77.051227 c -0.2849,0.17997 -0.55819,0.36884 -0.77553,0.62829 -0.10806,0.19791 -0.23041,0.44315 -0.2056,0.67638 0.0181,0.008 0.0254,0.0171 0.0183,-0.0235 -0.003,-0.0166 -0.0232,-0.0319 -0.0172,-0.0477 0.007,-0.0184 0.17655,0.0174 0.27259,0.0265 0.21222,0.0133 0.45651,0.0242 0.62312,-0.12823 0.14961,-0.15595 0.17479,-0.37285 0.20152,-0.57825 0.0401,-0.0114 -0.003,-0.33998 -0.002,-0.20525 0.009,0.0117 0.0174,0.0233 0.026,0.035 -10e-4,0.001 -0.002,0.002 -0.003,0.003 -0.48475,-0.22804 -0.16226,-0.91359 0.3225,-0.68555 l 0,0 c 0.15137,0.0781 0.0718,0.0286 0.23284,0.15765 0.18712,0.24057 0.2251,0.50078 0.17427,0.79805 -0.0592,0.41683 -0.17106,0.81306 -0.51109,1.09137 -0.38131,0.25213 -0.68875,0.30523 -1.14335,0.26567 -0.47902,-0.0536 -0.87809,-0.1555 -0.95213,-0.70701 0.0122,-0.42292 0.13901,-0.82697 0.38897,-1.17243 0.27634,-0.31541 0.60193,-0.56594 0.95998,-0.78375 0.45938,-0.27562 0.84917,0.37403 0.38979,0.64965 z"
       inkscape:connector-curvature="0" />
    <path
       style="fill:#000000;fill-opacity:1;fill-rule:nonzero;stroke:none"
       id="path5499"
       d="m 77.417621,77.142677 c 0.18435,0.53517 0.36768,1.07041 0.57185,1.59846 0.19516,0.51278 0.4515,0.99834 0.67251,1.49978 0.0815,0.19355 0.16248,0.38766 0.23079,0.58635 0.10829,0.22303 -0.67397,0.34718 -0.73602,0.10714 -0.0291,-0.15635 -0.0112,-0.0811 -0.0525,-0.22596 -0.14667,-0.39705 -0.29678,-0.79299 -0.44252,-1.19049 -0.20678,-0.47639 -0.35397,-0.96621 -0.4384,-1.47807 -0.1015,-0.55663 0.007,-1.08556 0.23349,-1.59426 0.16759,-0.32802 0.39965,-0.6172 0.71769,-0.80619 0.30258,-0.151 0.60519,-0.0892 0.91272,0.009 0.31245,0.11378 0.60612,0.26868 0.88266,0.45223 0.26993,0.1941 0.42915,0.39139 0.41615,0.73718 -0.0742,0.29797 -0.32149,0.47572 -0.54215,0.66637 -0.20954,0.1859 -0.46244,0.31519 -0.71578,0.43081 -0.19622,0.0807 -0.40447,0.11809 -0.61492,0.13363 -0.063,0.004 -0.12609,0.004 -0.18917,0.004 -0.53569,-0.005 -0.52926,-0.76213 0.006,-0.75758 l 0,0 c 0.0437,4.5e-4 0.0874,-1.2e-4 0.1311,-0.002 0.1214,-0.007 0.24165,-0.0274 0.35635,-0.069 0.18869,-0.0824 0.37743,-0.1787 0.53294,-0.31484 0.0846,-0.0717 0.16116,-0.15281 0.24999,-0.2194 0.0126,-0.009 0.0372,-0.0403 0.04,-0.0248 0.004,0.0196 -0.004,0.0397 -0.007,0.0596 0.0377,0.24466 0.11078,0.119 -0.0886,-0.0159 -0.21356,-0.14862 -0.44814,-0.26277 -0.68966,-0.35846 -0.10336,-0.0334 -0.19772,-0.08 -0.30711,-0.0715 -0.18503,0.0907 -0.30064,0.29119 -0.40229,0.46091 -0.17296,0.36949 -0.25131,0.75163 -0.17546,1.15936 0.0743,0.46518 0.21492,0.90629 0.40195,1.33891 0.15301,0.41775 0.31319,0.83295 0.46215,1.25203 0.15348,0.58033 0.20303,0.4481 -0.65918,0.56346 -0.0609,-0.17866 -0.13509,-0.35254 -0.2075,-0.52671 -0.225,-0.51228 -0.48824,-1.00749 -0.68576,-1.53185 -0.20064,-0.51957 -0.38436,-1.04508 -0.56151,-1.57308 -0.21102,-0.4924 0.48533,-0.79084 0.69636,-0.29844 z"
       inkscape:connector-curvature="0" />
    <path
       style="fill:#000000;fill-opacity:1;fill-rule:nonzero;stroke:none"
       id="path5501"
       d="m 80.949241,75.894307 c 0.0758,0.27522 0.17696,0.54031 0.31518,0.79 0.11501,0.19037 0.0516,0.0455 -0.0499,0.005 0.12382,-0.003 0.24815,-0.004 0.37214,-0.005 0.24157,-0.0391 0.463,-0.16204 0.65527,-0.30886 0.14091,-0.12044 0.27423,-0.25048 0.39326,-0.39273 -0.0123,-0.0614 0.63426,-0.0978 0.72262,0.18565 0.0829,0.11615 0.17405,0.29185 0.26504,0.4279 0.12228,0.14991 0.24023,0.32843 0.42319,0.40782 0.47477,0.24818 0.1238,0.91959 -0.35097,0.67142 l 0,0 c -0.28834,-0.15994 -0.51549,-0.39055 -0.70389,-0.66094 -0.13119,-0.19957 -0.2534,-0.40626 -0.35692,-0.62158 -0.11799,-0.38139 0.91798,-0.20114 0.58045,0.0777 -0.15849,0.18743 -0.33398,0.36045 -0.52441,0.51543 -0.32584,0.23358 -0.68768,0.42606 -1.09505,0.45572 -0.16773,0.002 -0.33613,0.0102 -0.50345,-0.005 -0.22456,-0.0538 -0.38966,-0.17498 -0.49129,-0.38805 -0.15876,-0.29028 -0.28202,-0.59614 -0.37003,-0.91542 -0.1694,-0.50822 0.54933,-0.7478 0.71874,-0.23958 z"
       inkscape:connector-curvature="0" />
    <path
       style="fill:#000000;fill-opacity:1;fill-rule:nonzero;stroke:none"
       id="path5503"
       d="m 83.601421,73.071447 c 0.0338,0.42031 0.11138,0.83317 0.20359,1.24394 0.079,0.39632 0.28932,0.73839 0.47524,1.08984 0.19235,0.33714 0.3571,0.68861 0.53384,1.03385 0.0692,0.12084 0.15341,0.2108 0.291,0.23175 0.15146,0.0201 0.29877,0.0311 0.44057,-0.031 0.50977,-0.16471 0.74269,0.55621 0.23292,0.72092 l 0,0 c -0.28502,0.0812 -0.5604,0.1105 -0.85335,0.046 -0.35062,-0.0954 -0.61036,-0.29966 -0.78576,-0.62294 -0.17481,-0.34257 -0.33882,-0.69071 -0.52932,-1.02515 -0.2162,-0.41121 -0.45392,-0.81426 -0.54438,-1.27745 -0.0965,-0.43012 -0.17838,-0.86266 -0.21435,-1.30266 -0.0758,-0.53033 0.67424,-0.63747 0.75,-0.10714 z"
       inkscape:connector-curvature="0" />
    <path
       style="fill:#000000;fill-opacity:1;fill-rule:nonzero;stroke:none"
       id="path5505"
       d="m 87.666381,75.165867 c -0.33926,0.0315 -0.6278,0.24404 -0.88081,0.45667 -0.24213,0.22462 -0.41731,0.50036 -0.51216,0.81572 -0.0405,0.16533 0.007,0.0588 -0.015,-0.0124 -0.0209,-0.0679 -0.11534,-0.12937 -0.054,-0.12938 0.26339,0.0263 0.37978,0.0288 0.61064,-0.0943 0.30492,-0.18843 0.54925,-0.45058 0.80612,-0.69625 0.0859,-0.0809 0.17091,-0.16267 0.25862,-0.24155 0.095,-0.0938 0.23285,-0.10842 0.35726,-0.1015 0.27078,0.0632 0.41523,0.26625 0.576,0.47504 0.12374,0.14282 0.21397,0.30789 0.35413,0.43576 0.0206,0.0206 0.10635,0.0768 -0.0188,-0.008 0.49783,0.19786 0.21802,0.90191 -0.27982,0.70404 l 0,0 c -0.0838,-0.044 -0.15263,-0.076 -0.21811,-0.14226 -0.16871,-0.15922 -0.29575,-0.34771 -0.4387,-0.52892 -0.0663,-0.0868 -0.0794,-0.11886 -0.15294,-0.18935 -0.0229,-0.022 -0.0769,-0.0368 -0.0677,-0.0672 0.0211,-0.0692 0.18048,0.2551 0.20304,0.077 -0.12949,-0.008 0.18168,-0.0684 0.19184,-0.0913 -0.0816,0.0739 -0.16138,0.14975 -0.24127,0.22547 -0.31212,0.29845 -0.6129,0.61378 -0.99356,0.82766 -0.38319,0.18206 -0.67749,0.22026 -1.09316,0.15872 -0.4602,-0.10766 -0.63997,-0.36485 -0.50671,-0.83098 0.14825,-0.45219 0.39392,-0.853 0.75281,-1.17136 0.39593,-0.32088 0.83649,-0.6076 1.36221,-0.62928 0.53571,0 0.53571,0.75762 0,0.75762 z"
       inkscape:connector-curvature="0" />
    <path
       style="fill:#000000;fill-opacity:1;fill-rule:nonzero;stroke:none"
       id="path5507"
       d="m 89.283531,72.440097 c 0.0843,0.48898 0.20781,0.96714 0.38028,1.43222 0.21856,0.51832 0.41164,1.04638 0.63538,1.56243 0.0842,0.19018 0.17477,0.37684 0.222,0.58021 0.0744,0.41582 -0.0651,0.19598 -0.74231,0.1431 -0.0705,-0.17987 -0.15002,-0.35591 -0.22499,-0.53411 -0.0679,-0.14607 -0.11693,-0.29849 -0.14578,-0.45679 0.0139,-0.0839 0.01,-0.17285 0.0417,-0.25181 0.0657,-0.16366 0.2986,-0.27225 0.44529,-0.35614 0.12817,-0.0925 0.2686,-0.16355 0.41453,-0.22325 0.12874,-0.0472 0.26525,-0.0538 0.40081,-0.0558 0.0324,-7.3e-4 0.0651,7.2e-4 0.0973,10e-4 0.0773,0.0273 0.15862,0.0453 0.23198,0.082 0.18102,0.0905 0.28528,0.38121 0.36571,0.54749 0.11955,0.25671 0.19389,0.53209 0.30832,0.79069 0.0231,0.0153 0.053,0.17355 0.083,0.13139 -0.0426,-0.0274 -0.0929,-0.0285 -0.14195,-0.0308 0.53533,-0.0203 0.56405,0.73677 0.0287,0.75707 l 0,0 c -0.0943,-0.003 -0.18239,-0.0211 -0.2649,-0.0698 -0.189,-0.11538 -0.32005,-0.28064 -0.4004,-0.48757 -0.10641,-0.25048 -0.18763,-0.51094 -0.29479,-0.76111 -0.0293,-0.0606 -0.0514,-0.12467 -0.0841,-0.18351 -0.073,-0.13166 -0.0568,-0.0701 0.15845,-0.0183 -0.0272,-6.5e-4 -0.047,-0.001 -0.0768,-0.001 -0.0367,4.4e-4 -0.10747,0.007 -0.1264,2.8e-4 -0.1162,0.0466 -0.22265,0.10672 -0.32474,0.17971 -0.0683,0.0386 -0.13321,0.0888 -0.20149,0.12582 -0.008,0.004 0.0118,-0.0141 0.0167,-0.0218 0.0844,-0.13326 0.0492,-0.0706 0.069,-0.28674 0.0172,0.10358 0.0539,0.20005 0.0981,0.29528 0.10678,0.25393 0.23815,0.50374 0.28261,0.77797 -0.252,0.009 -0.81102,-0.15806 -0.75148,0.087 0.001,0.005 -0.003,-0.0641 -0.002,-0.0148 -0.0317,-0.15738 -0.12367,-0.29454 -0.17777,-0.44428 -0.22943,-0.5292 -0.428,-1.07049 -0.65135,-1.60234 -0.18829,-0.51584 -0.3287,-1.04445 -0.41921,-1.58652 -0.0758,-0.53033 0.67424,-0.63748 0.75,-0.10715 z"
       inkscape:connector-curvature="0" />
    <path
       style="fill:#000000;fill-opacity:1;fill-rule:nonzero;stroke:none"
       id="path5509"
       d="m 90.544871,71.658677 c 0.0864,0.23849 0.10922,0.50022 0.2,0.73621 0.0498,0.10726 0.0922,0.21786 0.13292,0.32885 0.009,0.0248 0.0176,0.0498 0.0248,0.0753 0.137,0.5179 -0.59542,0.71165 -0.73242,0.19375 l 0,0 c 0.01,0.0335 9.5e-4,0.002 -0.004,-0.009 -0.0423,-0.11573 -0.0889,-0.22984 -0.1379,-0.34288 -0.0918,-0.28128 -0.14875,-0.57373 -0.2309,-0.8581 -0.0881,-0.52842 0.65924,-0.65298 0.74731,-0.12455 z"
       inkscape:connector-curvature="0" />
    <path
       style="fill:#000000;fill-opacity:1;fill-rule:nonzero;stroke:none"
       id="path5511"
       d="m 93.979831,74.660787 c -0.25975,0.0126 -0.44611,0.13182 -0.61483,0.31931 -0.10456,0.15062 -0.17983,0.33961 -0.15888,0.52565 0.0194,0.1318 0.0803,0.26567 0.17132,0.36439 0.0865,0.14426 0.1654,0.13573 0.32135,0.15577 0.29368,0.0342 0.58388,-0.0344 0.86284,-0.12054 0.26147,-0.1347 0.47626,-0.34775 0.61833,-0.60415 0.17083,-0.27924 0.2247,-0.59748 0.25991,-0.91716 0.002,-0.24506 -0.0658,-0.22365 -0.27878,-0.24947 -0.18291,-0.006 -0.36166,0.017 -0.54077,0.0502 -0.52797,0.0908 -0.65636,-0.65587 -0.12839,-0.74665 l 0,0 c 0.27665,-0.0451 0.55112,-0.081 0.83218,-0.0434 0.0956,0.0249 0.19532,0.0375 0.28691,0.0745 0.42699,0.17284 0.6103,0.5588 0.58168,0.99976 -0.0491,0.42667 -0.1347,0.84832 -0.36207,1.22029 -0.25524,0.41162 -0.59297,0.75794 -1.05041,0.94145 -0.38751,0.1147 -0.7873,0.19963 -1.19335,0.14446 -0.32149,-0.0518 -0.62054,-0.148 -0.80536,-0.43728 -0.18028,-0.24154 -0.31687,-0.51067 -0.33287,-0.81777 0.004,-0.39264 0.1098,-0.75865 0.36871,-1.06357 0.32158,-0.32574 0.69327,-0.5417 1.16248,-0.55343 0.53572,0 0.53572,0.75762 0,0.75762 z"
       inkscape:connector-curvature="0" />
    <path
       style="fill:#000000;fill-opacity:1;fill-rule:nonzero;stroke:none"
       id="path5513"
       d="m 96.480341,74.000277 c 0.0998,0.34894 0.22228,0.69031 0.34113,1.03301 0.0803,0.18243 0.1616,0.36405 0.23056,0.55118 0.13157,0.35227 -0.1469,-0.26835 -0.49389,-0.12824 0.17841,-0.23103 0.3537,-0.46252 0.54743,-0.68176 0.40467,-0.44092 0.9346,-0.72046 1.46901,-0.97141 0.42363,-0.17866 0.86084,-0.28387 1.3182,-0.21948 0.402179,0.10102 0.684969,0.36106 0.878039,0.71725 0.11462,0.26161 0.12029,0.5468 0.12392,0.82733 1.4e-4,0.0996 9e-5,0.19925 -0.005,0.29875 -2.9e-4,0.005 -5.8e-4,0.009 -8.7e-4,0.0142 -0.0344,0.53462 -0.79041,0.48602 -0.75605,-0.0486 l 0,0 c 7e-5,-8.4e-4 1.4e-4,-0.002 2.1e-4,-0.003 0.004,-0.0841 0.004,-0.16828 0.004,-0.25243 -0.002,-0.1644 4.2e-4,-0.33225 -0.0413,-0.49247 -0.0628,-0.15074 -0.178009,-0.25677 -0.330959,-0.31473 -0.29063,-0.0743 -0.59762,0.0706 -0.86933,0.15894 -0.44121,0.20557 -0.88502,0.42835 -1.2231,0.78771 -0.2221,0.24969 -0.40386,0.53063 -0.63816,0.76845 -0.0535,0.0329 -0.0991,0.11199 -0.1605,0.0987 -0.5029,-0.10852 -0.4573,-0.0821 -0.53291,-0.29823 -0.0703,-0.1917 -0.15786,-0.37564 -0.23529,-0.56442 -0.11984,-0.34557 -0.24347,-0.68983 -0.34408,-1.04167 -0.16941,-0.50823 0.54933,-0.7478 0.71874,-0.23958 z"
       inkscape:connector-curvature="0" />
    <path
       style="fill:#000000;fill-opacity:1;fill-rule:nonzero;stroke:none"
       id="path5523"
       d="m 322.80981,164.40266 c -0.36223,0.34891 -0.68902,0.7317 -1.02758,1.10307 -0.34327,0.36491 -0.66296,0.75105 -0.97219,1.14492 -0.26934,0.3466 -0.55209,0.68119 -0.81089,1.03593 -0.19492,0.27 -0.41336,0.52108 -0.6106,0.78915 -0.12681,0.20743 -0.24599,0.41731 -0.39381,0.6109 -0.19022,0.28751 0.0645,-0.16387 -0.13902,0.2038 -0.0229,0.0361 -0.0443,0.0732 -0.0647,0.11078 -0.002,0.005 0.005,-0.0105 0.007,-0.0157 -0.20947,0.49307 -0.90677,0.19683 -0.6973,-0.29623 l 0,0 c 0.007,-0.0153 0.0139,-0.0305 0.0219,-0.0452 0.0327,-0.061 0.0679,-0.12073 0.10572,-0.17878 0.0149,-0.0212 0.0236,-0.0785 0.0447,-0.0636 0.0214,0.0152 -0.0319,0.097 -0.0345,0.0708 -0.009,-0.0878 0.10949,-0.17804 0.15476,-0.24707 0.14583,-0.18879 0.25228,-0.4007 0.38468,-0.59876 0.19672,-0.26725 0.41335,-0.51838 0.6088,-0.7867 0.26417,-0.36189 0.55196,-0.70375 0.827,-1.0572 0.32074,-0.40846 0.65248,-0.80878 1.00821,-1.18748 0.34644,-0.37994 0.68112,-0.77132 1.05173,-1.12835 0.3788,-0.3788 0.91452,0.15691 0.53571,0.53572 z"
       inkscape:connector-curvature="0" />
    <path
       style="fill:#000000;fill-opacity:1;fill-rule:nonzero;stroke:none"
       id="path5525"
       d="m 322.37361,169.22942 c -0.16299,-0.32272 -0.36565,-0.62279 -0.56064,-0.92653 -0.27835,-0.46267 -0.60712,-0.89319 -0.94604,-1.3127 -0.37043,-0.46096 -0.74132,-0.92151 -1.1135,-1.38108 -0.24539,-0.30414 -0.51201,-0.58987 -0.78296,-0.87111 -0.16995,-0.15955 -0.32146,-0.33635 -0.4808,-0.50541 -0.0723,-0.10222 -0.1795,-0.22374 -0.24909,-0.30244 -0.0659,-0.0404 -0.1178,-0.0984 -0.18101,-0.14314 -0.0881,-0.0916 -0.10593,-0.10459 -0.16602,-0.14994 -0.0169,-0.0129 -0.0281,-0.0181 -0.002,-0.003 0.007,0.004 0.0147,0.007 0.0221,0.0111 -0.4871,-0.22298 -0.17176,-0.91185 0.31534,-0.68887 l 0,0 c 0.008,0.004 0.0163,0.008 0.0245,0.0122 0.0356,0.0201 0.0694,0.0431 0.10185,0.068 0.0504,0.039 0.29141,0.29408 0.11323,0.1126 -0.01,-0.01 0.0224,0.0154 0.0336,0.0231 0.17923,0.12997 0.0892,0.0905 0.25162,0.20068 0.10706,0.10786 0.20584,0.22461 0.29465,0.34806 0.15159,0.16796 0.30507,0.33369 0.46794,0.49174 0.28598,0.29693 0.56707,0.59887 0.82609,0.91993 0.3724,0.45992 0.74357,0.92078 1.11429,1.38203 0.35566,0.44113 0.70106,0.89344 0.99403,1.37926 0.19906,0.31012 0.40629,0.61656 0.57273,0.946 0.27562,0.45937 -0.37403,0.84916 -0.64965,0.38979 z"
       inkscape:connector-curvature="0" />
    <path
       style="fill:#008000;fill-opacity:1"
       id="path4322"
       d="m 79.158829,151.06798 c 1.113388,-0.0583 2.150617,-0.32527 3.18977,-0.71631 1.949941,-0.79039 3.642607,-2.06504 5.409916,-3.18382 1.538459,-0.8676 3.009375,-1.85461 4.590733,-2.64363 1.403661,-0.79981 2.939807,-1.256 4.508637,-1.5924 1.843978,-0.48885 3.721875,-0.84825 5.605325,-1.14683 1.8311,-0.38207 3.66326,-0.76937 5.50899,-1.07479 1.66692,-0.40071 3.34871,-0.7241 5.05147,-0.92337 1.2891,-0.13857 2.58646,-0.14931 3.88144,-0.15526 0.98526,0.0724 1.99557,-0.0968 2.9784,0.003 1.0879,0.11033 1.46555,0.25173 2.50417,0.52521 2.69513,0.57261 5.34945,1.26379 7.96872,2.11993 2.44691,0.94607 4.92792,1.80083 7.37634,2.742 1.59369,0.6064 3.0955,1.42271 4.65609,2.10224 0.7158,0.31169 1.45133,0.57597 2.17707,0.86375 2.26495,0.69669 4.41812,1.69306 6.68857,2.36952 2.09674,0.43368 4.14081,1.06509 6.20692,1.61556 1.53614,0.4221 3.13265,0.4671 4.71449,0.51184 2.02045,0.0347 4.04135,0.0251 6.062,0.0206 1.82561,-0.005 3.65123,-0.007 5.47685,-0.008 1.90249,0.0198 3.78951,-0.3028 5.67748,-0.50615 1.4732,-0.19766 3.00489,-0.11344 4.45412,-0.4628 1.81722,-0.39523 3.44139,-1.32223 5.04985,-2.2166 1.99713,-1.10224 3.97435,-2.22675 5.91067,-3.4327 1.49996,-0.85555 2.82305,-1.97378 4.16598,-3.04966 1.59519,-1.31167 3.42301,-2.28038 5.20208,-3.3104 2.35573,-1.33839 4.86923,-2.34743 7.46761,-3.09777 1.96982,-0.55317 4.01951,-0.62258 6.04378,-0.81509 1.44567,-0.15477 2.89869,-0.20847 4.35139,-0.23945 1.33623,0.12663 2.73071,0.32818 3.96498,0.89373 0.29426,0.13483 0.56986,0.30712 0.8548,0.46068 1.15129,0.88065 2.36146,1.66581 3.56693,2.46808 0.97793,0.69096 2.12093,1.04779 3.20098,1.54251 1.34668,0.56254 2.79273,0.81981 4.21825,1.09933 1.81573,0.29465 3.63671,0.57674 5.46252,0.80352 1.30676,0.14839 2.62144,0.19346 3.93536,0.21617 1.31624,0.0137 2.6326,0.008 3.94888,0.006 0.95365,-0.001 1.9073,-0.002 2.86095,-0.003 0.69141,-4.1e-4 0.42163,0.0738 0.8342,-0.0871 1.45366,-0.60153 2.78111,-1.45281 4.02055,-2.41297 1.30341,-1.21113 2.81993,-2.16843 4.058,-3.44654 1.40854,-1.4886 2.62714,-3.14196 3.86587,-4.77073 1.18248,-1.58384 2.25133,-3.23698 3.12438,-5.01062 0.79885,-1.53281 1.69787,-3.0028 2.60585,-4.47186 0.96336,-1.27684 1.86632,-2.58868 2.95971,-3.75877 1.05311,-1.30384 2.3474,-2.35807 3.58223,-3.47443 0.7673,-0.74859 1.62957,-1.36913 2.53082,-1.94099 1.2506,-0.67406 2.64721,-0.85172 4.04146,-0.94852 0.9674,-0.008 1.95494,-0.14007 2.91377,0.0583 0.82252,0.17014 1.09544,0.33883 1.83045,0.67168 1.61665,0.87679 2.75094,2.28436 3.80241,3.75044 0.59699,0.93306 1.2503,1.83302 1.77485,2.81101 0.71277,1.32893 0.13213,0.42496 0.70988,1.28395 0.99081,1.51698 1.92334,3.11018 3.09954,4.49366 0.58074,0.66655 0.3013,0.37329 0.82624,0.89113 2.13694,2.14876 -0.90186,5.17085 -3.0388,3.02209 l 0,0 c -0.74053,-0.75375 -0.37801,-0.36189 -1.08601,-1.17702 -1.26458,-1.54912 -2.34895,-3.2473 -3.41961,-4.9336 -0.79466,-1.2911 -1.4432,-2.66966 -2.35001,-3.8953 -0.62381,-0.87181 -1.24269,-1.75952 -2.14542,-2.36955 -0.19041,-0.0974 -0.36426,-0.23254 -0.56724,-0.30001 -0.65182,-0.21666 -1.3939,0.0235 -2.06242,-0.0307 -0.714,0.046 -1.4364,0.0954 -2.11491,0.3419 -0.7211,0.35616 -1.2815,0.9535 -1.88794,1.46602 -1.16172,1.03113 -2.35709,2.02309 -3.3397,3.23969 -0.91824,0.92647 -1.5805,2.05574 -2.41492,3.05422 -0.83878,1.35405 -1.66988,2.70706 -2.40989,4.11908 -1.00213,2.01257 -2.20225,3.9049 -3.55347,5.70259 -1.35008,1.77518 -2.68301,3.57334 -4.22739,5.18744 -1.39989,1.39966 -3.02143,2.53008 -4.50441,3.83989 -1.76381,1.33575 -3.64762,2.56303 -5.78319,3.211 -0.35366,0.0567 -0.70465,0.13372 -1.06097,0.17002 -1.14483,0.11663 -2.32264,-0.0896 -3.47,0.003 -1.34286,0.002 -2.68579,0.007 -4.0286,-0.007 -1.46723,-0.0259 -2.93519,-0.0797 -4.39403,-0.24885 -1.92469,-0.24356 -3.84566,-0.53252 -5.75903,-0.85134 -1.75355,-0.34822 -3.52772,-0.68378 -5.17338,-1.40767 -1.28323,-0.58813 -2.63769,-1.03079 -3.79087,-1.87131 -1.1223,-0.74744 -2.26987,-1.4577 -3.31562,-2.313 -0.76789,-0.5115 -1.7144,-0.62728 -2.60525,-0.79216 -1.34756,0.0284 -2.69551,0.0763 -4.03646,0.22116 -1.76188,0.16753 -3.54805,0.21491 -5.26794,0.66826 -2.26412,0.64411 -4.44898,1.5285 -6.502,2.68718 -1.59274,0.92193 -3.23739,1.77746 -4.66968,2.9461 -1.47492,1.18158 -2.93554,2.39875 -4.57986,3.34278 -1.99684,1.24364 -4.03595,2.40371 -6.09491,3.54116 -1.98613,1.10267 -4.00789,2.1962 -6.2539,2.66522 -1.60697,0.31133 -3.24389,0.3871 -4.87295,0.52897 -2.03939,0.21926 -4.0775,0.56037 -6.13349,0.53075 -1.82324,0.001 -3.64649,0.003 -5.46973,0.008 -2.06498,0.005 -4.13024,0.0146 -6.19499,-0.0223 -1.91462,-0.056 -3.84187,-0.1405 -5.69912,-0.65576 -2.10789,-0.5663 -4.19712,-1.19669 -6.33445,-1.65181 -2.38373,-0.72379 -4.65792,-1.73718 -7.03287,-2.48937 -0.36224,-0.14365 -2.1056,-0.83209 -2.42338,-0.97046 -1.46535,-0.63806 -2.87485,-1.40569 -4.36932,-1.97972 -2.37954,-0.91696 -4.79392,-1.74164 -7.17006,-2.6686 -0.87695,-0.28739 -1.71249,-0.57242 -2.59985,-0.82195 -1.29481,-0.3641 -2.60849,-0.62146 -3.91767,-0.92319 -0.41189,-0.0949 -0.81992,-0.20594 -1.22988,-0.30891 -0.4661,-0.12853 -0.9194,-0.32773 -1.40023,-0.37851 -0.97305,-0.10277 -1.97559,0.0715 -2.95129,-0.003 -1.13714,0.005 -2.27657,0.01 -3.40898,0.127 -1.63611,0.18596 -3.24457,0.52676 -4.84854,0.89499 -1.85581,0.30225 -3.6941,0.70745 -5.53684,1.07927 -1.81248,0.28341 -3.616406,0.63949 -5.390679,1.1074 -1.225358,0.25033 -2.411835,0.60947 -3.500096,1.24475 -1.453885,0.69782 -2.772565,1.65129 -4.189564,2.41902 -2.027089,1.28144 -3.974797,2.73018 -6.234229,3.58885 -1.511809,0.53848 -3.043835,0.92728 -4.656683,0.97517 -3.030458,0 -3.030458,-4.28571 0,-4.28571 z"
       inkscape:connector-curvature="0" />
  </g>
</svg>
