<?xml version="1.0" encoding="UTF-8" standalone="no"?>
<!-- Created with Inkscape (http://www.inkscape.org/) -->

<svg
   xmlns:dc="http://purl.org/dc/elements/1.1/"
   xmlns:cc="http://creativecommons.org/ns#"
   xmlns:rdf="http://www.w3.org/1999/02/22-rdf-syntax-ns#"
   xmlns:svg="http://www.w3.org/2000/svg"
   xmlns="http://www.w3.org/2000/svg"
   xmlns:sodipodi="http://sodipodi.sourceforge.net/DTD/sodipodi-0.dtd"
   xmlns:inkscape="http://www.inkscape.org/namespaces/inkscape"
   width="560.06177"
   height="96.366234"
   id="svg2"
   version="1.1"
   inkscape:version="0.48.5 r10040"
   sodipodi:docname="SIR_comp.svg">
  <defs
     id="defs4" />
  <sodipodi:namedview
     id="base"
     pagecolor="#ffffff"
     bordercolor="#666666"
     borderopacity="1.0"
     inkscape:pageopacity="0.0"
     inkscape:pageshadow="2"
     inkscape:zoom="1.979899"
     inkscape:cx="300.33486"
     inkscape:cy="-40.868277"
     inkscape:document-units="px"
     inkscape:current-layer="layer1"
     showgrid="false"
     inkscape:window-width="1386"
     inkscape:window-height="904"
     inkscape:window-x="87"
     inkscape:window-y="27"
     inkscape:window-maximized="0"
     fit-margin-top="0"
     fit-margin-left="0"
     fit-margin-right="0"
     fit-margin-bottom="0" />
  <metadata
     id="metadata7">
    <rdf:RDF>
      <cc:Work
         rdf:about="">
        <dc:format>image/svg+xml</dc:format>
        <dc:type
           rdf:resource="http://purl.org/dc/dcmitype/StillImage" />
        <dc:title></dc:title>
      </cc:Work>
    </rdf:RDF>
  </metadata>
  <g
     inkscape:label="Layer 1"
     inkscape:groupmode="layer"
     id="layer1"
     transform="translate(-15.112902,-69.103848)">
    <path
       style="fill:#1a1a1a"
       id="path4050"
       d="m 91.619853,107.81939 c -1.06038,-1.26197 -2.09417,-2.54704 -3.0959,-3.85614 -1.04515,-1.2991 -2.00596,-2.67482 -3.12333,-3.91335 -1.06101,-1.154704 -2.27462,-2.155239 -3.51565,-3.108882 -1.14866,-0.959153 -2.50479,-1.576467 -3.89342,-2.099105 -1.56725,-0.529683 -3.18313,-0.806753 -4.82407,-0.967879 -2.05922,-0.189023 -4.11931,-0.151326 -6.1789,-0.01663 -3.36184,0.332643 -6.54094,1.597856 -9.72008,2.665856 -3.9886,1.300374 -7.93408,2.700324 -11.80447,4.31816 -3.00448,1.30395 -5.85976,2.92068 -8.57878,4.74083 -2.44961,1.70023 -4.71385,3.64926 -6.72145,5.85273 -1.85779,2.15925 -3.65837,4.37773 -5.18269,6.78718 -1.49491,2.18764 -2.71988,4.52113 -3.67703,6.98841 -0.98149,2.46017 -1.54692,5.02547 -1.8707,7.645 -0.23938,2.39699 -0.24993,4.8081 -0.25946,7.21452 -0.0264,1.65067 -0.0438,3.31476 0.44365,4.90572 0.5041,1.35294 1.39503,2.47244 2.32045,3.5576 1.24822,1.42682 2.66187,2.6866 4.13668,3.87216 1.52464,1.25739 3.0806,2.47971 4.77698,3.49761 1.63555,0.97798 3.43216,1.62472 5.25056,2.16815 2.39212,0.7083 4.79619,1.38164 7.21447,1.99486 2.43272,0.74633 4.95374,1.03664 7.48071,1.2192 2.39059,0.14214 4.78653,0.13441 7.18032,0.13612 2.45024,0.0149 4.89518,0.0239 7.33974,-0.14978 2.11288,-0.15308 4.07347,-0.93327 6.01805,-1.70948 2.19055,-0.68721 4.25984,-1.62428 6.28969,-2.68468 1.91615,-1.15947 3.55424,-2.71545 5.10224,-4.31908 1.84955,-1.90591 3.48109,-3.99894 5.04234,-6.14207 1.33658,-1.68003 2.18576,-3.60308 2.98593,-5.5723 0.75183,-1.78183 1.23974,-3.64405 1.65798,-5.52677 0.45659,-2.00555 0.95179,-4.00195 1.41709,-6.00545 0.42067,-1.86261 0.52419,-3.77115 0.59023,-5.67294 0.006,-1.80655 0.11849,-3.62104 -0.0187,-5.42429 -0.11163,-1.14452 -0.18253,-2.32314 -0.71722,-3.36166 -0.43577,-1.17018 -1.2543,-2.00394 -2.14346,-2.84073 -0.8467,-0.77295 -1.68538,-1.55444 -2.52185,-2.33842 -2.08455,-1.95395 0.67875,-4.90195 2.7633,-2.948 l 0,0 c 0.8411,0.78849 1.68497,1.57385 2.53594,2.3517 1.24411,1.18275 2.37659,2.43956 3.02353,4.05803 0.68555,1.52322 0.99733,3.13093 1.09061,4.79842 0.12636,1.94599 0.0541,3.89803 0.026,5.8468 -0.0768,2.16216 -0.20874,4.33024 -0.69276,6.44633 -0.46374,1.99161 -0.95461,3.97672 -1.40912,5.97049 -0.47084,2.10041 -1.02186,4.17903 -1.85848,6.16833 -0.92398,2.27132 -1.93894,4.48447 -3.46331,6.42993 -1.67278,2.29535 -3.42574,4.53334 -5.40663,6.5748 -1.85474,1.90686 -3.81716,3.75017 -6.13381,5.08882 -2.15062,1.12186 -4.34387,2.12471 -6.66238,2.85576 -2.33256,0.92994 -4.69777,1.8143 -7.23018,1.98701 -2.54056,0.17885 -5.08134,0.17828 -7.62765,0.15984 -2.49079,-0.002 -4.98382,0.005 -7.4711,-0.14681 -2.76302,-0.20296 -5.5204,-0.52751 -8.18273,-1.33311 -2.47577,-0.63107 -4.93897,-1.31548 -7.38812,-2.04316 -2.13767,-0.65242 -4.25055,-1.41663 -6.17189,-2.57819 -1.84403,-1.12181 -3.5612,-2.42619 -5.21917,-3.8071 -1.6727,-1.34684 -3.27157,-2.78429 -4.68488,-4.40625 -1.29018,-1.5271 -2.48615,-3.13374 -3.1228,-5.05569 -0.5452,-1.97397 -0.67887,-3.99297 -0.60079,-6.03786 0.0103,-2.5686 0.0255,-5.14227 0.29068,-7.69999 0.37299,-2.95003 1.01185,-5.84303 2.11671,-8.61437 1.06418,-2.7053 2.38737,-5.28246 4.03111,-7.68617 1.66304,-2.60214 3.58857,-5.02189 5.61492,-7.35045 2.24089,-2.42731 4.72687,-4.60979 7.4543,-6.48081 2.93896,-1.95887 6.01813,-3.708165 9.26496,-5.108896 3.95988,-1.654443 7.99525,-3.090334 12.07585,-4.420298 3.51077,-1.179163 7.02467,-2.547411 10.74435,-2.867646 2.28092,-0.147699 4.56363,-0.183428 6.84341,0.02817 1.99312,0.202456 3.95909,0.550649 5.8574,1.211404 1.7547,0.672008 3.46408,1.473393 4.92585,2.676771 1.43615,1.111378 2.84189,2.273711 4.06538,3.621179 1.17088,1.32746 2.2214,2.757276 3.31648,4.147386 0.98138,1.28684 2.00087,2.5448 3.04029,3.78502 1.78484,2.23106 -1.37035,4.75521 -3.15519,2.52415 z"
       inkscape:connector-curvature="0" />
    <path
       style="fill:#1a1a1a"
       id="path4052"
       d="m 63.359043,113.93925 c 0.14599,-0.54772 0.54443,-1.23052 0.28524,-1.78901 -0.23115,-0.54987 0.0817,0.15871 0.20027,0.29569 -0.70901,-0.0523 -1.4205,-0.0458 -2.13092,-0.0448 -0.84893,0.0793 -1.57301,0.42433 -2.28461,0.87008 -1.01001,0.50299 -1.81787,1.22186 -2.58312,2.03188 -0.70746,0.80311 -1.1058,1.79682 -1.56831,2.7483 -0.37498,1.03708 -0.76216,2.07657 -1.04574,3.14386 -0.0152,0.26423 -0.19673,0.57602 -0.15875,0.84809 0.0776,0.5562 0.0277,-0.45109 0.008,-0.54175 0.65793,0.31525 1.45157,0.5401 2.16518,0.78144 1.41554,0.44513 2.86889,0.75114 4.30992,1.1001 1.52447,0.38325 3.04258,0.78813 4.56932,1.16312 1.32679,0.28653 2.64897,0.61678 3.90437,1.138 0.77379,0.27043 1.44754,0.74608 2.02162,1.32249 0.74361,0.93968 0.73822,1.94461 0.59559,3.06984 -0.41166,1.41996 -1.1915,2.70723 -2.07382,3.88213 -1.12152,1.37596 -2.72938,2.0202 -4.33226,2.6464 -1.8292,0.76485 -3.73627,1.26052 -5.65627,1.72813 -1.96095,0.49314 -3.97417,0.68615 -5.98737,0.79745 -1.54309,0.14675 -3.03969,0.001 -4.5046,-0.49594 -1.07559,-0.39049 -1.93557,-1.07169 -2.74575,-1.85404 -0.43114,-0.41291 -0.81209,-0.87777 -1.17621,-1.35044 -1.74286,-2.264 1.45893,-4.72877 3.20179,-2.46477 l 0,0 c 0.25826,0.33575 0.49372,0.65631 0.79268,0.9197 0.37475,0.36671 0.72943,0.7278 1.24643,0.93027 0.96448,0.34264 1.94142,0.38289 2.96485,0.28065 1.76571,-0.0956 3.53266,-0.25566 5.25265,-0.68889 1.7452,-0.42448 3.48031,-0.86413 5.14148,-1.56572 0.90117,-0.35206 1.88072,-0.63768 2.58881,-1.33191 0.51356,-0.65797 0.90644,-1.39329 1.30549,-2.11812 0.0875,-0.69213 0.003,-0.0353 0.48358,0.42587 -0.1847,-0.21985 -0.40091,-0.32598 -0.68642,-0.40902 -1.05347,-0.45335 -2.18949,-0.68045 -3.3027,-0.93865 -1.52232,-0.37568 -3.0372,-0.77722 -4.55743,-1.16022 -1.555,-0.37943 -3.12464,-0.70857 -4.65023,-1.19879 -1.49655,-0.50613 -3.09497,-0.93753 -4.1306,-2.2217 -0.89646,-1.4481 -0.90521,-2.17669 -0.48983,-3.75027 0.35928,-1.3087 0.81045,-2.59569 1.3125,-3.85531 0.64378,-1.32145 1.2503,-2.67399 2.26988,-3.76089 1.01355,-1.06523 2.10785,-2.0206 3.42084,-2.70698 1.35324,-0.80382 2.77762,-1.39426 4.3729,-1.45499 1.03439,-10e-4 2.07887,-0.0274 3.10037,0.16139 1.35111,0.39234 2.42507,1.19283 2.75399,2.64055 0.30831,1.38904 0.15783,2.73113 -0.37,4.05451 -0.90351,2.71052 -4.73677,1.43277 -3.83326,-1.27775 z"
       inkscape:connector-curvature="0" />
    <path
       style="fill:#1a1a1a"
       id="path4060"
       d="m 159.8286,114.9494 c 0.28834,-0.92102 0.54477,-1.84756 0.69853,-2.80059 0.0991,-0.69773 0.0903,-1.40354 0.0938,-2.10642 0.002,-0.7348 -0.002,-1.46958 -0.005,-2.20437 -0.002,-0.55372 -0.002,-1.10745 -0.002,-1.66118 -1.3e-4,-0.62095 -9e-5,-1.24191 -7e-5,-1.86286 2e-5,-0.62496 3e-5,-1.24992 3e-5,-1.87488 0,-0.57035 0,-1.14071 0,-1.71106 -0.0145,-0.810358 -0.0148,-1.609478 0.0938,-2.412668 0.20484,-0.62912 0.33907,-1.27235 0.52426,-1.90526 0.31271,-0.81289 0.68652,-1.60605 1.1216,-2.361008 0.37231,-0.714911 0.83685,-1.384724 1.32463,-2.026074 0.68418,-0.914017 1.52379,-1.65649 2.46472,-2.293605 0.79462,-0.487211 1.53302,-1.053009 2.35073,-1.501611 0.72425,-0.353217 1.44577,-0.675788 2.23256,-0.87697 0.97025,-0.193499 1.95222,-0.215809 2.93185,-0.113532 1.28984,0.154381 2.14742,0.605041 3.02724,1.532875 0.86589,1.286211 0.63191,2.423458 -0.14325,3.701436 -0.70478,0.972839 -1.54685,1.8358 -2.38348,2.694419 -0.32106,0.32607 -0.64325,0.65109 -0.97094,0.97051 0.24254,-0.31067 0.52722,-0.63274 0.545,-1.04219 -0.0374,-1.133968 -3.28723,-2.51731 -0.78916,-1.597312 1.10153,0.446079 1.883,1.361282 2.68087,2.203162 0.64194,0.74781 1.29075,1.45041 1.75576,2.32547 0.31669,0.66446 0.40005,1.38317 0.41798,2.108818 0.0373,0.63904 -0.0263,1.24381 -0.14002,1.87228 -0.30571,1.17779 -1.26284,1.80537 -2.15784,2.5051 -0.92466,0.71328 -1.99428,1.07595 -3.1335,1.2519 -0.94599,0.10283 -1.89925,0.0969 -2.84951,0.0958 -0.85128,0.0327 -1.66336,-0.005 -2.47519,-0.28423 -0.95541,-0.33154 -1.45784,-1.07699 -1.77412,-1.98689 -0.70271,-2.76938 3.21379,-3.763148 3.91649,-0.99377 l 0,0 c -0.20929,-0.44197 -0.34265,-0.51719 -0.76823,-0.83906 -0.0199,-0.015 0.0843,0.0596 0.0613,0.0427 -0.78058,0.0477 0.98647,-0.002 1.04465,0.0207 0.75841,9.7e-4 1.5185,0.006 2.27496,-0.0554 0.45947,-0.0523 0.88116,-0.17148 1.25322,-0.4648 0.0279,-0.0209 0.6677,-0.54479 0.75552,-0.54651 0.0706,-10e-4 -0.13395,0.18253 -0.0442,0.18504 -0.0295,0.86231 0.009,-0.61213 -0.003,-0.71437 -0.003,-0.20365 0.0135,-0.299108 -0.0206,-0.447808 -0.18195,-0.38044 -0.75758,-0.85497 -1.04651,-1.29567 -0.36946,-0.38998 -0.81039,-0.86193 -1.14913,-1.19251 -0.8316,-0.30841 0.29338,0.12806 0.14364,-0.0317 -1.42487,-1.52003 -1.94227,-0.91974 -1.99146,-2.02277 -0.0174,-0.75967 0.16284,-1.372727 0.67344,-1.989909 0.30301,-0.2951 0.60045,-0.59587 0.89743,-0.897011 0.65127,-0.667754 1.30314,-1.339015 1.88467,-2.069366 0.0292,-0.03253 0.0606,-0.131895 0.0877,-0.0976 0.0795,0.100443 -0.094,0.87267 0.23014,1.035764 0.52425,0.432717 0.28907,0.09821 -0.3747,0.02388 -0.38846,-0.197034 -1.00516,0.07087 -1.42689,0.04238 -0.45204,0.08218 -0.83167,0.326112 -1.24862,0.500402 -0.72143,0.381244 -1.34594,0.918947 -2.05464,1.32454 -0.58699,0.360262 -1.05815,0.835115 -1.47992,1.378355 -0.39005,0.50005 -0.75257,1.02862 -1.03503,1.59396 -0.3084,0.52526 -0.56683,1.08039 -0.79408,1.64359 -0.0293,-0.13929 -0.3326,1.3867 -0.37225,1.32509 -0.0333,0.39645 -0.0313,1.148493 -0.0271,1.681503 0,0.57036 0,1.14073 0,1.71109 0,0.62499 -1e-5,1.24997 -3e-5,1.87496 -2e-5,0.62046 -6e-5,1.24091 7e-5,1.86137 1.9e-4,0.55013 4.2e-4,1.10026 0.002,1.65039 0.002,0.74576 0.006,1.49152 0.004,2.23729 -0.005,0.91454 -0.005,1.83219 -0.14686,2.73841 -0.19268,1.16433 -0.49397,2.30136 -0.85281,3.42559 -0.90351,2.71053 -4.73677,1.43277 -3.83326,-1.27775 z"
       inkscape:connector-curvature="0" />
    <path
       style="fill:#1a1a1a"
       id="path4068"
       d="m 192.4169,90.468262 c -0.061,-0.117062 -0.46127,-1.500558 -0.66986,-1.21723 -0.0254,0.002 -0.0891,-0.0161 -0.0763,0.0059 0.13137,0.22589 0.21175,0.01134 -0.1558,0.29631 -0.39479,0.441299 -0.86781,0.926281 -1.28131,1.397081 -0.36225,0.46492 -1.02432,0.87484 -1.25804,1.4353 -0.0798,0.14706 -0.0659,0.33571 -0.0806,0.53101 -0.002,0.0341 -0.002,0.13624 -0.005,0.10225 -0.0205,-0.22787 0.0702,-0.50024 -0.0673,-0.68307 -0.31865,-0.42351 -0.4703,-0.50247 -0.23162,-0.35608 0.56629,0.38227 1.09768,0.80696 1.65943,1.1953 0.92161,0.54485 1.83476,1.10831 2.72082,1.70991 1.12193,0.66351 2.2285,1.35139 3.33271,2.04428 0.81535,0.58397 1.70852,1.04798 2.51534,1.64087 0.67021,0.54475 0.97466,1.16871 1.18752,1.981547 0.10419,1.04669 -0.0566,1.61589 -0.73958,2.5106 -0.68226,0.65347 -1.53869,1.09051 -2.41729,1.41365 -0.91133,0.24239 -1.80601,0.52693 -2.73498,0.69783 -0.90262,0.14405 -1.8167,0.16328 -2.72852,0.17334 -0.72866,0.005 -1.45734,0.001 -2.18601,-5.8e-4 -0.87427,-0.10962 -1.73757,-0.32553 -2.5872,-0.55727 -0.547,-0.16049 -1.09375,-0.32184 -1.64033,-0.48376 -1.74905,-1.5743 -2.06882,-2.09585 -0.4804,-3.90157 2.09339,-1.944467 4.84329,1.01604 2.74989,2.96051 l 0,0 c 0.75722,-1.46955 0.0412,-2.02226 -1.12179,-2.93313 0.5417,0.16047 1.08356,0.32039 1.62568,0.47945 0.46498,0.16645 1.04828,0.18414 1.46307,0.39517 0.7112,0.002 1.42242,0.005 2.13362,8e-4 0.68952,-0.007 1.38086,-0.0143 2.06502,-0.11124 0.72643,-0.1211 1.41688,-0.37633 2.13211,-0.54197 0.31257,-0.0728 0.52377,-0.30736 0.81642,-0.41466 0.0405,-0.0148 -0.0645,0.0589 -0.0872,0.0956 -0.0108,0.0174 0.0334,-0.0238 0.0501,-0.0357 -0.33539,0.57446 -0.0905,0.0816 -0.33571,1.05985 -0.0279,0.11143 -0.0904,-0.28307 0.007,-0.34456 0.0182,-0.0115 0.007,0.0426 0.0103,0.0639 0.024,0.0758 0.12523,0.59821 0.29295,0.6461 -0.60836,-0.39472 -1.46031,-0.90235 -2.13833,-1.37288 -1.14728,-0.720937 -2.30116,-1.429247 -3.46144,-2.128557 -0.88983,-0.61114 -1.82017,-1.16139 -2.74109,-1.72384 -0.56171,-0.38833 -1.09501,-0.81099 -1.65895,-1.19496 -0.90968,-0.64749 -1.52423,-1.56166 -1.42478,-2.73007 0.0759,-0.84362 0.25053,-1.6726 0.72138,-2.394153 0.47726,-0.692298 1.0201,-1.347929 1.63327,-1.924861 0.71474,-0.788983 1.4117,-1.606374 2.29614,-2.215118 1.36945,-0.728447 2.79818,-1.021978 4.25095,-0.285919 1.36943,0.893967 2.00788,1.882328 2.47943,3.436801 0.90351,2.71052 -2.92975,3.98828 -3.83325,1.27775 z"
       inkscape:connector-curvature="0" />
    <path
       style="fill:#1a1a1a"
       id="path4070"
       d="m 206.54415,87.630566 c 0.8419,1.859492 1.14182,3.889496 1.36481,5.900516 0.21787,1.40542 0.44931,2.80824 0.59555,4.22336 0.0806,0.75605 0.0938,1.51627 0.0974,2.275798 7.5e-4,0.52013 -0.001,1.04027 -0.004,1.56039 -4.2e-4,0.0862 -9.4e-4,0.17249 -0.002,0.25872 -0.0389,2.85688 -4.07913,2.80187 -4.04023,-0.055 l 0,0 c 4.5e-4,-0.0581 0.001,-0.1577 0.001,-0.22406 0.003,-0.50723 0.004,-1.01446 0.004,-1.52169 -0.003,-0.628188 -0.01,-1.257148 -0.0764,-1.882548 -0.1424,-1.40624 -0.38873,-2.79755 -0.59261,-4.19558 -0.16537,-1.53655 -0.367,-3.09388 -0.9622,-4.53288 -1.27775,-2.555507 2.33628,-4.362522 3.61404,-1.807016 z"
       inkscape:connector-curvature="0" />
    <path
       style="fill:#1a1a1a"
       id="path4076"
       d="m 326.74125,95.879832 c -0.34636,-1.071714 -1.0762,-1.849943 -1.87891,-2.598225 -0.94645,-0.732787 -2.01188,-1.168047 -3.17734,-1.39526 -1.33706,-0.227667 -2.6947,-0.08313 -4.0224,0.140445 -1.6533,0.198393 -3.17558,0.872687 -4.67857,1.548456 -1.97189,0.906657 -3.80403,2.086122 -5.62292,3.262445 -1.83915,1.136968 -3.55267,2.466506 -5.19957,3.864187 -1.76306,1.48387 -3.31301,3.18473 -4.86613,4.87978 -1.62645,1.92259 -3.16695,3.92352 -4.65839,5.95327 -1.2087,1.48148 -2.10747,3.14402 -2.84536,4.89717 -0.79805,1.88352 -1.2993,3.87998 -1.75571,5.8695 -0.39461,1.83508 -0.62753,3.71233 -0.56403,5.59017 0.0129,1.86419 0.62832,3.60658 1.31417,5.31305 0.81254,2.13923 1.82735,4.18831 3.20842,6.01586 1.7378,2.06944 3.76002,3.89489 5.86869,5.57874 1.51913,1.39749 3.36886,2.07682 5.3039,2.65491 2.17855,0.6081 4.34846,1.26817 6.55242,1.78128 2.02812,0.58173 4.11711,0.82225 6.21462,0.96387 2.30531,0.16345 4.60657,0.0932 6.9002,-0.16904 2.35526,-0.32321 4.63231,-0.97083 6.88239,-1.71712 2.37807,-0.63777 4.64835,-1.52938 6.86718,-2.58517 2.14684,-1.06731 4.05744,-2.57138 5.83102,-4.17212 1.50272,-1.46979 2.67201,-3.23216 3.5952,-5.11146 0.87559,-1.67121 1.20079,-3.49933 1.38073,-5.35449 0.14674,-2.10011 0.12357,-4.20751 0.12104,-6.31142 -0.0696,-1.99451 -0.31665,-3.97849 -0.86392,-5.89891 -0.5013,-1.81342 -1.282,-3.53106 -2.02159,-5.25586 -0.99445,-2.11312 -1.71423,-4.33556 -2.62848,-6.48202 -0.82784,-2.05981 -1.96972,-3.94513 -3.36144,-5.66764 -1.75281,-2.026402 -3.79338,-3.815121 -6.01814,-5.305813 -1.15656,-0.727844 -2.40195,-1.294875 -3.60836,-1.932653 -2.52522,-1.336608 -0.63497,-4.907811 1.89025,-3.571203 l 0,0 c 1.33455,0.707329 2.71546,1.331861 3.98382,2.158249 2.54774,1.73997 4.91293,3.770294 6.90976,6.129954 1.60119,2.023406 2.96164,4.203086 3.9225,6.607936 0.91033,2.14406 1.63632,4.35925 2.62379,6.47104 0.80974,1.88905 1.6553,3.7731 2.19942,5.76055 0.62689,2.27777 0.95429,4.61792 1.013,6.98155 0.003,2.23915 0.0262,4.48225 -0.14094,6.7168 -0.23837,2.34179 -0.68866,4.64785 -1.78601,6.75815 -1.17336,2.32371 -2.61328,4.51296 -4.51246,6.31496 -2.07208,1.84949 -4.28858,3.58998 -6.79505,4.81396 -2.36967,1.12452 -4.79402,2.08631 -7.33088,2.7713 -2.51655,0.83245 -5.0673,1.54547 -7.70188,1.8968 -2.53527,0.28033 -5.07903,0.36917 -7.62649,0.18489 -2.3143,-0.15971 -4.62089,-0.42827 -6.8607,-1.06094 -2.28288,-0.53747 -4.53385,-1.21106 -6.79089,-1.84488 -2.42611,-0.72903 -4.74877,-1.65654 -6.66975,-3.37154 -2.3733,-1.90542 -4.65431,-3.96367 -6.58641,-6.323 -1.56113,-2.12826 -2.79559,-4.44808 -3.71688,-6.92567 -0.85691,-2.15346 -1.58157,-4.36407 -1.60152,-6.70919 -0.0441,-2.2188 0.17654,-4.4335 0.66578,-6.60081 0.51237,-2.2165 1.07831,-4.43721 1.97126,-6.53531 0.8653,-2.04088 1.91633,-3.9845 3.31252,-5.71875 1.57933,-2.14466 3.20486,-4.26332 4.93407,-6.28866 1.66771,-1.82006 3.33931,-3.639684 5.23258,-5.232342 1.78117,-1.508135 3.63263,-2.943559 5.61812,-4.174894 1.9912,-1.287533 4.00179,-2.569094 6.16307,-3.55605 1.82567,-0.817497 3.68522,-1.599465 5.68805,-1.850751 1.82087,-0.285298 3.67387,-0.457971 5.50024,-0.105309 1.88369,0.414985 3.62902,1.144703 5.11449,2.407766 1.3246,1.257311 2.45256,2.650059 2.99356,4.429421 0.78492,2.747211 -3.10023,3.857252 -3.88514,1.110041 z"
       inkscape:connector-curvature="0" />
    <path
       style="fill:#1a1a1a"
       id="path4078"
       d="m 319.22536,107.08809 c 0.65178,2.17058 0.76425,4.44815 0.87687,6.69694 0.17005,2.94662 0.47661,5.88033 0.75602,8.81759 0.22656,2.47704 0.31084,4.96341 0.35752,7.44934 0.011,0.83437 0.0239,1.66888 0.0175,2.50336 -0.0218,1.54672 -0.26689,0.20034 -4.04563,-0.0874 -0.0305,-2.85698 4.00984,-2.90017 4.04038,-0.0432 l 0,0 c -3.31947,0.10246 -4.05448,0.86428 -4.03524,0.0991 0.006,-0.79878 -0.007,-1.5976 -0.017,-2.39628 -0.0445,-2.38346 -0.12374,-4.76743 -0.34008,-7.14246 -0.28497,-2.99793 -0.59677,-5.99244 -0.76922,-8.99997 -0.0924,-1.8829 -0.1663,-3.79255 -0.67447,-5.61931 -0.90351,-2.71052 2.92975,-3.98827 3.83326,-1.27775 z"
       inkscape:connector-curvature="0" />
    <path
       style="fill:#1a1a1a"
       id="path4080"
       d="m 321.91802,104.38207 c -2.54221,0.41088 -5.10783,0.64504 -7.66468,0.94389 -2.20342,0.2639 -4.45084,0.321 -6.6213,0.81478 -0.039,-0.11722 -1.27444,0.51078 -0.92295,0.30902 0.0337,-1.09062 0.0675,-2.18124 0.10127,-3.27186 2.40414,1.54381 0.22086,4.94378 -2.18328,3.39997 l 0,0 c -0.066,-1.15467 -0.13198,-2.30934 -0.19796,-3.46401 0.71502,-0.45673 1.52725,-0.71623 2.34617,-0.92185 2.30777,-0.4847 4.66643,-0.64443 7.00897,-0.87934 2.56454,-0.29974 5.13738,-0.53615 7.68755,-0.94649 2.83967,-0.31552 3.28588,3.70038 0.44621,4.01589 z"
       inkscape:connector-curvature="0" />
    <path
       style="fill:#1a1a1a"
       id="path4082"
       d="m 325.23045,134.13352 c -3.63057,-0.10441 -7.24806,0.17599 -10.86501,0.45161 -1.84411,0.14711 -3.68753,0.30377 -5.52875,0.48363 -2.84362,0.27769 -3.23634,-3.74379 -0.39272,-4.02148 l 0,0 c 1.86982,-0.18254 3.74183,-0.34188 5.61459,-0.49109 3.71887,-0.28315 7.43912,-0.56659 11.17189,-0.46328 2.85714,0 2.85714,4.04061 0,4.04061 z"
       inkscape:connector-curvature="0" />
    <path
       style="fill:#1a1a1a"
       id="path4084"
       d="m 207.62228,83.59385 c -0.94437,0.607059 -1.91321,1.178888 -2.94371,1.626642 -0.46824,0.342467 -1.00254,0.591401 -1.55869,0.767677 -0.38921,0.116336 -0.78764,0.164493 -1.19241,0.169976 -0.0615,-7.1e-5 -0.24514,0.01036 -0.18454,-2.11e-4 1.20462,-0.210143 -0.26902,0.221335 -0.53399,0.293205 -0.44565,0.12733 -0.90598,0.177108 -1.36719,0.201685 -0.15822,0.0083 -0.31658,0.0094 -0.47477,0.001 2.36389,-2.310617 2.14248,-2.700442 2.15544,-1.517473 0.0288,2.856998 -4.01166,2.897651 -4.04041,0.04065 l 0,0 c -0.0116,-1.334754 0.0523,-0.868753 2.15758,-2.554582 -0.11016,-0.0053 -0.11258,-0.0014 -0.004,-0.005 0.18321,-0.0085 0.35827,-0.01313 0.53467,-0.07126 0.57149,-0.145785 1.10234,-0.469412 1.71776,-0.42847 0.13767,1.04e-4 -0.13801,0.02567 0.0802,-0.0027 -0.0605,0.08249 1.00893,-0.557729 1.11661,-0.607749 0.96377,-0.404991 1.82878,-1.003761 2.72998,-1.527457 2.55551,-1.277753 4.36253,2.336279 1.80702,3.614032 z"
       inkscape:connector-curvature="0" />
    <path
       style="fill:#1a1a1a"
       id="path4096"
       d="m 110.09784,128.80218 c 1.55492,0.40174 3.09546,0.85586 4.64593,1.27527 1.55667,0.36602 3.11458,0.72448 4.6787,1.05841 1.56491,0.38806 3.12484,0.80912 4.70519,1.13053 1.76299,0.39777 3.54201,0.73542 5.32861,1.00971 1.85016,0.34439 3.68751,0.75405 5.52211,1.17245 1.87457,0.43469 3.75835,0.82084 5.64786,1.18553 1.69065,0.2469 3.36495,0.59622 5.05976,0.81558 1.81686,0.22879 3.64102,0.41229 5.45635,0.65413 2.11797,0.243 4.23382,0.49183 6.34958,0.75531 1.81958,0.14459 3.63081,0.34219 5.44468,0.54534 1.9142,0.13821 3.82278,0.31254 5.733,0.50105 2.04577,0.19849 4.10151,0.23743 6.15517,0.26602 1.88083,0.0197 3.7618,0.0178 5.64271,0.0165 1.76532,-0.002 3.53064,-0.003 5.29596,-0.003 1.81564,0.0206 3.62342,0.0238 5.43232,-0.1365 1.9302,-0.19079 3.84269,-0.51238 5.77506,-0.69364 1.6621,-0.29178 3.3321,-0.48892 5.01595,-0.59291 2.2936,-0.0502 4.56208,-0.41399 6.83662,-0.67878 2.07576,-0.1723 4.14385,-0.36475 6.21074,-0.62142 1.82766,-0.33877 3.6691,-0.58836 5.49102,-0.95899 1.8946,-0.36661 3.79725,-0.69719 5.68187,-1.11393 1.686,-0.42299 3.38238,-0.79668 5.08077,-1.16832 1.65587,-0.4109 3.3069,-0.84823 4.98072,-1.1804 1.79999,-0.42277 3.59431,-0.88736 5.3681,-1.41094 1.57187,-0.48561 3.20806,-0.71176 4.78293,-1.18239 1.44145,-0.44086 2.88955,-0.85559 4.34594,-1.24684 1.53138,-0.42702 3.05228,-0.88428 4.56565,-1.37134 1.12196,-0.31936 2.19482,-0.76708 3.32715,-1.05211 0.89462,-0.27072 1.78751,-0.55717 2.662,-0.88861 0.45007,-0.18171 0.89938,-0.36806 1.33355,-0.58568 -0.50529,0.30364 0.59182,-0.27834 1.1659,-0.27565 0.31015,0.0758 0.62031,0.15156 0.93046,0.22734 2.62237,1.13423 1.01832,4.84281 -1.60404,3.70858 l 0,0 c 0.21556,0.0349 0.43112,0.0697 0.64668,0.1046 0.73634,-0.26576 1.57682,-0.63714 0.66137,-0.14753 -0.56334,0.27926 -1.14225,0.52627 -1.7273,0.75621 -1.01916,0.37329 -2.04853,0.72382 -3.0924,1.02164 -1.04503,0.25612 -2.025,0.7034 -3.06552,0.97754 -1.57637,0.50729 -3.16124,0.98181 -4.75604,1.42749 -1.42774,0.38286 -2.84739,0.78771 -4.25961,1.22264 -1.57851,0.45417 -3.19956,0.72536 -4.77791,1.18092 -1.89363,0.55392 -3.80532,1.0575 -5.72798,1.49895 -1.64686,0.31955 -3.26608,0.76833 -4.89605,1.16282 -1.69738,0.3713 -3.39262,0.74384 -5.07746,1.1676 -1.90776,0.41668 -3.83047,0.7614 -5.74816,1.12791 -1.92291,0.38658 -3.86369,0.66135 -5.79371,1.0083 -2.07716,0.25793 -4.1557,0.45489 -6.24188,0.62517 -2.34795,0.2728 -4.68979,0.645 -7.05728,0.69833 -1.64166,0.0988 -3.26489,0.31281 -4.88705,0.58297 -1.93945,0.17953 -3.85753,0.51343 -5.79588,0.69553 -1.92659,0.1685 -3.85196,0.17774 -5.78536,0.15205 -1.76474,5.2e-4 -3.52948,0.001 -5.29422,0.003 -1.9007,0.001 -3.80145,0.003 -5.70208,-0.0169 -2.1674,-0.0304 -4.33684,-0.0745 -6.49576,-0.28518 -1.92812,-0.1905 -3.8543,-0.36441 -5.78631,-0.50667 -1.83034,-0.20556 -3.65778,-0.40228 -5.49378,-0.55115 -2.12905,-0.26528 -4.25811,-0.51524 -6.38936,-0.76047 -1.80934,-0.2467 -3.62973,-0.42242 -5.44123,-0.65212 -1.77553,-0.23437 -3.53141,-0.58987 -5.30222,-0.85483 -1.93428,-0.37416 -3.86289,-0.76996 -5.78227,-1.21388 -1.73997,-0.39932 -3.48409,-0.78315 -5.23769,-1.11803 -1.85206,-0.28741 -3.69757,-0.63265 -5.52568,-1.04516 -1.5898,-0.32971 -3.16371,-0.73758 -4.73706,-1.13721 -1.6346,-0.35053 -3.26341,-0.72351 -4.88984,-1.10957 -1.62447,-0.44077 -3.24096,-0.90862 -4.86703,-1.34201 -2.71052,-0.9035 -1.43277,-4.73676 1.27775,-3.83326 z"
       inkscape:connector-curvature="0" />
    <path
       style="fill:#1a1a1a"
       id="path4098"
       d="m 264.62403,130.12495 c 1.12535,-0.60709 2.19897,-1.28373 3.19492,-2.08528 0.79369,-0.53685 1.50256,-1.17754 2.23754,-1.79001 0.5751,-0.52113 1.13394,-1.03357 1.82661,-1.39347 -0.43141,0.20256 -0.4213,0.29971 -0.62532,0.76616 -0.0494,0.23461 -0.0251,-0.41131 -0.0254,-0.45894 0.0546,0.76945 0.0213,0.50808 -0.71965,0.13382 -1.2924,-0.63492 -2.59239,-1.29053 -3.95868,-1.75429 -1.29951,-0.53753 -2.68177,-0.79041 -4.03986,-1.12822 -0.81866,-0.23981 -1.66775,-0.3183 -2.49431,-0.51513 -0.37834,-0.0965 -0.80337,-0.34209 -1.06986,-0.40017 -0.14847,-0.0239 -0.0232,-0.006 0.0471,2e-5 2.28237,0.0698 2.11783,-3.27814 2.12386,-1.09666 0.003,1.08541 0.003,2.17081 0.003,3.25622 -0.072,1.57182 0.0603,3.12701 0.2187,4.68816 0.24769,1.2705 0.50123,2.53733 0.66703,3.82166 0.0512,0.44472 0.10417,0.88988 0.12761,1.33714 0.004,0.12028 0.003,0.0548 0.002,0.19646 -0.0748,2.85616 -4.11405,2.75034 -4.03922,-0.10582 l 0,0 c 8e-5,0.0285 1.5e-4,0.0571 2.3e-4,0.0857 3.9e-4,0.007 7.8e-4,0.0146 0.001,0.0218 -0.0193,-0.34132 -0.0615,-0.68099 -0.0996,-1.02057 -0.16856,-1.3204 -0.45912,-2.61663 -0.67932,-3.92867 -0.17191,-1.69553 -0.30864,-3.38813 -0.23932,-5.09458 -3.5e-4,-1.08211 -6.5e-4,-2.16423 -0.003,-3.24634 -0.003,-1.22715 0.13972,-2.99335 2.14085,-2.94889 0.23311,0.0172 0.4638,0.0548 0.69106,0.11002 0.40936,0.1035 0.80576,0.24102 1.18375,0.42987 0.77564,0.14681 1.61382,0.26332 2.39347,0.48866 1.47735,0.36748 2.97914,0.65367 4.39419,1.23377 1.54085,0.54668 3.02629,1.24717 4.48569,1.98109 1.43847,0.75558 2.74561,1.67657 2.9035,3.43072 0.003,0.46134 0.0181,0.92664 -0.0756,1.38134 -0.32354,0.87228 -0.70834,1.50232 -1.55665,1.97401 0.38736,-0.41462 -0.95856,0.87966 -0.99744,0.85923 -0.75399,0.62831 -1.48576,1.28598 -2.29784,1.83929 -1.22162,0.97522 -2.53328,1.81269 -3.91433,2.54593 -2.5555,1.27775 -4.36252,-2.33628 -1.80701,-3.61403 z"
       inkscape:connector-curvature="0" />
    <path
       style="fill:#1a1a1a"
       id="path4100"
       d="m 211.70912,104.33402 c -1.33429,0 -2.66859,0 -4.00288,0 -0.76739,0 -1.53477,0 -2.30216,0 -0.58078,0 -1.16155,0 -1.74233,0 -0.32189,0 -0.64379,0 -0.96568,0 -0.32504,0 -0.65009,0 -0.97513,0 -0.31607,0 -0.63215,0 -0.94822,0 -0.086,0 -0.17207,0 -0.25811,0 -0.58309,0.0552 0.7688,-0.17075 1.20114,-0.5329 0.0248,-0.028 0.0496,-0.0561 0.0744,-0.0841 -1.66103,2.32469 -4.94865,-0.0244 -3.28762,-2.34906 l 0,0 c 0.0652,-0.0847 0.13047,-0.16932 0.19571,-0.25398 0.49425,-0.4663 1.06512,-0.8883 1.81641,-0.82052 0.086,0 0.17207,0 0.25811,0 0.31607,0 0.63215,0 0.94822,0 0.32504,0 0.65009,0 0.97513,0 0.32189,0 0.64379,0 0.96568,0 0.58078,0 1.16155,0 1.74233,0 0.76739,0 1.53477,0 2.30216,0 1.33429,0 2.66859,0 4.00288,0 2.85714,0 2.85714,4.04061 0,4.04061 z"
       inkscape:connector-curvature="0" />
    <path
       style="fill:#1a1a1a"
       id="path4102"
       d="m 555.11087,95.783658 c -0.54809,-1.094178 -1.32316,-1.992425 -2.22127,-2.806706 -0.9857,-0.850872 -2.17215,-1.353236 -3.38425,-1.784488 -1.13811,-0.393727 -2.34009,-0.444402 -3.53163,-0.483987 -2.03399,-0.126718 -4.04935,0.149828 -6.06031,0.410912 -2.52563,0.344549 -5.00493,0.894428 -7.44766,1.616091 -2.54555,0.739001 -4.98342,1.777242 -7.3409,2.979556 -2.43973,1.196638 -4.74193,2.646917 -6.96875,4.198514 -2.03063,1.56162 -4.04666,3.15474 -5.90453,4.92094 -1.69756,1.62809 -3.25316,3.38681 -4.78111,5.17166 -1.05756,1.27136 -1.88908,2.72241 -2.60288,4.20964 -0.69837,1.33105 -1.03471,2.76363 -1.19887,4.24471 -0.1406,1.7904 -0.12359,3.58843 -0.12361,5.38293 -0.0567,2.10677 -0.0252,4.18299 0.40556,6.24947 0.38327,2.0695 1.07308,4.05696 1.94329,5.96774 0.64533,1.4337 1.45872,2.76645 2.55716,3.89196 0.82906,0.89221 1.93434,1.39892 3.022,1.89826 1.63341,0.80466 3.3557,1.39075 5.07027,1.99222 2.00335,0.59435 4.02907,1.10875 6.08904,1.46186 2.60673,0.4498 5.23162,0.80803 7.86149,1.09395 2.74409,0.28083 5.50411,0.32203 8.2599,0.35416 2.67624,0.0565 5.34665,0.046 8.0075,-0.26335 2.41479,-0.30397 4.64451,-1.22505 6.8371,-2.22835 2.08762,-0.90485 3.95898,-2.17884 5.62737,-3.71417 1.68933,-1.65567 3.18521,-3.50656 4.5535,-5.43308 1.53773,-2.00989 2.7866,-4.19788 3.94687,-6.4393 1.06756,-1.90573 1.69041,-3.99273 2.09205,-6.12762 0.45196,-2.39616 0.88645,-4.79543 1.14986,-7.22054 0.31801,-2.29353 0.18448,-4.54013 -0.44923,-6.76062 -1.0201,-2.62013 -2.61423,-4.96651 -4.27086,-7.21984 -1.41386,-1.826671 -2.95856,-3.288773 -5.13724,-4.098522 -2.65947,-1.044253 -1.18268,-4.805317 1.4768,-3.761063 l 0,0 c 3.02887,1.229706 4.91656,2.89069 6.91857,5.469787 1.94119,2.652068 3.7999,5.421158 4.90874,8.538358 0.72755,2.72079 0.96566,5.46798 0.56983,8.27163 -0.27924,2.53264 -0.72285,5.04014 -1.19832,7.54259 -0.49025,2.51296 -1.21902,4.97491 -2.47243,7.22445 -1.24943,2.41015 -2.5976,4.76245 -4.2457,6.92791 -1.54302,2.15327 -3.21166,4.23254 -5.12211,6.07355 -1.99302,1.79969 -4.19281,3.33169 -6.66913,4.40193 -2.58007,1.17623 -5.21812,2.2216 -8.057,2.5674 -2.82968,0.3184 -5.66774,0.35801 -8.51345,0.28918 -2.88637,-0.0339 -5.77698,-0.0807 -8.65081,-0.37771 -2.71392,-0.29699 -5.42309,-0.66445 -8.11328,-1.12946 -2.27843,-0.39856 -4.52414,-0.95473 -6.73665,-1.63034 -1.83446,-0.64359 -3.67454,-1.27828 -5.42374,-2.13528 -1.5451,-0.71426 -3.06906,-1.50215 -4.24405,-2.76793 -1.40145,-1.4734 -2.49984,-3.16533 -3.32583,-5.02739 -0.98445,-2.19047 -1.78289,-4.46005 -2.22125,-6.82799 -0.46461,-2.33472 -0.5671,-4.67575 -0.48643,-7.05395 7e-5,-1.9494 -0.0171,-3.90302 0.15036,-5.84705 0.23035,-1.93098 0.67913,-3.80939 1.57988,-5.54938 0.88041,-1.78905 1.87183,-3.54207 3.16626,-5.06847 1.61964,-1.89188 3.27252,-3.75307 5.07247,-5.47799 2.01165,-1.89817 4.17282,-3.632983 6.37536,-5.303966 2.38173,-1.65408 4.83994,-3.205165 7.44656,-4.484151 2.58194,-1.306187 5.2442,-2.448764 8.02928,-3.252981 2.64708,-0.776782 5.33256,-1.376489 8.06856,-1.746937 2.22954,-0.289425 4.46592,-0.576493 6.72025,-0.44212 1.61155,0.05768 3.22909,0.172332 4.76163,0.720823 1.71004,0.622091 3.36616,1.380069 4.74074,2.603538 1.2556,1.155006 2.33729,2.447997 3.10906,3.981997 1.27775,2.555506 -2.33628,4.362522 -3.61403,1.807015 z"
       inkscape:connector-curvature="0" />
    <path
       style="fill:#1a1a1a"
       id="path4104"
       d="m 529.36004,106.9966 c 0.27006,1.68843 0.35879,3.38072 0.26074,5.08577 -0.10933,1.50999 -0.17686,3.01736 -0.43985,4.50969 -0.22689,1.22849 -0.31783,2.47225 -0.50172,3.70768 -0.17241,1.12379 -0.27969,2.25596 -0.34438,3.39064 -0.012,0.27609 -0.0288,0.55231 -0.0294,0.82875 0.0434,0.21635 -0.0951,0.96699 -0.12981,1.16653 -0.7592,2.75443 -4.65455,1.68075 -3.89535,-1.07367 l 0,0 c -0.028,0.71972 -0.005,0.10011 -0.0154,-0.0762 -3.9e-4,-0.35927 0.0192,-0.71826 0.036,-1.07702 0.0726,-1.25626 0.1912,-2.50979 0.38179,-3.75408 0.18957,-1.2727 0.27916,-2.55514 0.5201,-3.82021 0.24044,-1.33638 0.27437,-2.69058 0.38459,-4.0429 0.0895,-1.43359 -6.7e-4,-2.85322 -0.22731,-4.27353 -0.40406,-2.82842 3.59594,-3.39985 4,-0.57142 z"
       inkscape:connector-curvature="0" />
    <path
       style="fill:#1a1a1a"
       id="path4106"
       d="m 521.46741,103.81179 c 1.55757,-0.37835 3.09712,-0.81923 4.64008,-1.25244 1.63836,-0.59914 3.34823,-0.92547 5.07626,-1.11951 1.39335,-0.13306 2.79377,-0.14294 4.19213,-0.14687 1.13417,0.008 2.2672,-0.0388 3.39517,0.0868 1.0689,0.15747 2.00457,0.66483 2.84285,1.32147 0.88307,0.77012 1.20047,1.80121 1.31796,2.92657 0.1413,1.12202 -0.14281,2.16479 -0.60811,3.17456 -0.56036,1.02909 -1.31474,1.91914 -2.13314,2.7496 -0.98169,0.87419 -2.04904,1.64178 -3.17342,2.32007 -1.07223,0.58898 -2.26183,0.89462 -3.40771,1.29717 -0.9828,0.37829 -2.00076,0.59787 -3.04404,0.71628 -0.57181,-0.0321 -0.97069,0.13857 -1.50411,0.29502 -0.23437,0.0682 -0.46915,0.13505 -0.70459,0.1995 -1.32676,0.3478 -0.80635,0.008 0.16077,-3.8436 0.0273,-0.10875 0.6785,0.26385 1.25416,0.57642 1.23464,0.80334 2.40906,1.69417 3.64614,2.49351 1.35006,0.94017 2.77691,1.75872 4.17427,2.62512 1.34742,0.80905 2.62711,1.7201 3.9692,2.53773 0.77544,0.41108 1.36247,1.04251 1.74152,1.8245 0.51893,1.35706 -0.19013,1.49212 -1.28202,2.87574 -2.6515,1.06434 -4.15671,-2.68544 -1.50521,-3.74978 l 0,0 c -0.67707,1.08143 -1.35178,1.44035 -0.91713,2.48781 0.13796,0.25186 0.46307,0.39685 -0.14045,0.0118 -1.35069,-0.82395 -2.642,-1.73631 -3.99621,-2.55435 -1.42007,-0.88178 -2.87056,-1.7149 -4.24405,-2.66942 -1.16675,-0.76029 -2.29319,-1.57913 -3.44029,-2.36843 -1.24123,-0.79796 0.0591,-4.09885 -0.47781,-4.1469 0.20888,-0.0571 0.41706,-0.11671 0.62503,-0.17705 0.71902,-0.21067 1.43579,-0.44384 2.19497,-0.43353 0.74824,-0.0804 1.46979,-0.23964 2.17234,-0.52012 0.88985,-0.30304 1.80128,-0.55405 2.65688,-0.94849 0.84032,-0.49122 1.61459,-1.07644 2.36886,-1.69028 0.50294,-0.5062 0.96847,-1.02778 1.3519,-1.63276 0.2022,-0.40748 0.31176,-0.6086 0.23917,-1.07414 -0.0233,-0.36507 -0.0344,-0.26548 0.18864,-0.14121 -0.2589,-0.21374 -0.53334,-0.42281 -0.87124,-0.47908 -0.91172,-0.21054 -1.91429,0.0639 -2.83918,-0.05 -1.25472,0.003 -2.51131,0.009 -3.76198,0.12272 -1.51134,0.16139 -2.99702,0.46666 -4.42705,0.99374 -1.4803,0.41411 -2.95406,0.85061 -4.45281,1.19502 -2.71052,0.9035 -3.98828,-2.92976 -1.27775,-3.83326 z"
       inkscape:connector-curvature="0" />
    <path
       style="fill:#1a1a1a"
       id="path4108"
       d="m 363.87034,117.34966 c 0.84868,0.87296 1.7484,1.69291 2.68203,2.47386 0.86174,0.652 1.67499,1.3764 2.56474,1.99097 1.03709,0.63048 2.11138,1.18197 3.19113,1.73506 1.45769,0.84096 3.02899,1.45337 4.60312,2.0356 1.87071,0.60147 3.75465,1.15353 5.63099,1.73774 2.08958,0.65133 4.22594,1.14351 6.36031,1.62348 2.3202,0.54841 4.608,1.21986 6.91032,1.83591 2.20191,0.60497 4.42965,1.10485 6.65421,1.61653 1.74344,0.39362 3.50187,0.71622 5.25098,1.08255 1.89655,0.36742 3.79719,0.70235 5.718,0.9142 2.13965,0.18493 4.28408,0.20078 6.42307,0.39598 1.8769,0.17405 3.75625,0.26738 5.62932,0.48026 1.96202,0.1608 3.90643,0.46862 5.86499,0.66223 2.17107,0.18682 4.35206,0.19988 6.52959,0.21743 2.25676,0.0118 4.51357,0.008 6.77035,0.006 1.99554,-0.002 3.99108,-0.003 5.98662,-0.003 2.16107,0.0727 4.30972,-0.0545 6.46228,-0.22287 2.03349,-0.11579 4.06404,-0.30318 6.07829,-0.60823 1.84673,-0.25106 3.68702,-0.52523 5.52619,-0.82632 1.37485,-0.28883 2.74789,-0.58034 4.09666,-0.97549 1.55533,-0.39277 3.10694,-0.80507 4.68355,-1.10521 1.28612,-0.24501 2.52839,-0.65021 3.768,-1.06285 0.91524,-0.32535 1.88969,-0.56348 2.76975,-0.98098 0.8259,-0.33245 1.67219,-0.61379 2.5093,-0.91766 -0.24324,0.0329 -0.34997,0.18406 -0.46234,0.38594 -0.59335,1.67485 0.23915,0.33262 1.7874,-1.25533 2.84576,-0.25476 3.20605,3.76976 0.36029,4.02452 l 0,0 c 1.84378,-2.12387 2.02201,-2.69667 1.51853,-1.07057 -0.39964,0.78033 -1.01468,1.35769 -1.82519,1.71356 -0.75872,0.2754 -1.52512,0.53195 -2.27656,0.82492 -1.01231,0.42478 -2.0592,0.77779 -3.105,1.10938 -1.41141,0.46982 -2.82999,0.9208 -4.29413,1.19945 -1.45049,0.27146 -2.87468,0.66169 -4.30653,1.01507 -1.50607,0.43441 -3.03491,0.7728 -4.57112,1.08281 -1.85751,0.3039 -3.71637,0.58077 -5.58132,0.83496 -2.10895,0.31186 -4.23205,0.52315 -6.36076,0.64034 -2.25684,0.17647 -4.51102,0.30643 -6.77648,0.23517 -1.99456,4e-4 -3.98912,0.001 -5.98368,0.003 -2.26893,0.002 -4.53788,0.006 -6.80679,-0.006 -2.29994,-0.0187 -4.60348,-0.0351 -6.89627,-0.23709 -1.97767,-0.19729 -3.94134,-0.50421 -5.92246,-0.66835 -1.84344,-0.21002 -3.69378,-0.29606 -5.54091,-0.47118 -2.16456,-0.1989 -4.3364,-0.20015 -6.50093,-0.40387 -2.04974,-0.22933 -4.07956,-0.58054 -6.1033,-0.97598 -1.77349,-0.37474 -3.55832,-0.69666 -5.32609,-1.09909 -2.27082,-0.52352 -4.54533,-1.03318 -6.79321,-1.65115 -2.2496,-0.60345 -4.48584,-1.25746 -6.75236,-1.79698 -2.24,-0.50516 -4.48195,-1.02243 -6.67482,-1.70776 -1.94311,-0.60613 -3.89624,-1.17317 -5.831,-1.80586 -1.72404,-0.63823 -3.44247,-1.31554 -5.04301,-2.22883 -1.24716,-0.63885 -2.48861,-1.28212 -3.67623,-2.02822 -0.97222,-0.6936 -1.88562,-1.46742 -2.83137,-2.19595 -1.02389,-0.85798 -2.01218,-1.75844 -2.94529,-2.71483 -2.02031,-2.0203 0.83683,-4.87744 2.85714,-2.85714 z"
       inkscape:connector-curvature="0" />
    <path
       style="fill:#1a1a1a"
       id="path4110"
       d="m 487.26649,133.58534 c 1.27016,-0.42486 2.45523,-1.02204 3.59637,-1.71337 0.7769,-0.47903 1.39684,-1.15624 2.08282,-1.75006 0.11458,-0.19036 0.24596,-0.41022 0.44542,-0.80324 0.0842,-0.27954 0.0461,-0.9814 0.0761,0.20023 0.10196,0.41477 -0.6637,-0.27295 -0.81131,-0.35987 -1.24976,-0.68685 -2.59679,-1.16835 -3.92268,-1.683 -1.2082,-0.45734 -2.46132,-0.76594 -3.67945,-1.19581 -0.41912,-0.16661 -0.85221,-0.20667 -1.29704,-0.226 -0.37437,-0.0135 -0.74907,-0.0109 -1.12359,-0.007 -0.72327,9.7e-4 -0.0542,0.22438 1.37776,-0.73961 0.14968,-0.10076 0.19065,-0.30739 0.26695,-0.4709 0.0425,-0.0911 -0.003,-0.244 0.0875,-0.28867 0.0737,-0.0365 -0.002,0.16443 -0.003,0.24665 -0.009,1.53578 -0.001,3.07162 10e-4,4.60741 0.11031,1.51585 -0.15651,3.07361 0.0532,4.58123 0.12335,0.54623 0.18734,1.10649 0.40265,1.62352 0.0566,0.14158 0.17337,0.37028 0.23193,0.47187 0.0926,0.25352 0.18517,0.50704 0.27775,0.76056 0.53662,2.8063 -3.43209,3.56519 -3.9687,0.75889 l 0,0 c 0.0818,0.19702 0.16355,0.39404 0.24533,0.59106 -0.21138,-0.3514 -0.38781,-0.72252 -0.5455,-1.10083 -0.33147,-0.8625 -0.51521,-1.76422 -0.66118,-2.67554 -0.15348,-1.6624 -0.0361,-3.3366 -0.0761,-5.00427 -0.003,-1.57148 -0.0106,-3.14302 1.4e-4,-4.71447 0.0428,-1.34086 0.51123,-2.69833 2.26943,-2.68731 0.45526,-0.005 0.91074,-0.007 1.36575,0.0119 0.83281,0.0448 1.65636,0.15715 2.44227,0.45207 1.25619,0.44514 2.55426,0.75015 3.79554,1.23887 1.54466,0.60045 3.11202,1.16948 4.55549,1.99487 1.09791,0.67764 2.22422,1.41527 2.60661,2.72553 0.1223,1.05258 0.0833,1.77516 -0.37558,2.73982 -0.37777,0.7265 -0.78756,1.45008 -1.39726,2.01121 -0.85842,0.73767 -1.63891,1.57663 -2.62973,2.14732 -1.4478,0.87626 -2.96417,1.62082 -4.57921,2.14216 -2.74721,0.78491 -3.85725,-3.10023 -1.11004,-3.88515 z"
       inkscape:connector-curvature="0" />
    <path
       style="fill:#1a1a1a"
       id="path4112"
       d="m 422.7168,90.155946 c 0.57901,1.097525 1.24688,2.145485 1.80728,3.252035 0.53206,0.8072 0.87376,1.71599 1.19181,2.62313 0.18324,0.86316 0.53514,1.66879 0.77725,2.51375 0.23469,0.83973 0.27138,1.712969 0.29466,2.579149 -0.0979,1.20592 -0.7386,2.18202 -1.28424,3.21763 -0.37112,0.83361 -1.05245,1.38357 -1.80035,1.85312 -0.87058,0.3487 -1.7708,0.65548 -2.68165,0.88907 -0.57663,0.13502 -1.15909,0.23864 -1.7503,0.27549 -0.39981,0.0152 -0.79999,0.0109 -1.19997,0.008 -1.24603,0.0438 -2.03561,-0.79159 -2.3305,-1.86232 -0.084,-0.36259 -0.072,-0.73656 -0.0684,-1.10593 -0.0593,-1.09773 0.52585,-1.98796 1.14637,-2.83128 0.73403,-0.8859 1.61565,-1.616819 2.4904,-2.355509 1.01132,-0.72149 2.04157,-1.41882 3.08034,-2.10038 1.01248,-0.6136 1.851,-1.45093 2.79711,-2.15527 0.81409,-0.61757 1.67942,-1.16061 2.51026,-1.7538 0.83345,-0.62899 1.67363,-1.24846 2.49164,-1.8985 0.57126,-0.42058 1.06661,-0.910041 1.53115,-1.412718 0.4661,-0.538215 0.95055,-0.800424 1.59082,-1.113306 1.44996,-0.327404 1.3096,0.120674 2.91964,1.355499 0.17794,0.574405 0.16999,1.169115 0.16592,1.762345 -0.0235,0.50607 0.0184,-0.0215 0.0186,-0.0855 1.41099,2.48443 -2.10251,4.47987 -3.5135,1.99545 l 0,0 c -0.31218,-0.61397 -0.59314,-1.22305 -0.54556,-1.93831 6.9e-4,-0.0967 -0.0471,-0.88255 0.0675,-0.38033 1.75377,1.17239 1.14087,1.41159 2.02572,1.16781 1.12899,-0.62674 0.44176,-0.26641 0.20892,0.0103 -0.62852,0.6283 -1.22662,1.28639 -1.95903,1.80514 -0.87512,0.69234 -1.77187,1.35529 -2.66246,2.02671 -0.81665,0.57741 -1.65998,1.11413 -2.45914,1.7169 -1.01673,0.72811 -1.881,1.65878 -2.97756,2.280279 -0.90388,0.58733 -1.78411,1.21106 -2.68368,1.80509 -0.64292,0.54269 -1.29938,1.06793 -1.86499,1.69309 -0.10777,0.13844 -0.17474,0.3212 -0.3223,0.41611 -0.0834,0.0536 -0.009,-0.19805 -0.0132,-0.29708 -0.005,-0.10885 0.002,0.3756 -0.003,0.32685 -0.002,0.17503 0.0127,0.50848 -0.04,0.13578 -0.29343,-0.90401 -0.91053,-0.90334 -1.79057,-1.24922 -0.0662,-0.026 0.32486,0.0365 0.21327,0.002 0.31431,0.002 0.62866,0.005 0.94293,-0.002 0.34121,-0.016 0.67524,-0.0945 1.00929,-0.1631 0.54969,-0.12794 1.1034,-0.4006 1.64186,-0.47068 0.31509,-0.19952 -0.0979,0.3029 0.24041,-0.23575 0.17779,-0.33649 0.37612,-0.66261 0.55628,-0.99657 0.13478,-0.24984 0.21982,-0.51671 0.23668,-0.50988 0.0866,0.0351 0.0171,0.18614 0.0256,0.27921 -0.0133,-0.53738 -0.0152,-1.08352 -0.14996,-1.607219 -0.19516,-0.76649 -0.56364,-1.48346 -0.70098,-2.26846 -0.25487,-0.75057 -0.54851,-1.48056 -0.99057,-2.14401 -0.53852,-1.11334 -1.25264,-2.13772 -1.80427,-3.24601 -1.27775,-2.555505 2.33628,-4.362521 3.61403,-1.807015 z"
       inkscape:connector-curvature="0" />
    <path
       style="fill:#1a1a1a"
       id="path4124"
       d="m 447.53769,81.237706 c 0.32841,1.893871 0.0369,3.768771 -0.38021,5.61826 -0.38732,1.545926 -0.99946,3.021835 -1.40136,4.562425 -0.21029,1.13375 -0.44338,2.2634 -0.69713,3.38862 -0.26478,1.45558 -0.61739,2.89324 -0.86769,4.35152 -0.1013,0.69694 -0.18685,1.396939 -0.23354,2.099859 -0.005,0.14142 -0.003,0.0683 -0.005,-0.0318 0.14222,2.8536 -3.89338,3.05473 -4.0356,0.20113 l 0,0 c -0.004,-0.14754 -0.003,-0.29491 0.009,-0.44218 0.0577,-0.84191 0.15687,-1.680749 0.28332,-2.515009 0.26546,-1.52773 0.62689,-3.03577 0.90944,-4.56024 0.26938,-1.17009 0.49535,-2.34817 0.73067,-3.524973 0.39865,-1.492006 0.95675,-2.931909 1.36666,-4.420966 0.31087,-1.369383 0.58236,-2.748345 0.32123,-4.155257 -0.40406,-2.828427 3.59594,-3.399856 4,-0.571429 z"
       inkscape:connector-curvature="0" />
    <path
       style="fill:#1a1a1a"
       id="path4126"
       d="m 450.54979,82.110662 c -1.4384,0 -2.8768,0 -4.3152,0 -1.06869,0 -2.13738,0 -3.20606,0 -0.6388,0 -1.2776,0 -1.9164,0 -0.18884,0 -0.37769,0 -0.56654,0 -0.25759,-0.02737 -1.34148,0.05816 -0.28184,-0.04619 -2.70637,0.915865 -4.0016,-2.911525 -1.29523,-3.82739 l 0,0 c 0.54567,-0.11032 1.02781,-0.207014 1.57707,-0.167026 0.18885,0 0.3777,0 0.56654,0 0.6388,0 1.2776,0 1.9164,0 1.06868,0 2.13737,0 3.20606,0 1.4384,0 2.8768,0 4.3152,0 2.85714,0 2.85714,4.04061 0,4.04061 z"
       inkscape:connector-curvature="0" />
    <path
       style="fill:#1a1a1a"
       id="path4128"
       d="m 445.7788,105.26345 c -1.53394,-0.21565 -3.08152,-0.30289 -4.62785,-0.36942 -1.0213,-0.0381 -2.04327,-0.0543 -3.06522,-0.0583 -0.6123,-5e-4 -1.2246,0.001 -1.8369,0.002 -0.46417,5.9e-4 -0.92834,9.6e-4 -1.3925,0.001 -0.15724,3e-5 -0.31448,5e-5 -0.47173,3e-5 -0.0105,1e-5 -0.0211,-10e-6 -0.0317,-2e-5 -2.85714,-0.006 -2.84803,-4.04704 0.009,-4.0406 l 0,0 c 0.008,0 0.0155,1e-5 0.0232,1e-5 0.15665,2e-5 0.31329,0 0.46994,-3e-5 0.4625,-1.3e-4 0.925,-4.9e-4 1.3875,-10e-4 0.61966,-9.4e-4 1.23932,-0.003 1.85898,-0.002 1.0748,0.004 2.14962,0.0215 3.22371,0.062 1.67913,0.0729 3.35935,0.17069 5.02483,0.40626 2.82843,0.40406 2.257,4.40406 -0.57143,4 z"
       inkscape:connector-curvature="0" />
  </g>
</svg>
