<?xml version="1.0" encoding="utf-8" standalone="no"?>
<!DOCTYPE svg PUBLIC "-//W3C//DTD SVG 1.1//EN"
  "http://www.w3.org/Graphics/SVG/1.1/DTD/svg11.dtd">
<!-- Created with matplotlib (http://matplotlib.org/) -->
<svg height="336pt" version="1.1" viewBox="0 0 451 336" width="451pt" xmlns="http://www.w3.org/2000/svg" xmlns:xlink="http://www.w3.org/1999/xlink">
 <defs>
  <style type="text/css">
*{stroke-linecap:butt;stroke-linejoin:round;}
  </style>
 </defs>
 <g id="figure_1">
  <g id="patch_1">
   <path d="
M0 336.069
L451.733 336.069
L451.733 0
L0 0
z
" style="fill:#ffffff;"/>
  </g>
  <g id="axes_1">
   <g id="patch_2">
    <path d="
M83.3438 277.094
L428.944 277.094
L428.944 17.8937
L83.3438 17.8937
z
" style="fill:#ffffff;"/>
   </g>
   <g id="line2d_1">
    <path clip-path="url(#p028d3d8434)" d="
M83.3472 17.9197
L86.1673 38.2282
L88.9908 56.9674
L91.8178 74.2568
L94.6482 90.2069
L97.4821 104.92
L100.319 118.491
L103.16 131.006
L106.008 142.561
L108.863 153.227
L111.724 163.07
L114.596 172.162
L117.478 180.558
L120.374 188.318
L123.284 195.487
L126.212 202.114
L129.159 208.245
L132.132 213.918
L135.135 219.177
L138.169 224.045
L141.242 228.557
L144.359 232.744
L147.528 236.63
L150.756 240.238
L154.053 243.591
L157.429 246.71
L160.896 249.609
L164.469 252.309
L168.164 254.822
L172 257.162
L175.995 259.338
L180.176 261.361
L184.572 263.24
L189.217 264.983
L194.152 266.594
L199.423 268.079
L205.091 269.443
L211.228 270.688
L217.929 271.817
L225.318 272.833
L233.554 273.736
L242.868 274.529
L253.581 275.213
L266.192 275.788
L281.505 276.255
L300.969 276.616
L327.566 276.873
L369.104 277.027
L428.944 277.082
L428.944 277.082" style="fill:none;stroke:#ff0000;stroke-linecap:square;stroke-width:3.0;"/>
   </g>
   <g id="patch_3">
    <path d="
M83.3438 17.8937
L428.944 17.8937" style="fill:none;stroke:#000000;stroke-linecap:square;stroke-linejoin:miter;"/>
   </g>
   <g id="patch_4">
    <path d="
M428.944 277.094
L428.944 17.8937" style="fill:none;stroke:#000000;stroke-linecap:square;stroke-linejoin:miter;"/>
   </g>
   <g id="patch_5">
    <path d="
M83.3438 277.094
L428.944 277.094" style="fill:none;stroke:#000000;stroke-linecap:square;stroke-linejoin:miter;"/>
   </g>
   <g id="patch_6">
    <path d="
M83.3438 277.094
L83.3438 17.8937" style="fill:none;stroke:#000000;stroke-linecap:square;stroke-linejoin:miter;"/>
   </g>
   <g id="matplotlib.axis_1">
    <g id="xtick_1">
     <g id="line2d_2">
      <defs>
       <path d="
M0 0
L0 -4" id="m93b0483c22" style="stroke:#000000;stroke-width:0.5;"/>
      </defs>
      <g>
       <use style="stroke:#000000;stroke-width:0.5;" x="83.34375" xlink:href="#m93b0483c22" y="277.09375"/>
      </g>
     </g>
     <g id="line2d_3">
      <defs>
       <path d="
M0 0
L0 4" id="m741efc42ff" style="stroke:#000000;stroke-width:0.5;"/>
      </defs>
      <g>
       <use style="stroke:#000000;stroke-width:0.5;" x="83.34375" xlink:href="#m741efc42ff" y="17.89375"/>
      </g>
     </g>
     <g id="text_1">
      <!-- 0 -->
      <defs>
       <path d="
M29.8281 -1.90625
Q14.9844 -1.90625 8.15625 11.6719
Q2.98438 22.125 2.98438 38.875
Q2.98438 53.0312 9.71875 63.5781
Q17.6719 75.9219 31.3438 75.9219
Q44.1875 75.9219 51.375 64.9844
Q57.5625 55.5156 57.5625 41.8906
Q57.5625 20.0156 50.625 9.04688
Q43.7031 -1.90625 29.8281 -1.90625
M31.2969 66.5
Q22.2188 66.5 16.8906 57.2812
Q12.4531 49.5625 12.4531 39.6562
Q12.4531 23.5781 16.7969 15.5156
Q21.1406 7.46875 29.8281 7.46875
Q40.1875 7.46875 44.6719 19.2812
Q47.7969 27.4844 47.7969 40.0938
Q47.7969 53.3281 43.6719 59.9062
Q39.5469 66.5 31.2969 66.5" id="ComicSansMS-30"/>
      </defs>
      <g transform="translate(77.8859375 296.80625)scale(0.2 -0.2)">
       <use xlink:href="#ComicSansMS-30"/>
      </g>
     </g>
    </g>
    <g id="xtick_2">
     <g id="line2d_4">
      <g>
       <use style="stroke:#000000;stroke-width:0.5;" x="152.46375" xlink:href="#m93b0483c22" y="277.09375"/>
      </g>
     </g>
     <g id="line2d_5">
      <g>
       <use style="stroke:#000000;stroke-width:0.5;" x="152.46375" xlink:href="#m741efc42ff" y="17.89375"/>
      </g>
     </g>
     <g id="text_2">
      <!-- 20 -->
      <defs>
       <path d="
M49.2188 -0.09375
Q48 -0.09375 45.7812 0.65625
Q43.5625 1.42188 42.3906 1.42188
Q39.8906 1.42188 34.9062 1.125
Q29.9375 0.828125 27.3906 0.828125
Q25.4844 0.828125 21.75 0.34375
Q18.0156 -0.140625 16.1094 -0.140625
Q15.5781 -0.140625 14.5469 0.046875
Q13.5312 0.25 12.9844 0.25
Q9.625 0.25 8.59375 3.51562
Q8.01562 5.21875 8.01562 9.375
Q8.01562 20.75 14.2031 27.6875
Q17.0469 30.8594 29.5 39.4062
Q36.4688 44.1875 38.8125 46.875
Q43.0156 51.5625 43.0156 57.8594
Q43.0156 60.9844 38.9688 63.4219
Q35.4062 65.625 31.9844 65.625
Q27.4844 65.625 23.4375 63.0312
L16.4531 57.5625
Q14.3594 55.9062 13.0938 55.9062
Q8.0625 55.9062 8.0625 59.9062
Q8.0625 62.2031 9.90625 63.875
Q15.625 69.2344 19.8281 71.625
Q25.7344 75 31.9844 75
Q39.8906 75 46.0938 70.7031
Q53.0312 65.875 53.0312 58.2969
Q53.0312 53.3281 51.6094 49.125
Q50.2031 44.9219 47.3125 41.4531
Q43.6562 37.0625 34.9062 31.6406
Q25.7344 25.875 22.8594 22.9062
Q17.4375 17.2812 17.5312 9.28125
L27.5938 10.2031
Q37.9375 10.7969 42.3906 10.7969
Q46.0938 10.7969 49.4219 9.51562
Q53.8125 7.8125 53.8125 4.78125
Q53.8125 2.875 52.4844 1.39062
Q51.1719 -0.09375 49.2188 -0.09375" id="ComicSansMS-32"/>
      </defs>
      <g transform="translate(141.4059375 296.80625)scale(0.2 -0.2)">
       <use xlink:href="#ComicSansMS-32"/>
       <use x="61.03515625" xlink:href="#ComicSansMS-30"/>
      </g>
     </g>
    </g>
    <g id="xtick_3">
     <g id="line2d_6">
      <g>
       <use style="stroke:#000000;stroke-width:0.5;" x="221.58375" xlink:href="#m93b0483c22" y="277.09375"/>
      </g>
     </g>
     <g id="line2d_7">
      <g>
       <use style="stroke:#000000;stroke-width:0.5;" x="221.58375" xlink:href="#m741efc42ff" y="17.89375"/>
      </g>
     </g>
     <g id="text_3">
      <!-- 40 -->
      <defs>
       <path d="
M47.0781 21.3438
L47.0781 3.26562
Q47.0781 -1.26562 42.625 -1.26562
Q37.4531 -1.26562 37.4531 5.8125
Q37.4531 6.6875 37.5469 8.29688
Q37.6406 9.90625 37.6406 10.5
L37.5938 21.5781
L16.0625 22.125
Q9.375 22.125 6.78125 22.5625
Q2.34375 23.2969 2.34375 26.0312
Q2.34375 28.2188 5.03125 31.5938
L9.23438 36.5781
L33.25 71.625
Q36.5312 76.1719 41.5469 76.1719
Q47.0781 76.1719 47.0781 71.3906
L47.0781 30.8125
Q47.9062 30.8594 49.0781 30.8594
Q58.0625 30.8594 58.0625 26.0312
Q58.0625 22.5156 54.3438 21.5781
Q52.6875 21.1406 47.0781 21.3438
M37.5938 62.6406
Q24.5625 41.8438 17.2344 31.5
L37.5938 31
z
" id="ComicSansMS-34"/>
      </defs>
      <g transform="translate(209.95875 296.80625)scale(0.2 -0.2)">
       <use xlink:href="#ComicSansMS-34"/>
       <use x="61.03515625" xlink:href="#ComicSansMS-30"/>
      </g>
     </g>
    </g>
    <g id="xtick_4">
     <g id="line2d_8">
      <g>
       <use style="stroke:#000000;stroke-width:0.5;" x="290.70375" xlink:href="#m93b0483c22" y="277.09375"/>
      </g>
     </g>
     <g id="line2d_9">
      <g>
       <use style="stroke:#000000;stroke-width:0.5;" x="290.70375" xlink:href="#m741efc42ff" y="17.89375"/>
      </g>
     </g>
     <g id="text_4">
      <!-- 60 -->
      <defs>
       <path d="
M29.1562 -3.51562
Q16.4062 -3.51562 10.4062 5.8125
Q5.42188 13.4844 5.42188 26.2656
Q5.42188 50.3906 25 68.1094
L29.5938 72.75
Q32.9531 75.9844 34.6719 75.9844
Q36.625 75.9844 38.0781 74.5781
Q39.5469 73.1875 39.5938 71.2969
Q39.7031 69.5312 34.625 64.5
L24.6562 54.7812
Q20.7031 50.7812 17.875 42.6719
Q22.125 44.625 25.2969 45.5781
Q28.4688 46.5312 30.5156 46.5312
Q41.9375 46.5312 48.0469 40.4219
Q54.1562 34.3281 54.1562 23.1875
Q54.1562 11.5312 47.5625 4.15625
Q40.6719 -3.51562 29.1562 -3.51562
M29.1562 36.5781
Q24.9531 36.5781 21.625 35.1094
Q20.3594 34.5156 15.2344 31.3438
Q14.9375 28.7656 14.9375 26.2656
Q14.9375 17.5312 17.875 12.0156
Q21.5781 4.98438 29.4375 4.98438
Q36.8125 4.98438 40.875 10.25
Q44.625 15.1406 44.625 23.1875
Q44.625 29.8906 40.7656 33.2344
Q36.9219 36.5781 29.1562 36.5781" id="ComicSansMS-36"/>
      </defs>
      <g transform="translate(279.3865625 296.80625)scale(0.2 -0.2)">
       <use xlink:href="#ComicSansMS-36"/>
       <use x="61.03515625" xlink:href="#ComicSansMS-30"/>
      </g>
     </g>
    </g>
    <g id="xtick_5">
     <g id="line2d_10">
      <g>
       <use style="stroke:#000000;stroke-width:0.5;" x="359.82375" xlink:href="#m93b0483c22" y="277.09375"/>
      </g>
     </g>
     <g id="line2d_11">
      <g>
       <use style="stroke:#000000;stroke-width:0.5;" x="359.82375" xlink:href="#m741efc42ff" y="17.89375"/>
      </g>
     </g>
     <g id="text_5">
      <!-- 80 -->
      <defs>
       <path d="
M29.9844 -2.64062
Q19.6719 -2.64062 13.3281 1.85938
Q6.10938 6.9375 5.95312 16.75
Q5.76562 32.5156 17.0469 38.2344
Q8.34375 43.5 8.34375 53.2188
Q8.34375 62.4531 15.0469 68.5625
Q21.4375 74.4219 30.5625 74.5156
Q51.0781 74.7031 51.0781 54.25
Q51.0781 48.3906 48.7344 45.2188
Q46.8281 42.5781 41.3594 39.7969
Q48.6406 36.1406 51.5625 31.8906
Q54.9844 26.9062 54.9844 18.1719
Q54.9844 8.20312 47.6094 2.54688
Q40.7656 -2.64062 29.9844 -2.64062
M30.4219 65.7656
Q24.125 65.7656 20.7969 62.2031
Q17.8281 58.8906 17.875 53.2188
Q17.9219 46.3906 29.1094 43.5
Q34.9688 45.2188 37.5 46.9219
Q41.5469 49.6562 41.5469 54.25
Q41.5469 60.8906 38.5781 63.5781
Q36.0312 65.7656 30.4219 65.7656
M29.5469 34.8594
Q21.7812 31.25 19.1875 28.6094
Q15.1406 24.5625 15.375 17.1875
Q15.5781 11.0781 21 8.0625
Q24.9531 5.90625 29.9844 5.90625
Q38.5781 5.90625 42 9.96875
Q44.7344 13.1875 44.7344 19.7344
Q44.7344 26.125 39.75 30.0312
Q36.4219 32.7188 29.5469 34.8594" id="ComicSansMS-38"/>
      </defs>
      <g transform="translate(348.5409375 296.80625)scale(0.2 -0.2)">
       <use xlink:href="#ComicSansMS-38"/>
       <use x="61.03515625" xlink:href="#ComicSansMS-30"/>
      </g>
     </g>
    </g>
    <g id="xtick_6">
     <g id="line2d_12">
      <g>
       <use style="stroke:#000000;stroke-width:0.5;" x="428.94375" xlink:href="#m93b0483c22" y="277.09375"/>
      </g>
     </g>
     <g id="line2d_13">
      <g>
       <use style="stroke:#000000;stroke-width:0.5;" x="428.94375" xlink:href="#m741efc42ff" y="17.89375"/>
      </g>
     </g>
     <g id="text_6">
      <!-- 100 -->
      <defs>
       <path d="
M34.375 -0.046875
L24.6562 -0.046875
L14.9844 0
Q11.5781 0 10.2031 0.4375
Q7.71875 1.3125 7.71875 4.15625
Q7.71875 9.07812 15.375 9.07812
L17.7188 9.03125
L19.7344 8.9375
Q19.7344 11.2812 19.3125 15.8594
Q18.8906 20.4531 18.8906 22.75
Q18.8906 28.9531 20.0156 41.6094
Q21.0938 54.0469 21.0469 60.5
Q14.5 55.4219 12.7031 55.4219
Q10.75 55.4219 9.29688 56.875
Q7.85938 58.3438 7.85938 60.25
Q7.85938 62.5469 12.0625 65.8281
Q14.7031 67.6719 19.5312 71.7812
Q23.8281 76.125 27.7344 76.125
Q31 76.125 31 72.3594
Q31 71.2344 30.7031 69.0156
Q30.4219 66.7969 30.4219 65.6719
Q30.4219 64.0625 30.5938 60.7812
Q30.7656 57.5156 30.7656 55.9062
Q30.7656 50.3438 29.5938 39.2969
Q28.4219 28.2656 28.4219 22.75
Q28.4219 19.9219 28.8125 15.8594
Q29.2031 11.8125 29.25 9.23438
L34.375 9.32812
Q36.4219 9.32812 37.7656 7.98438
Q39.1094 6.64062 39.1094 4.64062
Q39.1094 2.59375 37.7656 1.26562
Q36.4219 -0.046875 34.375 -0.046875" id="ComicSansMS-31"/>
      </defs>
      <g transform="translate(413.3546875 296.80625)scale(0.2 -0.2)">
       <use xlink:href="#ComicSansMS-31"/>
       <use x="45.01953125" xlink:href="#ComicSansMS-30"/>
       <use x="106.0546875" xlink:href="#ComicSansMS-30"/>
      </g>
     </g>
    </g>
    <g id="text_7">
     <!-- distance [km] -->
     <defs>
      <path d="
M21.3906 -20.125
Q22.5156 -20.125 24.7031 -20.2344
Q26.9062 -20.3594 27.9844 -20.3594
Q34.2812 -20.3594 34.2812 -14.6562
Q34.2812 -5.71875 33.5625 19.7031
Q32.8594 45.125 32.8594 54.0469
L33.6406 68.8438
L33.6875 69.5312
Q33.7969 71.3906 32.5469 72.7969
Q31.2969 74.2188 29.3906 74.2188
Q27.875 74.2188 24.9219 74.0938
Q21.9688 73.9688 20.5156 73.9688
Q19.5781 73.9688 17.75 74.0938
Q15.9219 74.2188 14.9844 74.2188
Q10.5 74.2188 10.5 69.4844
Q10.5 65.1406 14.5938 64.75
Q18.7031 64.3594 24.5625 64.5938
Q24.2188 60.2031 24.2188 54.6875
L24.8594 21.9219
L25.6406 -10.7969
L21.3906 -10.6406
Q19.9688 -10.6406 17.1094 -10.7656
Q14.2656 -10.8906 12.8438 -10.8906
Q10.9375 -10.8906 9.76562 -12.2812
Q8.59375 -13.6719 8.59375 -15.625
Q8.59375 -17.5781 9.76562 -18.9688
Q10.9375 -20.3594 12.8438 -20.3594
Q14.2656 -20.3594 17.1094 -20.2344
Q19.9688 -20.125 21.3906 -20.125" id="ComicSansMS-5d"/>
      <path id="ComicSansMS-20"/>
      <path d="
M21.4844 -20.125
Q20.4062 -20.125 18.2031 -20.2344
Q16.0156 -20.3594 14.8906 -20.3594
Q8.59375 -20.3594 8.59375 -14.6562
Q8.59375 -5.71875 9.29688 19.7031
Q10.0156 45.125 10.0156 54.0469
L9.23438 68.8438
L9.1875 69.5312
Q9.07812 71.3906 10.3281 72.7969
Q11.5781 74.2188 13.5312 74.2188
Q14.9844 74.2188 17.9375 74.0938
Q20.9062 73.9688 22.3594 73.9688
Q23.2969 73.9688 25.125 74.0938
Q26.9531 74.2188 27.875 74.2188
Q32.375 74.2188 32.375 69.4844
Q32.375 65.1406 28.2656 64.75
Q24.1719 64.3594 18.3594 64.5938
Q18.6562 60.2031 18.6562 54.6875
L18.0156 21.9219
L17.2344 -10.7969
L21.4844 -10.6406
Q22.9062 -10.6406 25.75 -10.7656
Q28.6094 -10.8906 30.0312 -10.8906
Q31.9844 -10.8906 33.125 -12.2812
Q34.2812 -13.6719 34.2812 -15.625
Q34.2812 -17.5781 33.125 -18.9688
Q31.9844 -20.3594 30.0312 -20.3594
Q28.6094 -20.3594 25.75 -20.2344
Q22.9062 -20.125 21.4844 -20.125" id="ComicSansMS-5b"/>
      <path d="
M16.1094 61.8125
Q13.7656 61.8125 12.0625 63.4688
Q10.3594 65.1406 10.3594 67.4844
Q10.3594 69.8281 12.0625 71.4844
Q13.7656 73.1406 16.1094 73.1406
Q18.4531 73.1406 20.1406 71.4844
Q21.8281 69.8281 21.8281 67.4844
Q21.8281 65.1406 20.1406 63.4688
Q18.4531 61.8125 16.1094 61.8125
M18.3125 22.1719
Q18.3125 19.2344 18.4844 13.3906
Q18.6562 7.5625 18.6562 4.64062
Q18.6562 2.48438 17.3281 1.10938
Q16.0156 -0.25 13.875 -0.25
Q11.7656 -0.25 10.4219 1.10938
Q9.07812 2.48438 9.07812 4.64062
Q9.07812 7.5625 8.90625 13.3906
Q8.73438 19.2344 8.73438 22.1719
Q8.73438 26.7656 9.21875 33.625
Q9.71875 40.4844 9.71875 45.0625
Q9.71875 47.2656 11.0625 48.625
Q12.4062 50 14.5 50
Q16.6094 50 17.9375 48.625
Q19.2812 47.2656 19.2812 45.0625
Q19.2812 40.4844 18.7969 33.625
Q18.3125 26.7656 18.3125 22.1719" id="ComicSansMS-69"/>
      <path d="
M29.5938 -2.25
Q18.5625 -2.25 11.7188 3.26562
Q4.25 9.375 4.25 20.3594
Q4.25 33.0625 10.4062 41.6562
Q17.0938 51.0312 28.2656 51.0312
Q36.375 51.0312 41.5 48.2969
Q47.7969 44.9219 47.7969 37.9375
Q47.7969 33.0625 42.2812 29.0469
Q39.8438 27.2969 31.9375 23.5781
L13.2812 14.75
Q16.0156 10.6875 20.0938 8.64062
Q24.1719 6.59375 29.5938 6.59375
Q32.9531 6.59375 37.5 7.85938
Q43.2656 9.46875 44.9219 12.0781
Q46.5781 14.7031 48.4844 14.7031
Q50.2031 14.7031 51.5312 13.4062
Q52.875 12.1094 52.875 10.4062
Q52.875 4.98438 44.1406 1.07812
Q36.6719 -2.25 29.5938 -2.25
M28.2656 42.2344
Q22.3125 42.2344 18.3594 37.625
Q14.4062 33.0156 12.4531 23.7344
L27.4375 30.8594
Q36.2812 35.1562 40.0469 38.3281
Q35.8438 42.2344 28.2656 42.2344" id="ComicSansMS-65"/>
      <path d="
M51.7656 43.1094
Q51.1719 35.9375 51.1719 28.7656
Q51.1719 12.5 52.6875 4.20312
Q52.7812 3.51562 52.7812 3.07812
Q52.7812 1.125 51.4062 -0.140625
Q50.0469 -1.42188 48.25 -1.42188
Q45.2188 -1.42188 43.7969 2.98438
Q40.2812 0.390625 36.5 -0.921875
Q32.7188 -2.25 28.6094 -2.25
Q18.5 -2.25 11.8594 4.5
Q5.03125 11.375 5.03125 22.1719
Q5.03125 35.2031 11.9375 43.0625
Q18.8438 50.9219 29.8906 50.9219
Q35.5469 50.9219 38.625 49.1719
L43.2188 45.7969
Q43.8906 66.3594 44.8281 73.4844
Q45.4531 77.8281 49.2656 77.8281
Q53.7188 77.8281 53.7188 73.0938
Q53.7188 66.3125 51.7656 43.1094
M30.0781 41.8438
Q21.875 41.8438 17.7656 36.9844
Q13.6719 32.125 13.6719 22.3594
Q13.6719 16.0625 18.1406 11.5156
Q22.6094 6.98438 28.6094 6.98438
Q32.7188 6.98438 35.5469 8.5
Q37.2031 9.375 40.9688 12.5469
Q41.7031 13.1875 42.3906 14.0625
L42.2344 22.5156
L42.2812 28.1719
L42.3906 33.9375
Q40.5312 37.8906 37.4531 39.8594
Q34.375 41.8438 30.0781 41.8438" id="ComicSansMS-64"/>
      <path d="
M28.8594 -3.07812
Q18.8438 -3.07812 12.1562 2.98438
Q5.125 9.32812 5.125 19.7344
Q5.125 29.6406 11.7188 40.1875
Q19.0469 51.9062 28.2188 51.9062
Q33.0156 51.9062 38.9219 49.6562
Q46.3906 46.7812 46.3906 42.625
Q46.3906 40.7656 45.1719 39.3281
Q43.9531 37.8906 42.1406 37.8906
Q40.7188 37.8906 39.6719 38.7344
Q38.625 39.5938 37.6406 40.4375
Q34.7656 42.7188 28.2188 42.7188
Q23.25 42.7188 18.3594 33.8438
Q13.9219 25.6875 13.9219 19.7344
Q13.9219 13.2812 18.3125 9.57812
Q22.4062 6.10938 28.8594 6.10938
Q31.7812 6.10938 35.1094 7.67188
L40.7656 10.6875
Q42.2344 11.4688 42.875 11.4688
Q44.6719 11.4688 45.9844 10.0312
Q47.3125 8.59375 47.3125 6.73438
Q47.3125 3.17188 39.7969 -0.140625
Q33.2031 -3.07812 28.8594 -3.07812" id="ComicSansMS-63"/>
      <path d="
M44.9219 -3.21875
Q44 -3.21875 41.5469 -1.07812
Q39.3594 0.921875 38.2812 2.48438
Q33.5938 -0.046875 30.0312 -1.34375
Q26.4688 -2.64062 24.0781 -2.64062
Q12.6406 -2.64062 7.42188 3.8125
Q2.48438 9.85938 2.48438 22.3594
Q2.48438 34.1875 10.6094 42.5781
Q18.75 50.9844 30.0312 50.9844
Q34.2812 50.9844 39.5469 48.7812
Q46.1875 46.0469 46.1875 42.1875
Q46.1875 40.875 45.2188 39.8438
Q44.7344 37.9844 44.4531 33.7344
Q44.1875 29.5 44.1406 22.8594
Q44.0938 16.7969 44.9688 13.2812
Q45.4531 11.1406 48.0469 4.6875
Q48.3906 3.8125 49.1719 2.09375
L49.4688 1.26562
Q49.4688 -0.6875 48.0938 -1.95312
Q46.7344 -3.21875 44.9219 -3.21875
M34.7656 30.7188
Q34.7656 32.8125 35.0312 35.2812
Q35.2969 37.75 35.8438 40.5312
Q34.0312 41.4531 32.7344 41.8906
Q31.4531 42.3281 30.6719 42.3281
Q23.0938 42.3281 17.5938 36.1562
Q12.1094 29.9844 12.1094 21.9219
Q12.1094 13.9219 14.9375 9.90625
Q17.7812 5.90625 23.4375 5.90625
Q28.125 5.90625 31.3906 7.625
Q33.1562 8.54688 36.3281 11.3281
Q34.7656 24.2656 34.7656 30.7188" id="ComicSansMS-61"/>
      <path d="
M39.75 37.5938
Q37.0625 37.5938 35.9844 39.4062
Q35.25 40.6719 34.7188 44.6719
Q31.0625 43.75 23.4375 41.2656
Q15.5781 38.1406 15.5312 33.5469
Q17 33.0156 18.4062 32.7656
Q29.6406 30.7656 35.1094 27.25
Q43.0625 22.125 43.0625 12.4062
Q43.0625 4.4375 36.1875 0.390625
Q30.4688 -2.9375 21.7344 -2.9375
Q15.3281 -2.9375 9.51562 -0.78125
Q2 1.95312 2 6.84375
Q2 8.79688 3.53125 10.25
Q5.07812 11.7188 7.03125 11.7188
Q8.54688 11.7188 10.9375 9.375
Q12.1094 8.25 16.2188 7.51562
Q19.4844 6.9375 21.7344 6.9375
Q25.8281 6.9375 28.9531 7.90625
Q33.5 9.32812 33.5 12.4062
Q33.5 19.0469 24.2188 21.3906
L19.1406 22.5156
Q12.6406 23.9219 9.90625 25.8281
Q5.95312 28.5625 5.95312 34.0781
Q5.95312 44.2812 15.5781 48.6406
Q18.5 49.9531 24.9375 51.7812
Q31.3906 53.6094 34.1875 54.8906
Q36.1875 55.7656 38.5312 55.7656
Q40.625 55.7656 41.9688 54.3906
Q43.3125 53.0312 43.3125 50.8281
Q43.3125 49.4219 43.9219 46.6875
Q44.5312 43.9531 44.5312 42.5312
Q44.5312 40.3281 43.1875 38.9531
Q41.8438 37.5938 39.75 37.5938" id="ComicSansMS-73"/>
      <path d="
M39.4531 41.6094
Q38.4219 41.6094 37.0312 41.7031
Q35.6406 41.7969 34.625 41.7969
Q33.5 41.7969 27.9844 41.0625
L28.9062 12.2031
L28.9531 10.0625
L29 7.5625
Q29.2031 -3.125 23.875 -3.125
Q21.9219 -3.125 20.4844 -1.85938
Q19.0469 -0.59375 19.0469 1.3125
Q19.0469 3.17188 19.1875 6.875
Q19.3438 10.5938 19.3438 12.4531
L18.3594 40.9688
Q14.7969 41.1094 7.51562 41.7969
Q3.17188 42.3906 3.17188 46.625
Q3.17188 48.7812 4.48438 50.1875
Q5.8125 51.6094 7.85938 51.6094
L18.1094 50.7812
Q18.1094 53.2656 17.8906 57.4375
Q17.6719 61.625 17.6719 63.4844
Q17.6719 65.5312 19.0938 66.875
Q20.5156 68.2188 22.5625 68.2188
Q26.9531 68.2188 27.6875 61.0312
Q27.8281 59.2344 27.8281 56.6875
L27.7344 53.8594
L27.6875 50.8281
Q33.7344 51.6094 34.625 51.6094
Q39.7031 51.6094 41.2656 51.125
Q44.2344 50.1406 44.2344 46.5312
Q44.2344 44.3906 42.8906 43
Q41.5469 41.6094 39.4531 41.6094" id="ComicSansMS-74"/>
      <path d="
M44.2344 -3.46875
Q40.0469 -3.46875 39.5 1.125
L38.1406 11.8125
Q37.4531 17.5312 37.4531 22.5156
Q37.4531 23.875 37.625 27.1406
Q37.7969 30.4219 37.7969 31.7812
Q37.7969 42.3281 33.8906 42.3281
Q28.4219 42.3281 23.4375 35.8438
Q18.9531 29.9375 16.4062 20.9062
Q16.3125 19 15.9688 16.1094
Q15.6719 13.6719 15.6719 11.375
Q15.6719 9.90625 15.9688 6.96875
Q16.2656 4.04688 16.2656 2.59375
Q16.2656 0.390625 14.9219 -0.96875
Q13.5781 -2.34375 11.4688 -2.34375
Q9.32812 -2.34375 8 -0.96875
Q6.6875 0.390625 6.6875 2.59375
Q6.6875 4.04688 6.375 6.96875
Q6.0625 9.90625 6.0625 11.375
Q6.0625 16.4062 6.76562 25.3125
Q7.46875 34.2344 7.46875 39.2656
Q7.46875 40.8281 7.29688 43.8906
Q7.125 46.9688 7.125 48.5312
Q7.125 50.6406 8.51562 51.9844
Q9.90625 53.3281 11.9688 53.3281
Q16.4531 53.3281 16.8906 46.9688
L17.0469 41.2656
Q25.25 52.2031 33.8906 52.2031
Q41.7031 52.2031 44.7812 45.3125
Q46.875 40.7188 47.0781 31.7344
L47.0781 26.8125
L47.0156 22.2656
Q47.0156 18.2188 48.0625 11.7969
Q49.125 5.375 49.125 1.375
Q49.125 -0.78125 47.7344 -2.125
Q46.3438 -3.46875 44.2344 -3.46875" id="ComicSansMS-6e"/>
      <path d="
M68.7969 -4.04688
Q64.7969 -4.04688 64.1094 0.203125
Q63.2344 5.5625 62.3594 15.3281
L60.6875 30.4688
Q60.2031 33.8438 59.0312 37.0625
Q57.375 41.4531 55.4219 41.4531
Q53.6094 41.4531 48.6875 38.375
Q44 35.5469 42.5312 33.8438
Q42.4844 29.25 42.7812 24.6562
L44.2344 11.625
Q45.1719 3.90625 45.1719 -1.125
Q45.1719 -3.26562 43.8281 -4.65625
Q42.4844 -6.0625 40.375 -6.0625
Q38.2812 -6.0625 36.9375 -4.65625
Q35.5938 -3.26562 35.5938 -1.125
Q35.5938 4.78125 34.3906 16.3281
Q33.2031 27.875 33.2031 33.7969
Q33.2031 38.9688 31.7344 41.8438
Q28.3281 40.2812 24.8125 36.7656
L19.0469 30.3281
Q18.2656 29.1562 16.5469 27.25
Q16.5469 24.3125 16.0156 18.5938
Q15.4844 12.8906 15.4844 10.1562
Q15.4844 8.6875 15.9375 6.04688
Q16.4062 3.42188 16.4062 2.25
Q16.4062 0.25 14.9062 -1.10938
Q13.4219 -2.48438 11.4219 -2.48438
Q5.90625 -2.48438 5.90625 10.0625
Q5.90625 12.9844 6.4375 18.7969
Q6.98438 24.6094 6.98438 27.5469
Q6.98438 30.125 6.51562 35.2969
Q6.0625 40.4844 6.0625 43.1094
Q6.0625 54.2031 11.0312 54.2031
Q12.9375 54.2031 14.5156 52.5312
Q16.1094 50.875 16.1094 48.9219
Q16.1094 48 15.8594 46.0469
Q15.625 44.0938 15.625 43.0625
L15.7188 37.9375
Q18.2656 43.1719 23.1875 47.3906
Q28.125 51.6094 31.5938 51.6094
Q39.2656 51.6094 42.1406 44
Q44.8281 47.5625 48.5312 49.3438
Q52.25 51.125 57.0312 51.125
Q65.1875 51.125 68.1719 42.3281
Q68.75 40.5781 70.1719 28.6094
Q71.5312 20.2188 73.6875 0.640625
Q73.8281 -1.3125 72.3594 -2.67188
Q70.9062 -4.04688 68.7969 -4.04688" id="ComicSansMS-6d"/>
      <path d="
M47.4688 -2
Q44.7812 -2 43.3125 0.828125
Q40.7656 5.76562 35.6406 12.5
L27 24.2656
Q24.1719 22.0156 18.2188 17.9688
Q17.6719 10.4062 17.6719 3.21875
Q17.6719 1.03125 16.3281 -0.328125
Q14.9844 -1.70312 12.8906 -1.70312
Q7.95312 -1.70312 7.95312 4.9375
Q7.95312 8.98438 8.51562 17.0625
Q9.07812 25.1406 9.07812 29.2031
Q9.07812 36.625 9.29688 46.1719
Q9.51562 55.7188 9.51562 63.0312
Q9.51562 65.2344 9.29688 68.2031
Q9.07812 71.1875 9.07812 73.3906
Q9.07812 75.5938 10.4219 76.9531
Q11.7656 78.3281 13.875 78.3281
Q15.9688 78.3281 17.3125 76.9531
Q18.6562 75.5938 18.6562 73.3906
Q18.6562 71.1406 18.8906 68.0938
Q19.1406 65.0469 19.1406 62.7969
L18.7969 47.0781
Q18.5625 38.5781 18.6562 30.0781
Q25.2969 35.1562 31.4531 41.2188
L42.1875 52.2969
Q43.7969 53.9531 45.6562 53.9531
Q47.5625 53.9531 49.0938 52.4375
Q50.6406 50.9219 50.6406 48.9219
Q50.6406 47.2656 49.2188 45.6562
Q43.2188 38.625 34.4219 30.5625
L45.0625 16.0625
Q52.5469 5.85938 52.5469 2.78125
Q52.5469 0.828125 51 -0.578125
Q49.4688 -2 47.4688 -2" id="ComicSansMS-6b"/>
     </defs>
     <g transform="translate(193.56875 323.19375)scale(0.2 -0.2)">
      <use xlink:href="#ComicSansMS-64"/>
      <use x="58.740234375" xlink:href="#ComicSansMS-69"/>
      <use x="86.767578125" xlink:href="#ComicSansMS-73"/>
      <use x="135.44921875" xlink:href="#ComicSansMS-74"/>
      <use x="182.568359375" xlink:href="#ComicSansMS-61"/>
      <use x="233.740234375" xlink:href="#ComicSansMS-6e"/>
      <use x="286.083984375" xlink:href="#ComicSansMS-63"/>
      <use x="337.451171875" xlink:href="#ComicSansMS-65"/>
      <use x="392.236328125" xlink:href="#ComicSansMS-20"/>
      <use x="422.119140625" xlink:href="#ComicSansMS-5b"/>
      <use x="459.765625" xlink:href="#ComicSansMS-6b"/>
      <use x="513.76953125" xlink:href="#ComicSansMS-6d"/>
      <use x="591.455078125" xlink:href="#ComicSansMS-5d"/>
     </g>
    </g>
   </g>
   <g id="matplotlib.axis_2">
    <g id="ytick_1">
     <g id="line2d_14">
      <defs>
       <path d="
M0 0
L4 0" id="m728421d6d4" style="stroke:#000000;stroke-width:0.5;"/>
      </defs>
      <g>
       <use style="stroke:#000000;stroke-width:0.5;" x="83.34375" xlink:href="#m728421d6d4" y="277.09375"/>
      </g>
     </g>
     <g id="line2d_15">
      <defs>
       <path d="
M0 0
L-4 0" id="mcb0005524f" style="stroke:#000000;stroke-width:0.5;"/>
      </defs>
      <g>
       <use style="stroke:#000000;stroke-width:0.5;" x="428.94375" xlink:href="#mcb0005524f" y="277.09375"/>
      </g>
     </g>
     <g id="text_8">
      <!-- 0.00 -->
      <defs>
       <path d="
M13.0312 -4.54688
Q10.5 -4.54688 8.73438 -2.78125
Q6.98438 -1.03125 6.98438 1.51562
Q6.98438 4 8.73438 5.78125
Q10.5 7.5625 13.0312 7.5625
Q15.5312 7.5625 17.3125 5.78125
Q19.0938 4 19.0938 1.51562
Q19.0938 -1.03125 17.3125 -2.78125
Q15.5312 -4.54688 13.0312 -4.54688" id="ComicSansMS-2e"/>
      </defs>
      <g transform="translate(39.034375 282.1125)scale(0.2 -0.2)">
       <use xlink:href="#ComicSansMS-30"/>
       <use x="61.03515625" xlink:href="#ComicSansMS-2e"/>
       <use x="85.9375" xlink:href="#ComicSansMS-30"/>
       <use x="146.97265625" xlink:href="#ComicSansMS-30"/>
      </g>
     </g>
    </g>
    <g id="ytick_2">
     <g id="line2d_16">
      <g>
       <use style="stroke:#000000;stroke-width:0.5;" x="83.34375" xlink:href="#m728421d6d4" y="225.25375"/>
      </g>
     </g>
     <g id="line2d_17">
      <g>
       <use style="stroke:#000000;stroke-width:0.5;" x="428.94375" xlink:href="#mcb0005524f" y="225.25375"/>
      </g>
     </g>
     <g id="text_9">
      <!-- 0.02 -->
      <g transform="translate(39.784375 230.2725)scale(0.2 -0.2)">
       <use xlink:href="#ComicSansMS-30"/>
       <use x="61.03515625" xlink:href="#ComicSansMS-2e"/>
       <use x="85.9375" xlink:href="#ComicSansMS-30"/>
       <use x="146.97265625" xlink:href="#ComicSansMS-32"/>
      </g>
     </g>
    </g>
    <g id="ytick_3">
     <g id="line2d_18">
      <g>
       <use style="stroke:#000000;stroke-width:0.5;" x="83.34375" xlink:href="#m728421d6d4" y="173.41375"/>
      </g>
     </g>
     <g id="line2d_19">
      <g>
       <use style="stroke:#000000;stroke-width:0.5;" x="428.94375" xlink:href="#mcb0005524f" y="173.41375"/>
      </g>
     </g>
     <g id="text_10">
      <!-- 0.04 -->
      <g transform="translate(38.934375 178.4325)scale(0.2 -0.2)">
       <use xlink:href="#ComicSansMS-30"/>
       <use x="61.03515625" xlink:href="#ComicSansMS-2e"/>
       <use x="85.9375" xlink:href="#ComicSansMS-30"/>
       <use x="146.97265625" xlink:href="#ComicSansMS-34"/>
      </g>
     </g>
    </g>
    <g id="ytick_4">
     <g id="line2d_20">
      <g>
       <use style="stroke:#000000;stroke-width:0.5;" x="83.34375" xlink:href="#m728421d6d4" y="121.57375"/>
      </g>
     </g>
     <g id="line2d_21">
      <g>
       <use style="stroke:#000000;stroke-width:0.5;" x="428.94375" xlink:href="#mcb0005524f" y="121.57375"/>
      </g>
     </g>
     <g id="text_11">
      <!-- 0.06 -->
      <g transform="translate(39.715625 126.5925)scale(0.2 -0.2)">
       <use xlink:href="#ComicSansMS-30"/>
       <use x="61.03515625" xlink:href="#ComicSansMS-2e"/>
       <use x="85.9375" xlink:href="#ComicSansMS-30"/>
       <use x="146.97265625" xlink:href="#ComicSansMS-36"/>
      </g>
     </g>
    </g>
    <g id="ytick_5">
     <g id="line2d_22">
      <g>
       <use style="stroke:#000000;stroke-width:0.5;" x="83.34375" xlink:href="#m728421d6d4" y="69.73375"/>
      </g>
     </g>
     <g id="line2d_23">
      <g>
       <use style="stroke:#000000;stroke-width:0.5;" x="428.94375" xlink:href="#mcb0005524f" y="69.73375"/>
      </g>
     </g>
     <g id="text_12">
      <!-- 0.08 -->
      <g transform="translate(39.55 74.7525)scale(0.2 -0.2)">
       <use xlink:href="#ComicSansMS-30"/>
       <use x="61.03515625" xlink:href="#ComicSansMS-2e"/>
       <use x="85.9375" xlink:href="#ComicSansMS-30"/>
       <use x="146.97265625" xlink:href="#ComicSansMS-38"/>
      </g>
     </g>
    </g>
    <g id="ytick_6">
     <g id="line2d_24">
      <g>
       <use style="stroke:#000000;stroke-width:0.5;" x="83.34375" xlink:href="#m728421d6d4" y="17.89375"/>
      </g>
     </g>
     <g id="line2d_25">
      <g>
       <use style="stroke:#000000;stroke-width:0.5;" x="428.94375" xlink:href="#mcb0005524f" y="17.89375"/>
      </g>
     </g>
     <g id="text_13">
      <!-- 0.10 -->
      <g transform="translate(42.2375 22.9125)scale(0.2 -0.2)">
       <use xlink:href="#ComicSansMS-30"/>
       <use x="61.03515625" xlink:href="#ComicSansMS-2e"/>
       <use x="85.9375" xlink:href="#ComicSansMS-31"/>
       <use x="130.95703125" xlink:href="#ComicSansMS-30"/>
      </g>
     </g>
    </g>
    <g id="text_14">
     <!-- $p_{c}$ -->
     <defs>
      <path d="
M-2.48438 -19.3906
Q-3.42188 -19.3906 -3.42188 -18.1094
Q-3.07812 -15.9219 -2.09375 -15.9219
Q1.03125 -15.9219 2.26562 -15.3594
Q3.51562 -14.7969 4.20312 -12.5
L15.4844 32.5156
Q16.2188 34.375 16.2188 37.3125
Q16.2188 41.6094 13.2812 41.6094
Q10.1562 41.6094 8.64062 37.8594
Q7.125 34.125 5.71875 28.4219
Q5.71875 27.7812 4.89062 27.7812
L3.71875 27.7812
Q3.46875 27.7812 3.17188 28.1406
Q2.875 28.5156 2.875 28.8125
Q3.95312 33.1562 4.95312 36.1719
Q5.95312 39.2031 8.07812 41.6875
Q10.2031 44.1875 13.375 44.1875
Q16.7969 44.1875 19.375 42.25
Q21.9688 40.3281 22.7031 37.0156
Q25.4375 40.1875 28.75 42.1875
Q32.0781 44.1875 35.5938 44.1875
Q39.7969 44.1875 42.8906 41.9375
Q46 39.7031 47.5625 36.0625
Q49.125 32.4219 49.125 28.2188
Q49.125 21.7812 45.8281 14.8906
Q42.5312 8.01562 36.8906 3.4375
Q31.25 -1.125 24.8125 -1.125
Q21.875 -1.125 19.5 0.53125
Q17.1406 2.20312 15.8281 4.89062
L11.2812 -12.8906
Q11.0312 -14.3594 10.9844 -14.5938
Q10.9844 -15.9219 17.5781 -15.9219
Q18.6094 -15.9219 18.6094 -17.1875
Q18.2656 -18.5 18.0469 -18.9375
Q17.8281 -19.3906 16.8906 -19.3906
z

M24.9062 1.51562
Q28.375 1.51562 31.3438 4.375
Q34.3281 7.23438 36.1875 10.7969
Q37.5469 13.4844 38.7344 17.3594
Q39.9375 21.2344 40.8125 25.625
Q41.7031 30.0312 41.7031 32.625
Q41.7031 34.9062 41.0938 36.9062
Q40.4844 38.9219 39.0938 40.2656
Q37.7031 41.6094 35.4062 41.6094
Q31.7344 41.6094 28.4844 38.9844
Q25.25 36.375 22.6094 32.5156
L22.6094 32.1719
L17.0938 10.1094
Q17.7812 6.54688 19.7344 4.03125
Q21.6875 1.51562 24.9062 1.51562" id="Cmmi10-70"/>
      <path d="
M11.7188 11.9219
Q11.7188 7.5625 13.9375 4.53125
Q16.1562 1.51562 20.3125 1.51562
Q26.2656 1.51562 31.75 4.25
Q37.25 6.98438 40.7188 11.8125
Q41.0156 12.1094 41.5 12.1094
Q42 12.1094 42.5 11.5469
Q43.0156 10.9844 43.0156 10.5
Q43.0156 10.1094 42.8281 9.90625
Q39.1562 4.78125 32.9531 1.82812
Q26.7656 -1.125 20.125 -1.125
Q15.3281 -1.125 11.6719 1.14062
Q8.01562 3.42188 6 7.21875
Q4 11.0312 4 15.8281
Q4 22.5625 7.76562 29.2031
Q11.5312 35.8438 17.7812 40.0156
Q24.0312 44.1875 30.9062 44.1875
Q35.4062 44.1875 38.9844 42.0156
Q42.5781 39.8438 42.5781 35.5938
Q42.5781 32.8594 40.9844 30.9219
Q39.4062 29 36.7188 29
Q35.1094 29 34 30
Q32.9062 31 32.9062 32.625
Q32.9062 34.9688 34.6094 36.625
Q36.3281 38.2812 38.625 38.2812
L38.8125 38.2812
Q37.6406 39.9844 35.4219 40.7969
Q33.2031 41.6094 30.8125 41.6094
Q24.9531 41.6094 20.5469 36.5938
Q16.1562 31.5938 13.9375 24.625
Q11.7188 17.6719 11.7188 11.9219" id="Cmmi10-63"/>
     </defs>
     <g transform="translate(26.840625 157.61875)rotate(-90.0)scale(0.25 -0.25)">
      <use transform="translate(0.0 0.8125)" xlink:href="#Cmmi10-70"/>
      <use transform="translate(50.29296875 -24.696875)scale(0.7)" xlink:href="#Cmmi10-63"/>
     </g>
    </g>
   </g>
  </g>
 </g>
 <defs>
  <clipPath id="p028d3d8434">
   <rect height="259.2" width="345.6" x="83.34375" y="17.89375"/>
  </clipPath>
 </defs>
</svg>
